<?xml version="1.0" encoding="utf-8"?>
<!-- Generator: Adobe Illustrator 19.2.1, SVG Export Plug-In . SVG Version: 6.00 Build 0)  -->
<svg version="1.1" id="Layer_1" xmlns="http://www.w3.org/2000/svg" xmlns:xlink="http://www.w3.org/1999/xlink" x="0px" y="0px"
	 viewBox="0 0 374.4 245.3" style="enable-background:new 0 0 374.4 245.3;" xml:space="preserve">
<style type="text/css">
	.st0{fill:url(#SVGID_1_);}
	.st1{fill:url(#SVGID_2_);}
	.st2{fill:url(#SVGID_3_);}
	.st3{fill:url(#SVGID_4_);}
	.st4{fill:url(#SVGID_5_);}
	.st5{fill:url(#SVGID_6_);}
	.st6{fill:url(#SVGID_7_);}
	.st7{fill:url(#SVGID_8_);}
	.st8{fill:url(#SVGID_9_);}
	.st9{fill:url(#SVGID_10_);}
	.st10{fill:url(#SVGID_11_);}
	.st11{fill:url(#SVGID_12_);}
	.st12{fill:url(#SVGID_13_);}
	.st13{fill:url(#SVGID_14_);}
	.st14{fill:url(#SVGID_15_);}
	.st15{fill:url(#SVGID_16_);}
	.st16{fill:url(#SVGID_17_);}
	.st17{fill:url(#SVGID_18_);}
	.st18{fill:url(#SVGID_19_);}
	.st19{fill:url(#SVGID_20_);}
	.st20{fill:url(#SVGID_21_);}
	.st21{fill:url(#SVGID_22_);}
	.st22{fill:url(#SVGID_23_);}
	.st23{fill:url(#SVGID_24_);}
	.st24{fill:url(#SVGID_25_);}
	.st25{fill:url(#SVGID_26_);}
	.st26{fill:#FCE2CB;}
	.st27{fill:#FCE1CA;}
	.st28{fill:#FCE1C9;}
	.st29{fill:#FCE0C8;}
	.st30{fill:#FCDFC7;}
	.st31{fill:#FCDEC6;}
	.st32{fill:#FCDEC5;}
	.st33{fill:#FCDDC4;}
	.st34{fill:#FCDCC3;}
	.st35{fill:#FCDBC2;}
	.st36{fill:#FBDBC1;}
	.st37{fill:#FBDAC0;}
	.st38{fill:#FBD9BF;}
	.st39{fill:#FBD9BE;}
	.st40{fill:#FBD8BD;}
	.st41{fill:#FBD7BC;}
	.st42{fill:#FBD6BB;}
	.st43{fill:#FBD6BA;}
	.st44{fill:#FBD5B9;}
	.st45{fill:#FBD4B8;}
	.st46{fill:#FBD4B7;}
	.st47{fill:#FBD3B6;}
	.st48{fill:#FBD2B5;}
	.st49{fill:#FBD1B4;}
	.st50{fill:#FBD1B3;}
	.st51{fill:#FBD0B2;}
	.st52{fill:#FBCFB1;}
	.st53{fill:#FBCEB0;}
	.st54{fill:#FACEAF;}
	.st55{fill:#FACDAE;}
	.st56{fill:#FACCAD;}
	.st57{fill:#FACCAC;}
	.st58{fill:#FACBAB;}
	.st59{fill:#FACAAA;}
	.st60{fill:#FAC9A9;}
	.st61{fill:#FAC9A8;}
	.st62{fill:#FAC8A7;}
	.st63{fill:#FAC7A6;}
	.st64{fill:#FAC6A5;}
	.st65{fill:#FAC6A4;}
	.st66{fill:#FAC5A3;}
	.st67{fill:#FAC4A2;}
	.st68{fill:#FAC4A1;}
	.st69{fill:#FAC3A0;}
	.st70{fill:#FAC29F;}
	.st71{fill:#FAC19E;}
	.st72{fill:#F9C19D;}
	.st73{fill:#F9C09C;}
	.st74{fill:#F9BF9B;}
	.st75{fill:#F9BE9A;}
	.st76{fill:#F9BE99;}
	.st77{fill:#F9BD98;}
	.st78{fill:#F9BC97;}
	.st79{fill:#F9BC96;}
	.st80{fill:#F9BB95;}
	.st81{fill:#F9BA95;}
	.st82{fill:#F9B994;}
	.st83{fill:#F9B993;}
	.st84{fill:#F9B892;}
	.st85{fill:#F9B791;}
	.st86{fill:#F9B790;}
	.st87{fill:#F9B68F;}
	.st88{fill:#F9B58E;}
	.st89{fill:#F9B48D;}
	.st90{fill:#F8B48C;}
	.st91{fill:#F8B38B;}
	.st92{fill:#F8B28A;}
	.st93{fill:#F8B189;}
	.st94{fill:#F8B188;}
	.st95{fill:#F8B087;}
	.st96{fill:#F8AF86;}
	.st97{fill:#F8AF85;}
	.st98{fill:#F8AE84;}
	.st99{fill:#F8AD83;}
	.st100{fill:#F8AC82;}
	.st101{fill:#F8AC81;}
	.st102{fill:#F8AB80;}
	.st103{fill:#F8AA7F;}
	.st104{fill:#F8A97E;}
	.st105{fill:#F8A97D;}
	.st106{fill:#F8A87C;}
	.st107{fill:#F8A77B;}
	.st108{fill:#F7A77A;}
	.st109{fill:#F7A679;}
	.st110{fill:#F7A578;}
	.st111{fill:#F7A477;}
	.st112{fill:#F7A476;}
	.st113{fill:#F7A375;}
	.st114{fill:#F7A274;}
	.st115{fill:#F7A173;}
	.st116{fill:#F7A172;}
	.st117{fill:#F7A071;}
	.st118{fill:#F79F70;}
	.st119{fill:#F79F6F;}
	.st120{fill:#F79E6E;}
	.st121{fill:#F79D6D;}
	.st122{fill:#F79C6C;}
	.st123{fill:#F79C6B;}
	.st124{fill:#F79B6A;}
	.st125{fill:#F79A69;}
	.st126{fill:#F69A68;}
	.st127{fill:#F69967;}
	.st128{fill:#F69866;}
	.st129{fill:#F69765;}
	.st130{fill:#F69764;}
	.st131{fill:#F69663;}
	.st132{fill:#F69562;}
	.st133{fill:#F69461;}
	.st134{fill:#F69460;}
	.st135{fill:#F6935F;}
	.st136{fill:#FFFFFF;}
	.st137{fill:#885829;}
	.st138{fill:#080909;}
	.st139{fill:#FFECDE;}
	.st140{fill:url(#SVGID_27_);}
	.st141{fill:url(#SVGID_28_);}
	.st142{fill:#FFF2E6;}
	.st143{fill:#3D2314;}
	.st144{fill:#3E2314;}
	.st145{fill:#3F2414;}
	.st146{fill:#402414;}
	.st147{fill:#412414;}
	.st148{fill:#422514;}
	.st149{fill:#432514;}
	.st150{fill:#442614;}
	.st151{fill:#452614;}
	.st152{fill:#462614;}
	.st153{fill:#472714;}
	.st154{fill:#482714;}
	.st155{fill:#492714;}
	.st156{fill:#4A2814;}
	.st157{fill:#4B2814;}
	.st158{fill:#4C2914;}
	.st159{fill:#4C2913;}
	.st160{fill:#4D2913;}
	.st161{fill:#4E2A13;}
	.st162{fill:#4F2A13;}
	.st163{fill:#502A13;}
	.st164{fill:#512B13;}
	.st165{fill:#522B13;}
	.st166{fill:#532B13;}
	.st167{fill:#542C13;}
	.st168{fill:#552C13;}
	.st169{fill:#562D13;}
	.st170{fill:#572D13;}
	.st171{fill:#582D13;}
	.st172{fill:#592E13;}
	.st173{fill:#5A2E13;}
	.st174{fill:url(#SVGID_29_);}
	.st175{fill:#E8AC6F;}
	.st176{fill:url(#SVGID_30_);}
	.st177{fill:#A11D26;}
</style>
<g>
	<g>
		<g>
			
				<linearGradient id="SVGID_1_" gradientUnits="userSpaceOnUse" x1="-863.2234" y1="218.0401" x2="-863.2234" y2="210.1071" gradientTransform="matrix(-0.998 -6.340000e-02 -6.340000e-02 0.998 -616.6859 -22.4028)">
				<stop  offset="0" style="stop-color:#4B6C75"/>
				<stop  offset="1" style="stop-color:#011D22"/>
			</linearGradient>
			<path class="st0" d="M248.7,241l-0.2,3c0,0-16.2,4.4-34.1-3.2l0.2-3l9.7-2.8L248.7,241z"/>
			
				<linearGradient id="SVGID_2_" gradientUnits="userSpaceOnUse" x1="-865.0629" y1="197.958" x2="-860.3216" y2="217.2647" gradientTransform="matrix(-0.998 -6.340000e-02 -6.340000e-02 0.998 -616.6859 -22.4028)">
				<stop  offset="0" style="stop-color:#AEDEE4"/>
				<stop  offset="1" style="stop-color:#3D829E"/>
			</linearGradient>
			<path class="st1" d="M232,225.6c0,0,9.5,5.7,16.7,15.3c0,0-16.9,3.7-34.1-2.8c0,0-0.1-3.4,1.6-8.4L232,225.6z"/>
			<g>
				
					<linearGradient id="SVGID_3_" gradientUnits="userSpaceOnUse" x1="-852.2563" y1="217.5562" x2="-849.2081" y2="226.828" gradientTransform="matrix(-0.9997 -2.310000e-02 -2.320000e-02 0.9997 -608.5662 -9.864)">
					<stop  offset="0" style="stop-color:#C59ECC"/>
					<stop  offset="1" style="stop-color:#615C75"/>
				</linearGradient>
				<path class="st2" d="M229,233.9c1.7-2.3,4.9-4.5,7.9-3.8c0.8,0.2,1.1-1,0.4-1.2c-3.5-0.9-7.2,1.5-9.3,4.3
					C227.5,233.9,228.6,234.5,229,233.9z M231.3,235.7c-0.5,0.6,0.6,1.3,1,0.6c1.7-2.3,4.9-4.5,7.9-3.8c0.8,0.2,1.1-1,0.4-1.2
					C237,230.5,233.3,232.9,231.3,235.7z M234.5,238.2c-0.5,0.6,0.6,1.3,1,0.6c1.7-2.3,4.9-4.5,7.9-3.8c0.8,0.2,1.1-1,0.4-1.2
					C240.2,233,236.5,235.4,234.5,238.2z"/>
				
					<linearGradient id="SVGID_4_" gradientUnits="userSpaceOnUse" x1="-861.7094" y1="206.3202" x2="-869.332" y2="198.8662" gradientTransform="matrix(-0.998 -6.340000e-02 -6.340000e-02 0.998 -616.6859 -22.4028)">
					<stop  offset="0" style="stop-color:#A3ADB1"/>
					<stop  offset="1" style="stop-color:#D4E5DE"/>
				</linearGradient>
				<path class="st3" d="M229.2,232.7c1.8-2.3,5.1-4.3,8-3.5c0.8,0.2,1.2-0.9,0.4-1.2c-3.5-1-7.3,1.2-9.4,3.9
					C227.7,232.7,228.7,233.4,229.2,232.7z M231.4,234.6c-0.5,0.6,0.5,1.3,1,0.7c1.8-2.3,5.1-4.3,8-3.5c0.8,0.2,1.2-0.9,0.4-1.2
					C237.3,229.7,233.6,231.9,231.4,234.6z M234.5,237.2c-0.5,0.6,0.5,1.3,1,0.7c1.8-2.3,5.1-4.3,8-3.5c0.8,0.2,1.2-0.9,0.4-1.2
					C240.4,232.3,236.6,234.5,234.5,237.2z"/>
			</g>
		</g>
		<g>
			<linearGradient id="SVGID_5_" gradientUnits="userSpaceOnUse" x1="138.3916" y1="247.9311" x2="138.3916" y2="239.9989">
				<stop  offset="0" style="stop-color:#4B6C75"/>
				<stop  offset="1" style="stop-color:#011D22"/>
			</linearGradient>
			<path class="st4" d="M121.3,237.9v3c0,0,15.9,5.4,34.2-1v-3l-9.5-3.4L121.3,237.9z"/>
			<linearGradient id="SVGID_6_" gradientUnits="userSpaceOnUse" x1="136.5524" y1="227.8505" x2="141.2935" y2="247.1563">
				<stop  offset="0" style="stop-color:#AEDEE4"/>
				<stop  offset="1" style="stop-color:#3D829E"/>
			</linearGradient>
			<path class="st5" d="M138.9,223.6c0,0-9.8,5.1-17.6,14.2c0,0,16.6,4.7,34.2-0.7c0,0,0.3-3.4-1-8.5L138.9,223.6z"/>
			<g>
				
					<linearGradient id="SVGID_7_" gradientUnits="userSpaceOnUse" x1="149.9122" y1="206.8043" x2="152.9604" y2="216.0758" gradientTransform="matrix(0.9992 4.030000e-02 -4.030000e-02 0.9992 -9.0163 12.212)">
					<stop  offset="0" style="stop-color:#C59ECC"/>
					<stop  offset="1" style="stop-color:#615C75"/>
				</linearGradient>
				<path class="st6" d="M142.4,231.5c-1.8-2.9-5.4-5.5-9-4.9c-0.8,0.1-0.5,1.3,0.3,1.2c3-0.5,6.1,1.8,7.6,4.3
					C141.8,232.7,142.9,232.2,142.4,231.5z M130,228.8c-0.8,0.1-0.5,1.3,0.3,1.2c3-0.5,6.1,1.8,7.6,4.3c0.4,0.7,1.5,0.1,1.1-0.6
					C137.1,230.8,133.6,228.2,130,228.8z M126.7,231.1c-0.8,0.1-0.5,1.3,0.3,1.2c3-0.5,6.1,1.8,7.6,4.3c0.4,0.7,1.5,0.1,1.1-0.6
					C133.8,233,130.3,230.4,126.7,231.1z"/>
				<linearGradient id="SVGID_8_" gradientUnits="userSpaceOnUse" x1="139.905" y1="236.2114" x2="132.2824" y2="228.7575">
					<stop  offset="0" style="stop-color:#A3ADB1"/>
					<stop  offset="1" style="stop-color:#D4E5DE"/>
				</linearGradient>
				<path class="st7" d="M142.3,230.3c-1.9-2.8-5.6-5.3-9.2-4.5c-0.8,0.2-0.4,1.3,0.3,1.2c3-0.7,6.2,1.6,7.8,4
					C141.7,231.5,142.8,230.9,142.3,230.3z M129.8,228.1c-0.8,0.2-0.4,1.3,0.3,1.2c3-0.7,6.2,1.6,7.8,4c0.4,0.6,1.5,0,1.1-0.6
					C137,229.8,133.3,227.3,129.8,228.1z M126.5,230.5c-0.8,0.2-0.4,1.3,0.3,1.2c3-0.7,6.2,1.6,7.8,4c0.4,0.6,1.5,0,1.1-0.6
					C133.8,232.2,130.1,229.7,126.5,230.5z"/>
			</g>
		</g>
		<g>
			<linearGradient id="SVGID_9_" gradientUnits="userSpaceOnUse" x1="185.6905" y1="192.0166" x2="185.6905" y2="108.9126">
				<stop  offset="0" style="stop-color:#4B6C75"/>
				<stop  offset="1" style="stop-color:#011D22"/>
			</linearGradient>
			<path class="st8" d="M241.7,143.4c-1.3-7.4-5.4-14.4-10.8-19.7c-5.8-5.8-13.3-9.6-20.9-12.5c-14.6-5.5-30.3-4.7-45,0.3
				c-13.7,4.6-26.2,13.6-32.3,27.1c-7.1,15.9-1.7,24.1,1.4,28.8c3,4.7,7.5,4.7,7.5,4.7s-1-8.8-1-8.8c-0.5-4.6-3-9.3-1.2-13.9
				c1.7-4.2,6.9-9,11.4-9.5c-3.6,13.7-5.4,28.1-5.4,28.1l4.1,12.9c0,0,22.4,4.1,25.1,3.4c2.7-0.7,27.8-3.4,27.8-3.4l21.7-8.1
				c0,0,0-10.8-7.5-40c0-0.2-0.1-0.3-0.1-0.5c3.1,2.4,9,7.7,11.1,14c2.9,8.6-2.2,17.1-2.2,17.1s9,4.1,9,4.1c0.9,0.4,5-8.1,5.6-9.2
				C242.1,153.5,242.5,148.4,241.7,143.4z"/>
			<linearGradient id="SVGID_10_" gradientUnits="userSpaceOnUse" x1="185.7352" y1="192.0113" x2="185.7352" y2="108.915">
				<stop  offset="0" style="stop-color:#AEDEE4"/>
				<stop  offset="1" style="stop-color:#3D829E"/>
			</linearGradient>
			<path class="st9" d="M174.5,184.3c1-0.3,5.1-0.8,9.9-1.4h-22.9C167.2,183.9,173.2,184.7,174.5,184.3z M132.4,164.5
				c0.6,1.1,1.2,2.1,1.8,2.9c0.3,0.4,0.6,0.8,0.9,1.1h6.2c-0.2-1.5-0.4-3-0.5-4.1H132.4z M234.3,167.6c0.4,0.2,1.4-1.3,2.4-3.1h-9.3
				C230,165.7,234.2,167.6,234.3,167.6z M138.9,155.2h-9.5c0.1,1.5,0.4,2.8,0.8,4.1h9.6C139.4,157.9,139.1,156.6,138.9,155.2z
				 M227.1,159.3h12.3c0.2-0.4,0.4-0.8,0.4-0.9c0.5-1,0.9-2.1,1.2-3.2h-12.9C227.9,156.7,227.5,158.1,227.1,159.3z M242,146h-14.7
				c0.1,0.2,0.1,0.3,0.2,0.5c0.4,1.2,0.6,2.4,0.8,3.6H242C242.1,148.7,242.1,147.3,242,146z M129.5,150h9.7c0.1-0.2,0.1-0.4,0.2-0.6
				c0.5-1.2,1.2-2.4,2.1-3.5h-11.3C129.9,147.4,129.6,148.7,129.5,150z M217.4,136.7h-83.7c-0.3,0.6-0.6,1.3-0.9,1.9
				c-0.3,0.7-0.6,1.4-0.9,2.1h86.5C218.1,139.4,217.8,138.1,217.4,136.7z M239.7,136.7h-18.6c1.2,1.2,2.3,2.6,3.4,4.1h16.6
				C240.7,139.4,240.2,138,239.7,136.7z M234.2,127.4h-94.1c-1.1,1.3-2.2,2.6-3.2,4.1H237C236.2,130.1,235.2,128.7,234.2,127.4z
				 M224.1,118.2H151c-1.9,1.2-3.8,2.6-5.6,4.1h83.9C227.7,120.8,225.9,119.4,224.1,118.2z M210,111.2c-2.5-1-5.1-1.7-7.7-2.3h-27.8
				c-3.2,0.7-6.3,1.5-9.4,2.6c-1.3,0.5-2.7,1-4,1.5h53.2C212.9,112.4,211.5,111.8,210,111.2z M146.7,159.3h75.6
				c-0.2-1.3-0.5-2.6-0.7-4.1h-74.1C147.1,156.6,146.9,158,146.7,159.3z M145.8,164.5c-0.3,2.3-0.5,3.6-0.5,3.6l0.1,0.5h78.1
				c-0.1-1.1-0.3-2.5-0.5-4.1H145.8z M148.4,177.8h62.3l10.8-4.1h-74.4L148.4,177.8z M149.3,146c-0.3,1.4-0.6,2.7-0.9,4.1h72.1
				c-0.3-1.3-0.6-2.6-0.9-4.1H149.3z"/>
			<g>
				<linearGradient id="SVGID_11_" gradientUnits="userSpaceOnUse" x1="183.6275" y1="159.9549" x2="183.6275" y2="131.1611">
					<stop  offset="0" style="stop-color:#4B6C75"/>
					<stop  offset="1" style="stop-color:#011D22"/>
				</linearGradient>
				<path class="st10" d="M178.1,141c1.7,1.6,4.4,1.6,6.2,0.1c10.8-9.6,15.3-17.4,20.1-25.8l2.3-3.9c0.2-0.4,0.3-0.7,0.4-1.1
					c-13.8-4.4-28.4-3.4-42,1.3c-1.7,0.6-3.3,1.2-4.9,1.9C163,127,177.5,140.4,178.1,141z"/>
				<linearGradient id="SVGID_12_" gradientUnits="userSpaceOnUse" x1="183.5849" y1="145.7235" x2="183.5849" y2="117.2704">
					<stop  offset="0" style="stop-color:#706971"/>
					<stop  offset="0.1454" style="stop-color:#787279"/>
					<stop  offset="0.3873" style="stop-color:#8C8C90"/>
					<stop  offset="0.6937" style="stop-color:#ADB5B4"/>
					<stop  offset="1" style="stop-color:#D4E5DE"/>
				</linearGradient>
				<path class="st11" d="M181.2,137.6c11.9-10.5,15.6-18.6,21.4-28.6c-12.4-2.9-25.4-1.7-37.6,2.5c-0.2,0.1-0.4,0.1-0.6,0.2
					C166.6,124.2,181.2,137.6,181.2,137.6z"/>
				<linearGradient id="SVGID_13_" gradientUnits="userSpaceOnUse" x1="183.2784" y1="143.1278" x2="183.2784" y2="116.6995">
					<stop  offset="0" style="stop-color:#A3ADB1"/>
					<stop  offset="1" style="stop-color:#D4E5DE"/>
				</linearGradient>
				<path class="st12" d="M166.6,112.6c2.4,8.8,11.5,17.9,14.6,20.8c9.1-7.8,13.1-14.1,17.6-21.4c0,0,0.5-0.9,1.1-1.7
					C189.4,108.4,178,109.2,166.6,112.6z"/>
			</g>
		</g>
		<g>
			<linearGradient id="SVGID_14_" gradientUnits="userSpaceOnUse" x1="186.3223" y1="136.2378" x2="186.3223" y2="218.2113">
				<stop  offset="0" style="stop-color:#A3ADB1"/>
				<stop  offset="1" style="stop-color:#D4E5DE"/>
			</linearGradient>
			<path class="st13" d="M153.8,174.9c0,0,20.3,10.5,58.9-1.7l10.5,1l2,3c0,0-1.4,19,8.5,49.5c0,0-7.8,4.4-17.6,3.4L205,196.5
				c0,0-22,4.4-43.7-1.7c0,0-1.4,18.6-7.1,33.9c0,0-7.1,1-15.2-4.7c0,0,7.4-31.2,1.7-46.4l2.4-4.4l4.4-1.4L153.8,174.9z"/>
			<linearGradient id="SVGID_15_" gradientUnits="userSpaceOnUse" x1="148.3555" y1="190.6047" x2="147.8474" y2="204.4923">
				<stop  offset="0" style="stop-color:#A3ADB1"/>
				<stop  offset="1" style="stop-color:#D4E5DE"/>
			</linearGradient>
			<path class="st14" d="M151.6,176.9l0.6,1.8C152.4,178,152.2,177.3,151.6,176.9z M152.4,180.1l0.5,2.2
				C153.3,181.6,153.3,180.4,152.4,180.1z M153,183.7l-0.3,1.7C153.1,184.9,153.6,184.7,153,183.7z M151.8,186.4l-1.5,0.5
				C150.8,186.9,151.3,187,151.8,186.4z M148.6,186.9l-2-0.3C147.6,187.1,148,187,148.6,186.9z M145.5,186.4l-1.7-0.7
				C144.4,186.4,144.9,186.3,145.5,186.4z"/>
			
				<linearGradient id="SVGID_16_" gradientUnits="userSpaceOnUse" x1="-743.9575" y1="191.6699" x2="-744.5068" y2="206.6858" gradientTransform="matrix(-1.0695 0 0 1 -579.6331 0)">
				<stop  offset="0" style="stop-color:#A3ADB1"/>
				<stop  offset="1" style="stop-color:#D4E5DE"/>
			</linearGradient>
			<path class="st15" d="M211,176.9l-1,1.9C209.7,178.1,210,177.4,211,176.9z M209.6,180.3l-0.8,2.4
				C208.3,181.9,208.3,180.7,209.6,180.3z M208.7,184.3l0.5,1.8C208.6,185.5,207.7,185.3,208.7,184.3z M210.7,187.1l2.4,0.5
				C212.2,187.7,211.5,187.8,210.7,187.1z M215.8,187.6l3.2-0.4C217.3,187.9,216.7,187.8,215.8,187.6z M220.6,187.1l2.7-0.7
				C222.4,187.1,221.6,187,220.6,187.1z"/>
			<linearGradient id="SVGID_17_" gradientUnits="userSpaceOnUse" x1="214.6907" y1="179.5795" x2="215.1988" y2="190.1216">
				<stop  offset="0" style="stop-color:#8C999F"/>
				<stop  offset="1" style="stop-color:#D4E5DE"/>
			</linearGradient>
			<path class="st16" d="M205.2,177.8c0,0-0.4,1.4,1.8,0.8c2.2-0.6,4.2-3.4,7.9-2.9c3.7,0.5,9.1,1.4,9.1,1.4l-2.3-2.4
				c0,0-3.7-1.5-5.3-1.5c-1.7,0-4.6-0.1-6,0.3C209,173.8,205.2,177.8,205.2,177.8z"/>
			<linearGradient id="SVGID_18_" gradientUnits="userSpaceOnUse" x1="150.2285" y1="184.5942" x2="151.2445" y2="203.8984">
				<stop  offset="0" style="stop-color:#8C999F"/>
				<stop  offset="1" style="stop-color:#D4E5DE"/>
			</linearGradient>
			<path class="st17" d="M144.5,176.2c0,0,3.2-0.8,5.5,0.1c2.3,0.9,2.5,2.5,3.6,2.7c1,0.1,2.8-0.5,0.6-3.6c-2.2-3-5.2-3.3-5.8-3.2
				C147.7,172.4,144.5,176.2,144.5,176.2z"/>
			<linearGradient id="SVGID_19_" gradientUnits="userSpaceOnUse" x1="186.6069" y1="188.0665" x2="186.6069" y2="236.8466">
				<stop  offset="0" style="stop-color:#A3ADB1"/>
				<stop  offset="1" style="stop-color:#D4E5DE"/>
			</linearGradient>
			<path class="st18" d="M154.1,228.7c5.8-15.2,7.1-33.9,7.1-33.9c21.7,6.1,43.7,1.7,43.7,1.7l11.2,33.5c2.6,0.3,5.1,0.2,7.3-0.2
				c-0.1-0.1-0.1-0.1-0.2-0.2c-4.7-4.4-14.2-35.2-14.2-35.2l2.7-2.7c0,0-19.6,4.1-35.6,3.4c-15.9-0.7-24.4-6.1-24.4-6.1l3.4,3.4
				c2.2,14.1-4.6,34.1-5.4,36.1C152.5,228.9,154.1,228.7,154.1,228.7z"/>
			<linearGradient id="SVGID_20_" gradientUnits="userSpaceOnUse" x1="176.6577" y1="191.9676" x2="177.1658" y2="204.6691">
				<stop  offset="0" style="stop-color:#A3ADB1"/>
				<stop  offset="1" style="stop-color:#D4E5DE"/>
			</linearGradient>
			<path class="st19" d="M176.2,195.2c0,0-2.5-7.7-1.2-13.8l3-0.3l-2,1c0,0-0.8,7.6,1.8,13L176.2,195.2z"/>
		</g>
		<linearGradient id="SVGID_21_" gradientUnits="userSpaceOnUse" x1="225.4274" y1="224.8854" x2="234.1191" y2="224.8854">
			<stop  offset="0" style="stop-color:#AEDEE4"/>
			<stop  offset="1" style="stop-color:#3D829E"/>
		</linearGradient>
		<path class="st20" d="M234.1,227.3c-0.8-1.9-0.4-4.9-1.9-6.3c-1.8-1.7-5-0.5-6.1,1.4c-1.2,2-0.5,5.1-0.1,7.3c0,0,4.7-0.4,7.3-1.6
			L234.1,227.3z"/>
		<linearGradient id="SVGID_22_" gradientUnits="userSpaceOnUse" x1="137.9238" y1="222.6319" x2="146.9476" y2="222.6319">
			<stop  offset="0" style="stop-color:#AEDEE4"/>
			<stop  offset="1" style="stop-color:#3D829E"/>
		</linearGradient>
		<path class="st21" d="M137.9,224c1.1-1.7,1.2-4.8,2.9-5.9c2-1.4,5,0.3,5.8,2.4c0.9,2.2-0.4,5.1-1.1,7.2c0,0-4.6-1.2-7-2.8
			L137.9,224z"/>
		<linearGradient id="SVGID_23_" gradientUnits="userSpaceOnUse" x1="220.4525" y1="169.8418" x2="227.2264" y2="157.6474">
			<stop  offset="0" style="stop-color:#FCC9A1"/>
			<stop  offset="1" style="stop-color:#E08154"/>
		</linearGradient>
		<path class="st22" d="M234.4,167.4l-9.1-4.1l-3,3.6c0,0-9.1-1.5-12.7,4.6c0,0-7.1,4.6-5.1,6.1c2,1.5,4.6-3,9.1-2.5
			c4.6,0.5,11.7,2.5,11.7,2.5S231.9,173,234.4,167.4z"/>
		<linearGradient id="SVGID_24_" gradientUnits="userSpaceOnUse" x1="143.4459" y1="168.9739" x2="139.382" y2="158.8141">
			<stop  offset="0" style="stop-color:#FCC9A1"/>
			<stop  offset="1" style="stop-color:#E08154"/>
		</linearGradient>
		<path class="st23" d="M134.3,167.4l6.2-4.1l2.1,3.6c0,0,6.2-1.5,8.7,4.6c0,0,4.9,4.6,3.5,6.1c-1.4,1.5-3.1-3-6.2-2.5
			c-3.1,0.5-8,2.5-8,2.5S136,173,134.3,167.4z"/>
	</g>
	<g>
		<radialGradient id="SVGID_25_" cx="181.9664" cy="113.4975" r="13.6402" gradientUnits="userSpaceOnUse">
			<stop  offset="0.3132" style="stop-color:#FCE2CB"/>
			<stop  offset="0.6253" style="stop-color:#FCE1C7"/>
			<stop  offset="0.7088" style="stop-color:#FCE0C5"/>
			<stop  offset="1" style="stop-color:#FDCB84"/>
		</radialGradient>
		<path class="st24" d="M165.8,105c0,0-1.7,19.5,14,18.8c15.7-0.7,20.9-10.9,17.4-17.4C193.8,99.9,165.8,105,165.8,105z"/>
		<g>
			<radialGradient id="SVGID_26_" cx="182.5459" cy="60.3955" r="71.8561" gradientUnits="userSpaceOnUse">
				<stop  offset="0" style="stop-color:#FFF5E7"/>
				<stop  offset="0.3132" style="stop-color:#FCE2CB"/>
				<stop  offset="0.6253" style="stop-color:#FCE1C7"/>
				<stop  offset="0.7088" style="stop-color:#FCE0C5"/>
				<stop  offset="1" style="stop-color:#FDCB84"/>
			</radialGradient>
			<path class="st25" d="M139.9,102.8c0,0-7.7-3.8-12-12.1c-4.3-8.4,0-24.5,2.4-30.3c2.4-5.8,13.7-24.6,32.7-27
				c19-2.4,39.2-4.6,59.2,8.7c20,13.3,19.7,41.9,13.2,51.5c-6.5,9.6-19.5,14.2-26.3,15c-6.8,0.9-18.6,1.1-25.4,0.9
				c-6.8-0.2-21.1,0.5-26.6-0.4C151.6,108.3,142.9,104.5,139.9,102.8z"/>
			<g>
				<ellipse class="st26" cx="212.1" cy="84.8" rx="12.9" ry="12.1"/>
				<ellipse class="st27" cx="212.1" cy="84.8" rx="12.9" ry="12.1"/>
				<ellipse class="st28" cx="212.1" cy="84.8" rx="12.8" ry="12"/>
				<ellipse class="st29" cx="212.1" cy="84.8" rx="12.7" ry="11.9"/>
				<ellipse class="st30" cx="212.1" cy="84.8" rx="12.7" ry="11.9"/>
				<ellipse class="st31" cx="212.1" cy="84.8" rx="12.6" ry="11.8"/>
				<ellipse class="st32" cx="212.1" cy="84.8" rx="12.5" ry="11.7"/>
				<ellipse class="st33" cx="212.1" cy="84.8" rx="12.5" ry="11.7"/>
				<ellipse class="st34" cx="212.1" cy="84.8" rx="12.4" ry="11.6"/>
				<ellipse class="st35" cx="212.1" cy="84.8" rx="12.3" ry="11.5"/>
				<ellipse class="st36" cx="212.1" cy="84.8" rx="12.3" ry="11.5"/>
				<ellipse class="st37" cx="212.1" cy="84.8" rx="12.2" ry="11.4"/>
				<ellipse class="st38" cx="212.1" cy="84.8" rx="12.1" ry="11.3"/>
				<ellipse class="st39" cx="212.1" cy="84.8" rx="12.1" ry="11.3"/>
				<ellipse class="st40" cx="212.1" cy="84.8" rx="12" ry="11.2"/>
				<ellipse class="st41" cx="212.1" cy="84.8" rx="11.9" ry="11.2"/>
				<ellipse class="st42" cx="212.1" cy="84.8" rx="11.8" ry="11.1"/>
				<ellipse class="st43" cx="212.1" cy="84.8" rx="11.8" ry="11"/>
				<ellipse class="st44" cx="212.1" cy="84.8" rx="11.7" ry="11"/>
				<ellipse class="st45" cx="212.1" cy="84.8" rx="11.6" ry="10.9"/>
				<ellipse class="st46" cx="212.1" cy="84.8" rx="11.6" ry="10.8"/>
				<ellipse class="st47" cx="212.1" cy="84.8" rx="11.5" ry="10.8"/>
				<ellipse class="st48" cx="212.1" cy="84.8" rx="11.4" ry="10.7"/>
				<ellipse class="st49" cx="212.1" cy="84.8" rx="11.4" ry="10.6"/>
				<ellipse class="st50" cx="212.1" cy="84.8" rx="11.3" ry="10.6"/>
				<ellipse class="st51" cx="212.1" cy="84.8" rx="11.2" ry="10.5"/>
				<ellipse class="st52" cx="212.1" cy="84.8" rx="11.2" ry="10.5"/>
				<ellipse class="st53" cx="212.1" cy="84.8" rx="11.1" ry="10.4"/>
				<ellipse class="st54" cx="212.1" cy="84.8" rx="11" ry="10.3"/>
				<ellipse class="st55" cx="212.1" cy="84.8" rx="11" ry="10.3"/>
				<ellipse class="st56" cx="212.1" cy="84.8" rx="10.9" ry="10.2"/>
				<ellipse class="st57" cx="212.1" cy="84.8" rx="10.8" ry="10.1"/>
				<ellipse class="st58" cx="212.1" cy="84.8" rx="10.8" ry="10.1"/>
				<ellipse class="st59" cx="212.1" cy="84.8" rx="10.7" ry="10"/>
				<ellipse class="st60" cx="212.1" cy="84.8" rx="10.6" ry="9.9"/>
				<ellipse class="st61" cx="212.1" cy="84.8" rx="10.5" ry="9.9"/>
				<ellipse class="st62" cx="212.1" cy="84.8" rx="10.5" ry="9.8"/>
				<ellipse class="st63" cx="212.1" cy="84.8" rx="10.4" ry="9.7"/>
				<ellipse class="st64" cx="212.1" cy="84.8" rx="10.3" ry="9.7"/>
				<ellipse class="st65" cx="212.1" cy="84.8" rx="10.3" ry="9.6"/>
				<ellipse class="st66" cx="212.1" cy="84.8" rx="10.2" ry="9.6"/>
				<ellipse class="st67" cx="212.1" cy="84.8" rx="10.1" ry="9.5"/>
				<ellipse class="st68" cx="212.1" cy="84.8" rx="10.1" ry="9.4"/>
				<ellipse class="st69" cx="212.1" cy="84.8" rx="10" ry="9.4"/>
				<ellipse class="st70" cx="212.1" cy="84.8" rx="9.9" ry="9.3"/>
				<ellipse class="st71" cx="212.1" cy="84.8" rx="9.9" ry="9.2"/>
				<ellipse class="st72" cx="212.1" cy="84.8" rx="9.8" ry="9.2"/>
				<ellipse class="st73" cx="212.1" cy="84.8" rx="9.7" ry="9.1"/>
				<ellipse class="st74" cx="212.1" cy="84.8" rx="9.7" ry="9"/>
				<ellipse class="st75" cx="212.1" cy="84.8" rx="9.6" ry="9"/>
				<ellipse class="st76" cx="212.1" cy="84.8" rx="9.5" ry="8.9"/>
				<ellipse class="st77" cx="212.1" cy="84.8" rx="9.5" ry="8.9"/>
				<ellipse class="st78" cx="212.1" cy="84.8" rx="9.4" ry="8.8"/>
				<ellipse class="st79" cx="212.1" cy="84.8" rx="9.3" ry="8.7"/>
				<ellipse class="st80" cx="212.1" cy="84.8" rx="9.3" ry="8.7"/>
				<ellipse class="st81" cx="212.1" cy="84.8" rx="9.2" ry="8.6"/>
				<ellipse class="st82" cx="212.1" cy="84.8" rx="9.1" ry="8.5"/>
				<ellipse class="st83" cx="212.1" cy="84.8" rx="9" ry="8.5"/>
				<ellipse class="st84" cx="212.1" cy="84.8" rx="9" ry="8.4"/>
				<ellipse class="st85" cx="212.1" cy="84.8" rx="8.9" ry="8.3"/>
				<ellipse class="st86" cx="212.1" cy="84.8" rx="8.8" ry="8.3"/>
				<ellipse class="st87" cx="212.1" cy="84.8" rx="8.8" ry="8.2"/>
				<ellipse class="st88" cx="212.1" cy="84.8" rx="8.7" ry="8.1"/>
				<ellipse class="st89" cx="212.1" cy="84.8" rx="8.6" ry="8.1"/>
				<ellipse class="st90" cx="212.1" cy="84.8" rx="8.6" ry="8"/>
				<ellipse class="st91" cx="212.1" cy="84.8" rx="8.5" ry="8"/>
				<ellipse class="st92" cx="212.1" cy="84.8" rx="8.4" ry="7.9"/>
				<ellipse class="st93" cx="212.1" cy="84.8" rx="8.4" ry="7.8"/>
				<ellipse class="st94" cx="212.1" cy="84.8" rx="8.3" ry="7.8"/>
				<ellipse class="st95" cx="212.1" cy="84.8" rx="8.2" ry="7.7"/>
				<ellipse class="st96" cx="212.1" cy="84.8" rx="8.2" ry="7.6"/>
				<ellipse class="st97" cx="212.1" cy="84.8" rx="8.1" ry="7.6"/>
				<ellipse class="st98" cx="212.1" cy="84.8" rx="8" ry="7.5"/>
				<ellipse class="st99" cx="212.1" cy="84.8" rx="8" ry="7.4"/>
				<ellipse class="st100" cx="212.1" cy="84.8" rx="7.9" ry="7.4"/>
				<ellipse class="st101" cx="212.1" cy="84.8" rx="7.8" ry="7.3"/>
				<ellipse class="st102" cx="212.1" cy="84.8" rx="7.7" ry="7.3"/>
				<ellipse class="st103" cx="212.1" cy="84.8" rx="7.7" ry="7.2"/>
				<ellipse class="st104" cx="212.1" cy="84.8" rx="7.6" ry="7.1"/>
				<ellipse class="st105" cx="212.1" cy="84.8" rx="7.5" ry="7.1"/>
				<ellipse class="st106" cx="212.1" cy="84.8" rx="7.5" ry="7"/>
				<ellipse class="st107" cx="212.1" cy="84.8" rx="7.4" ry="6.9"/>
				<ellipse class="st108" cx="212.1" cy="84.8" rx="7.3" ry="6.9"/>
				<ellipse class="st109" cx="212.1" cy="84.8" rx="7.3" ry="6.8"/>
				<ellipse class="st110" cx="212.1" cy="84.8" rx="7.2" ry="6.7"/>
				<ellipse class="st111" cx="212.1" cy="84.8" rx="7.1" ry="6.7"/>
				<ellipse class="st112" cx="212.1" cy="84.8" rx="7.1" ry="6.6"/>
				<ellipse class="st113" cx="212.1" cy="84.8" rx="7" ry="6.5"/>
				<ellipse class="st114" cx="212.1" cy="84.8" rx="6.9" ry="6.5"/>
				<ellipse class="st115" cx="212.1" cy="84.8" rx="6.9" ry="6.4"/>
				<ellipse class="st116" cx="212.1" cy="84.8" rx="6.8" ry="6.4"/>
				<ellipse class="st117" cx="212.1" cy="84.8" rx="6.7" ry="6.3"/>
				<ellipse class="st118" cx="212.1" cy="84.8" rx="6.7" ry="6.2"/>
				<ellipse class="st119" cx="212.1" cy="84.8" rx="6.6" ry="6.2"/>
				<ellipse class="st120" cx="212.1" cy="84.8" rx="6.5" ry="6.1"/>
				<ellipse class="st121" cx="212.1" cy="84.8" rx="6.4" ry="6"/>
				<ellipse class="st122" cx="212.1" cy="84.8" rx="6.4" ry="6"/>
				<ellipse class="st123" cx="212.1" cy="84.8" rx="6.3" ry="5.9"/>
				<ellipse class="st124" cx="212.1" cy="84.8" rx="6.2" ry="5.8"/>
				<ellipse class="st125" cx="212.1" cy="84.8" rx="6.2" ry="5.8"/>
				<ellipse class="st126" cx="212.1" cy="84.8" rx="6.1" ry="5.7"/>
				<ellipse class="st127" cx="212.1" cy="84.8" rx="6" ry="5.7"/>
				<ellipse class="st128" cx="212.1" cy="84.8" rx="6" ry="5.6"/>
				<ellipse class="st129" cx="212.1" cy="84.8" rx="5.9" ry="5.5"/>
				<ellipse class="st130" cx="212.1" cy="84.8" rx="5.8" ry="5.5"/>
				<ellipse class="st131" cx="212.1" cy="84.8" rx="5.8" ry="5.4"/>
				<ellipse class="st132" cx="212.1" cy="84.8" rx="5.7" ry="5.3"/>
				<ellipse class="st133" cx="212.1" cy="84.8" rx="5.6" ry="5.3"/>
				<ellipse class="st134" cx="212.1" cy="84.8" rx="5.6" ry="5.2"/>
				<ellipse class="st135" cx="212.1" cy="84.8" rx="5.5" ry="5.1"/>
			</g>
			<g>
				<ellipse class="st26" cx="153.4" cy="84.8" rx="12.9" ry="12.1"/>
				<ellipse class="st27" cx="153.4" cy="84.8" rx="12.9" ry="12.1"/>
				<ellipse class="st28" cx="153.4" cy="84.8" rx="12.8" ry="12"/>
				<ellipse class="st29" cx="153.4" cy="84.8" rx="12.7" ry="11.9"/>
				<ellipse class="st30" cx="153.4" cy="84.8" rx="12.7" ry="11.9"/>
				<ellipse class="st31" cx="153.4" cy="84.8" rx="12.6" ry="11.8"/>
				<ellipse class="st32" cx="153.4" cy="84.8" rx="12.5" ry="11.7"/>
				<ellipse class="st33" cx="153.4" cy="84.8" rx="12.5" ry="11.7"/>
				<ellipse class="st34" cx="153.4" cy="84.8" rx="12.4" ry="11.6"/>
				<ellipse class="st35" cx="153.4" cy="84.8" rx="12.3" ry="11.5"/>
				<ellipse class="st36" cx="153.4" cy="84.8" rx="12.3" ry="11.5"/>
				<ellipse class="st37" cx="153.4" cy="84.8" rx="12.2" ry="11.4"/>
				<ellipse class="st38" cx="153.4" cy="84.8" rx="12.1" ry="11.3"/>
				<ellipse class="st39" cx="153.4" cy="84.8" rx="12.1" ry="11.3"/>
				<ellipse class="st40" cx="153.4" cy="84.8" rx="12" ry="11.2"/>
				<ellipse class="st41" cx="153.4" cy="84.8" rx="11.9" ry="11.2"/>
				<ellipse class="st42" cx="153.4" cy="84.8" rx="11.8" ry="11.1"/>
				<ellipse class="st43" cx="153.4" cy="84.8" rx="11.8" ry="11"/>
				<ellipse class="st44" cx="153.4" cy="84.8" rx="11.7" ry="11"/>
				<ellipse class="st45" cx="153.4" cy="84.8" rx="11.6" ry="10.9"/>
				<ellipse class="st46" cx="153.4" cy="84.8" rx="11.6" ry="10.8"/>
				<ellipse class="st47" cx="153.4" cy="84.8" rx="11.5" ry="10.8"/>
				<ellipse class="st48" cx="153.4" cy="84.8" rx="11.4" ry="10.7"/>
				<ellipse class="st49" cx="153.4" cy="84.8" rx="11.4" ry="10.6"/>
				<ellipse class="st50" cx="153.4" cy="84.8" rx="11.3" ry="10.6"/>
				<ellipse class="st51" cx="153.4" cy="84.8" rx="11.2" ry="10.5"/>
				<ellipse class="st52" cx="153.4" cy="84.8" rx="11.2" ry="10.5"/>
				<ellipse class="st53" cx="153.4" cy="84.8" rx="11.1" ry="10.4"/>
				<ellipse class="st54" cx="153.4" cy="84.8" rx="11" ry="10.3"/>
				<ellipse class="st55" cx="153.4" cy="84.8" rx="11" ry="10.3"/>
				<ellipse class="st56" cx="153.4" cy="84.8" rx="10.9" ry="10.2"/>
				<ellipse class="st57" cx="153.4" cy="84.8" rx="10.8" ry="10.1"/>
				<ellipse class="st58" cx="153.4" cy="84.8" rx="10.8" ry="10.1"/>
				<ellipse class="st59" cx="153.4" cy="84.8" rx="10.7" ry="10"/>
				<ellipse class="st60" cx="153.4" cy="84.8" rx="10.6" ry="9.9"/>
				<ellipse class="st61" cx="153.4" cy="84.8" rx="10.5" ry="9.9"/>
				<ellipse class="st62" cx="153.4" cy="84.8" rx="10.5" ry="9.8"/>
				<ellipse class="st63" cx="153.4" cy="84.8" rx="10.4" ry="9.7"/>
				<ellipse class="st64" cx="153.4" cy="84.8" rx="10.3" ry="9.7"/>
				<ellipse class="st65" cx="153.4" cy="84.8" rx="10.3" ry="9.6"/>
				<ellipse class="st66" cx="153.4" cy="84.8" rx="10.2" ry="9.6"/>
				<ellipse class="st67" cx="153.4" cy="84.8" rx="10.1" ry="9.5"/>
				<ellipse class="st68" cx="153.4" cy="84.8" rx="10.1" ry="9.4"/>
				<ellipse class="st69" cx="153.4" cy="84.8" rx="10" ry="9.4"/>
				<ellipse class="st70" cx="153.4" cy="84.8" rx="9.9" ry="9.3"/>
				<ellipse class="st71" cx="153.4" cy="84.8" rx="9.9" ry="9.2"/>
				<ellipse class="st72" cx="153.4" cy="84.8" rx="9.8" ry="9.2"/>
				<ellipse class="st73" cx="153.4" cy="84.8" rx="9.7" ry="9.1"/>
				<ellipse class="st74" cx="153.4" cy="84.8" rx="9.7" ry="9"/>
				<ellipse class="st75" cx="153.4" cy="84.8" rx="9.6" ry="9"/>
				<ellipse class="st76" cx="153.4" cy="84.8" rx="9.5" ry="8.9"/>
				<ellipse class="st77" cx="153.4" cy="84.8" rx="9.5" ry="8.9"/>
				<ellipse class="st78" cx="153.4" cy="84.8" rx="9.4" ry="8.8"/>
				<ellipse class="st79" cx="153.4" cy="84.8" rx="9.3" ry="8.7"/>
				<ellipse class="st80" cx="153.4" cy="84.8" rx="9.3" ry="8.7"/>
				<ellipse class="st81" cx="153.4" cy="84.8" rx="9.2" ry="8.6"/>
				<ellipse class="st82" cx="153.4" cy="84.8" rx="9.1" ry="8.5"/>
				<ellipse class="st83" cx="153.4" cy="84.8" rx="9" ry="8.5"/>
				<ellipse class="st84" cx="153.4" cy="84.8" rx="9" ry="8.4"/>
				<ellipse class="st85" cx="153.4" cy="84.8" rx="8.9" ry="8.3"/>
				<ellipse class="st86" cx="153.4" cy="84.8" rx="8.8" ry="8.3"/>
				<ellipse class="st87" cx="153.4" cy="84.8" rx="8.8" ry="8.2"/>
				<ellipse class="st88" cx="153.4" cy="84.8" rx="8.7" ry="8.1"/>
				<ellipse class="st89" cx="153.4" cy="84.8" rx="8.6" ry="8.1"/>
				<ellipse class="st90" cx="153.4" cy="84.8" rx="8.6" ry="8"/>
				<ellipse class="st91" cx="153.4" cy="84.8" rx="8.5" ry="8"/>
				<ellipse class="st92" cx="153.4" cy="84.8" rx="8.4" ry="7.9"/>
				<ellipse class="st93" cx="153.4" cy="84.8" rx="8.4" ry="7.8"/>
				<ellipse class="st94" cx="153.4" cy="84.8" rx="8.3" ry="7.8"/>
				<ellipse class="st95" cx="153.4" cy="84.8" rx="8.2" ry="7.7"/>
				<ellipse class="st96" cx="153.4" cy="84.8" rx="8.2" ry="7.6"/>
				<ellipse class="st97" cx="153.4" cy="84.8" rx="8.1" ry="7.6"/>
				<ellipse class="st98" cx="153.4" cy="84.8" rx="8" ry="7.5"/>
				<ellipse class="st99" cx="153.4" cy="84.8" rx="8" ry="7.4"/>
				<ellipse class="st100" cx="153.4" cy="84.8" rx="7.9" ry="7.4"/>
				<ellipse class="st101" cx="153.4" cy="84.8" rx="7.8" ry="7.3"/>
				<ellipse class="st102" cx="153.4" cy="84.8" rx="7.7" ry="7.3"/>
				<ellipse class="st103" cx="153.4" cy="84.8" rx="7.7" ry="7.2"/>
				<ellipse class="st104" cx="153.4" cy="84.8" rx="7.6" ry="7.1"/>
				<ellipse class="st105" cx="153.4" cy="84.8" rx="7.5" ry="7.1"/>
				<ellipse class="st106" cx="153.4" cy="84.8" rx="7.5" ry="7"/>
				<ellipse class="st107" cx="153.4" cy="84.8" rx="7.4" ry="6.9"/>
				<ellipse class="st108" cx="153.4" cy="84.8" rx="7.3" ry="6.9"/>
				<ellipse class="st109" cx="153.4" cy="84.8" rx="7.3" ry="6.8"/>
				<ellipse class="st110" cx="153.4" cy="84.8" rx="7.2" ry="6.7"/>
				<ellipse class="st111" cx="153.4" cy="84.8" rx="7.1" ry="6.7"/>
				<ellipse class="st112" cx="153.4" cy="84.8" rx="7.1" ry="6.6"/>
				<ellipse class="st113" cx="153.4" cy="84.8" rx="7" ry="6.5"/>
				<ellipse class="st114" cx="153.4" cy="84.8" rx="6.9" ry="6.5"/>
				<ellipse class="st115" cx="153.4" cy="84.8" rx="6.9" ry="6.4"/>
				<ellipse class="st116" cx="153.4" cy="84.8" rx="6.8" ry="6.4"/>
				<ellipse class="st117" cx="153.4" cy="84.8" rx="6.7" ry="6.3"/>
				<ellipse class="st118" cx="153.4" cy="84.8" rx="6.7" ry="6.2"/>
				<ellipse class="st119" cx="153.4" cy="84.8" rx="6.6" ry="6.2"/>
				<ellipse class="st120" cx="153.4" cy="84.8" rx="6.5" ry="6.1"/>
				<ellipse class="st121" cx="153.4" cy="84.8" rx="6.4" ry="6"/>
				<ellipse class="st122" cx="153.4" cy="84.8" rx="6.4" ry="6"/>
				<ellipse class="st123" cx="153.4" cy="84.8" rx="6.3" ry="5.9"/>
				<ellipse class="st124" cx="153.4" cy="84.8" rx="6.2" ry="5.8"/>
				<ellipse class="st125" cx="153.4" cy="84.8" rx="6.2" ry="5.8"/>
				<ellipse class="st126" cx="153.4" cy="84.8" rx="6.1" ry="5.7"/>
				<ellipse class="st127" cx="153.4" cy="84.8" rx="6" ry="5.7"/>
				<ellipse class="st128" cx="153.4" cy="84.8" rx="6" ry="5.6"/>
				<ellipse class="st129" cx="153.4" cy="84.8" rx="5.9" ry="5.5"/>
				<ellipse class="st130" cx="153.4" cy="84.8" rx="5.8" ry="5.5"/>
				<ellipse class="st131" cx="153.4" cy="84.8" rx="5.8" ry="5.4"/>
				<ellipse class="st132" cx="153.4" cy="84.8" rx="5.7" ry="5.3"/>
				<ellipse class="st133" cx="153.4" cy="84.8" rx="5.6" ry="5.3"/>
				<ellipse class="st134" cx="153.4" cy="84.8" rx="5.6" ry="5.2"/>
				<ellipse class="st135" cx="153.4" cy="84.8" rx="5.5" ry="5.1"/>
			</g>
			<ellipse class="st136" cx="213.5" cy="73.9" rx="1.6" ry="1.1"/>
			<ellipse class="st136" cx="149.7" cy="74.6" rx="1.6" ry="1.1"/>
			<ellipse class="st137" cx="150.8" cy="62.3" rx="8.1" ry="8.1"/>
			<ellipse class="st137" cx="211.3" cy="62" rx="8.1" ry="8.1"/>
			<path class="st136" d="M153.4,70c0,0-4.8,1.1-8.3-3.4c-3.5-4.5-0.2-11.9,6.2-11.4c6.4,0.6,7.5,6.5,6.3,11.6
				C157.6,66.7,156.2,69.1,153.4,70z"/>
			<path class="st136" d="M208.6,69.7c0,0,4.8,1.1,8.3-3.4c3.5-4.5,0.2-11.9-6.2-11.4c-6.4,0.6-7.5,6.5-6.3,11.6
				C204.4,66.4,205.8,68.8,208.6,69.7z"/>
			<ellipse class="st138" cx="152.4" cy="64.8" rx="4.3" ry="4.4"/>
			<ellipse class="st138" cx="209.9" cy="64.6" rx="4.2" ry="4.2"/>
			<ellipse class="st136" cx="152.6" cy="64.1" rx="1.7" ry="1.7"/>
			<ellipse class="st136" cx="209.8" cy="64.2" rx="1.7" ry="1.8"/>
			<g>
				<ellipse class="st139" cx="182.4" cy="77.7" rx="6.3" ry="3.8"/>
				<radialGradient id="SVGID_27_" cx="180.3821" cy="75.9355" r="15.1581" gradientUnits="userSpaceOnUse">
					<stop  offset="0.3626" style="stop-color:#FFE5B9"/>
					<stop  offset="0.8407" style="stop-color:#FFFFFF"/>
					<stop  offset="0.978" style="stop-color:#FFFFFF"/>
				</radialGradient>
				<ellipse class="st140" cx="181.6" cy="72.8" rx="12.9" ry="7.7"/>
				
					<radialGradient id="SVGID_28_" cx="495.0837" cy="71.1604" r="6.9192" gradientTransform="matrix(1.4856 0 0 1.1274 -553.6048 -6.5267)" gradientUnits="userSpaceOnUse">
					<stop  offset="0" style="stop-color:#FFFFFF"/>
					<stop  offset="4.939459e-02" style="stop-color:#FFFCF8"/>
					<stop  offset="0.333" style="stop-color:#FFF0D6"/>
					<stop  offset="0.5666" style="stop-color:#FFE8C1"/>
					<stop  offset="0.7198" style="stop-color:#FFE5B9"/>
					<stop  offset="1" style="stop-color:#F8B763"/>
				</radialGradient>
				<ellipse class="st141" cx="181.8" cy="77.3" rx="6.3" ry="3.8"/>
				<path class="st142" d="M185,75.7c0,0.3-0.3,0.6-0.6,0.6h-4.5c-0.3,0-0.6-0.3-0.6-0.6l0,0c0-0.3,0.3-0.6,0.6-0.6h4.5
					C184.7,75.1,185,75.4,185,75.7L185,75.7z"/>
			</g>
			<g>
				<path class="st143" d="M234.2,35.4c-7.8-12.3-27.5-14.1-36.3-16c-8.8-1.9-24.2-0.8-25.3,2.2c0,0-0.8-3.9-0.8-5.9
					c0-2,1.3-2.4,0.3-3.4c-0.7-0.8-2.2,1.3-3.1,3.9c-0.9,2.6-1.6,5.6-1.6,5.6s-2.8-2.4-6.4-4c-3.6-1.7-6.1-1.5-3.7,0.9
					c2.4,2.4,6.4,3.8,4.9,4.2c-1.6,0.5-10.8-6.1-23,4.4C127,37.8,123,50.8,122.8,60.7c-0.3,10,1.4,12.7,3.7,16.6c0,0,0-10.4,7-22.4
					c6-10.3,13.3-16.9,26.9-20.5c-0.7,1.5-0.1,1.3-1.5,2.3c-2.4,1.7-5.1,4.7-0.5,7.5c4.5,2.8,6.1,1,7.6-0.8c1.5-1.8,2.7-3.7,2.7-3.7
					s1.9,6.1,5.6,5c3.7-1.1,5.2-2.3,5.2-5.2c0,0,3.7,6.1,7,5.5c3.3-0.6,5-3.3,2.7-7.3c0,0,3.7,4.9,7.2,2.1c3.1-2.5,2.7-4.4,0.8-6.8
					c15.5,2.5,27.4,8.2,34.5,19.4c9.6,15.2,7.3,25.8,7.3,25.8s3.2-3.7,4.3-11C244.3,60.1,243.1,49.4,234.2,35.4z"/>
				<path class="st144" d="M139.5,27.4c11.9-10.1,20.9-3.8,22.5-4.3c1.5-0.4-2.4-1.8-4.7-4.1c-2.3-2.3,0.1-2.5,3.6-0.9
					c1,0.5,2,1,2.8,1.5c2.1,1.2,3.5,2.4,3.5,2.4c0,0,0.6-3,1.6-5.5c0.5-1.4,1.3-2.6,1.9-3.3c0.5-0.6,1-0.9,1.3-0.5
					c0.9,0.9-0.4,1.3-0.3,3.3c0,1,0.3,2.6,0.5,3.9c0.2,1.1,0.4,1.9,0.4,1.9c1.1-2.6,13.1-3.8,22-2.7c1.2,0.1,2.3,0.3,3.3,0.6
					c8.9,1.9,28.6,3.8,36.3,16.1c8.7,13.8,9.9,24.4,8.9,31.5c-1,7.1-4.1,10.8-4.1,10.8s2-11-7.4-25.8c-7-10.9-19.4-16.9-34.5-19.3
					c1.7,2.4,2.1,4.4-0.8,6.8c-1.8,1.5-3.6,0.9-5,0c-1.2-0.8-2-1.9-2-1.9c0.8,1.4,1,2.6,0.9,3.7c-0.2,1.7-1.6,3.1-3.6,3.5
					c-2.2,0.4-4.7-2.3-6-4c-0.6-0.8-1-1.4-1-1.4c0,2-0.8,3.2-2.5,4c-0.7,0.4-1.7,0.7-2.8,1c-1.2,0.3-2.3-0.1-3.1-0.9
					c-1.6-1.4-2.5-4-2.5-4c0,0-1.2,1.9-2.8,3.6c-0.5,0.5-0.9,1-1.4,1.4c-1.3,0.9-2.9,1.2-6-0.8c-3.4-2.1-2.5-4.5-0.9-6.2
					c0.4-0.5,0.9-0.9,1.4-1.3c1.3-1,0.8-0.8,1.4-2.2c-5,1.2-9.2,2.9-12.7,5.1c-4.9,3-8.7,7-12.1,11.9c-0.7,1.1-1.4,2.2-2.1,3.4
					c-2,3.3-3.4,6.5-4.4,9.5c-2.6,7.4-2.6,12.8-2.7,12.9c-0.6-1-1.2-1.9-1.7-2.9c-1.3-2.7-2.1-6.2-1.9-13.5
					c0.1-3.9,0.8-8.3,2.4-12.7C127.7,40.9,132.1,33.7,139.5,27.4z"/>
				<path class="st145" d="M139.7,27.5c11.6-9.8,20.4-3.7,22.1-4.2c1.5-0.4-2.2-1.7-4.4-3.9c-2.2-2.2,0.2-2.4,3.6-0.8
					c1,0.5,2,1,2.8,1.4c2,1.2,3.4,2.3,3.4,2.2c0-0.1,0.6-2.9,1.6-5.3c0.6-1.3,1.3-2.4,1.9-3.1c0.5-0.6,0.9-0.9,1.3-0.6
					c0.9,0.8-0.4,1.2-0.2,3.1c0.1,1.1,0.3,2.7,0.5,3.9c0.2,1,0.4,1.8,0.5,1.8c1.2-2.6,13.2-3.9,22-2.8c1.2,0.1,2.3,0.3,3.3,0.6
					c8.9,1.9,28.6,3.9,36.3,16.2c8.5,13.6,9.7,24,8.8,31c-0.9,7-3.9,10.6-3.9,10.6s1.7-11.3-7.5-25.7c-6.9-10.6-19.8-16.9-34.5-19.2
					c1.5,2.3,1.9,4.4-0.9,6.8c-1.7,1.5-3.4,1-4.8,0.1c-1.2-0.8-2-1.8-2.1-1.9c0.7,1.3,0.9,2.5,0.8,3.5c-0.2,1.7-1.5,3.2-3.6,3.6
					c-2.2,0.4-4.8-2.3-6-3.9c-0.6-0.8-1-1.4-1-1.3c-0.1,2-0.9,3.2-2.5,4c-0.7,0.4-1.7,0.7-2.8,0.9c-1.2,0.3-2.3-0.2-3-0.9
					c-1.5-1.4-2.4-3.8-2.6-3.7c-0.1,0.1-1.3,1.9-2.8,3.6c-0.5,0.5-0.9,1-1.4,1.3c-1.3,0.9-2.8,1-5.7-0.9c-3.2-2.1-2.3-4.6-0.8-6.2
					c0.4-0.5,0.9-0.9,1.3-1.2c1.2-1,0.7-0.7,1.3-2.1c-5,1.2-9.3,2.8-12.7,4.9c-4.7,3-8.6,6.9-12.1,12c-0.7,1.1-1.4,2.2-2.1,3.3
					c-1.9,3.3-3.4,6.5-4.4,9.4c-2.6,7.3-2.7,12.6-2.7,12.9c-0.6-0.9-1.2-1.8-1.7-2.7c-1.3-2.6-2-6.3-1.8-13.5
					c0.1-3.9,0.8-8.3,2.4-12.7C127.9,40.8,132.4,33.6,139.7,27.5z"/>
				<path class="st146" d="M139.9,27.5c11.3-9.5,19.9-3.7,21.6-4.2c1.4-0.4-2.1-1.7-4.2-3.8c-2.1-2.1,0.3-2.3,3.6-0.8
					c1,0.4,1.9,0.9,2.7,1.4c2,1.2,3.3,2.2,3.3,2.1c0-0.1,0.5-2.9,1.6-5.2c0.6-1.3,1.4-2.3,2-2.9c0.5-0.6,0.9-0.9,1.2-0.6
					c0.9,0.8-0.4,1.1-0.1,2.9c0.1,1.1,0.4,2.7,0.6,3.8c0.2,1,0.4,1.8,0.5,1.7c1.3-2.5,13.3-3.9,22-2.8c1.1,0.2,2.3,0.3,3.3,0.6
					c9,1.9,28.6,4,36.2,16.3c8.3,13.3,9.5,23.6,8.7,30.5c-0.9,6.9-3.8,10.5-3.8,10.5s1.5-11.7-7.6-25.6c-6.7-10.3-20.2-16.9-34.5-19
					c1.3,2.3,1.7,4.4-0.9,6.8c-1.6,1.5-3.2,1.2-4.6,0.3c-1.2-0.7-2-1.8-2.1-1.8c0.6,1.3,0.7,2.3,0.6,3.3c-0.2,1.6-1.4,3.3-3.5,3.7
					c-2.2,0.4-4.8-2.3-6-3.9c-0.6-0.8-1-1.3-1-1.2c-0.1,1.9-0.9,3.2-2.6,3.9c-0.7,0.4-1.7,0.6-2.8,0.8c-1.2,0.2-2.2-0.3-3-1
					c-1.5-1.3-2.4-3.6-2.6-3.5c-0.1,0.1-1.3,1.9-2.9,3.5c-0.5,0.5-0.9,1-1.4,1.3c-1.3,0.8-2.7,0.8-5.4-1c-3-2.1-2.1-4.6-0.7-6.2
					c0.4-0.5,0.8-0.9,1.2-1.2c1.1-0.9,0.6-0.7,1.1-2.1c-5,1.1-9.4,2.7-12.7,4.8c-4.6,2.9-8.5,6.9-12,12c-0.7,1.1-1.4,2.2-2.1,3.3
					c-1.9,3.3-3.4,6.5-4.4,9.4c-2.5,7.1-2.7,12.4-2.8,12.9c-0.6-0.9-1.2-1.6-1.6-2.5c-1.3-2.5-2-6.3-1.7-13.4
					c0.2-3.9,0.9-8.3,2.5-12.6C128.2,40.7,132.7,33.6,139.9,27.5z"/>
				<path class="st147" d="M140.2,27.6c11.1-9.1,19.4-3.6,21.2-4.1c1.4-0.4-2-1.6-3.9-3.7c-1.9-2,0.3-2.2,3.5-0.8
					c1,0.4,1.9,0.9,2.7,1.3c1.9,1.1,3.2,2.1,3.2,2c0-0.1,0.4-2.9,1.6-5c0.6-1.2,1.5-2.1,2-2.8c0.5-0.5,0.9-0.9,1.2-0.6
					c0.9,0.7-0.4,1-0.1,2.7c0.2,1.1,0.4,2.7,0.6,3.8c0.2,1,0.4,1.7,0.6,1.6c1.4-2.5,13.4-4,22-2.8c1.1,0.2,2.2,0.3,3.3,0.6
					c9,2,28.7,4.1,36.2,16.3c8.1,13.1,9.4,23.2,8.6,30.1c-0.8,6.8-3.6,10.3-3.6,10.3s1.2-12.1-7.7-25.5c-6.6-10-20.6-16.9-34.5-18.9
					c1.1,2.2,1.5,4.4-0.9,6.8c-1.5,1.5-3.1,1.3-4.5,0.5c-1.2-0.7-2-1.7-2.1-1.8c0.5,1.2,0.6,2.1,0.5,3.1c-0.2,1.6-1.3,3.4-3.4,3.8
					c-2.2,0.4-4.9-2.3-6.1-3.9c-0.6-0.7-1-1.2-1-1.1c-0.1,1.9-1,3.1-2.6,3.9c-0.7,0.3-1.7,0.6-2.8,0.8c-1.2,0.2-2.2-0.4-3-1
					c-1.4-1.3-2.4-3.4-2.7-3.2c-0.2,0.1-1.4,1.9-2.9,3.5c-0.5,0.5-1,1-1.5,1.3c-1.3,0.8-2.6,0.7-5.2-1.2c-2.9-2-1.9-4.6-0.6-6.3
					c0.4-0.5,0.7-0.9,1.1-1.2c1.1-0.9,0.5-0.7,1-2c-5,1-9.4,2.6-12.7,4.7c-4.5,2.9-8.5,6.8-12,12c-0.7,1.1-1.4,2.2-2.1,3.3
					c-1.9,3.3-3.4,6.4-4.5,9.4c-2.5,7-2.7,12.2-2.8,12.8c-0.6-0.8-1.1-1.5-1.6-2.3c-1.3-2.4-1.9-6.3-1.5-13.4
					c0.2-3.9,0.9-8.3,2.6-12.6C128.5,40.5,133,33.5,140.2,27.6z"/>
				<path class="st148" d="M140.4,27.7c10.8-8.8,18.9-3.5,20.7-4c1.4-0.4-1.8-1.6-3.7-3.5c-1.8-2,0.4-2.1,3.5-0.8
					c1,0.4,1.9,0.9,2.6,1.3c1.9,1.1,3.1,2,3.1,1.8c0-0.1,0.4-2.9,1.6-4.9c0.7-1.2,1.6-2,2.1-2.6c0.4-0.5,0.9-0.9,1.1-0.7
					c0.9,0.6-0.4,0.8,0,2.6c0.2,1.1,0.4,2.8,0.6,3.8c0.2,0.9,0.4,1.6,0.6,1.5c1.5-2.5,13.5-4,22-2.8c1.1,0.2,2.2,0.3,3.3,0.6
					c9.1,2,28.7,4.2,36.2,16.4c7.9,12.9,9.2,22.8,8.4,29.6c-0.8,6.7-3.5,10.2-3.5,10.2s0.9-12.5-7.8-25.5
					c-6.5-9.7-21-16.9-34.5-18.8c0.9,2.1,1.3,4.4-1,6.8c-1.4,1.4-2.9,1.4-4.3,0.6c-1.1-0.7-2-1.6-2.1-1.7c0.5,1.1,0.4,2,0.3,2.9
					c-0.2,1.5-1.3,3.5-3.3,3.9c-2.2,0.3-5-2.4-6.1-3.8c-0.5-0.7-0.9-1.1-1-1c-0.2,1.9-1,3.1-2.7,3.9c-0.7,0.3-1.7,0.5-2.7,0.7
					c-1.2,0.2-2.2-0.5-2.9-1.1c-1.4-1.2-2.4-3.3-2.7-3c-0.2,0.2-1.4,1.9-2.9,3.4c-0.5,0.5-1,0.9-1.5,1.2c-1.3,0.7-2.5,0.5-4.9-1.3
					c-2.7-2-1.7-4.6-0.5-6.3c0.3-0.5,0.7-0.9,1-1.2c1-0.9,0.4-0.7,0.8-2c-4.9,1-9.5,2.4-12.8,4.5c-4.4,2.8-8.4,6.8-12,12
					c-0.7,1.1-1.4,2.2-2.1,3.3c-1.9,3.2-3.4,6.4-4.5,9.4c-2.5,6.9-2.7,12.1-2.8,12.8c-0.6-0.7-1.1-1.3-1.5-2.1
					c-1.3-2.3-1.8-6.3-1.4-13.4c0.2-3.9,1-8.3,2.6-12.6C128.8,40.4,133.2,33.5,140.4,27.7z"/>
				<path class="st149" d="M140.6,27.7c10.5-8.4,18.4-3.4,20.3-3.9c1.4-0.4-1.7-1.5-3.4-3.4c-1.7-1.9,0.4-2,3.5-0.7
					c0.9,0.4,1.8,0.8,2.6,1.2c1.8,1,3,1.9,3,1.7c0-0.2,0.3-2.9,1.6-4.7c0.7-1.1,1.6-1.8,2.1-2.4c0.4-0.5,0.8-0.9,1.1-0.7
					c0.9,0.5-0.3,0.7,0.1,2.4c0.3,1.1,0.5,2.8,0.7,3.8c0.2,0.9,0.4,1.5,0.7,1.4c1.6-2.4,13.5-4.1,22-2.9c1.1,0.2,2.2,0.4,3.3,0.6
					c9.1,2,28.7,4.3,36.1,16.5c7.7,12.7,9,22.4,8.3,29.1c-0.7,6.6-3.3,10-3.3,10s0.6-12.9-8-25.4c-6.4-9.4-21.4-16.9-34.6-18.7
					c0.7,2.1,1.1,4.4-1,6.8c-1.3,1.4-2.7,1.5-4.1,0.8c-1.1-0.6-1.9-1.6-2.1-1.7c0.4,1,0.3,1.8,0.2,2.7c-0.2,1.4-1.2,3.6-3.2,4
					c-2.2,0.3-5-2.4-6.1-3.8c-0.5-0.7-0.9-1.1-1-0.9c-0.2,1.9-1.1,3.1-2.7,3.8c-0.7,0.3-1.7,0.5-2.7,0.6c-1.2,0.1-2.2-0.5-2.9-1.1
					c-1.3-1.2-2.3-3.1-2.7-2.8c-0.3,0.2-1.5,1.9-3,3.4c-0.5,0.5-1,0.9-1.5,1.2c-1.3,0.7-2.4,0.3-4.6-1.5c-2.5-1.9-1.5-4.6-0.4-6.3
					c0.3-0.4,0.6-0.9,0.9-1.2c0.9-0.9,0.4-0.7,0.7-1.9c-4.9,0.9-9.6,2.3-12.8,4.4c-4.2,2.8-8.3,6.7-11.9,12
					c-0.7,1.1-1.4,2.2-2.1,3.3c-1.9,3.2-3.4,6.4-4.5,9.4c-2.5,6.7-2.7,11.9-2.9,12.8c-0.6-0.6-1.1-1.2-1.5-1.8
					c-1.3-2.2-1.8-6.3-1.3-13.4c0.2-3.9,1-8.3,2.7-12.6C129,40.3,133.5,33.5,140.6,27.7z"/>
				<path class="st150" d="M140.9,27.8c10.2-8.1,17.9-3.3,19.8-3.8c1.4-0.3-1.5-1.4-3.1-3.3c-1.6-1.8,0.5-1.9,3.5-0.7
					c0.9,0.4,1.8,0.8,2.5,1.2c1.8,1,2.9,1.8,2.9,1.6c0-0.2,0.3-2.8,1.5-4.6c0.7-1.1,1.7-1.7,2.2-2.2c0.4-0.5,0.8-0.9,1-0.8
					c0.8,0.4-0.3,0.6,0.1,2.2c0.3,1.2,0.5,2.8,0.7,3.8c0.2,0.9,0.5,1.4,0.7,1.3c1.7-2.4,13.6-4.1,22.1-2.9c1.1,0.2,2.2,0.4,3.3,0.6
					c9.2,2,28.8,4.4,36.1,16.6c7.5,12.4,8.8,22,8.2,28.6c-0.6,6.5-3.1,9.9-3.1,9.9s0.3-13.2-8.1-25.3c-6.3-9.1-21.7-16.9-34.6-18.6
					c0.5,2,0.9,4.5-1,6.8c-1.2,1.4-2.5,1.7-3.9,0.9c-1.1-0.6-1.9-1.5-2.2-1.7c0.3,0.9,0.1,1.7,0,2.5c-0.2,1.4-1.1,3.8-3.2,4
					c-2.2,0.3-5.1-2.4-6.1-3.8c-0.5-0.7-0.9-1-1-0.8c-0.2,1.8-1.2,3.1-2.7,3.8c-0.8,0.3-1.7,0.4-2.7,0.5c-1.2,0.1-2.2-0.6-2.9-1.2
					c-1.3-1.1-2.3-2.9-2.8-2.5c-0.3,0.2-1.5,1.9-3,3.4c-0.5,0.5-1,0.9-1.5,1.2c-1.3,0.6-2.2,0.1-4.4-1.6c-2.3-1.9-1.3-4.7-0.3-6.3
					c0.3-0.4,0.5-0.9,0.8-1.1c0.8-0.9,0.3-0.7,0.5-1.9c-4.9,0.9-9.7,2.2-12.8,4.3c-4.1,2.7-8.2,6.7-11.9,12
					c-0.7,1.1-1.4,2.2-2.1,3.3c-1.9,3.2-3.4,6.4-4.5,9.4c-2.4,6.6-2.7,11.7-2.9,12.8c-0.5-0.6-1.1-1-1.5-1.6
					c-1.2-2-1.7-6.3-1.2-13.4c0.3-3.9,1-8.3,2.8-12.5C129.3,40.2,133.8,33.4,140.9,27.8z"/>
				<path class="st151" d="M141.1,27.9c9.9-7.8,17.4-3.3,19.4-3.7c1.4-0.3-1.4-1.4-2.9-3.1c-1.5-1.7,0.6-1.8,3.4-0.7
					c0.9,0.4,1.8,0.8,2.4,1.1c1.7,0.9,2.8,1.6,2.8,1.5c0-0.2,0.3-2.8,1.5-4.4c0.8-1,1.8-1.5,2.3-2.1c0.4-0.5,0.7-0.8,1-0.8
					c0.7,0.4-0.3,0.5,0.2,2c0.4,1.2,0.6,2.8,0.7,3.8c0.1,0.8,0.5,1.4,0.8,1.3c1.9-2.4,13.7-4.2,22.1-2.9c1.1,0.2,2.2,0.4,3.3,0.6
					c9.2,2,28.8,4.5,36.1,16.7c7.3,12.2,8.6,21.7,8.1,28.1c-0.6,6.3-3,9.7-3,9.7s0-13.6-8.2-25.2c-6.1-8.8-22.1-16.8-34.6-18.5
					c0.3,2,0.7,4.5-1.1,6.8c-1.1,1.4-2.3,1.8-3.8,1.1c-1.1-0.5-1.9-1.5-2.2-1.6c0.2,0.9,0,1.5-0.1,2.3c-0.2,1.3-1,3.9-3.1,4.1
					c-2.2,0.3-5.2-2.5-6.1-3.8c-0.5-0.6-0.9-0.9-1-0.7c-0.3,1.8-1.2,3.1-2.8,3.7c-0.8,0.3-1.7,0.4-2.7,0.4c-1.2,0-2.2-0.7-2.8-1.2
					c-1.2-1.1-2.3-2.7-2.8-2.3c-0.3,0.2-1.5,1.9-3,3.3c-0.5,0.5-1,0.9-1.5,1.1c-1.3,0.6-2.1-0.1-4.1-1.7c-2.1-1.8-1.1-4.7-0.2-6.3
					c0.3-0.4,0.5-0.8,0.7-1.1c0.8-0.8,0.2-0.7,0.4-1.8c-4.9,0.8-9.7,2.1-12.8,4.1c-4,2.6-8.1,6.6-11.9,12c-0.7,1.1-1.4,2.2-2.1,3.3
					c-1.9,3.2-3.4,6.3-4.5,9.3c-2.4,6.5-2.7,11.6-2.9,12.7c-0.5-0.5-1.1-0.9-1.4-1.4c-1.3-1.9-1.6-6.3-1.1-13.4
					c0.3-3.9,1.1-8.3,2.9-12.5C129.6,40.1,134.1,33.4,141.1,27.9z"/>
				<path class="st152" d="M141.3,28c9.6-7.4,16.9-3.2,18.9-3.6c1.3-0.3-1.2-1.3-2.6-3c-1.4-1.6,0.6-1.7,3.4-0.6
					c0.9,0.4,1.7,0.7,2.4,1.1c1.7,0.9,2.7,1.5,2.7,1.3c0-0.2,0.5-2.6,1.5-4.3c1-0.8,1.9-1.4,2.3-1.9c0.4-0.4,0.7-0.8,1-0.8
					c0.7,0.3-0.3,0.3,0.3,1.9c0.4,1.2,0.6,2.9,0.8,3.7c0.1,0.8,0.5,1.3,0.8,1.2c2-2.3,13.8-4.2,22.1-3c1.1,0.2,2.2,0.4,3.3,0.6
					c9.3,2,28.8,4.7,36,16.8c7.1,12,8.5,21.3,7.9,27.6c-0.5,6.2-2.8,9.6-2.8,9.6s-0.3-14-8.3-25.2c-6-8.4-22.5-16.8-34.6-18.4
					c0.1,1.9,0.4,4.5-1.1,6.8c-1,1.4-2.1,1.9-3.6,1.3c-1.1-0.5-1.9-1.4-2.2-1.6c0.1,0.8-0.2,1.3-0.3,2.1c-0.2,1.3-0.9,4-3,4.2
					c-2.2,0.3-5.2-2.5-6.1-3.7c-0.5-0.6-0.9-0.9-1-0.6c-0.3,1.8-1.3,3.1-2.8,3.7c-0.8,0.3-1.7,0.4-2.7,0.3c-1.2,0-2.2-0.8-2.8-1.3
					c-1.2-1-2.3-2.5-2.9-2.1c-0.4,0.3-1.6,1.9-3.1,3.3c-0.5,0.5-1.1,0.9-1.5,1.1c-1.3,0.5-2-0.2-3.8-1.9c-2-1.8-0.9-4.7-0.1-6.3
					c0.2-0.4,0.4-0.8,0.6-1.1c0.8-0.7,0.1-0.7,0.3-1.7c-4.9,0.7-9.8,2-12.8,4c-3.8,2.6-8,6.6-11.8,12.1c-0.7,1.1-1.4,2.2-2.1,3.3
					c-1.9,3.1-3.4,6.3-4.5,9.3c-2.4,6.4-2.7,11.4-3,12.7c-0.5-0.4-1-0.7-1.4-1.2c-1.3-1.8-1.6-6.3-1-13.4c0.3-3.9,1.1-8.3,2.9-12.5
					C129.8,40,134.4,33.3,141.3,28z"/>
				<path class="st153" d="M141.6,28c9.3-7.1,16.4-3.1,18.5-3.6c1.3-0.3-1.1-1.3-2.4-2.9c-1.3-1.6,0.7-1.7,3.4-0.6
					c0.9,0.3,1.7,0.7,2.3,1c1.6,0.9,2.6,1.4,2.6,1.2c0-0.3,0.5-2.5,1.5-4.2c1.1-0.7,1.9-1.2,2.4-1.7c0.3-0.4,0.7-0.8,0.9-0.9
					c0.7,0.3-0.3,0.2,0.4,1.7c0.5,1.2,0.7,2.9,0.8,3.7c0.1,0.7,0.5,1.2,0.9,1.1c2.1-2.3,13.9-4.3,22.1-3c1.1,0.2,2.2,0.4,3.3,0.6
					c9.3,2,28.9,4.8,36,16.9c6.9,11.7,8.3,20.9,7.8,27.1c-0.5,6.1-2.7,9.4-2.7,9.4s-0.6-14.4-8.4-25.1c-5.9-8.1-22.9-16.8-34.6-18.3
					c-0.1,1.9,0.2,4.5-1.1,6.8c-0.9,1.4-2,2-3.4,1.4c-1.1-0.5-1.9-1.4-2.2-1.5c0,0.7-0.3,1.2-0.4,1.9c-0.1,1.2-0.9,4.1-2.9,4.3
					c-2.2,0.3-5.3-2.5-6.2-3.7c-0.4-0.6-0.8-0.8-1-0.5c-0.3,1.8-1.3,3.1-2.9,3.7c-0.8,0.3-1.7,0.3-2.7,0.3c-1.2-0.1-2.2-0.9-2.8-1.4
					c-1.1-1-2.2-2.3-2.9-1.8c-0.4,0.3-1.6,1.9-3.1,3.2c-0.6,0.5-1.1,0.9-1.6,1c-1.3,0.4-1.9-0.4-3.6-2c-1.8-1.8-0.7-4.7,0-6.3
					c0.2-0.4,0.4-0.8,0.4-1.1c0.7-0.7,0-0.6,0.1-1.7c-4.9,0.7-9.9,1.9-12.8,3.9c-3.7,2.5-7.9,6.5-11.8,12.1c-0.7,1-1.4,2.1-2.1,3.3
					c-1.9,3.1-3.4,6.3-4.5,9.3c-2.3,6.2-2.7,11.2-3,12.7c-0.5-0.3-0.9-0.6-1.3-0.9c-0.9-1.9-1.5-6.3-0.9-13.4
					c0.3-3.9,1.2-8.3,3-12.4C130.1,39.9,134.7,33.3,141.6,28z"/>
				<path class="st154" d="M141.8,28.1c9-6.8,15.9-3,18-3.5c1.3-0.3-0.9-1.2-2.1-2.7c-1.2-1.5,0.7-1.6,3.3-0.6
					c0.9,0.3,1.7,0.7,2.3,1c1.6,0.8,2.5,1.3,2.5,1.1c0-0.3,0.5-2.5,1.5-4c1.1-0.7,2-1.1,2.4-1.6c0.3-0.4,0.6-0.8,0.9-0.9
					c0.7,0.2-0.2,0.1,0.4,1.5c0.6,1.2,0.7,2.9,0.8,3.7c0.1,0.7,0.5,1.1,0.9,1c2.2-2.3,13.9-4.3,22.1-3c1.1,0.2,2.2,0.4,3.3,0.6
					c9.4,2,28.9,4.9,36,17c6.7,11.5,8.1,20.5,7.7,26.6c-0.4,6-2.5,9.2-2.5,9.2s-0.9-14.8-8.5-25c-5.8-7.8-23.3-16.8-34.6-18.1
					c-0.3,1.8,0,4.6-1.2,6.8c-0.8,1.4-1.8,2.2-3.2,1.6c-1-0.4-1.9-1.3-2.2-1.5c-0.1,0.6-0.5,1-0.6,1.7c-0.1,1.1-0.8,4.2-2.8,4.4
					c-2.2,0.3-5.3-2.5-6.2-3.7c-0.4-0.5-0.8-0.7-1-0.4c-0.4,1.7-1.4,3.1-2.9,3.6c-0.8,0.2-1.7,0.3-2.7,0.2c-1.2-0.1-2.2-0.9-2.7-1.4
					c-1-0.9-2.2-2.1-3-1.6c-0.5,0.3-1.7,1.9-3.1,3.2c-0.6,0.5-1.1,0.9-1.6,1c-1.3,0.4-1.8-0.6-3.3-2.1c-1.6-1.7-0.5-4.7,0.2-6.3
					c0.2-0.4,0.3-0.8,0.3-1.1c0.6-0.7-0.1-0.6,0-1.6c-4.9,0.6-9.9,1.7-12.8,3.8c-3.6,2.5-7.8,6.5-11.7,12.1c-0.7,1-1.4,2.1-2.1,3.3
					c-1.9,3.1-3.4,6.2-4.6,9.3c-2.3,6.1-2.8,11-3.1,12.7c-0.5-0.3-0.9-0.5-1.3-0.7c-0.8-1.8-1.5-6.3-0.8-13.4
					c0.4-4,1.2-8.3,3.1-12.4C130.4,39.8,134.9,33.3,141.8,28.1z"/>
				<path class="st155" d="M142,28.2c8.7-6.4,15.4-2.9,17.6-3.4c1.3-0.3-0.8-1.1-1.9-2.6c-1-1.4,0.8-1.5,3.3-0.6
					c0.9,0.3,1.6,0.6,2.2,0.9c1.5,0.8,2.4,1.2,2.4,1c0-0.3,0.5-2.4,1.5-3.9c1.2-0.6,2.1-0.9,2.5-1.4c0.3-0.4,0.6-0.8,0.8-1
					c0.6,0.1-0.2-0.1,0.5,1.4c0.6,1.3,0.7,2.9,0.9,3.7c0.1,0.7,0.5,1.1,1,0.9c2.3-2.2,14-4.3,22.1-3c1.1,0.2,2.2,0.4,3.3,0.6
					c9.4,2.1,29,5,35.9,17.1c6.5,11.3,7.9,20.1,7.6,26.1c-0.4,5.9-2.3,9.1-2.3,9.1s-1.2-15.1-8.6-25c-5.7-7.5-23.7-16.8-34.6-18
					c-0.5,1.7-0.2,4.6-1.2,6.8c-0.7,1.4-1.6,2.3-3,1.7c-1-0.4-1.9-1.3-2.3-1.5c-0.1,0.5-0.6,0.8-0.7,1.5c-0.1,1.1-0.7,4.3-2.8,4.5
					c-2.2,0.2-5.4-2.6-6.2-3.6c-0.4-0.5-0.8-0.6-1-0.3c-0.4,1.7-1.5,3.1-3,3.6c-0.8,0.2-1.7,0.2-2.7,0.1c-1.2-0.2-2.2-1-2.7-1.5
					c-1-0.9-2.2-1.9-3-1.4c-0.5,0.4-1.7,1.9-3.2,3.1c-0.6,0.5-1.1,0.9-1.6,1c-1.3,0.3-1.7-0.8-3-2.3c-1.4-1.7-0.4-4.7,0.3-6.3
					c0.2-0.4,0.3-0.8,0.2-1.1c0.5-0.7-0.1-0.6-0.2-1.6c-4.9,0.5-10,1.6-12.8,3.6c-3.5,2.4-7.7,6.4-11.7,12.1c-0.7,1-1.4,2.1-2.1,3.3
					c-1.9,3.1-3.4,6.2-4.6,9.3c-2.3,6-2.8,10.9-3.1,12.7c-0.5-0.2-0.9-0.3-1.3-0.5c-0.8-1.7-1.4-6.3-0.7-13.4
					c0.4-4,1.2-8.3,3.1-12.4C130.7,39.7,135.2,33.2,142,28.2z"/>
				<path class="st156" d="M142.3,28.3c8.4-6.1,14.9-2.9,17.1-3.3c1.3-0.3-0.6-1.1-1.6-2.5c-0.9-1.3,0.9-1.4,3.3-0.5
					c0.8,0.3,1.6,0.6,2.2,0.9c1.5,0.7,2.3,1.1,2.3,0.8c0-0.3,0.5-2.4,1.5-3.7c1.2-0.5,2.2-0.8,2.5-1.2c0.3-0.3,0.6-0.8,0.8-1
					c0.6,0-0.2-0.2,0.6,1.2c0.7,1.3,0.8,3,0.9,3.7c0.1,0.6,0.5,1,1,0.8c2.4-2.2,14.1-4.4,22.1-3.1c1.1,0.2,2.2,0.4,3.3,0.6
					c9.5,2.1,29,5.1,35.9,17.2c6.3,11,7.8,19.7,7.4,25.7c-0.3,5.8-2.2,8.9-2.2,8.9s-1.5-15.5-8.8-24.9c-5.6-7.2-24.1-16.8-34.6-17.9
					c-0.7,1.7-0.4,4.6-1.2,6.8c-0.6,1.5-1.4,2.4-2.9,1.9c-1-0.4-1.9-1.2-2.3-1.4c-0.2,0.5-0.8,0.7-0.9,1.3c-0.1,1-0.6,4.4-2.7,4.6
					c-2.1,0.2-5.5-2.6-6.2-3.6c-0.4-0.5-0.8-0.6-1-0.2c-0.4,1.7-1.5,3.1-3,3.5c-0.8,0.2-1.7,0.2-2.6,0c-1.2-0.2-2.2-1.1-2.7-1.5
					c-0.9-0.8-2.2-1.8-3.1-1.1c-0.6,0.4-1.8,1.9-3.2,3.1c-0.6,0.5-1.2,0.8-1.6,0.9c-1.4,0.3-1.6-0.9-2.7-2.4
					c-1.3-1.6-0.2-4.7,0.4-6.3c0.1-0.4,0.2-0.7,0.1-1c0.5-0.6-0.2-0.6-0.3-1.5c-4.8,0.5-10.1,1.5-12.8,3.5
					c-3.3,2.4-7.7,6.4-11.7,12.1c-0.7,1-1.4,2.1-2.1,3.3c-1.9,3.1-3.4,6.2-4.6,9.2c-2.2,5.8-2.8,10.7-3.1,12.6
					c-0.5-0.1-0.9-0.2-1.2-0.3c-0.8-1.6-1.3-6.3-0.6-13.4c0.4-4,1.3-8.3,3.2-12.3C130.9,39.6,135.5,33.2,142.3,28.3z"/>
				<path class="st157" d="M142.5,28.3c8.1-5.8,14.4-2.8,16.7-3.2c1.3-0.3-0.5-1-1.4-2.3c-0.8-1.3,0.9-1.3,3.2-0.5
					c0.8,0.3,1.6,0.6,2.1,0.8c1.4,0.7,2.2,1,2.2,0.7c0-0.4,0.4-2.3,1.5-3.6c1.3-0.4,2.3-0.6,2.6-1c0.3-0.3,0.5-0.8,0.7-1
					c0.6,0-0.1-0.3,0.6,1c0.7,1.3,0.8,3,0.9,3.7c0.1,0.6,0.5,0.9,1.1,0.7c2.5-2.2,14.2-4.4,22.2-3.1c1.1,0.2,2.2,0.4,3.3,0.6
					c9.6,2.1,29,5.2,35.9,17.2c6.1,10.8,7.6,19.3,7.3,25.2c-0.2,5.7-2,8.8-2,8.8s-1.8-15.9-8.9-24.8c-5.5-6.9-24.4-16.8-34.6-17.8
					c-0.9,1.6-0.6,4.7-1.3,6.8c-0.5,1.5-1.2,2.5-2.7,2.1c-1-0.3-1.8-1.1-2.3-1.4c-0.3,0.4-0.9,0.5-1,1.1c-0.1,1-0.6,4.5-2.6,4.7
					c-2.1,0.2-5.5-2.6-6.2-3.6c-0.3-0.5-0.7-0.5-1-0.1c-0.5,1.7-1.6,3.1-3.1,3.5c-0.8,0.2-1.7,0.1-2.6-0.1c-1.2-0.3-2.2-1.2-2.6-1.6
					c-0.9-0.8-2.1-1.6-3.1-0.9c-0.6,0.4-1.8,1.9-3.2,3c-0.6,0.5-1.2,0.8-1.6,0.9c-1.4,0.2-1.5-1.1-2.5-2.6c-1.1-1.6,0-4.7,0.5-6.3
					c0.1-0.4,0.1-0.7,0-1c0.4-0.6-0.3-0.6-0.4-1.4c-4.8,0.4-10.1,1.4-12.9,3.4c-3.2,2.3-7.6,6.3-11.6,12.1c-0.7,1-1.4,2.1-2.1,3.3
					c-1.9,3-3.4,6.1-4.6,9.2c-2.2,5.7-2.8,10.5-3.2,12.6c-0.4,0-0.8,0-1.2-0.1c-0.7-1.5-1.3-6.3-0.5-13.4c0.4-4,1.3-8.3,3.3-12.3
					C131.2,39.5,135.8,33.1,142.5,28.3z"/>
				<path class="st158" d="M142.7,28.4c7.8-5.5,13.9-2.7,16.2-3.1c1.2-0.2-0.4-1-1.1-2.2c-0.7-1.2,1-1.2,3.2-0.5
					c0.8,0.3,1.5,0.5,2.1,0.8c1.4,0.7,2.1,0.9,2.1,0.6c0-0.4,0.4-2.3,1.5-3.4c1.3-0.4,2.3-0.5,2.6-0.9c0.3-0.3,0.5-0.8,0.7-1.1
					c0.6-0.1-0.1-0.5,0.7,0.8c0.8,1.3,0.9,3,1,3.6c0.1,0.6,0.5,0.8,1.1,0.6c2.7-2.1,14.2-4.5,22.2-3.1c1.1,0.2,2.2,0.4,3.3,0.6
					c9.6,2.1,29.1,5.3,35.9,17.3c5.9,10.5,7.4,18.9,7.2,24.7c-0.2,5.6-1.9,8.6-1.9,8.6s-2.1-16.3-9-24.7
					c-5.4-6.6-24.8-16.8-34.6-17.7c-1.1,1.6-0.8,4.7-1.3,6.8c-0.4,1.5-1,2.7-2.5,2.2c-1-0.3-1.8-1.1-2.3-1.3
					c-0.4,0.3-1.1,0.3-1.2,0.9c-0.1,0.9-0.5,4.6-2.5,4.8c-2.1,0.2-5.6-2.6-6.2-3.5c-0.3-0.4-0.7-0.4-1,0c-0.5,1.6-1.6,3.1-3.1,3.4
					c-0.8,0.2-1.7,0.1-2.6-0.2c-1.2-0.3-2.2-1.3-2.6-1.6c-0.8-0.7-2.1-1.4-3.1-0.7c-0.6,0.5-1.9,1.9-3.3,3c-0.6,0.5-1.2,0.8-1.6,0.9
					c-1.4,0.1-1.4-1.3-2.2-2.7c-0.9-1.5,0.2-4.8,0.6-6.3c0.1-0.4,0.1-0.7-0.1-1c0.3-0.6-0.4-0.6-0.6-1.4c-4.8,0.3-10.2,1.3-12.9,3.2
					c-3.1,2.3-7.5,6.3-11.6,12.1c-0.7,1-1.4,2.1-2.1,3.3c-1.8,3-3.4,6.1-4.6,9.2c-2.2,5.6-2.8,10.4-3.2,12.6c-0.4,0-0.8,0.1-1.1,0.2
					c-0.7-1.4-1.2-6.3-0.4-13.4c0.4-4,1.4-8.3,3.3-12.3C131.5,39.3,136,33.1,142.7,28.4z"/>
				<path class="st159" d="M143,28.5c7.5-5.2,13.4-2.6,15.8-3.1c1.2-0.2-0.2-0.9-0.8-2c-0.6-1.1,1.1-1.1,3.2-0.4
					c0.8,0.3,1.5,0.5,2,0.7c1.3,0.6,2,0.8,2,0.4c0-0.4,0.4-2.2,1.5-3.3c1.4-0.3,2.4-0.4,2.7-0.7c0.2-0.3,0.5-0.8,0.7-1.1
					c0.5-0.2,0-0.6,0.8,0.7c0.9,1.3,0.9,3,1,3.6c0.1,0.5,0.5,0.8,1.2,0.5c2.8-2.1,14.3-4.5,22.2-3.2c1,0.2,2.2,0.4,3.3,0.6
					c9.7,2.1,29.1,5.4,35.8,17.4c5.8,10.3,7.2,18.5,7.1,24.2c-0.1,5.5-1.7,8.5-1.7,8.5s-2.4-16.6-9.1-24.7
					c-5.2-6.3-25.2-16.8-34.6-17.6c-1.3,1.5-1,4.8-1.3,6.8c-0.3,1.5-0.8,2.8-2.3,2.4c-0.9-0.3-1.8-1-2.3-1.3
					c-0.5,0.2-1.2,0.2-1.3,0.7c-0.1,0.8-0.4,4.8-2.4,4.9c-2.1,0.2-5.6-2.7-6.3-3.5c-0.3-0.4-0.7-0.4-1,0.1c-0.5,1.6-1.7,3.1-3.2,3.4
					c-0.8,0.2-1.7,0-2.6-0.3c-1.2-0.4-2.2-1.4-2.6-1.7c-0.8-0.7-2.1-1.2-3.2-0.4c-0.7,0.5-1.9,1.9-3.3,2.9c-0.6,0.5-1.2,0.8-1.6,0.8
					c-1.4,0.1-1.3-1.5-1.9-2.8c-0.7-1.5,0.4-4.8,0.7-6.4c0.1-0.4,0-0.7-0.2-1c0.3-0.6-0.5-0.6-0.7-1.3c-4.8,0.3-10.3,1.2-12.9,3.1
					c-3,2.2-7.4,6.2-11.6,12.2c-0.7,1-1.4,2.1-2.1,3.3c-1.8,3-3.4,6.1-4.6,9.2c-2.1,5.5-2.8,10.2-3.3,12.6c-0.4,0.1-0.8,0.3-1.1,0.4
					c-0.6-1.3-1.1-6.3-0.3-13.4c0.5-4,1.4-8.3,3.4-12.2C131.8,39.2,136.3,33,143,28.5z"/>
				<path class="st160" d="M143.2,28.5c7.2-4.8,12.9-2.6,15.3-3c1.2-0.2-0.1-0.8-0.6-1.9c-0.5-1,1.1-1,3.1-0.4
					c0.8,0.2,1.5,0.5,2,0.7c1.3,0.6,1.9,0.7,1.9,0.3c0-0.4,0.4-2.2,1.4-3.1c1.4-0.2,2.5-0.2,2.8-0.5c0.2-0.3,0.4-0.8,0.6-1.1
					c0.5-0.3,0-0.7,0.8,0.5c1,1.4,1,3.1,1,3.6c0.1,0.5,0.6,0.7,1.2,0.5c2.9-2,14.4-4.6,22.2-3.2c1,0.2,2.1,0.4,3.3,0.7
					c9.7,2.1,29.2,5.5,35.8,17.5c5.6,10.1,7,18.1,6.9,23.7c-0.1,5.4-1.5,8.3-1.5,8.3s-2.7-17-9.2-24.6c-5.1-6-25.6-16.8-34.7-17.5
					c-1.5,1.4-1.2,4.8-1.4,6.8c-0.2,1.5-0.6,2.9-2.2,2.5c-0.9-0.2-1.8-1-2.4-1.3c-0.6,0.2-1.4,0-1.4,0.5c-0.1,0.8-0.3,4.9-2.4,5
					c-2.1,0.2-5.7-2.7-6.3-3.5c-0.3-0.4-0.7-0.3-1,0.2c-0.6,1.6-1.8,3.1-3.2,3.4c-0.8,0.2-1.7,0-2.6-0.3c-1.2-0.4-2.2-1.4-2.5-1.8
					c-0.7-0.6-2.1-1-3.2-0.2c-0.7,0.5-2,1.9-3.4,2.9c-0.6,0.5-1.2,0.8-1.7,0.8c-1.4,0-1.2-1.6-1.7-3c-0.6-1.4,0.6-4.8,0.8-6.4
					c0-0.4,0-0.7-0.3-1c0.2-0.5-0.6-0.5-0.9-1.3c-4.8,0.2-10.4,1-12.9,3c-2.8,2.2-7.3,6.2-11.5,12.2c-0.7,1-1.4,2.1-2.1,3.2
					c-1.8,3-3.4,6-4.6,9.2c-2.1,5.3-2.8,10-3.3,12.5c-0.4,0.2-0.8,0.4-1.1,0.6c-0.6-1.2-1.1-6.3-0.2-13.3c0.5-4,1.5-8.3,3.5-12.2
					C132.1,39.1,136.6,33,143.2,28.5z"/>
				<path class="st161" d="M143.4,28.6c6.9-4.5,12.4-2.5,14.8-2.9c1.2-0.2,0.1-0.8-0.3-1.8c-0.4-0.9,1.2-1,3.1-0.4
					c0.8,0.2,1.4,0.4,1.9,0.6c1.2,0.5,1.8,0.6,1.8,0.2c0-0.5,0.4-2.1,1.4-3c1.5-0.2,2.6-0.1,2.8-0.4c0.2-0.2,0.4-0.8,0.6-1.2
					c0.5-0.3,0-0.9,0.9,0.3c1,1.4,1,3.1,1.1,3.6c0.1,0.4,0.6,0.6,1.3,0.4c3-2,14.5-4.6,22.2-3.2c1,0.2,2.1,0.4,3.3,0.7
					c9.8,2.1,29.2,5.6,35.8,17.6C239.5,49,241,57,241,62.4c0,5.2-1.4,8.2-1.4,8.2s-3.1-17.4-9.3-24.5c-5-5.7-26-16.8-34.7-17.4
					c-1.7,1.4-1.3,4.9-1.4,6.8c-0.1,1.5-0.4,3-2,2.7c-0.9-0.2-1.8-0.9-2.4-1.2c-0.7,0.1-1.5-0.2-1.6,0.3c-0.1,0.7-0.3,5-2.3,5.1
					c-2.1,0.2-5.8-2.7-6.3-3.4c-0.3-0.3-0.7-0.2-1,0.3c-0.6,1.6-1.8,3.1-3.2,3.3c-0.8,0.1-1.7-0.1-2.6-0.4c-1.2-0.5-2.2-1.5-2.5-1.8
					c-0.7-0.6-2.1-0.8-3.3,0c-0.8,0.5-2.1,1.9-3.4,2.8c-0.7,0.5-1.3,0.8-1.7,0.7c-1.4-0.1-1.1-1.8-1.4-3.1c-0.4-1.4,0.8-4.8,0.9-6.4
					c0-0.4-0.1-0.7-0.4-1c0.1-0.5-0.7-0.5-1-1.2c-4.8,0.1-10.4,0.9-12.9,2.8c-2.7,2.1-7.2,6.2-11.5,12.2c-0.7,1-1.4,2.1-2.1,3.2
					c-1.8,2.9-3.4,6-4.7,9.1c-2.1,5.2-2.8,9.8-3.3,12.5c-0.4,0.2-0.7,0.5-1,0.8c-0.5-1.1-1-6.3-0.1-13.3c0.5-4,1.5-8.3,3.6-12.2
					C132.4,39,136.9,32.9,143.4,28.6z"/>
				<path class="st162" d="M143.7,28.7c6.6-4.2,11.9-2.4,14.4-2.8c1.2-0.2,0.2-0.7-0.1-1.6c-0.3-0.9,1.3-0.9,3.1-0.4
					c0.7,0.2,1.4,0.4,1.9,0.6c1.2,0.5,1.7,0.5,1.7,0.1c0-0.5,0.3-2.1,1.4-2.8c1.6-0.1,2.6,0.1,2.9-0.2c0.2-0.2,0.4-0.8,0.5-1.2
					c0.4-0.4,0.1-1,1,0.1c1.1,1.4,1,3.1,1.1,3.6c0.1,0.4,0.6,0.5,1.3,0.3c3.1-2,14.6-4.7,22.2-3.2c1,0.2,2.1,0.4,3.3,0.7
					c9.8,2.1,29.2,5.7,35.7,17.7c5.2,9.6,6.7,17.4,6.7,22.7c0,5.1-1.2,8-1.2,8s-3.4-17.8-9.4-24.4c-4.9-5.4-26.4-16.8-34.7-17.2
					c-1.9,1.3-1.5,4.9-1.5,6.8c0.1,1.5-0.2,3.1-1.8,2.8c-0.9-0.2-1.8-0.9-2.4-1.2c-0.7,0-1.7-0.3-1.7,0.1c-0.1,0.7-0.2,5.1-2.2,5.2
					c-2.1,0.2-5.8-2.8-6.3-3.4c-0.2-0.3-0.6-0.1-1,0.4c-0.6,1.5-1.9,3.1-3.3,3.3c-0.8,0.1-1.7-0.1-2.6-0.5c-1.2-0.5-2.1-1.6-2.4-1.9
					c-0.6-0.5-2-0.6-3.3,0.3c-0.8,0.6-2.1,1.9-3.4,2.8c-0.7,0.5-1.3,0.7-1.7,0.7c-1.4-0.1-0.9-2-1.1-3.2c-0.2-1.3,1.1-4.8,1-6.4
					c0-0.3-0.2-0.7-0.5-0.9c0-0.5-0.7-0.5-1.2-1.2c-4.8,0.1-10.5,0.8-12.9,2.7c-2.6,2-7.1,6.1-11.5,12.2c-0.7,1-1.4,2.1-2.1,3.2
					c-1.8,2.9-3.4,6-4.7,9.1c-2,5.1-2.8,9.7-3.4,12.5c-0.4,0.3-0.7,0.7-1,1c-0.5-1-1-6.3,0-13.3c0.5-4,1.6-8.3,3.6-12.1
					C132.7,38.9,137.1,32.9,143.7,28.7z"/>
				<path class="st163" d="M143.9,28.8c6.3-3.9,11.4-2.3,13.9-2.7c1.2-0.2,0.4-0.7,0.2-1.5c-0.2-0.8,1.3-0.8,3-0.3
					c0.7,0.2,1.4,0.4,1.8,0.5c1.1,0.4,1.6,0.4,1.6-0.1c0-0.5,0.3-2.1,1.4-2.7c1.6,0,2.7,0.2,2.9,0c0.2-0.2,0.2-0.8,0.5-1.3
					c0.3-0.5,0.1-1.1,1.1,0c1.2,1.4,1.1,3.1,1.2,3.6c0.1,0.4,0.6,0.5,1.4,0.2c3.2-1.9,14.6-4.7,22.2-3.3c1,0.2,2.1,0.4,3.3,0.7
					c9.9,2.2,29.3,5.8,35.7,17.8c5,9.4,6.5,17,6.6,22.2c0.1,5-1.1,7.8-1.1,7.8s-3.7-18.2-9.6-24.4c-4.8-5.1-26.8-16.8-34.7-17.1
					c-2.1,1.3-1.7,5-1.5,6.8c0.2,1.6-0.1,3.2-1.6,3c-0.8-0.1-1.8-0.8-2.4-1.2c-0.8-0.1-1.8-0.5-1.9-0.1c-0.1,0.6-0.1,5.2-2.1,5.3
					c-2.1,0.1-5.9-2.8-6.3-3.4c-0.2-0.3-0.6-0.1-1,0.5c-0.7,1.5-1.9,3-3.3,3.2c-0.8,0.1-1.7-0.2-2.5-0.6c-1.2-0.6-2.1-1.7-2.4-1.9
					c-0.5-0.5-2-0.4-3.4,0.5c-0.9,0.6-2.2,1.9-3.5,2.8c-0.7,0.5-1.3,0.7-1.7,0.7c-1.5-0.2-0.8-2.2-0.9-3.4c0-1.3,1.3-4.8,1.1-6.4
					c0-0.3-0.2-0.7-0.6-0.9c0-0.5-0.8-0.5-1.3-1.1c-4.8,0-10.6,0.7-12.9,2.6c-2.5,2-7,6.1-11.4,12.2c-0.7,1-1.4,2.1-2.2,3.2
					c-1.8,2.9-3.4,5.9-4.7,9.1c-2,5-2.9,9.5-3.4,12.5c-0.4,0.4-0.7,0.8-0.9,1.3c-0.4-0.9-0.9-6.3,0.1-13.3c0.6-4,1.6-8.3,3.7-12.1
					C132.9,38.8,137.4,32.8,143.9,28.8z"/>
				<path class="st164" d="M144.1,28.8c5.9-3.6,10.9-2.3,13.5-2.6c1.1-0.2,0.5-0.6,0.4-1.4c-0.1-0.7,1.4-0.7,3-0.3
					c0.7,0.2,1.3,0.3,1.7,0.5c1.1,0.4,1.5,0.3,1.5-0.2c0-0.6,0.3-2,1.4-2.5c1.7,0,2.8,0.4,3,0.2c0.2-0.2,0.2-0.8,0.5-1.3
					c0.3-0.6,0.2-1.3,1.1-0.2c1.3,1.4,1.1,3.2,1.2,3.5c0.1,0.3,0.6,0.4,1.4,0.1c3.3-1.9,14.7-4.8,22.3-3.3c1,0.2,2.1,0.4,3.3,0.7
					c9.9,2.2,29.3,5.9,35.7,17.9c4.8,9.1,6.3,16.6,6.5,21.8c0.1,4.9-0.9,7.7-0.9,7.7s-4-18.5-9.7-24.3c-4.7-4.8-27.1-16.8-34.7-17
					c-2.3,1.2-1.9,5-1.5,6.8c0.3,1.6,0.1,3.4-1.4,3.2c-0.8-0.1-1.7-0.8-2.4-1.1c-0.9-0.2-2-0.6-2-0.3c-0.1,0.5,0,5.3-2,5.4
					c-2.1,0.1-5.9-2.8-6.3-3.3c-0.2-0.3-0.6,0-1,0.6c-0.7,1.5-2,3-3.4,3.2c-0.8,0.1-1.7-0.2-2.5-0.7c-1.2-0.6-2.1-1.8-2.4-2
					c-0.5-0.4-2-0.3-3.4,0.7c-0.9,0.6-2.2,1.9-3.5,2.7c-0.7,0.4-1.3,0.7-1.7,0.6c-1.5-0.3-0.7-2.3-0.6-3.5c0.1-1.2,1.5-4.8,1.2-6.4
					c-0.1-0.3-0.3-0.6-0.8-0.9c-0.1-0.4-0.9-0.5-1.4-1c-4.7,0-10.6,0.6-12.9,2.4c-2.3,1.9-7,6-11.4,12.2c-0.7,1-1.4,2.1-2.2,3.2
					c-1.8,2.9-3.4,5.9-4.7,9.1c-2,4.8-2.9,9.3-3.5,12.5c-0.3,0.5-0.6,1-0.9,1.5c-0.4-0.8-0.8-6.3,0.2-13.3c0.6-4,1.7-8.3,3.8-12.1
					C133.2,38.7,137.7,32.8,144.1,28.8z"/>
				<path class="st165" d="M144.4,28.9c5.6-3.3,10.4-2.2,13-2.6c1.1-0.2,0.6-0.6,0.7-1.2c0.1-0.7,1.5-0.6,3-0.3
					c0.7,0.2,1.3,0.3,1.7,0.4c1,0.3,1.4,0.2,1.4-0.3c0-0.6,0.3-2,1.4-2.4c1.7,0.1,2.9,0.5,3,0.3c0.1-0.2,0.2-0.8,0.4-1.3
					c0.3-0.7,0.2-1.4,1.2-0.4c1.3,1.4,1.2,3.2,1.2,3.5c0.1,0.3,0.6,0.3,1.5,0c3.5-1.9,14.8-4.8,22.3-3.3c1,0.2,2.1,0.4,3.3,0.7
					c10,2.2,29.4,6,35.6,18c4.6,8.9,6.1,16.2,6.3,21.3c0.2,4.8-0.7,7.5-0.7,7.5s-4.3-18.9-9.8-24.2c-4.6-4.5-27.5-16.7-34.7-16.9
					c-2.5,1.1-2,5.1-1.6,6.8c0.4,1.6,0.3,3.5-1.3,3.3c-0.8-0.1-1.7-0.7-2.5-1.1c-1-0.2-2.1-0.8-2.2-0.5c-0.1,0.5,0.1,5.4-2,5.5
					c-2.1,0.1-6-2.8-6.4-3.3c-0.2-0.2-0.6,0.1-1,0.6c-0.7,1.5-2.1,3-3.4,3.2c-0.8,0.1-1.7-0.3-2.5-0.8c-1.2-0.7-2.1-1.8-2.3-2
					c-0.4-0.4-2-0.1-3.4,1c-1,0.7-2.3,1.9-3.5,2.7c-0.7,0.4-1.4,0.7-1.7,0.6c-1.5-0.4-0.6-2.5-0.3-3.7c0.3-1.2,1.7-4.8,1.3-6.4
					c-0.1-0.3-0.4-0.6-0.9-0.9c-0.2-0.4-1-0.5-1.6-1c-4.7-0.1-10.7,0.4-12.9,2.3c-2.2,1.9-6.9,6-11.4,12.3c-0.7,1-1.4,2.1-2.2,3.2
					c-1.8,2.8-3.4,5.9-4.7,9.1c-1.9,4.7-2.9,9.2-3.5,12.4c-0.3,0.5-0.6,1.1-0.9,1.7c-0.4-0.8-0.8-6.3,0.3-13.3c0.6-4,1.7-8.3,3.8-12
					C133.5,38.6,137.9,32.7,144.4,28.9z"/>
				<path class="st166" d="M144.6,29c5.3-3,9.9-2.1,12.6-2.5c1.1-0.1,0.8-0.5,1-1.1c0.2-0.6,1.5-0.5,2.9-0.2
					c0.7,0.2,1.3,0.3,1.6,0.4c1,0.3,1.3,0.1,1.3-0.5c0-0.6,0.3-1.9,1.4-2.2c1.8,0.2,3,0.7,3.1,0.5c0.1-0.1,0.2-0.8,0.4-1.4
					c0.3-0.7,0.3-1.6,1.3-0.6c1.4,1.4,1.2,3.2,1.3,3.5c0,0.3,0.6,0.2,1.5-0.1c3.6-1.8,14.9-4.8,22.3-3.4c1,0.2,2.1,0.4,3.3,0.7
					c10,2.2,29.4,6.1,35.6,18.1c4.5,8.6,6,15.8,6.2,20.8c0.2,4.7-0.6,7.4-0.6,7.4s-4.6-19.3-9.9-24.2c-4.5-4.1-27.9-16.7-34.7-16.8
					c-2.8,1.1-2.2,5.1-1.6,6.8c0.6,1.6,0.5,3.6-1.1,3.5c-0.8,0-1.7-0.6-2.5-1c-1.1-0.3-2.3-1-2.3-0.7c-0.1,0.4,0.1,5.5-1.9,5.6
					c-2.1,0.1-6.1-2.9-6.4-3.3c-0.2-0.2-0.6,0.1-1,0.7c-0.8,1.4-2.1,3-3.5,3.1c-0.8,0.1-1.7-0.3-2.5-0.8c-1.2-0.7-2.1-1.9-2.3-2.1
					c-0.4-0.3-1.9,0.1-3.5,1.2c-1,0.7-2.3,1.9-3.6,2.6c-0.7,0.4-1.4,0.7-1.8,0.6c-1.5-0.4-0.5-2.7-0.1-3.8c0.5-1.1,1.9-4.8,1.4-6.4
					c-0.1-0.3-0.4-0.6-1-0.9c-0.2-0.4-1.1-0.5-1.7-0.9c-4.7-0.2-10.8,0.3-12.9,2.2c-2.1,1.8-6.8,5.9-11.3,12.3
					c-0.7,1-1.4,2.1-2.2,3.2c-1.8,2.8-3.4,5.9-4.7,9.1c-1.9,4.6-2.9,9-3.5,12.4c-0.3,0.6-0.6,1.3-0.8,1.9c-0.3-0.7-0.7-6.3,0.4-13.3
					c0.6-4,1.8-8.3,3.9-12C133.8,38.5,138.2,32.6,144.6,29z"/>
				<path class="st167" d="M144.8,29.1c5-2.7,9.4-2,12.1-2.4c1.1-0.1,1-0.5,1.2-1c0.3-0.5,1.6-0.5,2.9-0.2c0.7,0.1,1.2,0.2,1.6,0.3
					c0.9,0.3,1.2,0,1.3-0.6c0-0.6,0.3-2.4,1.4-2.1c1.8,0.6,3,0.8,3.2,0.7c0.1-0.1,0.1-0.8,0.3-1.4c0.3-0.8,0.3-1.7,1.3-0.7
					c1.5,1.4,1.2,3.2,1.3,3.5c0,0.2,0.6,0.2,1.6-0.2c3.7-1.8,15-4.9,22.3-3.4c1,0.2,2.1,0.4,3.3,0.7c10.1,2.2,29.5,6.2,35.6,18.1
					c4.3,8.4,5.8,15.4,6.1,20.3c0.3,4.6-0.4,7.2-0.4,7.2s-4.9-19.6-10-24.1c-4.4-3.8-28.3-16.7-34.7-16.7c-3,1-2.3,5.2-1.6,6.8
					c0.7,1.6,0.7,3.7-0.9,3.6c-0.7,0-1.7-0.6-2.5-1c-1.2-0.4-2.5-1.1-2.5-0.9c0,0.4,0.2,5.6-1.8,5.7c-2,0.1-6.1-2.9-6.4-3.3
					c-0.1-0.2-0.5,0.2-1,0.8c-0.8,1.4-2.2,3-3.5,3.1c-0.8,0-1.7-0.4-2.5-0.9c-1.2-0.8-2.1-2-2.3-2.2c-0.3-0.3-1.9,0.3-3.5,1.4
					c-1,0.7-2.4,1.9-3.6,2.6c-0.7,0.4-1.4,0.7-1.8,0.5c-1.5-0.5-0.4-2.8,0.2-3.9c0.7-1.1,2.1-4.8,1.5-6.4c-0.1-0.3-0.5-0.6-1.1-0.9
					c-0.3-0.4-1.2-0.5-1.9-0.9c-4.7-0.2-10.9,0.2-13,2.1c-2,1.7-6.7,5.9-11.3,12.3c-0.7,1-1.4,2.1-2.2,3.2c-1.8,2.8-3.4,5.8-4.7,9
					c-1.9,4.5-2.9,8.8-3.6,12.4c-0.3,0.7-0.6,1.4-0.8,2.2c-0.3-0.6-0.6-6.3,0.5-13.3c0.7-4,1.8-8.3,4-12
					C134.1,38.4,138.4,32.6,144.8,29.1z"/>
				<path class="st168" d="M145,29.1c4.6-2.5,8.9-2,11.7-2.3c1.1-0.1,1.1-0.5,1.5-0.8c0.4-0.5,1.7-0.4,2.9-0.2
					c0.7,0.1,1.2,0.2,1.5,0.3c0.9,0.2,1.1-0.2,1.2-0.7c0-0.7,0.3-2.3,1.4-1.9c1.8,0.6,3.1,1,3.2,0.8c0.1-0.1,0.1-0.8,0.3-1.4
					c0.2-0.9,0.4-1.8,1.4-0.9c1.6,1.4,1.3,3.3,1.3,3.5c0,0.2,0.6,0.1,1.6-0.3c3.8-1.8,15-4.9,22.3-3.4c1,0.2,2.1,0.4,3.3,0.7
					c10.1,2.2,29.6,6.3,35.5,18.2c4.1,8.2,5.6,15,6,19.8c0.3,4.5-0.3,7.1-0.3,7.1s-5.2-20-10.1-24C225.4,40,201,26.8,194.9,27
					c-3.2,1-2.5,5.2-1.7,6.8c0.8,1.6,0.9,3.8-0.7,3.8c-0.7,0-1.7-0.5-2.5-1c-1.2-0.5-2.6-1.3-2.6-1.1c0,0.3,0.3,5.7-1.7,5.8
					c-2,0.1-6.2-2.9-6.4-3.2c-0.1-0.1-0.5,0.3-1,0.9c-0.8,1.4-2.3,3-3.6,3c-0.8,0-1.7-0.4-2.5-1c-1.2-0.8-2.1-2.1-2.2-2.2
					c-0.3-0.2-1.9,0.5-3.6,1.7c-1.1,0.8-2.4,1.9-3.6,2.5c-0.8,0.4-1.4,0.6-1.8,0.5c-1.5-0.6-0.3-3,0.5-4.1c0.8-1.1,2.4-4.8,1.6-6.4
					c-0.1-0.3-0.6-0.5-1.2-0.8c-0.4-0.3-1.3-0.4-2-0.8c-4.7-0.3-10.9,0.1-13,1.9c-1.8,1.7-6.6,5.8-11.3,12.3c-0.7,1-1.4,2.1-2.2,3.2
					c-1.8,2.8-3.4,5.8-4.8,9c-1.8,4.3-2.9,8.6-3.6,12.4c-0.3,0.8-0.5,1.6-0.7,2.4c-0.2-0.5-0.6-6.3,0.6-13.3c0.7-4,1.9-8.3,4-11.9
					C134.4,38.3,138.7,32.5,145,29.1z"/>
				<path class="st169" d="M145.3,29.2c4.3-2.2,8.4-1.9,11.2-2.2c1.1-0.1,1.3-0.4,1.7-0.7c0.6-0.4,1.7-0.3,2.8-0.1
					c0.7,0.1,1.2,0.2,1.5,0.2c0.8,0.2,1-0.3,1.1-0.8c0-0.7,0.3-2.1,1.4-1.8c1.9,0.6,3.2,1.1,3.3,1c0.1-0.1,0.1-0.8,0.2-1.5
					c0.2-0.9,0.4-2,1.5-1.1c1.7,1.4,1.3,3.3,1.4,3.5c0,0.1,0.7,0,1.7-0.4c3.9-1.7,15.1-5,22.3-3.4c1,0.2,2.1,0.4,3.3,0.7
					c10.2,2.2,29.6,6.4,35.5,18.3c3.9,7.9,5.4,14.6,5.8,19.3c0.4,4.4-0.1,6.9-0.1,6.9s-5.6-20.4-10.2-23.9
					c-4.2-3.2-29.1-16.7-34.7-16.5c-3.4,0.9-2.7,5.2-1.7,6.8c1,1.6,1.1,3.9-0.5,4c-0.7,0-1.7-0.5-2.5-0.9c-1.3-0.6-2.8-1.5-2.8-1.3
					c0,0.2,0.4,5.9-1.6,5.9c-2,0.1-6.2-3-6.4-3.2c-0.1-0.1-0.5,0.4-1,1c-0.9,1.4-2.3,3-3.6,3c-0.8,0-1.7-0.5-2.5-1.1
					c-1.2-0.9-2.1-2.2-2.2-2.3c-0.2-0.2-1.9,0.7-3.6,1.9c-1.1,0.8-2.5,1.8-3.7,2.5c-0.8,0.4-1.4,0.6-1.8,0.5
					c-1.5-0.7-0.2-3.2,0.8-4.2c1-1,2.6-4.8,1.7-6.4c-0.2-0.3-0.6-0.5-1.3-0.8c-0.5-0.2-1.3-0.4-2.1-0.7c-4.7-0.4-11,0-13,1.8
					c-1.7,1.6-6.5,5.8-11.2,12.3c-0.7,1-1.5,2.1-2.2,3.2c-1.8,2.8-3.4,5.8-4.8,9c-1.8,4.2-2.9,8.5-3.7,12.3
					c-0.3,0.8-0.5,1.7-0.7,2.6c-0.2-0.4-0.5-6.3,0.7-13.3c0.7-4,1.9-8.3,4.1-11.9C134.7,38.2,138.9,32.4,145.3,29.2z"/>
				<path class="st170" d="M145.5,29.3c4-1.9,8-1.8,10.8-2.1c1-0.1,1.5-0.3,2-0.6c0.7-0.3,1.8-0.2,2.8-0.1c0.6,0.1,1.1,0.1,1.4,0.2
					c0.8,0.1,0.9-0.4,1-1c0-0.7,0.2-1.8,1.4-1.6c2,0.3,3.3,1.3,3.3,1.2c0.1-0.1,0.1-0.8,0.2-1.5c0.2-1,0.4-2.1,1.5-1.3
					c1.7,1.4,1.4,3.3,1.4,3.5c0,0.1,0.7-0.1,1.7-0.4c4-1.7,15.2-5,22.3-3.5c1,0.2,2.1,0.4,3.3,0.7c10.2,2.3,29.7,6.5,35.5,18.4
					c3.7,7.7,5.2,14.2,5.7,18.8c0.4,4.2,0.1,6.8,0.1,6.8S234,46,229.5,42.8c-4.1-2.9-29.5-16.7-34.8-16.3c-3.6,0.9-2.8,5.2-1.7,6.8
					c1.1,1.6,1.3,4-0.4,4.1c-0.7,0.1-1.7-0.4-2.6-0.9c-1.4-0.6-2.9-1.6-2.9-1.5c0,0.2,0.4,6-1.6,6c-2,0-6.3-3-6.4-3.2
					c-0.1-0.1-0.5,0.4-1,1.1c-0.9,1.3-2.4,3-3.7,2.9c-0.8,0-1.7-0.5-2.5-1.2c-1.2-1-2.1-2.2-2.2-2.3c-0.2-0.1-1.8,0.9-3.7,2.1
					c-1.2,0.8-2.5,1.8-3.7,2.4c-0.8,0.4-1.5,0.6-1.8,0.4c-1.5-0.8-0.1-3.4,1-4.4c1.2-1,2.8-4.9,1.8-6.4c-0.2-0.3-0.7-0.5-1.4-0.8
					c-0.6-0.2-1.4-0.4-2.3-0.7c-4.7-0.4-11.1-0.2-13,1.7c-1.6,1.6-6.4,5.7-11.2,12.3c-0.7,1-1.5,2.1-2.2,3.2c-1.7,2.7-3.4,5.7-4.8,9
					c-1.7,4.1-2.9,8.3-3.7,12.3c-0.3,0.9-0.5,1.9-0.7,2.8c-0.1-0.3-0.5-6.3,0.8-13.3c0.7-4,2-8.3,4.2-11.9
					C135,38.1,139.2,32.3,145.5,29.3z"/>
				<path class="st171" d="M145.7,29.4c3.7-1.6,7.5-1.8,10.3-2c1-0.1,1.6-0.3,2.2-0.4c0.8-0.2,1.9-0.2,2.8-0.1
					c0.6,0.1,1.1,0.1,1.4,0.1c0.7,0.1,0.8-0.5,0.9-1.1c0.1-0.7,0.2-1.7,1.3-1.5c2.1,0.4,3.3,1.4,3.4,1.4c0,0,0-0.8,0.2-1.6
					c0.2-1.1,0.5-2.3,1.6-1.4c1.8,1.4,1.4,3.4,1.4,3.4c0,0.1,0.7-0.1,1.8-0.5c4.1-1.7,15.3-5.1,22.3-3.5c1,0.2,2.1,0.4,3.3,0.7
					c10.3,2.3,29.7,6.6,35.4,18.5c3.6,7.4,5,13.9,5.6,18.3c0.5,4.1,0.2,6.6,0.2,6.6s-6.2-21.1-10.5-23.8c-4-2.6-29.8-16.7-34.8-16.2
					c-3.8,0.8-3,5.2-1.8,6.8c1.2,1.6,1.5,4.1-0.2,4.3c-0.7,0.1-1.6-0.4-2.6-0.8c-1.5-0.7-3.1-1.8-3.1-1.7c0,0.1,0.5,6.1-1.5,6.1
					c-2,0-6.4-3-6.5-3.1c0-0.1-0.5,0.5-1,1.2c-0.9,1.3-2.4,3-3.7,2.9c-0.8,0-1.7-0.6-2.4-1.3c-1.2-1-2.1-2.3-2.1-2.4
					c-0.1-0.1-1.8,1.1-3.7,2.4c-1.2,0.8-2.6,1.8-3.7,2.4c-0.8,0.4-1.5,0.6-1.8,0.4c-1.5-0.9,0-3.6,1.3-4.5c1.3-0.9,3-4.9,2-6.5
					c-0.2-0.3-0.7-0.5-1.5-0.8c-0.6-0.2-1.5-0.4-2.4-0.6c-4.7-0.5-11.2-0.3-13,1.5c-1.5,1.5-6.3,5.7-11.2,12.3
					c-0.7,1-1.5,2.1-2.2,3.2c-1.7,2.7-3.4,5.7-4.8,9c-1.7,4-3,8.1-3.7,12.3c-0.2,1-0.5,2-0.6,3c-0.1-0.2-0.4-6.3,0.9-13.3
					c0.7-4,2-8.3,4.3-11.8C135.3,38,139.4,32.2,145.7,29.4z"/>
				<path class="st172" d="M146,29.4c3.3-1.4,7-1.7,9.9-2c1-0.1,1.8-0.2,2.5-0.3c1-0.1,1.9-0.1,2.7-0.1c0.6,0,1.1,0,1.3,0.1
					c0.7,0,0.7-0.6,0.8-1.2c0.1-0.8,0.2-1.7,1.3-1.4c2.1,0.6,3.4,1.6,3.4,1.5c0,0,0-0.8,0.1-1.6c0.2-1.2,0.5-2.4,1.7-1.6
					c1.9,1.4,1.5,3.4,1.5,3.4c0,0,0.7-0.2,1.8-0.6c4.3-1.6,15.3-5.1,22.4-3.5c0.9,0.2,2.1,0.5,3.3,0.7c10.3,2.3,29.8,6.7,35.4,18.6
					c3.4,7.2,4.9,13.5,5.5,17.8c0.5,4,0.4,6.4,0.4,6.4s-6.5-21.4-10.6-23.7c-3.9-2.2-30.2-16.7-34.8-16.1c-4,0.7-3.2,5.3-1.8,6.8
					c1.4,1.5,1.6,4.2,0,4.4c-0.6,0.1-1.6-0.3-2.6-0.8c-1.6-0.8-3.2-2-3.2-1.9c0,0.1,0.6,6.2-1.4,6.2c-2,0-6.4-3-6.5-3.1
					c0,0-0.4,0.6-1,1.3c-1,1.3-2.5,2.9-3.7,2.9c-0.8,0-1.7-0.6-2.4-1.3c-1.2-1.1-2.1-2.4-2.1-2.4c-0.1,0-1.8,1.2-3.8,2.6
					c-1.3,0.9-2.7,1.8-3.8,2.3c-0.8,0.4-1.5,0.6-1.8,0.3c-1.5-0.9,0.1-3.7,1.6-4.6c1.5-0.9,3.3-4.9,2.1-6.5
					c-0.2-0.3-0.8-0.5-1.6-0.8c-0.7-0.2-1.6-0.4-2.6-0.6c-4.6-0.6-11.3-0.4-13,1.4c-1.4,1.4-6.2,5.6-11.1,12.4
					c-0.7,1-1.5,2.1-2.2,3.2c-1.7,2.7-3.4,5.7-4.8,8.9c-1.7,3.8-3,8-3.8,12.3c-0.2,1.1-0.4,2.2-0.6,3.3c0-0.1-0.3-6.3,1-13.3
					c0.8-4,2.1-8.3,4.3-11.8C135.6,37.9,139.7,32.1,146,29.4z"/>
				<path class="st173" d="M124.2,72.2c0,0-0.7-15.7,5.5-25c6.2-9.4,10.2-15.3,16.5-17.7c6.3-2.4,14.8-2,16.1-2c1.3,0-0.2-3.2,2-2.6
					c2.2,0.7,3.5,1.7,3.5,1.7s-0.2-4.8,1.8-3.4c2,1.4,1.5,3.4,1.5,3.4s15.4-6.3,24.2-4.3c8.8,2,32.5,6.1,38.7,19.4
					c6.2,13.3,5.9,23.6,5.9,23.6s-6.9-21.8-10.7-23.6c-3.8-1.9-30.6-16.7-34.8-16c-4.2,0.7-3.3,5.3-1.8,6.8c1.5,1.5,1.8,4.3,0.2,4.6
					c-1.7,0.3-6-2.9-6-2.9s0.7,6.3-1.3,6.3c-2,0-6.5-3.1-6.5-3.1s-2.8,4.4-4.8,4.3c-2-0.2-4.5-3.9-4.5-3.9s-8,6.5-9.5,5.4
					c-1.5-1,0.2-3.9,1.8-4.8c1.7-0.9,3.5-4.9,2.2-6.5c-1.3-1.5-15-2.7-17.5,0c-1.2,1.4-6.2,5.6-11.1,12.4c-2.5,3.4-5,7.4-7,12.1
					S125,66.4,124.2,72.2z"/>
			</g>
			<linearGradient id="SVGID_29_" gradientUnits="userSpaceOnUse" x1="116.428" y1="66.7998" x2="130.2002" y2="66.7998">
				<stop  offset="0" style="stop-color:#FBF1DA"/>
				<stop  offset="1" style="stop-color:#FFDDB3"/>
			</linearGradient>
			<path class="st174" d="M130.2,61.8c0,0-6.5-2-10.8-0.3c-4.2,1.7-2.9,5.6-2.4,7.4c0.5,1.7,1.5,3.7,5.2,3.8
				c3.7,0.1,4.9,0.1,4.9,0.1L130.2,61.8z"/>
			<path class="st175" d="M129.3,63.6c0,0-5.4-1.1-6.1,1.6c-0.7,2.7-0.5,5,4.4,5.7C127.6,70.8,129.1,63.9,129.3,63.6z"/>
			
				<linearGradient id="SVGID_30_" gradientUnits="userSpaceOnUse" x1="252.8751" y1="109.1659" x2="237.1436" y2="109.924" gradientTransform="matrix(0.9997 2.360000e-02 -2.360000e-02 0.9997 -1.5909 -48.4941)">
				<stop  offset="0" style="stop-color:#FBF1DA"/>
				<stop  offset="1" style="stop-color:#FFDDB3"/>
			</linearGradient>
			<path class="st176" d="M236.3,61.3c0,0,4.8-1.5,8.2-0.5c3.4,0.9,4.5,3.6,3.2,8.1c-1.3,4.4-4.5,4.2-6.7,4.1
				c-2.2-0.1-2.2,0.1-2.2,0.1S236.6,63.3,236.3,61.3z"/>
			<path class="st175" d="M236.9,63.3c0,0,4.9-0.1,5.7,2.8c0.8,2.9-2.2,5.9-4.1,5.7L236.9,63.3z"/>
		</g>
		<path class="st177" d="M191.4,95c0,0-3.2,4-9.5,4.2c-6.4,0.2-8.6-4.3-8.6-4.3s-1.6-0.6-1.5,0.3c0.2,0.9,3.4,6.4,10.5,5.7
			c6.4-0.6,8.9-3.6,9.9-4.7C193.3,95.1,191.4,95,191.4,95z"/>
	</g>
</g>
</svg>
