<svg xmlns="http://www.w3.org/2000/svg" id="Layer_1" viewBox="0 0 171 162"><style type="text/css">  
	.st0{fill:none;stroke:#231F20;stroke-miterlimit:10;}
</style><path class="st0" d="M163.2 106c-0.1-0.8-1.1-1.4-1.8-0.7 -21.3 20.5-53.9 15.8-79.2 6.8 -13.9-4.9-25.4-11.7-33.6-24.3 -7.2-11.1-11.9-23.7-14-36.7 -2.5-15-1.2-30.3 2.4-45 0.2-0.7-0.5-1.1-1-1 -0.3 0-0.6 0-0.8 0.2C19.6 18 9.6 38.6 6.4 58c-3.6 21.7 1.7 43 14.9 60.5 23 30.7 65.1 45 101.1 29.7 18.4-7.8 33.5-22.4 41.2-40.9C163.9 106.8 163.6 106.3 163.2 106zM26.8 47.4c1.1 1.7 3.1 1.2 4-0.2 0.4 3.4 1 6.8 1.8 10.1 -1.6-1.6-3.5-2.9-5.5-3.5 -1.5-1.2-2.7-2.7-3.2-4.7 -0.4-1.6-0.2-3.5 1-4.7 0.8-0.8 1.6-1 2.7-0.9 1.4 0.2 1.5 1.1 0.4 2.6C27.2 45.8 26.2 46.6 26.8 47.4zM30.4 27.4c-0.2-2.5-1.5-4.9-3.4-6.4 1.1 0 2.1 0.4 3.2 0.8 0.5 0.2 1-0.6 0.5-0.9 -0.8-0.6-1.7-0.9-2.7-1 2.2-1.5 3.8-4.4 3.9-6.7 0-0.5-0.5-0.6-0.8-0.4 0.9-1 1.7-2 2.6-3C32.1 15.4 31 21.4 30.4 27.4zM21 28.2c1.3-1 2.2-0.7 2.7 1.1 -0.3 0.3 0.1 0.7 0.4 0.6 2.6-1.1-0.6-4-2.9-3.5 1.1-1.8 2.2-3.5 3.4-5.1 0.1 0 0.2 0.1 0.3 0 0.1 0 0.1 0 0.2 0 2.2 2.9 4.8 5.9 2.8 9.7C27 32.7 25 34 23 33.4c-1-0.3-2.6-1.4-2.7-2.6L21 28.2zM31 13c-0.7 1.6-1.3 3.1-2.5 4.4 -0.8 0.9-1.8 1.5-2.7 2.2C27.5 17.3 29.2 15.1 31 13zM17.6 33.1c0.4-0.8 0.8-1.5 1.2-2.3 0.2 1.3 1 2.6 2 3.3 3.3 2.4 7.5 0.6 9.1-2.9 0.2-0.4 0.3-0.7 0.4-1.1 -0.1 2.5-0.2 4.9-0.1 7.4 -0.9 0-0.9 1.4 0 1.4 0 0 0 0 0 0 0.1 1.6 0.1 3.1 0.3 4.7 -1-1.2-2.8-1.8-4.3-1.5 -5.4 1.2-4.9 7.9-1.7 11.3 -2.9-0.2-5.7 1-7.5 4.4 -1.5 2.9-1.4 7.9 1.9 9.5 2.1 1 7.1 0.6 6.5-2.8 -0.4-2.2-4-2.6-4 0 0 0.4 0.1 0.6 0.2 0.9 -3-1.2-4.2-4.1-3.1-6.8 0.8-1.4 2.3-2.5 3.7-3 3.1-1.1 6.6 0.3 8.7 2.5 4.2 4.3 5.2 13.1 1.4 17.9 -3.8 4.7-11.1 5.7-16.5 3.3 -4.3-1.9-6.8-5.8-7.5-10.2 0-0.2 0-0.3 0-0.5 0.9 2.4 2.6 4.5 4.8 6 2 1.4 6.4 3.5 8.8 2.4 1.8-0.9 1.4-2.6-0.2-3.4 -1.8-0.9-4.2-0.9-6.2-1.5 -0.1 0-0.2-0.1-0.3-0.1 -1.1-0.6-2.1-1.2-3.2-1.8 -0.1-0.1-0.2-0.1-0.3-0.1 -1.5-1.1-2.7-2.7-3.3-4.6 0 0 0-0.1 0-0.1C9.5 54.1 12.6 43.1 17.6 33.1zM74.4 149.6c-9.8-2.2-19.1-6.2-27.4-11.5 2.8 0.8 5.4-0.1 7.3-1.9 1.2-0.5 2.6-0.6 3.7 0 2.1 1.1 2.2 4.5-0.7 4.3 -0.8-0.1-0.8 1.1-0.2 1.3 1.4 0.5 2.8-0.2 3.5-1.4 0.8-1.3 0.5-2.9-0.5-4.1 -1.2-1.5-3-1.9-4.7-1.5 0.9-1.2 1.5-2.6 1.9-4.1 5.6-9.6 19.3-13.6 27.3-4.1 4.1 4.8 4.5 12.2-0.5 16.6 -1.1 1-2.4 1.6-3.7 2 -2.3 0-4.5-0.1-6.5-1.6 -1.4-1-2.3-2.4-2.7-3.9 0.1-0.8 0.3-1.6 0.6-2.4 0.9 1 3 0.9 3.8-0.4 1.4-2.3-1-4.6-3.2-4.6 -3.7 0-5 4.4-4.3 7.4 1.9 9 13.6 10.1 18.9 3.7 1.7-2 2.6-4.3 2.9-6.6 1.3 5.2 5.2 9.5 10.1 11.7 0.6 0.3 1.1-0.6 0.5-0.8 -4.6-2.3-7.8-5.9-9.7-10.5 5.7 7.2 19 9.9 23.8 1 0 0 0-0.1 0-0.1 1.6-1.3-0.5-3.9-2.9-3 -0.9 0.3-1.6 1.2-2.3 1.8 -2.2 1.7-4.4 2.8-7.2 3 -5.5 0.5-10.1-2.8-12.5-7.6 0-0.2-0.1-0.3-0.1-0.5 1.4 1 3 1.6 4.7 1.4 3.5-0.4 5.1-4.6 4.4-7.7 -0.6-2.7-3.6-5-6.4-3.6 -2.1 1.1-2.4 4-0.6 5.5 0.5 0.4 0.9-0.4 0.6-0.8 -1.8-2.3 1.3-4.5 3.3-3 1.9 1.4 1.7 4.4 0.6 6.2 -1.9 3.1-5 1.5-7.5-0.4 -1.5-3.3-4.1-6.3-7.4-8 -8.1-4.2-18.1-1.5-22.9 5.7 0.4-3 0.8-6.2 2.6-8.7 1.1-1.7 2.6-2.8 4.5-3.5 0.6-0.2 1.4-0.3 2-0.7 2-1.6 0.6-3.3-1.3-3.7 -3.1-0.8-6.2 1.3-7.7 3.9 -0.8 1.3-1.2 2.8-1.4 4.3 -1.2-3.1-3.3-6-5.4-8.4 -0.4-0.5-1.3 0.1-0.9 0.7 2.7 4.2 5.2 7.8 6.1 12.4 -3.3-5.9-14.3-7.5-16.7 0.2 -0.9 2.9 0.7 6.7 3.9 7.3 2.5 0.4 5.8-1.5 5.4-4.4 -0.3-2.1-3.2-3.2-4.1-0.8 -0.5 1.2 0.1 2 1 2.4 -1.3 1.5-2.8 1-4.3-1.6 0-0.8 0-1.5 0-2.3 0.5-1.8 2.3-3.1 4-3.6 2.9-0.8 6.2 0.4 8.1 2.7 4.9 5.8-0.8 15.7-8.4 13.5 -0.2-0.1-0.4 0.1-0.5 0.3C24.2 122.7 9.6 99.9 8.4 74.4c2.5 4.7 8 7.9 13.7 7.9 5.3 2.2 8.3 7.8 5.3 13.3 -1.7 3.1-5.1 4.8-8.5 3 -1.5-0.8-3.4-2.7-3.2-4.7 0.4-3.4 4.3-5.4 6.6-2 0.2 0.4 0.8 0.1 0.7-0.3 -1-3.9-6.1-4.2-8.2-0.9 -2.9 4.5 1.2 9.6 5.8 10.4 5.2 1 9.2-3.8 9.7-8.6 0.4-3.2-0.8-6.3-2.9-8.5 0.1 0.1 0.3 0.1 0.4 0.2 0 0 0 0 0 0 7.8 6 7.1 15.2 7.2 24 0 1 1.3 0.9 1.5 0 0.9-7 0.8-15.8-4-21.3 4 3.1 6.7 7.5 7.6 12.9 0.3 1.6 0.5 3.9 2.4 4.5 1.4 0.4 2.6-0.3 3.3-1.5 2.4-4.6-3-12.1-6-15.1 -2.8-2.8-6.5-4.9-10.4-5.8 1.6 0.1 3.3-0.3 4.5-0.7 1.9-0.7 3.6-2 4-4.1 0.2-0.8-0.9-1.3-1.3-0.6 -1.1 1.9-2.5 3.1-4.7 3.6 -0.6 0.1-1.3 0.2-1.9 0.2 3.5-2.1 5.7-5.6 6.3-9.6 2.2 5.8 4.8 11.3 7.9 16.5 7.5 12.3 17.5 20.5 30.9 25.8 14.6 5.9 30.4 10.3 46.2 10.2 7.4-0.1 14.8-1.4 21.6-3.9 -2.7 1.6-4.6 4.5-4.9 7.6 -0.7-1.3-1.7-2.4-3.2-3.2 -6.1-3.3-16.4 4.3-11.2 10.7 4.8 5.9 13.2-2.4 7.7-5.6 -1.7-1-4.6 0.2-3.7 2.5 0.5 1.4 2 1.5 2.9 0.6 0.9 0.8 0.6 1.5-0.9 1.9 -0.8 0.8-1.7 1-2.7 0.6 -2.5-0.8-2.9-4.3-1.8-6.4 1.5-2.8 4.6-4.1 7.6-3.3 5.6 1.5 5.9 8.2 3.1 12.5C118.4 149.4 95.8 154.4 74.4 149.6zM139.2 130.1c0.4-1.3 1-2.4 1.9-3.4 1-1 2.6-1.7 3.9-1 0.6 0.3 1.1 1 1 1.7 0 0.9-1.3 1.8-1.7 0.7 -0.2-0.6-1.1-0.5-1.2 0.2 -0.1 1 0.5 1.6 1.3 1.8 -1.9 1.8-3.9 3.5-6 5.1C139.1 133.6 139.4 131.8 139.2 130.1zM147.5 127.2c-0.1-1-0.6-2-1.5-2.5 -2.1-1.3-4.5-0.3-5.9 1.5 -0.5 0.6-0.8 1.2-1.1 1.9 0.4-4 2.8-7.3 6.6-8.8 0.6-0.2 0.4-1-0.1-1.1 5.2-2.2 10-5 14.4-8.7C156.6 116.1 152.4 122 147.5 127.2z"/><path class="st0" d="M20.1 51.1c1 0 1-1.6 0-1.6C19.1 49.5 19.1 51.1 20.1 51.1z"/><path class="st0" d="M19.4 46.3C19.5 46.3 19.5 46.3 19.4 46.3c0.2-0.1 0.4-0.1 0.6-0.3 0.4-0.4 0.4-1.1 0-1.5 -0.4-0.4-1.1-0.4-1.5 0 -0.2 0.2-0.2 0.3-0.3 0.5 0 0 0 0 0 0C17.7 45.8 18.7 46.8 19.4 46.3z"/><path class="st0" d="M22.8 40.7c0.1-0.1 0.2-0.2 0.3-0.3 1-0.8-0.6-2.4-1.4-1.4 -0.1 0.1-0.2 0.2-0.3 0.3C20.5 40.3 21.8 41.5 22.8 40.7z"/><path class="st0" d="M26.8 38.4c1.1 0 1.1-1.7 0-1.7C25.7 36.7 25.7 38.4 26.8 38.4z"/><path class="st0" d="M139.5 130.6c0.1 0 0.1-0.1 0-0.1S139.4 130.6 139.5 130.6z"/><path class="st0" d="M51.2 124.5c1.2 0 1.2-1.8 0-1.8C50.1 122.7 50.1 124.5 51.2 124.5z"/><path class="st0" d="M51.5 129.6c1.2 0 1.2-1.9 0-1.9C50.3 127.7 50.3 129.6 51.5 129.6z"/><path class="st0" d="M45.6 132.6c0.2 0.3 0.6 0.6 1.1 0.5 0.7 0 1.3-0.9 0.7-1.4 0 0 0 0 0 0 -0.2-0.3-0.5-0.5-0.9-0.5 -0.2 0-0.3 0-0.5 0.1 -0.6 0.1-0.7 0.8-0.5 1.2C45.5 132.5 45.6 132.6 45.6 132.6z"/><path class="st0" d="M39.3 131.9c1.4 0 1.4-2.1 0-2.1C37.9 129.8 37.9 131.9 39.3 131.9z"/><path class="st0" d="M36.4 122.9c-0.4-0.5-1.1-0.4-1.5 0 -0.4 0.4-0.5 1.2 0 1.5 0.1 0.1 0.2 0.2 0.3 0.2 1 0.8 2.3-0.4 1.5-1.5C36.6 123.1 36.5 123 36.4 122.9z"/><path class="st0" d="M39.8 114.7c-0.1 0.1-0.2 0.2-0.2 0.3 -0.4 0.5-0.5 1.2 0 1.6 0.5 0.5 1.2 0.4 1.6 0 0.1-0.1 0.2-0.2 0.3-0.2 0.5-0.4 0.4-1.3 0-1.7C41.1 114.3 40.2 114.2 39.8 114.7z"/><path class="st0" d="M48.7 113.8c-1.2 0-1.2 1.8 0 1.8C49.9 115.6 49.9 113.8 48.7 113.8z"/><path class="st0" d="M137.9 122.5c0.1-0.3 0.1-0.5 0-0.7 -0.3-0.8-1.4-0.8-1.7 0 -0.1 0.3-0.1 0.5 0 0.7C136.5 123.3 137.5 123.3 137.9 122.5z"/><path class="st0" d="M124 124.3c0.9 0 0.9-1.5 0-1.5C123 122.9 123 124.3 124 124.3z"/><path class="st0" d="M120.4 127.2c0-0.8-0.7-1.2-1.5-1.1 -0.1 0-0.2 0-0.3 0 -1.1 0.2-1.1 1.9 0 2.1 0.1 0 0.2 0 0.3 0C119.7 128.5 120.4 128 120.4 127.2z"/><path class="st0" d="M121.1 132.5c-0.2-1-1.9-1-2.1 0 0 0.1 0 0.2 0 0.3 -0.1 0.7 0.3 1.4 1.1 1.4 0.8 0 1.2-0.7 1.1-1.4L121.1 132.5z"/><path class="st0" d="M125.1 137.2c-1.1 0-1.1 1.7 0 1.7C126.2 138.9 126.2 137.2 125.1 137.2z"/><path class="st0" d="M131.5 135.6c-0.1 0.1-0.2 0.2-0.2 0.3 -0.9 1.1 0.4 2.3 1.5 1.5 0.1-0.1 0.2-0.2 0.3-0.2 0.5-0.4 0.4-1.2 0-1.5C132.7 135.2 131.9 135.2 131.5 135.6z"/><path class="st0" d="M135.9 131.2c0.8 0 0.8-1.2 0-1.2C135.1 129.9 135.1 131.2 135.9 131.2z"/><path class="st0" d="M132.6 125.5c-1.1 0-1.1 1.7 0 1.7C133.7 127.3 133.7 125.5 132.6 125.5z"/></svg>