<svg xmlns="http://www.w3.org/2000/svg" viewBox="0 0 152.9 109.2"><style type="text/css">  
	.st0{fill:none;stroke:#231F20;stroke-miterlimit:10;}
</style><path class="st0" d="M78.3 4c1.8 2.9 2.4 6.3 2.9 9.6 0.6 3.9 1 7.8 1.5 11.7 0 0.2 0.1 0.5 0.1 0.7 1.1-2.7 2.2-5.4 3.4-8.1 0.2-0.5 0.6-0.8 1-1.2 0.3 0.4 0.8 0.8 0.9 1.2 0.4 1.4 0.7 2.9 1 4.4 1.3-3 2.6-6 4-9 0.6-1.3 1.6-2.6 2.4-3.8 0.2-0.3 0.8-0.3 1.3-0.5 0.1 0.4 0.3 0.9 0.2 1.2 -0.6 1.8-1.2 3.6-1.8 5.4 -1.2 3.4-2.4 6.8-3.6 10.2 -0.1 0.4-0.2 0.7-0.3 1.4 3.1-4.5 4.6-9.7 9.4-12.4 0.2 0.1 0.4 0.2 0.5 0.3 -2.7 6.1-5.3 12.1-8.1 18.5 2.1-3.1 4.1-5.8 6-8.6 0.4-0.6 0.8-1.2 1.2-1.7 0.3-0.3 0.8-0.6 1.1-0.8 0.2 0.5 0.6 1 0.6 1.6 0.1 1.8 0 3.6 0 5.6 0.8-1.3 1.5-2.5 2.3-3.6 1.8-2.5 3.7-5 5.7-7.4 0.2-0.3 1.1-0.5 1.1-0.4 0.3 0.4 0.6 1 0.5 1.4 -0.9 2.8-1.9 5.5-2.9 8.3 -0.2 0.6-0.5 1.1-0.7 1.6 -0.2-0.1-0.3-0.1-0.5-0.2 1.1-3.3 2.2-6.5 3.3-9.8 -0.1-0.1-0.2-0.1-0.4-0.2 -1 1.3-2 2.6-3 4 -1.7 2.3-3.4 4.6-5 7 -0.6 0.9-1 1.9-1.3 2.9 -0.7 2.2-1.2 4.4-2 6.7 0.4-0.5 0.8-0.9 1.1-1.4 2.7-4.4 6.7-7.6 10.7-10.5 3.8-2.7 8.3-4.5 12.7-6.3 2-0.9 4.4-1 6.6-1.4 0.7-0.1 1.5 0 2.2 0.2 1.5 0.5 2 1.6 1.6 3.1 -0.8 2.7-2.2 4.8-4.4 6.7 -6.3 5.3-12.5 10.7-18.7 16.1 -1.6 1.4-3.2 2.9-4.6 4.6 0.5-0.2 0.9-0.4 1.4-0.7 1.9-1 3.7-2 5.6-3 3.4-1.9 6.8-3.9 10.4-5.5 6-2.7 12.4-3.5 18.9-3.3 1.9 0.1 3.9 1 5.7 1.9 -6.5-2.4-12.8-1-18.9 0.5 1 0.4 2 1.1 3.2 1.3 0.8 0.2 1.8-0.1 2.6-0.2 2.3-0.4 4.7-0.8 7-1.3 0.3-0.1 0.6-0.4 0.9-0.5 0.3-0.1 0.6-0.3 0.8-0.3 1.3 0.3 2.6 0.7 3.9 1.4 -0.5 0.1-1 0.2-1.5 0.3 0 0.1 0 0.1 0 0.2 0.7 0 1.5 0 2.5 0 -1.9 1.5-4.1 1.8-6.2 2.1 -2.4 0.4-4.8 0.6-7 1.2 -2 0.6-3.8 1.7-5.6 2.6 -0.8 0.4-1.6 0.6-2.6 0.2 -0.6-0.2-1.7 0.1-2.1 0.5 -1.3 1.3-2.6 2.3-4.3 2.9 -0.3 0.1-0.5 0.4-0.8 0.6 5.2-0.5 10.1-1.2 15-1.5 4.6-0.3 9.1 1 13.6 1.7 0 0.2 0 0.5 0 0.7 -1 0.3-2.1 0.6-3.1 0.7 -3.8 0.4-7.6 0.7-11.4 1.1 -7.5 0.8-14.7 3.2-21.8 5.6 -1.1 0.4-2.2 1-3.2 1.7 1.7-0.6 3.4-1.2 5.1-1.8 5.4-1.9 10.9-3.2 16.7-3.3 1.3 0 2.7 0.2 3.8 1.2 -3.4 1.3-6.6 2.5-9.9 3.7 0.1 0.2 0.1 0.4 0.2 0.7 0.6-0.2 1.2-0.3 1.8-0.5 0.6-0.1 1.3-0.3 1.9-0.3 2.5-0.2 4.9-0.4 7.4-0.7 4-0.5 7.6 0.6 11.2 2.2 0.3 0.1 0.6 0.2 0.9 0.3 1.6 0.4 2.3 1.3 2.4 3.2 0.1 1.2-1 2.7-2.2 3.1 -0.4 0.1-0.8 0.4-1.2 0.6 -0.3 0.1-0.8 0.3-1 0.2 -1.7-1.2-3.4-0.6-5.1-0.3 -1.5 0.3-3.1 0.1-4.6 0 -5.2-0.1-10.5-0.3-15.7-0.2 -4.7 0.1-9.3 0.6-14 0.6 -1.5 0-1.8 1-1.7 2.1 0.1 7.1-2.5 13.6-4.6 20.2 -0.7 2.1-2.2 3.9-3.5 5.8 -0.2 0.3-0.8 0.4-1.2 0.7 -0.1-0.5-0.3-1-0.2-1.5 0.7-2.4 1.6-4.7 2.1-7.1 0.5-2.7 0.5-5.5 0.8-8.3 0.2-2.4 0.5-4.7 0.7-7.1 0.1-1 0-2.1-0.1-3.2 0-0.4-0.4-0.7-0.9-0.9 -0.2 2.1-0.2 4.2-0.7 6.2 -0.8 4-1.7 8.1-3 12 -0.8 2.4-2.2 4.8-3.7 6.9 -1.4 2-3.4 3.5-5.2 5.3 -0.8 0.7-1.6 1.4-2.4 2.1 -2.7 2.5-5.9 2-9.1 1.7 -3-0.3-5-2-6.9-4.2 -1-1.2-2.3-2.3-3.1-3.7 -1.3-2.2-2.6-4.6-3.6-7 -1-2.2-1.8-4.5-2.3-6.8 -0.9-4.2-1.5-8.5-2.3-13.2 -0.2 1.1-0.5 1.9-0.5 2.7 0.1 3.9 0.3 7.8 0.5 11.7 0.1 1.5 0.1 2.9 0.4 4.4 0.4 2.1 1.1 4 1.6 6.1 0.1 0.6-0.1 1.3-0.2 1.9 -0.5-0.3-1.2-0.5-1.6-0.9 -2.1-2.1-2.9-4.8-3.5-7.5 -0.9-4.1-1.7-8.3-2.4-12.5 -0.3-1.9-0.3-3.8-0.2-5.7 0.1-0.9 0.7-1.8 1.2-2.9 -3 0.2-5.7 0.5-8.3 0.5 -7.5 0-14.9-0.1-22.4-0.1 -0.8 0-1.6 0.1-2.4 0.1 -1.2 0-2.4 0.4-3.6-0.4 -0.4-0.3-1.2-0.1-1.8-0.1 -2.5 0.2-4.9 0.4-7.4 0.6 -1.4 0.1-2.4-0.5-3-1.6 -0.6-1.1 0-2.2 0.8-3.2 2.1-2.7 5.1-3.5 8.3-3.6 4.3 0 8.6 0.3 12.5 0.4 -4.3-2.9-9.6-3.5-15.1-4 0-0.2 0-0.4 0-0.7 1-0.2 1.9-0.4 2.9-0.6 1.4-0.3 2.9-0.5 4.3-0.7 0.5-0.1 1-0.2 1.5-0.2 2.2 0.1 4.3 0.2 6.5 0.2 0.1 0 0.3 0 0.3 0 0.3 0.4 0.6 0.8 0.9 1.2 -0.4 0.1-0.7 0.2-1.3 0.4 0.8 0.2 1.4 0.4 2.2 0.6 0.1-0.8 0.2-1.5 0.3-2.1 -3.9-1.6-8-1.5-12-1.8 -2.1-0.1-4.1-0.5-6.2-0.6 -1-0.1-2.1 0.2-3.1 0.2 -0.5 0-1-0.2-1.5-0.4 0.3-0.5 0.5-1.2 0.9-1.3 2-0.5 4-1.1 6.1-1 5.2 0.1 10.5 0.5 15.7 0.8 0.7 0 1.4 0 2.6 0 -5.4-5.8-10.5-11.3-15.6-16.8 0.4-0.4 0.4-0.4 2.4 0.7 0.6-1 1.3-0.4 1.9 0 5.8 3.2 10.9 7.3 16.3 11.7 -1-1.9-1.5-3.8-2.7-5 -2.5-2.6-3.2-6.2-5.6-8.9 -1.8-2.1-3.5-4.3-5.2-6.4 -0.4-0.5-0.6-1.1-0.8-1.7 1.3-0.7 2.3-0.6 3.1 0.2 3.2 3.1 6.6 6 9.3 9.4 1.9 2.4 4.6 3.2 6.7 5 0.1-0.1 0.2-0.2 0.3-0.3 -1.2-1.6-2.5-3.1-3.7-4.7 -1.7-2.4-3.3-4.8-4.9-7.2 -0.3-0.4-0.6-0.8-0.9-1.2 -1.7-1.9-3.4-3.7-5-5.6 -0.6-0.8-1-2-1.2-3 -0.2-1.6 0.6-2.1 2.2-1.7 4.7 1.3 8.3 4.2 11.8 7.3 1.5 1.4 3 2.7 4.4 4.1 0.6 0.6 1.4 1 1.1 2.2 -0.1 0.5 0.8 1.2 1.3 1.8 0.9 1.2 1.7 2.4 2.6 3.7 0.1-0.1 0.3-0.1 0.4-0.2C45.1 28.5 43.1 22.8 41 17c0.1-0.1 0.3-0.1 0.4-0.2 1.7 2.8 3.4 5.6 5.2 8.3 1.8 2.8 3.6 5.6 5.6 8.4 -0.6-1.3-1.3-2.6-1.7-3.9 -0.5-1.8-0.9-3.7-1.1-5.5 -0.1-0.5 0.7-1.1 0.8-1.6 0.1-1 0-2.1 0.2-3.2 3.6 3.2 6.3 7.1 9.3 10.8 0.1-0.5 0.1-1.2 0.2-1.9 0.1 0 0.2 0 0.3 0 0.1 1.1 0.2 2.3 0.4 3.4 0.2 0.8 0.5 1.7 0.9 2.5 0.9 2.2 1.9 4.4 2.8 6.5 0.2 0.5 0.6 1.1 1 1.5 2.1 1.6 4.2 3.2 6.6 5 -2-4.9-3.8-9.6-5.7-14.3 -0.1 0-0.2 0-0.4 0 0 1.3 0 2.5 0 3.8 -0.2 0-0.4 0.1-0.6 0.1 -0.3-0.8-0.6-1.6-0.8-2.4 -1.1-5.2-2.8-10.3-5.1-15.1 -0.9-1.8-2.1-3.5-3.3-5.1 1.3 4.2 3.5 8 3.4 12.5 -1.9-5.4-3.9-10.8-5.8-16.1 5.2 4.9 8.1 11.2 10.4 17.8 1.2-2.6-0.3-4.4-1.3-6.3 -1.8-3.5-3.6-6.9-5.4-10.3 -0.2-0.3-0.1-0.7-0.1-1.1 0.4 0 1-0.2 1.2 0.1 0.8 0.6 1.6 1.2 2.1 2.1 1.3 2.3 2.4 4.7 3.6 7.1 1.9 3.8 3.7 7.7 5.7 11.5 -0.4-5-1.2-9.9 0.3-15.3 1.4 1.9 2.6 3.8 3.2 6.1 0.8-4.3 1.5-8.6 2.4-12.9C76.2 7.3 77 5.7 77.7 4 77.9 4 78.1 4 78.3 4zM55.2 66.9c-0.2 0.5-0.4 0.9-0.6 1.4 1.8 0.6 1.8 0.5 2.9-0.5 1.6-1.4 3.3-2.9 5.1-4.1 2.3-1.5 4.7-2.6 7.1-3.9 -3.7 0.8-7.5 1.7-10.4 4.4 0.5-0.7 0.2-1.1-0.4-0.7 -2.2 1.3-4.4 2.6-5.7 5C53.8 68 54.5 67.5 55.2 66.9zM67.8 31.2c0.7-1.4-0.1-3.6-1.9-5.4C66.5 27.7 67.2 29.4 67.8 31.2c0.2 0.5 0.5 1 0.7 1.5 1.4 4.6 2.7 9.3 4.1 13.9 0.6 2.2 1.2 4.5 1.9 6.8 2.9-1.1 2.6-1.1 1.7-3.1 -0.4-0.9-0.5-1.8-0.9-2.7 -2-4.9-3.9-9.9-6-14.8C69 32.1 68.3 31.7 67.8 31.2zM65.8 63.1c2.9 0.4 5.5 0.9 8.2 1.1 2.6 0.2 5.3 0.2 7.9 0 2.6-0.1 5.2-0.6 7.8-0.9 0 0.2 0.1 0.4 0.1 0.6 -1.6 0.4-3.2 1.2-4.8 1.2 -6.7 0.2-13.5-0.1-20.1-1.4 -0.4-0.1-0.9 0.1-1.3 0.3 -1.1 0.8-2 1.7-3.1 2.6 0.3 0.1 0.5 0.2 0.6 0.3 3.9 0.9 7.9 1.7 11.8 2.6 0.7 0.2 1.6 0.9 1.7 1.6 0.3 1.7 0.4 3.5 0.4 5.3 0 2.6 0.5 5.3-0.6 7.9 -0.1 0.3-0.4 0.6-0.6 0.8 -0.5 0.3-1.1 0.3-1.5 0.6 -1.2 0.9-2.3 2-3.4 3 -1.8 1.6-3.6 3.1-5.2 4.6 0.6 2.7 2.5 4 4.2 5.5 1.8 1.5 3.4 3.1 5.4 4.8 0.1-1.4 0.2-2.6 0.2-3.8 0-2.5 0-5 1.2-7.2 0.6-1.1 1.5-1.8 2.9-1.9 1.4-0.1 2.4 0.5 2.9 1.7 0.4 1.1 0.4 2.4 0.5 3.5 0.1 2.1 0 4.3 0 6.5 0.4-0.2 0.6-0.3 1.1-0.4 -0.5 0.8-0.9 1.4-1.2 2 0.1 0.1 0.2 0.2 0.3 0.2 0.3-0.2 0.7-0.3 0.9-0.5 1.3-1.5 2.6-3 4.4-3.9 0.4-0.2 0.8-0.7 1-1.1 0.6-1 1.3-2 1.8-3 0.2-0.3 0.2-1-0.1-1.3 -2-2.2-4.2-4.3-6.2-6.5 -1.7-1.9-2.9-4-2.7-6.6 0.3-3.2 0.6-6.4 0.6-9.6 0-1.1 0.4-1.2 1.3-1.4 3.5-0.6 7-1.3 10.5-2 0.6-0.1 1.1-0.6 1.6-0.9C87.3 57.9 73.8 58.8 65.8 63.1zM103.7 48.9c0-0.1 0-0.3-0.1-0.4 0.8-1.3 1.7-2.7 2.5-4 -0.1-0.1-0.2-0.2-0.2-0.3 -0.3 0.2-0.7 0.3-1 0.6 -1 1.3-2 2.7-2.9 4 -0.9 1.3-2.7 2.3-2.1 4.4 0.5-0.4 1-0.9 1.6-1.2 0.7-0.2 1.4-0.1 2.2-0.3 0.3-0.1 0.6-0.4 0.9-0.6 5-4.5 10-8.9 15-13.4 0.5-0.5 1-1 1.6-1.4 1-0.8 2.5-1.2 3.1-2.2 1.2-2 3-3.3 4.8-4.4 2.2-1.4 3.8-3.1 4.5-5.6 0.5-2-0.1-3-2-2.8 -2.4 0.3-4.8 0.8-7.1 1.4 -2 0.6-3.9 1.5-5.6 2.5 -1 0.6-1.5 2.1-3 1.2 -0.1-0.1-0.5 0.2-0.8 0.4 -2.2 1.7-4.5 3.4-6.6 5.2 -2.9 2.5-5.7 5.2-7.6 8.5 -1.4 2.3-2.4 4.9-3.6 7.3 -0.2 0.4-0.3 0.8-0.6 1.4 3-1.4 3-1.4 4.3-0.8 1-1.7 1.9-3.3 2.9-5 -0.1-0.1-0.2-0.2-0.3-0.4 -1.1 0.6-2.3 1.2-3.4 1.9 0-0.5 0.1-0.9 0.3-1.1 0.8-0.7 1.6-1.5 2.5-2.1 1.4-1.1 2.6-2.7 4.7-2.1 0.1 0 0.3-0.1 0.4-0.2 1.2-1 2.4-2.1 3.6-3.1 -0.1-0.2-0.3-0.5-0.4-0.7 -1.8 0.2-3.7 0.4-5.7 0.6 0.3-0.4 0.4-0.6 0.5-0.6 1.7-0.8 3.4-1.7 5.2-2.5 0.5-0.2 1.1 0.1 1.7 0.2 0.4 0.1 0.9 0.4 1 0.2 1-0.8 1.9-1.7 3-2.7 -1.4-0.3-2.5-0.6-3.7-0.9 1.3-2 3.4-2.1 5.3-2.7 0.4-0.1 1 0.7 1.6 1.2 3.5-0.5 6-3.8 9.5-4.8 -0.1 0.3-0.3 0.5-0.6 0.7 -2 1.3-4 2.6-5.9 3.9 -0.4 0.3-0.7 0.7-0.9 1.1 -0.4 0.8-0.8 1.7-1.2 2.6 -0.3 0.7-0.6 1.4-1 2 -0.7 0.7-1.5 1.3-2.5 2.1 -0.2-2.1 2.1-2.7 1.6-4.7 -1.4 1.1-2.6 2.3-4 3.1 -0.9 0.6-1.1 1.2-0.8 2.1 0.7 2.1-0.9 3.4-1.9 4.8 -0.2 0.2-0.7 0.1-1.1 0.1 0-0.2 0-0.3-0.1-0.5 0.5-0.6 1.1-1.2 1.5-1.6 -0.3-0.8-0.5-1.5-0.8-2.1 -2.6 1.3-3.6 3.7-3.7 6.3 0 1.6-0.8 2.3-1.7 3.1 -0.5 0.5-0.9 1-1.5 1.5C104.6 48.6 104.1 48.7 103.7 48.9zM109.7 60.3c11.8-5.1 24-7.4 36.6-8 -14.7-2.8-28.7 0-42.1 6.2 0.2-0.3 0.3-0.6 0.6-0.7 1.9-0.9 3.9-1.9 5.8-2.8 2.8-1.2 5.6-2.1 8.3-3.4 3.5-1.7 6.2-4.6 9.8-6.1 1.3-0.6 2.4-1.8 3.6-2.8 -0.1-0.2-0.2-0.4-0.3-0.5 -4.1-1.3-7.2 1.9-10.9 2.5 0.4 0.1 0.8 0.2 0.9 0.2 -4.8 2.2-9.8 4.4-14.8 6.8 -1.7 0.8-3.2 1.6-3.4 4 -0.1 1.5-1 2.9-1.5 4.4 5.2-1.8 5.2-1.8 6.3-1.1 -1.7 0.6-3.5 1-5.1 1.8 -1.6 0.8-2.9 2-4.7 3.3 1.1 0.4 1.9 1.1 2.5 0.9 1.6-0.5 3.3-1.1 4.6-2.1 1.3-1 2.1-2.7 3.2-4 0.1-0.1 0.4-0.1 0.8-0.2C109.8 59.1 109.7 59.6 109.7 60.3zM62.7 92.1c0.2 0 0.4 0 0.7 0 2.5-2.2 4.8-4.6 7.4-6.6 2.2-1.6 3.4-3.3 3.2-6 -0.2-2.6-0.1-5.3-0.3-7.9 0-0.5-0.9-1.2-1.6-1.5 -1.1-0.4-2.3-0.5-3.5-0.8 -2.5-0.5-4.9-1.1-7.4-1.6 -2.4-0.4-4.2 1.5-3.6 3.9 0.9 4.3 1.7 8.5 2.8 12.8C60.9 87 61.9 89.6 62.7 92.1zM91 93.3c1.2-0.9 2.5-2.9 3.1-5.4 0.4-1.5 1.1-2.9 1.5-4.4 0.5-1.7 0.9-3.4 1-5.1 0-1.2-0.3-2.3 0.3-3.5 0.3-0.7 0.2-1.8-0.1-2.5 -0.4-0.7-0.6-1.1 0-1.8 0.2-0.2-0.1-1.1-0.4-1.2 -0.6-0.2-1.3-0.2-2-0.1 -1.7 0.2-3.3 0.6-5 0.9 -2.1 0.3-4.2 0.6-6.3 0.9 -0.9 0.1-1.3 0.7-1.3 1.7 0 2.9-0.1 5.7-0.3 8.6 -0.1 2.3 0.3 4.4 2.1 6C86.1 89.3 88.5 91.2 91 93.3zM107.3 68.1c0.1-0.3 0.3-0.7 0.5-1 0.2-0.4 0.3-0.7 0.4-1.1 0.2-1.1-0.3-1.9-1.3-1.6 -1.5 0.4-2.9 1.2-4.5 1.8 1.3 2 2.6 3.4 4.7 3.4 2.9 0 5.7-0.2 8.6-0.3 5.5-0.1 11-0.2 16.5-0.3 2.3 0 4.6 0.1 7 0.1 0.3 0 0.5 0 0.8 0 2.4-0.1 4.8-0.2 7.2-0.3 1.5-0.1 2.8-1.1 2.9-2.4 0.2-1.5-0.3-2-2.1-2.7 -5.3-2-10.8-2.4-16.3-1.6 -1.4 0.2-2.8 1-4.1 0.9 -2.8-0.2-5.3 0.4-7.7 1.6 -0.2 0.1-0.4 0.1-0.5 0.2 -1.7 0.2-3.4 0.4-5 0.6 -0.8 0.1-1.5 0.4-2.3 0.6 -1.3 0.3-2.5 0.7-3.4 1.8 12.5-0.7 24.8-2.7 37.3-2.5 -0.5 0.3-1 0.4-1.5 0.5 -3 0.3-5.9 0.6-8.9 0.9 -3.5 0.4-7.1 0.9-10.6 1.1 -4.4 0.4-8.7 0.6-13.1 0.9C110.2 68.8 108.7 69.5 107.3 68.1zM52.7 65.2c-0.1 0.1-0.2 0.2-0.3 0.3 -1.2 0.1-2.4 0.4-3.5 0.3 -3.4-0.2-6.8-0.7-10.3-0.8 -3.5-0.2-7.1-0.2-10.7-0.2C22.5 64.8 17 65 11.5 65.1c-1.2 0-2.5 0-3.7 0 0-0.2 0-0.4 0-0.6 4.4-0.1 8.8-0.3 13.2-0.4 4.5-0.1 8.9 0 13.4 0 -2-0.8-4-1.3-6-1.6 -3.6-0.6-7.3-1.6-10.9-1.6 -3.3 0-6.7-0.5-10 1 -1.6 0.8-2.7 1.3-3 3.1 -0.3 0-0.7 0.1-1 0.1 -0.1 0.1-0.1 0.3-0.2 0.4 0.7 0.5 1.3 1.4 2 1.5 1.8 0.2 3.6 0 5.4 0 4-0.1 7.9-0.2 11.9-0.2 2.6 0 5.1 0.5 7.7 0.5 6.1 0 12.3-0.2 18.4-0.4 1.2 0 2.6-0.1 3.7-0.6 1.6-0.9 3-2.2 4.8-3.6 -3.1-0.5-5.8-0.9-8.9-1.3C48.8 64.3 50.8 64.6 52.7 65.2zM50.8 56.4c-0.5-2.6-2.9-4.1-2.9-6.7 -3-4.8-6.6-9-11.9-11.4 -1-0.5-1.9-1.2-3-1.6 -0.5-0.3-1.2-0.3-1.8-0.5 0 0.7 0 1.5 0.1 2.2 0.1 0.5 0.4 0.9 0.7 1.4 0.9 1.6 1.7 3.2 2.6 4.8 0.3 0.6 1 1 1.2 1.6 1.1 2.6 3.1 4.3 5.3 5.8 1.8 1.3 3.4 3 5.7 3.4C48.2 55.7 49.4 56 50.8 56.4zM66.7 47.6c0.1-1.2 0.3-2.4-1.3-2.8 -0.5-0.1-0.9-0.8-1.1-1.3 -0.5-1.2-0.9-2.5-1.3-3.7 -1.9-5.8-4.5-11-9.3-14.9 -0.2-0.2-0.3-0.5-0.5-0.7 -0.6-0.9-1.2-1.8-1.8-2.8 -0.2 0.1-0.4 0.1-0.7 0.2 0.2 2.4 0.4 4.8 0.7 7.2 0.1 1 0.3 2.4 0.9 2.7 1.3 0.7 1.5 1.9 2 2.9 0.9 1.8 1.6 3.8 2.4 5.7 0.2 0.6 0.5 1.1 0.8 1.6 1 1.7 2 3.4 2.9 5.2 0.5 1 0.8 2 1.2 3 0.2-0.1 0.5-0.2 0.7-0.3 -0.7-2-1.4-4-2.1-6.1 0.1-0.1 0.2-0.2 0.3-0.3C62.7 44.7 64.7 46.1 66.7 47.6zM82.1 52.7c0.1-1.7 0.3-3.3 0.4-4.9 0.2-3.8 0.4-7.5 0.5-11.3 0-1.7-0.4-3.4-0.5-5.1 -0.2-2.7-0.2-5.4-0.6-8.1 -0.6-4.2-1.5-8.4-2.3-12.6 -0.2-1.3-0.5-2.6-0.9-3.9 -0.1-0.3-0.5-0.6-0.8-0.7 -0.1-0.1-0.6 0.3-0.6 0.5 -0.7 2.4-1.3 4.9-1.9 7.3 0.2 0.1 0.4 0.1 0.6 0.2 0.3-0.8 0.5-1.5 0.8-2.3 0.2-0.6 0.2-1.3 1.4-0.9 1.7 0.5 1.4 1.7 1.8 2.7 -0.1 0.1-0.3 0.2-0.4 0.3 -0.3-0.4-0.6-0.7-0.9-1.1 -0.2 0.5-0.6 1-0.6 1.6 0 0.9-0.1 2 0.4 2.5 0.8 0.9 1.7 3.3 1.3 5 -0.4-0.9-0.7-1.6-1.1-2.3 -0.9 2-0.1 3.9 0.2 5.8 0.2 1.2 1 2.4 1.5 3.6 0.1 0.2-0.2 0.6-0.3 1.1 -0.5-0.5-0.8-0.9-1.2-1.3 -0.6 3.4 1 6.1 2.7 9 -1-0.1-1.5-0.2-2.2-0.2 0 1.3-0.3 2.4 0.9 3.5 0.9 0.8 1.3 2.3 1.9 3.5 -0.2 0.1-0.4 0.2-0.6 0.4 -0.5-0.7-1-1.4-1.8-2.5 0 1.8 0 3.2 0 4.6 0.4-0.2 0.6-0.4 1.1-0.7 0.2 1.2 0.3 2.1 0.5 3 -1.1 0.1-2 0.3-2.9 0.4 -0.1-0.1-0.3-0.2-0.4-0.3 -0.1 0.8-0.4 1.8-0.1 2.5 0.2 0.5 1.3 0.6 2 0.8C80.5 52.5 81.1 52.6 82.1 52.7zM85.2 55.2c0.3-0.3 0.4-0.4 0.4-0.5 0.1-0.3 0.2-0.6 0.2-0.9 0.5-4.2 2.6-7.2 6.4-9.1 0.9-0.4 1.5-1.4 2.3-2.1 0.3-0.3 0.8-0.6 1.2-0.8 0.2 0.1 0.3 0.2 0.5 0.3 -0.1 1.6-0.2 3.2-0.4 4.9 0.7-1.3 1.4-2.7 1.9-4.1 0.6-1.9 1-3.9 1.4-5.9 0.7-3.3 1.4-6.6 2-9.9 0.1-0.4-0.3-0.9-0.4-1.3 -0.4 0.2-0.9 0.4-1.3 0.6 -0.2 0.1-0.3 0.4-0.5 0.6 -3.7 5.8-7.4 11.5-11 17.3 -0.9 1.5-1.4 3.2-2.1 4.8 0.1 0 0.2 0.1 0.3 0.1 0.2-0.2 0.4-0.5 0.7-0.9C86.3 50.6 85.8 52.7 85.2 55.2zM86.4 58c-0.1-0.6-0.2-1.4-0.3-2.2 -0.6 0.2-1.1 0.4-1.7 0.6 0.2-2.7 0.2-5.2 0.6-7.6 0.3-1.6 1.2-3 1.6-4.6 1-4.4 1.8-8.8 3-13.1 1.4-5.1 3-10.1 4.5-15.2 0.6-1.9 1.3-3.7 1.9-5.6 -0.8 0.8-1.5 1.7-1.9 2.7 -2.5 5.1-4.3 10.5-5.8 16 -2.3 8.4-4.2 16.8-5.7 25.3 -0.1 0.7-0.6 1.7-1.1 1.8 -1.7 0.3-3.5 1-5.3 0.1 -0.9-0.5-1.9-0.8-2.7-1.2 -1.2 1.3 0.2 2 0.3 2.9C78 58 82.1 58 86.4 58zM8.9 51c0 0.1 0 0.3 0 0.4 1.8 0.2 3.7 0.6 5.5 0.7 5.9 0.3 11.7 0.7 17.4 2.6 7.1 2.4 14.4 4.1 21.6 6.1 -0.6-0.8-1.1-1.6-1.7-2.4 -0.4-0.5-0.9-1.1-1.5-1.3 -2.3-0.8-4.6-1.7-6.9-2.2 -4.5-1.1-9-2.2-13.6-2.9 -3.7-0.6-7.5-1.5-11.4-0.6 -0.2 0-0.5-0.1-0.7-0.2 -0.7-0.2-1.3-0.7-2-0.6C13.4 50.7 11.2 50.9 8.9 51zM29.6 57.8c2.2 3.2 14.2 7.5 19.6 7.2 -0.5-0.9-1.2-1.8-1.6-2.9 -0.3-0.9 0-1.6 1.2-1.3 0.8 0.2 1.7 0.3 2.5 0.4 -3.9-1.2-7.8-2.4-11.7-3.3 -3.9-1-7.9-1.8-12-2.8 0.1 2.8 2.4 1.5 3.4 2.4C30.4 57.7 30.1 57.7 29.6 57.8zM58.9 46.7c-0.6-1.1-1.1-2.2-1.7-3.1 -1.9-2.7-4-5.4-5.8-8.2 -1.7-2.6-3.1-5.3-4.6-8 -0.8-1.3-1.6-2.6-2.4-3.9 -0.1 0.1-0.2 0.2-0.4 0.2 0.6 1.1 1.3 2.2 1.8 3.4 0.5 1.5 0.8 3.1 1.2 4.7 1.2 4.5 3.1 8.8 5.4 12.9 0.9 1.6 1.6 3.3 2.4 5 0.7 1.4 1.5 2.9 2.2 4.3 0.2-0.1 0.4-0.2 0.6-0.3 -0.8-2.5-1.5-5-2.4-7.8C56.5 46.2 57.6 46.4 58.9 46.7zM37.4 29.6c-0.8-0.9-1.4-1.8-2.3-2.8 0 0.7 0.1 1 0.1 1.3 -0.2 0.1-0.3 0.1-0.5 0.2 -0.4-0.9-1.1-1.8-1.3-2.8 -0.3-2-1-2.6-3.1-2 -0.3-0.5-0.5-1.2-1-1.7 -1.1-1.2-0.5-2.1 0.5-3 -1.3-0.8-2.6-1.7-4-2.5 -0.5-0.3-1-0.3-1.6-0.5 0 0.6-0.1 1.3 0 1.9 0 0.4 0.3 0.8 0.5 1.1 1.9 2.2 4 4.4 5.8 6.7 1.7 2.1 4.4 3.6 4.5 6.8 0 0.1 0.2 0.2 0.3 0.3 1.3 1.5 2.7 2.9 4 4.4 0.9 1 1.8 2.1 2.9 3.4 -0.5-1.3-0.8-2.2-1.2-3.1 0.2-0.1 0.3-0.1 0.5-0.2 0.5 0.9 1 1.8 1.3 2.4 0.8 0.1 1.4 0.2 2 0.3 -0.7-1-1.7-1.8-2.6-2.7 -0.7-0.7-1.7-1.6-1.6-2.3 0.2-1.9-1.3-2.4-2.2-3.4 0.1 0.5 0.2 1 0.3 1.7C36.5 32 35.9 30.4 37.4 29.6zM18.3 36.7c-0.1 0.1-0.1 0.2-0.2 0.3 3.1 3.3 6.2 6.6 9.3 9.9 0.4 0.5 1.3 0.8 1.4 1.3 0.4 1.6 1.2 2.3 2.9 2.6 2.2 0.4 4.4 1.3 6.6 1.9 0.4 0.1 0.8 0 1.5 0.1 -1.6-2-3.1-3.5-5.2-4.3 -0.9-0.3-2-1.1-2.2-1.9 -0.3-1.3-1.3-1.8-2.2-2.4 -1.4-0.9-2.9-1.4-4.3-2.3C23.3 40.2 20.9 38.4 18.3 36.7zM97.4 96.9c0.6-1 1.4-2 1.7-3 1.1-3.1 2-6.3 3.1-9.4 1.4-3.9 1.8-8 2.4-12.1 0.2-1.6-0.9-1.7-1.6-2.2 -0.4-0.3-1.3-0.2-1.9-0.1 -0.2 0-0.6 0.7-0.6 0.8 0.5 1.1 0.1 2.1-0.1 3.1 -0.1 0.7-0.6 1.7 0.5 2.2 0.1 0.1 0.1 0.6 0 0.9C100 83.7 99.7 90.5 97.4 96.9zM76.1 30.3c-0.1-1-0.4-2.2-0.1-2.5 0.9-0.8 1.2-1.9 1.4-3 0.1-1.1 0.4-2.3-1.2-3 -0.6-0.3-1-1.3-0.1-2.2 1.4-1.3 1.1-3 1-4.6 -1.5-0.1-1.6 0.7-1.7 1.8C75 23 74.5 29.3 75.2 35.5c0.5 4.2 0.9 8.5 1.3 12.7 1.6 0 2.2-1.6 1.8-4.3 -0.4 0.2-0.8 0.3-1.3 0.6 0-1.3 0-2.5 0-3.5 0.5-0.1 1.1 0 1.1-0.1 0.2-1.2 0.2-2.3 0.3-3.9 -0.8 0.6-1.2 1-1.7 1.3 -0.9-1.4-0.4-2.6 0.3-3.7 0.9-1.6 1.6-3.2 1-5.2C77.4 29.6 77 29.8 76.1 30.3zM79.6 98c0.1 0 0.1 0 0.2 0 -0.1-1.4-0.2-2.8-0.2-4.2 -0.1-1.3-1.2-1.5-2-1.9 -0.4-0.2-1.2 0.2-1.6 0.6C75.4 93 75 93.7 75 94.4c-0.2 2.9-0.4 5.8-0.5 8.7 0 0.3 0.2 0.8 0.4 0.9 1.2 0.2 2.5 0.4 3.7 0.3 0.4 0 1-0.8 1.1-1.2C79.7 101.4 79.6 99.7 79.6 98zM109.4 65.9c3.5-0.9 7-1.7 10.5-2.6 0.3-0.1 0.7-0.1 0.8-0.3 1-1.6 2.8-1.6 4.2-2.2 2.5-1.1 5.1-2 7.7-3 -1.8 0-3.5 0.1-5.2 0.4 -2.8 0.5-5.6 1-8.4 1.6 -0.9 0.2-1.8 0.6-2.7 0.9 -2.5 0.8-5.1 1.7-7.6 2.5C109 64.3 109.2 65.1 109.4 65.9zM56.7 96c0.1-0.1 0.2-0.2 0.3-0.3 -0.4-1.8-0.9-3.6-1.3-5.4 -1.3-6.3-1.4-12.7-1.1-19.1 0-0.9-0.4-1.2-1.1-1.2 -1.4-0.1-2.4 0.7-2.3 2.3 0.1 2.2 0.5 4.5 0.9 6.6 1 4.7 2 9.4 3.2 14.1C55.6 94.1 56.3 95 56.7 96zM48.8 40.8c-0.9-5.4-13.4-20.7-17.1-21.6 0.6 0.5 1.3 1 1.9 1.6 -0.1 0.1-0.1 0.2-0.2 0.2 -0.7-0.2-1.3-0.4-2.4-0.8 1.4 2.1 2.6 3.7 5 3.7 0.3 0 0.6 0.5 1.1 1 -0.8 0.1-1.3 0.1-2 0.2 1.3 1.1 1.7 2.8 3.6 2.6 0.2 0 0.5 0.3 0.7 0.5 0.6 0.5 1.2 0.9 1.7 1.4 0.5 0.5 1.5 1.5 1.4 1.6 -0.8 1 0.2 1.3 0.6 1.8 0.8 1 1.7 1.9 2.5 2.9 -0.1 0.1-0.1 0.2-0.2 0.3 -0.7-0.5-1.4-0.9-2.1-1.4C43.2 35 43.1 35 43 35.1c0.7 1.1 1.4 2.2 2.2 3.4 0.3-0.6 0.5-0.9 0.8-1.4C47 38.5 47.9 39.6 48.8 40.8zM88.1 42.6c1.1-2.1 2.1-3.7 2.8-5.5 0.9-2.2 1.6-4.4 2.5-6.6 0.8-1.8 1.8-3.5 2.6-5.3 1.1-2.3 2-4.7 3-7C92.6 24.9 89.4 33.1 88.1 42.6zM64.6 60.1c-2.3-1.4-4.2-2.5-6.2-3.8 -0.4 2.2 1.1 3.4 1.8 5 -2.9-2.4-5.8-4.8-8.9-7.3 0.1 2.3 1 3.4 2.9 4.2 -0.6 0.3-0.9 0.4-1.6 0.7 1.5 1.2 2.7 2.3 4 3.1 0.6 0.4 1.5 0.5 2.2 0.3C60.5 61.8 62.3 61 64.6 60.1zM87.5 55.8c0.8-0.7 1.4-1.1 1.9-1.6 0.8-0.8 1.5-1.8 2.4-2.5 2.1-1.5 3.6-5.2 3.1-8 -1.4 1.1-2.9 2-4.2 3.3 -1.3 1.3-2.8 2.5-3 4.5C87.6 52.9 87.6 54.2 87.5 55.8zM63.8 58.4c0.8-4.4-3.3-10.9-7.1-11.1 0.2 0.4 0.3 0.8 0.5 1.1 0.5 1.3 1.1 2.5 1.6 3.8 0.5 1.1 0.6 2.5 1.3 3.4C61 56.7 62.4 57.4 63.8 58.4zM102.8 52.9c-0.1-0.1-0.2-0.2-0.4-0.4 -1.9 1.2-3.2 3.1-4.5 5 -0.6 0.9-0.9 1.9-1.6 2.7 -0.5 0.6-1.2 0.9-2.1 1.5 2.7 1.4 4.1-0.4 5.6-1.4 2-1.2 3-3.2 2.9-5.6 -0.9 0.3-1.6 0.5-2.3 0.7 0-0.1-0.1-0.2-0.1-0.4C101.2 54.3 102 53.6 102.8 52.9zM67.9 56.2c0.5-6-1.7-9.3-5.7-10.3 0.2 0.9 0.7 1.9 0.7 2.8C63.1 52.1 65.1 54.2 67.9 56.2zM94.1 60.7c2.9-3.6 5.5-6.8 5.2-11.5C95.3 50.1 93.6 55.6 94.1 60.7zM97.4 63.5c-1.2 0.2-2.1 0.3-3.1 0.4 0.1-0.4 0.2-0.8 0.2-1 -3.2-1.3-6.2-2.6-9.3-3.9 -0.1 0.2-0.1 0.3-0.2 0.5 0.4 0.2 0.8 0.4 1.3 0.7 1.3 0.7 2.8 1.1 3.8 2.1 2.7 2.3 5.3 4.8 7.9 7.2 0.3 0.3 1 0.7 1.3 0.6 1.2-0.4 2.4-1 3.8-1.6 -0.9-0.3-1.7-0.6-2.6-0.9 -0.1 0.4-0.2 0.7-0.4 1.2 -0.4 0.1-1 0.1-1.8 0.2 0.2-0.6 0.4-1 0.5-1.5 -0.6 0-1 0-1.4 0 0-0.1-0.1-0.2-0.1-0.3 0.6-0.2 1.1-0.5 1.5-0.7 -0.3-0.5-0.5-1-0.9-1.6 -0.3 0.6-0.4 0.8-0.5 0.9 -0.3 0.3-0.7 0.6-1.1 0.9 0-0.4 0-0.9 0.2-1.3C96.8 64.9 97 64.4 97.4 63.5zM57.5 57.1c-0.7-1.3-1.4-2.6-2-3.8 -2.8-0.1-3.1-2.8-4.5-4.3 -0.2-0.2-0.4-0.6-0.6-0.6 -1.4 0-1.7-1.2-2-2.1 -0.8-2.3-0.8-2.3-2.7-3.5C47.3 48.6 52 54.5 57.5 57.1zM20.9 24.8c3 4.1 6 8 8.8 11.9 0.6-0.6 1.1-1.2 1.6-1.8C26 28.1 22.8 24.9 20.9 24.8zM30.8 60.7c-1.9-3.4-12.7-6.6-16.3-4.7 2.4 0.7 4.8 1.4 7.2 2 1.9 0.5 3.9 0.9 5.9 1.3 0.1 0 0.4 0 0.4 0.1C28.4 61.1 29.9 60.1 30.8 60.7zM145.6 41.4c-0.1-0.2-0.3-0.5-0.4-0.7 -3.7 0.7-7.5 1.1-11.1 2.1 -1.6 0.4-2.9 1.8-4.4 2.8 1 0.8 1 0.9 2 0.3 3.2-1.8 6.6-3 10.3-3 0.8 0 1.7-0.3 2.5-0.5C145 42.2 145.3 41.7 145.6 41.4zM94.3 50.9c-1.2 1-2.3 1.8-3.2 2.9 -0.5 0.5-0.4 1.5-0.9 2 -0.9 1-1.9 1.8-3.2 2.9 2 0.4 3.8 0.8 5.9 1.3C91.5 56.5 94.2 54 94.3 50.9zM69.2 53.2c-0.1 0.1-0.3 0.1-0.4 0.2 0.1 0.9 0.2 1.9 0.1 2.8 0 0.5-0.4 1.3-0.8 1.5 -0.4 0.1-1.1-0.3-1.5-0.7 -0.6-0.6-1.2-1.3-1.9-2.1 0.1 1.6 0.1 2.9 0.3 4.1 0 0.3 0.6 0.8 0.9 0.7 2.3-0.5 4.6-1 6.9-1.6 -0.8-0.9-1.9-1.2-2.5-2C69.6 55.4 69.5 54.2 69.2 53.2zM54 52.4c0.1-0.1 0.3-0.1 0.4-0.2 -0.9-5.1-3-9.5-7.8-12.2 0 0.1-0.1 0.2-0.1 0.2 0.1 0.2 0.1 0.5 0.2 0.7 1.2 1.5 1.6 3.5 3.8 4.1 0.8 0.2 1.2 1.8 1.9 2.8C52 48 51.8 48 51.4 48.1 52.3 49.6 53.1 51 54 52.4zM70.5 46.5c-0.2 0.1-0.3 0.2-0.5 0.3 -0.8 3.7 0.1 7.1 2.2 8.4 0-1.6 0-3.1 0-4.7 0 0 0.2-0.1 0.5-0.2C71.9 49 71.2 47.8 70.5 46.5zM74.6 39.6c-0.1-1.3-0.3-2.7-0.4-4 -0.1-1.5 0-3.1-0.4-4.6 -0.4-1.7-1.1-3.3-1.6-4.9 -0.5-1.7-1-3.5-1.4-5.3 -0.2 0-0.4 0.1-0.5 0.1 1 3.9 2.1 7.7 3.1 11.6 0.1 0.5 0.6 1.2 0.4 1.6C72.9 36.2 74.3 37.8 74.6 39.6zM75.2 54.2c1.1 1.4 4.7 2.2 5.8 1.3 0.3-0.3 0.4-1 0.5-1.5 0-0.2-0.5-0.5-0.7-0.5C78.9 53.7 77.1 54 75.2 54.2zM85.3 34.7c2.2-3.3 0.4-6.7 0.3-10.1 0.1 2.7 0.3 5.3 0.4 8 -0.1 0-0.3 0-0.4 0 -0.2-1.9-0.4-3.8-0.6-5.7 -0.1 0-0.2 0-0.3 0C85 29.6 85.2 32.1 85.3 34.7zM73.8 29.6c0.1 0 0.3 0 0.4 0 -0.3-3.9-1.8-7.4-3.3-10.9C71.8 22.3 72.8 26 73.8 29.6zM87.5 25.4c0.2 0 0.4 0 0.7 0.1 0.2-2.5 0.1-4.9-0.9-7.7 -0.2 1.2-0.8 1.7-0.1 2.9C87.8 21.9 87.4 23.8 87.5 25.4zM84 40.6c0.1 0 0.2 0 0.4 0 -0.2-3.8-0.3-7.5-0.5-11.3 -0.1 0-0.3 0-0.4 0C83.6 33.1 83.8 36.9 84 40.6zM71.7 31.5c-1.1 2.9 0.3 4.7 1.3 6.6C72.6 36.1 72.2 34 71.7 31.5zM62.2 18.7c0.2-0.1 0.4-0.3 0.6-0.4 -1-1.6-1.9-3.3-2.9-4.9 -0.2 0.1-0.4 0.2-0.5 0.3C60.4 15.4 61.3 17.1 62.2 18.7zM34.1 62.7c0-0.1 0-0.2 0.1-0.2 -1.4-0.4-2.8-0.7-4.2-1.1 0 0.2-0.1 0.3-0.1 0.5C31.3 62.1 32.7 62.4 34.1 62.7zM93.8 61.6c-0.8-2-2-1.2-3-1.1C91.7 60.8 92.5 61.1 93.8 61.6zM68.5 51.5c0.1-0.1 0.3-0.1 0.4-0.2 -0.3-1.1-0.7-2.3-1-3.4 -0.2 0.1-0.3 0.1-0.5 0.2C67.8 49.3 68.1 50.4 68.5 51.5z"/><path class="st0" d="M61.1 71.8c2.8 0 5.1 0 7.5 0 2.4 0 2.4 0.1 2.2 2.5 -0.1 1.1 0 2.2 0 3.7 -1.3 0-2.6 0-3.8 0 -1.5 0-2.9 0.1-4.4 0 -0.5-0.1-1.4-0.7-1.4-1.1C61 75.1 61.1 73.4 61.1 71.8zM62.3 73.3c0 1-0.2 1.9-0.1 2.7 0 0.4 0.4 1 0.6 1 2.3 0.1 4.6 0 6.9 0 0-1.3 0-2.7 0-4.2C67.2 73 64.8 73.1 62.3 73.3z"/><path class="st0" d="M83.8 74.4c-0.1 0.2-0.1 0.3-0.2 0.6 0-0.7 0-1.4 0-2.3 1.8-0.2 3.6-0.4 5.4-0.5 0.7-0.1 1.5 0 2.3-0.1 1.7-0.3 2.2 0.7 2.2 2 0 1.1-0.1 2.3-0.3 3.4 -0.1 0.3-0.7 0.7-1.1 0.7 -2.1 0.1-4.1 0.2-6.2 0.2 -0.5 0-1 0.1-1.4 0.1 -0.5-0.5-0.9-0.9-1.2-1.1 0.3-1 0.6-2 0.9-3C84.1 74.5 84 74.5 83.8 74.4zM85.3 76.5c1.6 0 3.1 0 4.6 0 0.6 0 1.3 0 1.2-0.9 -0.1-0.8 0.6-2-0.8-2.2 -1.1-0.1-2.2 0-3.3 0 -1.2-0.1-1.6 0.5-1.6 1.6C85.3 75.4 85.3 75.9 85.3 76.5z"/><path class="st0" d="M45 46.7c0.9 1.3 1.7 2.7 2.6 4 -0.1 0.1-0.2 0.2-0.3 0.2 -0.9-1.3-1.7-2.7-2.6-4C44.8 46.8 44.9 46.8 45 46.7z"/></svg>