<svg xmlns="http://www.w3.org/2000/svg" viewBox="0 0 187 89.2"><style type="text/css">  
	.st0{fill:none;stroke:#231F20;stroke-miterlimit:10;}
</style><path class="st0" d="M180.4 67c-5.6-3.2-9.7-8.4-14.4-12.7 -0.1-0.1-0.4-0.1-0.5 0 -2.2 2.2-5.4-1.2-7-2.8 -0.9-1-1.9-2-2.7-3.1 -0.5-0.7-0.8-1.6-1.6-1.9 -0.6-0.3-1.2 0.1-1.7 0.3 -1 0.5-1.7 0.9-2.8 0.5 -1.6-0.6-2.6-2.4-3.5-3.8 -0.8-1.3-1.6-2.7-2.9-3.6 -0.8-0.5-1.6-0.6-2.5-0.7 -0.7 0-1.4-0.1-2-0.3 -0.7-0.2-1.2-0.8-1.7-1.4 -0.4-0.5-0.8-1-1.5-1.2 -0.8-0.1-1.5 0.6-2.1 1 -1.8 1.6-2.9 3.9-4.4 5.7 -2.1 2.7-4.4 5.6-7.4 7.5 -0.5-0.5-1-1.1-1.5-1.6 -1.5-1.8-3-4-3.1-6.4 -0.1-1 0.2-2.2-0.3-3.2 -0.3-0.7-0.9-1.3-1.6-1.8 -1.6-1.2-3.4-1.9-5-2.9 -2-1.3-3.6-3.6-5-5.5 -1.4-2.1-2.7-4.3-4.1-6.4 -0.6-1-1.3-2-2-3 -0.6-0.9-1.3-2-2.2-2.7 -0.9-0.8-1.5 0.3-2.4-0.1 -0.8-0.4-1.1-1.8-1.3-2.6 -0.3-1.3-0.5-3.4-1.7-4.2 -1.2-0.8-3 2.6-3.5 3.2 -1.6 2.5-3.1 5-4.5 7.6 -2.7 4.7-5.2 9.4-8 14 -1.1 1.8-2.2 3.6-3.7 5 -0.7 0.6-1.6 1.2-2.5 1 -0.5-0.1-0.9-0.4-1.4-0.3 -0.7 0.2-1.2 1.2-1.6 1.8 -0.1 0.2-0.3 0.4-0.4 0.6 -2.2-0.5-4-1.9-5.5-3.5 -0.2-0.2-0.4-0.4-0.6-0.6 -0.6-0.7-1-1.5-1.5-2.2 -0.3-0.4-0.7-0.7-1.1-1 -0.1-0.1-0.2-0.2-0.2-0.2 -0.9-0.9-2.2-1.6-3.2-2.4 -1-0.8-1.8-1.8-2.7-2.7 -0.8-0.7-1.5-1.5-2.6-1.8 -1.9-0.6-3.5 1.7-4.4 3.1C42 34.6 39.7 37.5 37 40c-1.2 1.1-2.8 2.5-4.5 2.7 -1.7 0.2-2.9-1.5-3.9-2.6 -1.1-1.2-2.6-2.6-4.3-1.3 -1.1 0.9-1.8 2.4-2.5 3.6 -1 1.5-1.9 3-2.8 4.5 -3.7 6-7.7 11.9-13.2 16.5 -0.2 0.1 0.1 0.4 0.2 0.2 0 0 0 0 0 0 0.9 0.3 4.9-3.2 5.4-3.6 3.9-3.5 7.1-7.4 9.8-11.9 0.6-1 1.2-1.9 1.7-2.9 0.4-0.9 0.9-1.8 1.4-2.7 0.3-0.4 0.6-0.9 1.1-0.9 0.5 0 1 0.5 1.4 0.8 0.7 0.7 1.3 1.6 2.1 2.2 1.6 1.4 3.4 0.9 5.1 0 2.3-1.3 4.4-2.9 6.4-4.7 2.2-1.9 4.3-3.9 6.2-6.1 0.5-0.5 0.9-1 1.4-1.5 0.7-0.7 1.3-0.3 1.9 0.3 1 1 1.9 2.2 2.9 3.3 0.9 1 2.2 1.2 3 2.3 0.7 0.9 1.1 2.1 1.8 3 1.6 2.1 4.5 2.9 6.8 4 0 0 0.1 0 0.1 0 -0.2 0.3-0.4 0.6-0.6 0.9 -0.1 0.1-0.1 0.2-0.2 0.3 -0.1 0-0.2 0-0.3 0 -2.9-0.3-5.4-1.9-7.6-3.7 -2.1-1.8-3.6-4.1-5.4-6.1 -1.4-1.5-2.9-1.2-4.4 0.1 -1.1 0.9-2 2.1-2.9 3.1 -1.1 1.1-2.3 2.1-3.7 2.9 -0.3 0.1-0.1 0.5 0.1 0.5 1.4 0 2.7-0.2 4.1-0.6 1.3-0.3 2.9-1.1 4.2-0.5 0.8 0.4 1.3 1.3 1.9 2 0.6 0.7 1.3 1.3 2.2 1.7 0.1 0 0.2 0 0.3-0.1 0.8-1.1 3.4 1 4.1 1.5 1.7 1.1 3.7 1.5 5.7 1.8 -1 1.5-2 3-3.1 4.5 -1.7 2.3-3.5 4.5-5.4 6.7 -0.8 1-1.7 2-2.7 2.8C50 63.7 49 63.3 48 63c-0.1 0-0.3 0.1-0.3 0.2 -1.2 3-2.9 5.6-4.4 8.4 -1.3 2.4-2.7 4.9-5 6.4 0 0 0 0 0 0 -0.1 0-0.1 0.1-0.1 0.1 0 0 0 0 0 0 -0.1 0.1-0.1 0.2 0 0.3 0.1 0.1 0.1 0.1 0.3 0.1 2.2-0.7 3.9-2.5 5.3-4.2 1.3-1.6 1.9-3.6 2.8-5.4 0.5-1 1.1-1.9 2-2.5C49 66 49.9 66 50.6 66c0.6-0.1 1.1-0.2 1.6-0.5 0.9-0.5 1.6-1.4 2.3-2.2 0.9-1.1 1.8-2.2 2.7-3.3 1.9-2.4 3.8-4.8 5.7-7.2 0.8-1.1 1.6-2.2 2.3-3.3 0.7-1 1.5-2 2.2-3.1 0.5-0.9 1.2-2 2.2-2.4 0.5-0.2 1 0.3 1.5 0.2 0.5-0.1 0.9-0.3 1.3-0.6 1.9-1.5 3.1-3.7 4.3-5.7 1.5-2.5 3.2-4.8 4.8-7.3 1.6-2.6 3.2-5.2 4.6-7.9 1.1-2 1.9-4.1 3.1-6 0.3-0.5 0.7-0.9 1.3-1.1 0.5-0.2 0.9 0.5 1.1 0.9 0.5 0.8 0.8 1.7 1.3 2.5 0.4 0.7 0.8 1.5 1.6 1.8 0.7 0.2 1.3 0.2 1.9 0.7 0.5 0.4 0.9 1 1.2 1.5 1.4 2.1 2.7 4 4.3 5.9 2 2.2 3.7 4.7 5.8 6.9 0.8 0.9 1.7 1.7 2.6 2.4 1 0.8 2.1 1.4 3 2.2 0.7 0.6 0.8 1.5 1 2.4 0.2 1 0.4 2.1 0.7 3.1 0.6 1.9 1.4 3.7 2.5 5.3 2.6 3.9 6.5 6.9 10.2 9.8 1.9 1.6 3.8 3.2 5.5 5 1.8 2 3.4 4.2 5 6.4 1.4 1.9 2.9 3.9 4.6 5.5 0.8 0.8 1.6 1.4 2.5 1.9 1.1 0.6 2.2 1.1 3.1 2 0.2 0.2 0.4 0.1 0.5-0.1 0.3 0 0.4-0.5 0.1-0.7 -2.1-1.4-4-2.9-5.8-4.7 -1.8-1.8-3.2-3.9-4.6-6 -1.5-2.4-2.9-4.9-4.4-7.3 -1.3-1.9-2.7-3.5-4.4-5.1 -1.9-1.8-4-3.3-5.9-5 0.1-0.1 0.2-0.1 0.3-0.2 1.1-0.5 2-1.2 2.9-2 0.1 0 0.1-0.1 0.2-0.1 0.2-0.1 0.3-0.2 0.3-0.4 1-1 2-2.1 2.8-3.3 0.5-0.7 1-1.5 1.5-2.2 0.7-1 1.4-2.1 2.1-3.1 0.5-0.8 1-1.7 1.4-2.6 0.7 0.6 1.4 1.2 2.2 1.6 1.2 0.5 2.5 0.4 3.7 0.6 2.3 0.4 3.7 3.2 4.8 5 0.8 1.4 1.9 3.6 3.5 4.2 0.7 0.3 1.4 0.1 2 0 0.8-0.2 1.7-0.6 2.3 0.1 1.3 1.5 2.3 3.3 3.6 4.8 1.3 1.5 2.8 2.9 4.8 3.3 0.9 0.2 1.8 0 2.8 0 1-0.1 1.6 0.3 2.3 0.9 2 1.7 4.3 3.1 6.5 4.6 2 1.3 4 2.6 6 3.8 0.3 0.2 0.6-0.1 0.5-0.4C180.6 67.4 180.7 67.2 180.4 67zM45.8 68.3c0 0.1-0.1 0.2-0.1 0.2 0.3-0.5 0.5-1 0.8-1.4C46.2 67.5 46 67.9 45.8 68.3zM120.7 51.8c0.3 0.3 0.6 0.6 0.8 0.9 0 0 0 0.1 0.1 0.1C121.2 52.5 120.9 52.2 120.7 51.8z"/><path class="st0" d="M110.2 44.8c-2.1-7.2-7.8-12.3-13.5-16.7 -1.5-1.2-2.7-2.4-3.6-4.1 -0.5-1-1.2-2.5-2.5-2.7 -0.9-0.1-1.4 0.8-1.7 1.4 -0.6 1.1-0.9 2.5-1.9 3.3 -0.1 0-0.1 0.1-0.1 0.2 0 0-0.1 0.1-0.1 0.1 -0.7 1.5 1.2 2.6 2.3 3.2 1.8 1.1 3.8 1.8 5.7 2.6 2.8 1.1 5.5 3 7.8 4.9 2.8 2.3 5.2 5 7.1 8C109.9 45.2 110.3 45.1 110.2 44.8z"/><path class="st0" d="M94.5 52.2c-1.1-1.2-2.5-1.8-3.6-2.9 -1.5-1.4-1.5-3.7-2.3-5.5 -0.7-1.6-2.4-2.6-3-4.3 -0.6-1.5-0.1-3.3 0.8-4.6 0.1-0.1 0.1-0.1 0.1-0.2 0.2-0.3 0.4-0.6 0.7-0.8 0.1-0.1 0-0.5-0.2-0.4 -2.5 0.3-4.4 2.2-5.9 4.1 -1.8 2.2-3.2 4.7-4.9 7 -0.6 0.9-2.3 3.3-3.5 3 -0.6-0.1-0.9-0.4-1.4-0.2 -0.5 0.2-0.8 0.7-1.1 1.2 -0.4 0.6-0.7 1.2-1.1 1.7 -0.8 1.3-1.7 2.5-2.7 3.6 -1.3 1.4-2.6 2.8-3.9 4.2 -0.2 0-0.3 0.2-0.3 0.3 0 0 0 0 0 0 -0.1 0.1 0 0.2 0.1 0.2 0 0.1 0.1 0.1 0.2 0.1 4.3-0.5 6-5.5 10.1-6.4 4.3-0.9 7.3-4.5 9.2-8.3 0.2-0.2 0.3-0.5 0.4-0.7 0.1-0.1 0.2-0.3 0.2-0.4 4.3 2.9 5.7 9.6 11.7 9.7C94.5 52.7 94.6 52.4 94.5 52.2z"/><path class="st0" d="M31.2 50.3c-0.6-1.8-2.4-3.8-4.3-4.3 -0.9-0.2-1.6 0.3-2 1 -0.3 0.5-0.5 1.1-0.7 1.6 -0.3 0.9-0.7 1.6-1.2 2.3 -1.6 2.4-3.4 4.8-5.2 7.1 -1.5 1.9-3.8 4.5-6.4 4.4 -0.2 0-0.2 0.2-0.1 0.3 -0.2 0.1-0.1 0.4 0.1 0.4 0.3 0.1 0.9 0 1.3-0.1 0.8-0.1 1.5-0.4 2.2-0.8 2.1-1 4.1-2.6 6-4.1 1.7-1.4 3.3-3 4.6-4.8 0.6-0.8 1.1-1.7 1.9-2.4 1.1-1 2.5-0.1 3.7-0.5C31.2 50.6 31.3 50.5 31.2 50.3z"/><path class="st0" d="M139.7 77.8c-2.7-2.4-5.3-4.6-7.4-7.6 -1.9-2.7-3.6-5.4-6.3-7.4 -2.7-2-5.9-3.1-9.1-4.2 -2.6-0.9-4.3-2.9-5.6-5.2 -0.1-0.2-0.2-0.4-0.3-0.6 -0.1-0.2-0.2-0.4-0.3-0.7 -0.2-0.4-0.7-0.1-0.6 0.3 0.3 0.6 0.5 1.4 0.9 2.1 0.1 0.4 0.2 0.8 0.4 1.3 0.4 1.2 1 2.2 1.9 3 1 1 2.1 1.9 2.9 3.1 1 1.5 1.1 3.3 1.3 5.1 0.3 2.8 1.3 5.2 3.2 7.3 1.6 1.8 4 3.4 6.5 2.9 0.3 0 0.2-0.4 0.1-0.5 -2.5-1.9-5.1-3.8-6.1-6.9 -0.3-0.8-0.5-1.8-0.1-2.5 0.1-0.1 0.1-0.2 0.2-0.3 0 0 0.1-0.1 0.1-0.1 0.2-0.2 0.4-0.4 0.7-0.5 1.3-0.5 3.1 0.1 4.2 0.8 2.6 1.5 4 4.5 5.8 6.7 1.9 2.3 4.5 3.6 7.4 4.3C139.7 78.3 139.9 78 139.7 77.8z"/><path class="st0" d="M158.4 61.3c-1.3-0.5-2.5-1.2-3.5-2.3 -1-1-1.6-2.2-2.4-3.4 -1.2-1.9-2.4-3.4-4.6-4 -1.5-0.4-2.6-0.6-3.7-1.8 -0.9-0.9-1.6-2.2-2.2-3.3 -0.6-1.1-1.2-2.2-2-3.2 -0.3-0.4-0.8-0.9-1.3-1 -0.9-0.2-1.8 0-2.6-0.3 -0.2 0-0.2 0.1-0.1 0.2 0 0 0 0.1-0.1 0.1 -0.2 1.3 0.9 2.5 1.3 3.7 0.6 1.8-0.1 3.6-0.8 5.3 -0.1 0.2 0.2 0.4 0.3 0.3 1.5-0.6 2.3-1.8 2.7-3.2 0-0.1 0.1-0.2 0.1-0.3 1.3 1.8 1.1 4.2 3.4 5.2 1.1 0.5 2.4 0.5 3.5 0.7 0.3 0 0.6 0.1 0.8 0.2 0.4 0.2 0.8 0.3 1.2 0.5 0.4 0.2 0.7 0.4 1.1 0.7 1.5 1.2 2.5 2.8 3.8 4.1 1.4 1.3 3 2 4.9 2C158.6 61.8 158.6 61.4 158.4 61.3z"/><path class="st0" d="M176.6 67.8c-2.8-1.2-5.7-2.7-8-4.8 -0.5-0.5-1.1-1.1-1.8-1.7 -0.7-0.6-1.6-1-2.6-0.8 -0.1 0-0.1 0-0.2 0 0 0-0.1 0-0.1 0.1 -0.4 0.1-0.7 0.3-0.9 0.6 -0.6 0.5-1 1.2-0.5 2.1 0.7 1.3 2.8 0.9 4 1 1 0.1 1.9 0.7 2.7 1.2 0.8 0.5 1.6 0.9 2.4 1.4 0.3 0.2 0.7 0.4 1 0.5 0.4 0.2 0.9 0.4 1.4 0.5 0.8 0.2 1.6 0.4 2.5 0.4C176.8 68.3 176.9 67.9 176.6 67.8z"/><path class="st0" d="M149 88.5c-1.5-1.1-3.6-1.3-5.3-1.4 -2.4-0.2-4.8-0.3-7.2-0.6 -6.1-0.6-12.2-1.5-18.3-2.3 -4.6-0.6-9.1-1.2-13.7-1.8 -0.1 0-0.1 0-0.2 0 -1.2-2.3-1.5-5.1-2.8-7.4 -0.1-0.2-0.4-0.1-0.4 0.1 -0.3 2.2-0.1 4.5-1.2 6.5 -0.5-0.7-0.8-1.6-1.3-2.3 -0.1-0.1-0.3-0.1-0.4 0 -0.2 0.4-0.4 0.8-0.6 1.1 -0.1 0.2-0.2 0.4-0.2 0.6 -0.1 0.1-0.1 0.3-0.2 0.4 -0.6-1.2-0.9-2.5-1.4-3.7 -0.1-0.2-0.4-0.3-0.5-0.1 -0.5 1.2-0.9 2.4-1.8 3.3 -0.7-1.3-0.9-2.7-1.3-4.1 -0.1-0.2-0.5-0.3-0.5 0 -0.3 1.3-0.6 2.6-1.2 3.7 -0.1-0.3-0.3-0.7-0.4-1 -0.1-0.4-0.2-0.7-0.3-1.1 -0.5-2.8 0-5.8-1.3-8.4 -0.1-0.2-0.4-0.1-0.4 0.1 -0.1 3.3 0.4 7.6-1.6 10.5 -1-2-1-4.2-1.7-6.3 -0.1-0.2-0.5-0.3-0.5 0 -0.2 1.5-0.4 3-0.9 4.4 -0.2 0.5-0.9 2.2-1.6 1.6 -0.4-0.4-0.7-0.9-1.1-1.3 -0.1-0.2-0.4 0-0.4 0.2 0 0.4-0.2 0.8-0.4 1.1 -0.4-0.9-0.7-1.9-1.2-2.8 -0.1-0.2-0.4-0.1-0.4 0.1 0 1.1-0.2 2.2-0.8 3.1 -4.1 0.1-8.2 0.2-12.3 0.5 -0.8-1.4-1.1-3-1.9-4.4 -0.1-0.3-0.6-0.1-0.6 0.2 0 1.5-0.3 2.9-1 4.2 -1.7-4-1.6-8.5-2.1-12.8 0-0.4-0.6-0.4-0.6 0 0 2.2 0.2 4.4 0.1 6.6 -0.1 2.2-0.3 4.7-1.6 6.4 -0.8-1.9-0.2-4-0.8-6 -0.1-0.3-0.5-0.3-0.6 0 -0.4 2.1-0.3 4.3-1.3 6.1 -0.3-1.2-0.8-2.3-1.4-3.5 -0.1-0.2-0.5-0.2-0.5 0.1 -0.2 1.3-0.3 2.7-0.9 3.8 -1.6-3.5-0.6-7.5-1.4-11.2 -0.1-0.3-0.5-0.2-0.5 0.1 0 3.9-0.2 7.9-1.6 11.6 -0.7-1.3-0.8-2.8-0.9-4.3 0-0.3-0.5-0.3-0.5 0 -0.1 1.7-0.7 3.4-1.7 4.7 -5.9 0.6-11.7 1.2-17.6 1.8 -1.7 0.2-3.3 0.4-5 0.6 -0.5 0-1 0-1.5 0 -1.1 0-2.8-0.1-3.8 0.6 -0.3 0.2-0.2 0.6 0.1 0.7 0 0 0.1 0 0.1 0 12.3 0.2 24.6-1.3 36.9-2.1 6.2-0.4 12.3-0.8 18.5-0.8 6.2 0 12.4 0.3 18.6 0.6 10.2 0.6 20.3 1.5 30.5 2.3 8.8 0.7 17.8 0.3 26.3 2.4 0.1 0 0.2 0 0.3-0.1C149.1 89.1 149.2 88.7 149 88.5z"/><path class="st0" d="M33.9 75.8c-0.8-0.6-1.7-1.1-2.7-1.5 -0.3-1.3-0.5-2.6-0.6-4 0-0.2-0.4-0.3-0.4-0.1 -0.2 0.8-0.5 1.6-0.8 2.3 -0.1 0.3-0.3 0.6-0.4 0.8 -0.2-0.6-0.3-1.3-0.3-2 -0.1-1 0-2 0-2.9 0-0.2-0.4-0.3-0.4-0.1 -0.2 1.6-0.8 3.1-1.4 4.6 0 0 0 0 0 0 0 0 0 0 0 0 -0.6-3.6-0.9-7.3-0.8-10.9 0-0.3-0.4-0.3-0.4 0 -0.5 3.7-1.1 7.3-2.6 10.7 0 0 0 0 0 0 -0.1-0.2-0.1-0.3-0.1-0.5 0-0.3-0.1-0.7-0.2-1 -0.4-2.1-0.3-4.3-0.8-6.4 0-0.2-0.4-0.2-0.4 0.1 0 2.7-0.4 5.5-1.4 8.1 0 0-0.1 0-0.1 0 -0.5-1.2-0.8-2.5-1-3.8 0-0.2-0.4-0.3-0.4-0.1 -0.1 1-0.3 1.9-0.5 2.8 -0.1 0.2-0.3 0.6-0.3 0.9 -0.1 0.2-0.2 0.3-0.3 0.5 0 0 0 0.1 0 0.1 -0.3 0.1-0.5 0.1-0.8 0.2 -0.6 0.1-1.2 0.3-1.8 0.6 -0.6 0.2-1.1 0.4-1.7 0.7 -0.3 0.1-0.1 0.5 0.1 0.5 0 0.1 0.1 0.1 0.2 0.1 3.1-0.4 6.1-0.5 9.2-0.5 0.4 0.1 0.9 0.1 1.3 0 3.3 0.1 6.5 0.4 9.8 1.1C34 76.4 34.2 76 33.9 75.8zM26.3 72.2c0-0.3-0.1-0.5-0.1-0.8C26.3 71.7 26.3 71.9 26.3 72.2 26.3 72.2 26.3 72.2 26.3 72.2z"/><path class="st0" d="M174.2 77.7c-0.9-1.1-2.4-1.6-3.7-1.9 -0.3-0.1-0.6-0.1-0.8-0.2 -0.7-0.8-1.1-1.8-1.4-2.7 -0.2-1.2-0.3-2.4-0.6-3.6 -0.1-0.3-0.5-0.2-0.5 0.1 0.4 2.1-0.6 3.8-1.7 5.4 -0.4-0.8-0.8-1.6-1.2-2.5 -0.1-0.2-0.4-0.1-0.4 0.1 -0.1 0.8-0.5 1.5-0.9 2.2 -0.2-0.5-0.5-1-0.7-1.5 -0.2-0.6-0.4-1.2-0.6-1.8 -0.1-0.2-0.4-0.2-0.4 0 -0.2 1.2-0.7 2.3-1 3.5 0-0.1-0.1-0.1-0.1-0.2 0 0 0-0.1-0.1-0.1 0 0 0 0 0 0 -1.1-2.3-1.7-4.7-2.2-7.2 0-0.2-0.4-0.2-0.4 0 0.3 2.5-0.1 5-0.7 7.4 -0.5-1.4-1-2.8-1-4.3 0-0.2-0.3-0.2-0.4 0 -0.2 1.7-0.8 3.3-0.9 5 -1.1 0.2-2.2 0.5-3.3 0.9 -0.1 0-0.2 0.1-0.2 0.2 -0.1 0.1 0 0.3 0.1 0.3 3.6-0.4 7.2-0.7 10.8-0.5 3.9 0.2 7.7 0.9 11.5 2.1 0.2 0.1 0.3 0 0.3-0.2C174.2 78.2 174.4 77.9 174.2 77.7z"/></svg>