<svg xmlns="http://www.w3.org/2000/svg" viewBox="0 0 485 70.7"><style type="text/css">  
	.st0{fill:none;stroke:#000000;stroke-miterlimit:10;}
</style><path d="M36.7 25v-6.9c0-5.1-2.1-7.6-6.2-7.6v-1h14.2v1l-1.8 0.1c-0.2 0-0.3 0.1-0.4 0.1 -0.1 0-0.4 0.2-0.9 0.4 -2.4 1.1-3.7 3.4-3.7 7.1v20.5H37L11.7 14.8v14.3c0 5.1 2.1 7.6 6.2 7.6v1H3.7v-1c4.5 0 6.8-2.5 6.8-7.6V13.8l-1-0.9 -0.6-0.5L8 11.7l-0.9-0.6 -0.9-0.5 -0.9-0.1 -1.1-0.1H4v-1h16.1L36.7 25zM16.3 10.4H7.5L8.4 11l1.1 0.8h8.2L16.3 10.4zM8.4 36.3l-0.6 0.5H12l-0.7-0.9H9L8.4 36.3zM11 35.1l-0.2-0.9 -0.1-0.8 -0.4 0.8 -0.6 0.8L11 35.1zM10.4 12.5l0.9 0.8 1.1 1.1h8l-2-1.8H10.4zM13.2 15l2 1.8h8l-2-1.8H13.2zM15.9 17.5l1.9 1.8h8l-1.9-1.8H15.9zM18.6 20.1l2 1.8h8l-2-1.8H18.6zM21.3 22.7l2 1.8h8l-2-1.8H21.3zM24.1 25.2L26 27h8L32 25.2H24.1zM26.7 27.8l2 1.8h8l-2-1.8H26.7zM29.5 30.3l1.9 1.8h5.5v-1.8H29.5zM32.2 32.8l2 1.8h2.8v-1.8H32.2zM37.6 11.3c0.2-0.3 0.3-0.5 0.3-0.5 0.1-0.1 0.2-0.2 0.4-0.4h-4.2l1.2 0.9H37.6zM34.8 35.4l2.1 1.9v-1.9H34.8zM36.9 13.6l0.1-0.6 0.3-0.9H36L36.9 13.6z"/><path d="M59.8 36.9v0.8H42.2v-0.8h1.1l1.8-0.1c0.1 0 0.3 0 0.6-0.1l0.5-0.4c0.3-0.3 0.5-0.6 0.7-1s0.2-1.1 0.2-2.1V19.6c0-0.5 0-0.9 0-1.3 0-0.3-0.1-0.7-0.1-1 -0.1-0.3-0.2-0.6-0.5-0.7 -0.2-0.2-0.5-0.3-0.7-0.4 -0.2-0.1-0.4-0.2-0.5-0.2l-2-0.1h-1.1v-0.8h17.7v0.8h-1.1c-0.9 0-1.5 0-1.9 0.1 -0.4 0-0.7 0.2-1 0.4 -0.3 0.2-0.6 0.6-0.7 1.2L55 18.4l0 1.2v13.6c0 0.8 0.1 1.5 0.2 2.1 0.1 0.3 0.3 0.7 0.7 0.9s0.7 0.5 1 0.6l2 0.1H59.8zM52.5 16.9l0.2-0.5 0.4-0.5h-6.3c0.3 0.3 0.6 0.6 0.8 1H52.5zM52.5 35.9h-4.9c-0.2 0.4-0.3 0.6-0.4 0.6l-0.5 0.5h6.3C52.8 36.5 52.6 36.2 52.5 35.9zM52.4 17.5h-4.6l0.1 0.7 0 0.8h4.5V17.5zM52.4 33.8h-4.5v1l-0.1 0.5h4.6V33.8zM52.4 19.6H48V21h4.5V19.6zM52.4 21.6H48V23h4.5V21.6zM52.4 23.6H48v1.5h4.5V23.6zM52.4 25.7H48v1.5h4.5V25.7zM52.4 27.7H48v1.5h4.5V27.7zM52.4 29.7H48v1.5h4.5V29.7zM52.4 31.7H48v1.5h4.5V31.7z"/><path d="M70.4 15.1l13.2 12.5V22c0-4.1-1.7-6.1-5-6.1v-0.8h11.4v0.8l-1.4 0 -1 0.4c-2 0.8-2.9 2.7-2.9 5.7v16.4h-0.7l-20.2-19v11.4c0 4.1 1.7 6.1 5 6.1v0.8H57.3V37c3.6 0 5.4-2 5.4-6.1V18.6L62 17.8l-0.5-0.4 -0.7-0.5L60 16.4l-0.7-0.3 -0.7-0.1 -1 0v-0.8H70.4zM68.5 16.9l-1.1-1h-7l0.7 0.4 0.9 0.6H68.5zM61.6 36.2l-0.5 0.4L60.6 37H64l-0.6-0.8H61.6zM62.1 35.6h1.1C63 35.3 63 35.1 63 34.9l-0.1-0.6 -0.3 0.7L62.1 35.6zM69.2 17.5h-6.5l0.8 0.6 0.9 0.8h6.4L69.2 17.5zM71.3 19.6h-6.4l1.6 1.4h6.4L71.3 19.6zM73.5 21.6h-6.4l1.6 1.5H75L73.5 21.6zM75.6 23.6h-6.4l1.6 1.5h6.4L75.6 23.6zM77.8 25.7h-6.4l1.6 1.4h6.4L77.8 25.7zM80 27.7h-6.4l1.6 1.5h6.4L80 27.7zM82.1 29.7h-6.4l1.6 1.5h6.4L82.1 29.7zM83.9 31.7h-5.9l1.5 1.5h4.4V31.7zM83.9 33.8h-3.8l1.6 1.5h2.2V33.8zM82.6 16.6h1.8c0.2-0.3 0.4-0.6 0.5-0.7h-3.4L82.6 16.6zM83.9 35.9h-1.6l1.6 1.6V35.9zM83.1 17.2l0.7 1.2 0.1-0.5 0.2-0.7H83.1z"/><path d="M104.5 31.4h-9.3C95 31.9 95 32.3 95 32.7c0 0.8 0.2 1.6 0.6 2.2 0.4 0.7 0.9 1.2 1.6 1.5l0.7 0.3c0.1 0.1 0.4 0.1 0.9 0.2h1v0.8H87.6v-0.8c1.3 0 2.4-0.5 3.4-1.4 0.5-0.5 1.1-1.1 1.6-1.8 0.5-0.7 1.1-1.6 1.6-2.6l9.3-16.6h0.8l10.5 18.9c0.2 0.3 0.4 0.6 0.6 1 0.2 0.3 0.4 0.6 0.4 0.7 0.2 0.3 0.5 0.7 1 1.1 0.7 0.6 1.7 0.8 2.9 0.8h0.5v0.8h-17.7v-0.8h1.7c0.6 0 1.1-0.1 1.5-0.4 0.4-0.3 0.7-0.6 0.7-1.1 0-0.3-0.1-0.8-0.4-1.3L104.5 31.4zM91.6 35.9l-0.8 0.6 -0.7 0.4h3.9c-0.3-0.4-0.4-0.8-0.5-1H91.6zM93.3 35.3v-0.5l0.1-1 -0.6 0.8 -0.3 0.3 -0.3 0.4H93.3zM104 30.7l-4.3-7.9 -4.2 7.9H104zM100.3 21.6l-0.2 0.4 0.6 1.1h5.1l-0.8-1.5H100.3zM101.5 19.6l-0.8 1.4h4.1l-0.8-1.4H101.5zM101.1 23.6l0.8 1.5h5.2l-0.8-1.5H101.1zM102.7 17.4l-0.9 1.6h1.8L102.7 17.4zM102.2 25.7l0.8 1.5h5.2l-0.8-1.5H102.2zM103.4 27.7l0.8 1.5h5.2l-0.8-1.5H103.4zM104.4 29.7l0.8 1.5h5.2l-0.8-1.5H104.4zM105.5 31.8l0.8 1.4h5.2l-0.8-1.4H105.5zM107.2 35.9c-0.1 0.4-0.3 0.7-0.6 1h7.1l-0.6-1H107.2zM106.7 33.8l0.1 0.3c0.2 0.5 0.3 0.9 0.4 1.2h5.5l-0.8-1.5H106.7z"/><path d="M360.1 38c0.1 0.8 0 1.5-0.2 2.3 -0.1 0.5 0 0.9 0 1.4 0 0.3 0 0.5 0 0.8l-0.3 1.8c-0.1 0.2-0.1 0.5-0.3 0.7 -0.1 0.4-0.3 0.7-0.4 1.1 -0.1 0.5-0.3 0.9-0.7 1.2 -0.1 0.1-0.2 0.1-0.3 0.3 -0.2 0.6-0.7 0.8-1.1 1.1 -0.9 0.6-2 0.7-3.1 1.1h-0.1c-0.7-0.2-1.4-0.2-2.1-0.5 -0.4-0.1-0.7-0.4-1-0.6 -0.8-0.5-1.6-1-2.3-1.6 -0.7-0.7-1.1-1.4-1.4-2.2 -0.5-1.2-0.8-2.5-1.1-3.8 -0.2-0.8-0.2-1.6-0.3-2.5 -0.1-0.9-0.1-1.8 0-2.6 0-0.7 0.1-1.3 0-2 0-0.8 0.1-1.7 0.2-2.6 0-0.6 0.1-1.2 0.2-1.8 0.1-0.6 0.3-1.2 0.6-1.8 0.3-0.7 0.5-1.3 0.7-2 0.3-1 1-1.8 1.7-2.5 0.7-0.8 1.6-1.2 2.7-1.4 0.1 0 0.2 0 0.3-0.1 0.8-0.4 1.6-0.3 2.4-0.2 0.7 0 1.4 0.3 2.1 0.6 0.6 0.3 1 0.7 1.1 1.3 0 0.2 0.1 0.3 0.3 0.5 0.3 0.3 0.3 0.5 0.2 0.8 -0.1 0.3-0.2 0.7-0.5 1 -0.4 0.4-0.7 0.4-1.1-0.1 -0.2-0.4-0.4-0.8-0.5-1.3 0-0.3-0.1-0.4-0.3-0.5 -0.3-0.2-0.7-0.3-1-0.2 -0.4 0-0.7 0-1.1 0 -0.4 0-0.7 0.3-1.1 0.3 -0.5 0.1-0.9 0.4-1.1 0.9 -0.5 0.8-0.8 1.7-0.9 2.6 -0.2 1.2-0.4 2.4-0.4 3.6 0 0.6-0.1 1.2-0.2 1.8 -0.1 0.4 0 0.7 0 1.1 0 0.7 0.1 1.3 0.1 2 0 1.4 0.1 2.8 0.1 4.2 0 1.2 0.1 2.3 0.2 3.4 0 0.7 0.3 1.4 0.5 2l0.4 1c0.1 0.3 0.3 0.5 0.6 0.7l0.3 0.2c0.7 0.7 2.3 0.5 2.9-0.1 0.4-0.3 0.7-0.7 1.1-1 0.4-0.3 0.6-0.7 0.9-1.1 0.1-0.2 0.2-0.5 0.2-0.7 0.1-1.2 0.3-2.5 0.3-3.7 0-1.2 0.2-2.3 0.2-3.5 0-0.5 0-1.1 0-1.6 0-0.5-0.1-1.1 0-1.6 0-0.3 0-0.4-0.4-0.4 -0.4 0-0.9 0-1.3 0 -0.7 0-1.4 0-2-0.2 -0.1 0-0.2 0-0.3 0 -0.4 0.1-0.6 0-0.9-0.2l-0.6-0.5c-0.2-0.2-0.2-0.3 0-0.4 0.3-0.2 0.6-0.3 1-0.3 0.8-0.1 1.5 0 2.2 0.1 0.6 0 1.2 0 1.8-0.1 0.5 0 1.1-0.1 1.6 0.1 0.4 0.1 0.7 0.4 0.8 0.8 0.3 0.8 0.5 1.7 0.4 2.6 0 0.2 0 0.4 0 0.6C360.1 36.9 360.1 37.4 360.1 38z"/><path d="M372.6 35.5c0-0.7 0.2-1.4 0.2-2.1 0-2.8 0-5.8 0.3-8.6 0.1-0.5 0.1-1 0.1-1.5 0-0.3 0-0.7 0-1 0-0.2 0.1-0.3 0.3-0.3 0.7 0 1.1 0.4 1.3 1.1 0.2 0.7 0.2 1.5 0.1 2.2 0 0.4 0 0.9 0 1.3 0 0.4 0 0.8 0 1.2 0 0.9-0.1 1.8-0.2 2.7 0 0.4 0 0.9 0 1.4 0 0.7 0 1.4-0.1 2.2 -0.1 0.5-0.1 1.1-0.1 1.6 -0.1 0.9-0.1 1.9-0.2 2.8 -0.2 1.5-0.3 3-0.7 4.5 -0.1 0.6-0.2 1.2-0.4 1.8 -0.9 2.7-2.8 5.4-6.1 4.7 -1.5-0.3-3-1.3-3.7-2.7 -0.8-1.4-1.2-3.1-1.5-4.7 -0.8-5.8-0.5-12.6 0.2-18.4 0-0.5 0.1-1 0.2-1.5 0.1-0.3 0.2-0.4 0.5-0.6 0.4-0.1 0.8-0.2 1.2-0.2 0.3 0 0.5 0.1 0.7 0.3 0.7 0.4 1.2 0.8 1.3 1.6 0.1 0.4 0.2 0.8 0 1.3 0 0.1 0 0.3 0 0.4 0 0.4 0 0.9-0.1 1.4 0 0 0 0.1 0 0.1 0 0.5-0.1 1 0 1.4 0 0.3 0 0.5-0.1 0.7 -0.1 0.6 0.1 1.1 0 1.7 -0.1 0.3 0 0.5 0 0.8 0 0.7 0 1.4-0.1 2.2 -0.1 1.1-0.1 2.2 0 3.4 0 0.5 0.1 1.1 0.1 1.6l0 1.1c0 1.4 0 2.7 0.2 4l0.2 1c0.4 2.3 2.4 4.4 4.3 1.5 1-1.6 1.4-4.1 1.5-4.9 0.2-1.6 0.5-3.2 0.5-4.8C372.6 36.2 372.6 35.9 372.6 35.5z"/><path d="M390.4 49.3c-0.1 0.3-0.2 0.3-0.4 0.1 -0.1-0.1-0.2-0.2-0.3-0.1 -0.4 0.2-0.5-0.2-0.8-0.3 -0.2-0.1-0.3-0.3-0.3-0.5 0-0.6-0.3-1.2-0.4-1.8 -0.2-1.1-0.5-2.2-0.7-3.2 -0.2-1.6-0.6-3.2-0.9-4.8 -0.1-0.7-0.2-0.7-0.7-0.5 -0.7 0.2-1.3 0.3-1.9 0.3 -0.7 0-1.2 0.2-1.9 0.3 -0.2 0.1-0.5 0-0.7 0 -0.4-0.1-0.5 0-0.6 0.5 -0.1 0.5-0.2 1-0.4 1.4 -0.1 0.5-0.2 1-0.3 1.5 -0.1 0.5-0.2 1-0.4 1.6 -0.2 0.8-0.4 1.7-0.6 2.5 -0.1 0.4-0.2 0.7-0.3 1.1 -0.1 0.2-0.1 0.4-0.2 0.7 0 0.2-0.8 1.3-1 1.5l-0.4 0.3c-0.1 0.1-0.2 0.1-0.3 0.1 -0.1-0.1-0.3 0-0.4 0 -0.1 0-0.2 0-0.3 0l0-0.1c-0.5 0-1 0-1.1 0 -0.4-0.1-0.5-0.3-0.4-0.7 0.2-0.9 0.3-1.8 0.5-2.7 0.1-0.6 0.3-1.3 0.4-1.9l0.5-2.6c0.1-0.5 0.2-0.9 0.3-1.4 0.1-1 0.4-2 0.7-2.9 0.2-1 0.5-2 0.6-3.1 0.1-0.6 0.2-1.2 0.4-1.8 0.3-1 0.5-1.9 0.8-2.9l0.5-1.8c0.2-0.9 0.4-1.8 0.7-2.8 0.1-0.4 0.2-0.8 0.4-1.1 0.2-0.3 0.3-0.7 0.4-1.1 0-0.5 0.3-1 0.4-1.5 0-0.1 0.1-0.2 0.3-0.3 0.3-0.1 0.5-0.1 0.8-0.3 0.1-0.1 0.1 0 0.3 0 0 0 0.4 0.1 0.8 0.3l0-0.1 0.2 0.1c0.3 0.1 0.7 0.2 1 0.3 0.6 0.2 1 0.5 1.2 1.2 0.2 0.5 0.3 1.1 0.4 1.6l0.4 2.3c0.2 1.2 0.4 2.4 0.5 3.7 0.1 0.8 0.3 1.6 0.5 2.4 0.2 0.8 0.3 1.7 0.5 2.5 0.3 1 0.5 2 0.7 3.1l0.1 0.7c0 0.4 0.2 0.8 0.2 1.2 0 0.9 0.2 1.8 0.3 2.6 0.2 0.8 0.2 1.5 0.3 2.3l0.3 1.7c0 0.4 0.1 0.8 0.1 1.2l0.1 0.7C390.4 49.1 390.4 49.2 390.4 49.3zM386.2 36.1l-0.3-1.6c-0.2-1.1-0.4-2.3-0.6-3.4 -0.1-0.8-0.2-1.5-0.4-2.2 -0.1-0.4-0.3-0.9-0.4-1.3 -0.2-0.5-0.3-1.1-0.4-1.6 0-0.1 0-0.2-0.1-0.2 -0.1 0-0.1 0.1-0.2 0.2l-0.2 0.7c-0.2 0.7-0.4 1.4-0.5 2.1l-0.3 1.5c-0.4 1.6-0.7 3.2-1.1 4.7 -0.1 0.4-0.2 0.9-0.3 1.3 0 0.2 0.1 0.3 0.2 0.3 0.3 0 0.7 0 1 0 1.1-0.1 2.1-0.3 3.2-0.1C386.2 36.5 386.2 36.4 386.2 36.1zM390.1 49c0-0.1 0-0.1-0.1-0.1 0 0-0.1 0-0.1 0.1C390 49 390 49.1 390.1 49 390.1 49.1 390.1 49.1 390.1 49z"/><path d="M396.9 25.4c0 0.7-0.1 1.5-0.1 2.2 0 0.6-0.1 1.2-0.1 1.8 0 0.7 0 1.5 0 2.2 0 1.1-0.1 2.2 0 3.3 0 0.5 0.1 1.1 0 1.6 -0.2 1.1 0 2.2-0.2 3.2 -0.1 0.4 0 0.9 0 1.3 0 0.9 0 1.8 0 2.6 0 0.7-0.1 1.3-0.2 2 0 0.5-0.1 1-0.2 1.6 0 0.3 0.1 0.5 0 0.8 0 0.1 0 0.2-0.1 0.2 0 0-0.1 0.1-0.1 0.1 0 0.1 0.1 0.3 0 0.3 -0.2 0.1-0.4 0.2-0.5 0.1 -0.2-0.1-0.3-0.1-0.4 0.2 0 0.1-0.1 0.1-0.1 0s-0.1-0.1-0.2-0.1c-0.3-0.3-0.6-0.4-1-0.5 -0.4-0.1-0.6-0.4-0.5-0.8 0.1-0.3 0-0.5 0-0.8 0-0.4 0.1-0.8 0-1.2 0-0.6 0-1.1-0.1-1.7 0-1 0-2 0.1-3l0.2-2.6c0-0.9 0.1-1.9 0-2.8 0-0.2 0-0.4 0-0.7 0-0.2 0-0.5 0-0.7 -0.1-0.6 0-1.1 0.1-1.7 0-0.4 0-0.7 0-1.1 0-0.4 0-0.9 0-1.3 0-0.3 0-0.5 0-0.8 0-0.5 0-1.1 0.1-1.6 0-0.3 0-0.6 0-0.9 0-0.7 0.1-1.4 0.1-2 0-0.4 0-0.9 0-1.4 0-0.3 0-0.3-0.3-0.3 -0.4 0-0.8 0.1-1.2 0.1 -1.1 0-2.3 0-3.4-0.2 -0.1 0-0.2 0-0.3 0 -0.2-0.1-0.5-0.2-0.5-0.5 0-0.1 0-0.1 0-0.2 -0.1-0.6-0.2-0.8 0.5-1 0.7-0.2 1.3-0.3 1.9-0.2 1.1 0.1 2.2 0.1 3.3 0.1 1 0 2.1-0.1 3.1 0 0.5 0.1 1.1 0 1.6 0 0.7 0 1.4 0 2-0.1 0.5-0.1 1 0 1.5 0 0.2 0 0.5 0 0.7 0l0.5 0c0.3-0.1 0.6 0.2 0.6 0.5 0 0.2 0 0.3-0.2 0.4 -0.5 0.3-1 0.5-1.5 0.3 -0.3-0.1-0.6 0-0.9 0 -0.7 0.1-1.5 0.1-2.2 0.2l-0.3 0c-0.5 0.2-1.1 0.3-1.8 0.2C397.1 23.8 396.9 24.6 396.9 25.4z"/><path d="M414.2 49.1c-0.1 0.3-0.2 0.3-0.4 0.1 -0.1-0.1-0.2-0.2-0.3-0.1 -0.4 0.2-0.5-0.2-0.8-0.3 -0.2-0.1-0.3-0.3-0.3-0.5 0-0.6-0.3-1.2-0.4-1.8 -0.2-1.1-0.5-2.2-0.7-3.2 -0.2-1.6-0.6-3.2-0.9-4.8 -0.1-0.7-0.2-0.7-0.7-0.5 -0.7 0.2-1.3 0.3-1.9 0.3 -0.7 0-1.2 0.2-1.9 0.3 -0.2 0.1-0.5 0-0.7 0 -0.4-0.1-0.5 0-0.6 0.5 -0.1 0.5-0.2 1-0.4 1.4 -0.1 0.5-0.2 1-0.3 1.5 -0.1 0.5-0.2 1-0.4 1.6 -0.2 0.8-0.4 1.7-0.6 2.5 -0.1 0.4-0.2 0.7-0.3 1.1 -0.1 0.2-0.1 0.4-0.2 0.7 0 0.2-0.8 1.3-1 1.5l-0.4 0.3c-0.1 0.1-0.2 0.1-0.3 0.1 -0.1-0.1-0.3 0-0.4 0 -0.1 0-0.2 0-0.3 0l0-0.1c-0.5 0-1 0-1.1 0 -0.4-0.1-0.5-0.3-0.4-0.7 0.2-0.9 0.3-1.8 0.5-2.7 0.1-0.6 0.3-1.3 0.4-1.9l0.5-2.6c0.1-0.5 0.2-0.9 0.3-1.4 0.1-1 0.4-2 0.7-2.9 0.2-1 0.5-2 0.6-3.1 0.1-0.6 0.2-1.2 0.4-1.8 0.3-1 0.5-1.9 0.8-2.9l0.5-1.8c0.2-0.9 0.4-1.8 0.7-2.8 0.1-0.4 0.2-0.8 0.4-1.1 0.2-0.3 0.3-0.7 0.4-1.1 0-0.5 0.3-1 0.4-1.5 0-0.1 0.1-0.2 0.3-0.3 0.3-0.1 0.5-0.1 0.8-0.3 0.1-0.1 0.1 0 0.3 0 0 0 0.4 0.1 0.8 0.3l0-0.1 0.2 0.1c0.3 0.1 0.7 0.2 1 0.3 0.6 0.2 1 0.5 1.2 1.2 0.2 0.5 0.3 1.1 0.4 1.6l0.4 2.3c0.2 1.2 0.4 2.5 0.5 3.7 0.1 0.8 0.3 1.6 0.5 2.4 0.2 0.8 0.3 1.7 0.5 2.5 0.3 1 0.5 2 0.7 3.1l0.1 0.7c0 0.4 0.2 0.8 0.2 1.2 0 0.9 0.2 1.8 0.3 2.6 0.2 0.8 0.2 1.5 0.3 2.3l0.3 1.7c0 0.4 0.1 0.8 0.1 1.2l0.1 0.7C414.2 48.9 414.2 49 414.2 49.1zM409.9 35.9l-0.3-1.6c-0.2-1.1-0.4-2.3-0.6-3.4 -0.1-0.8-0.2-1.5-0.4-2.2 -0.1-0.4-0.3-0.9-0.4-1.3 -0.2-0.5-0.3-1.1-0.4-1.6 0-0.1 0-0.2-0.1-0.2 -0.1 0-0.1 0.1-0.2 0.2l-0.2 0.7c-0.2 0.7-0.4 1.4-0.5 2.1l-0.3 1.5c-0.4 1.6-0.7 3.2-1.1 4.7 -0.1 0.4-0.2 0.9-0.3 1.3 0 0.2 0.1 0.3 0.2 0.3 0.3 0 0.7 0 1 0 1.1-0.1 2.1-0.3 3.2-0.1C409.9 36.3 410 36.2 409.9 35.9zM413.9 48.8c0-0.1 0-0.1-0.1-0.1 0 0-0.1 0-0.1 0.1C413.8 48.8 413.8 48.9 413.9 48.8 413.9 48.9 413.9 48.9 413.9 48.8z"/><path d="M425.7 47.9c-0.5 0.2-1.1 0.2-1.6 0.2 -0.3 0-0.7 0-1 0l0-0.1 -0.4 0c-0.5 0-1.1 0-1.6 0.1 -0.5 0-1 0.1-1.4 0.1 -0.6 0-1.2-0.1-1.8-0.3 -0.2 0-0.4-0.1-0.5 0 -0.6 0.1-1.2-0.2-1.3-0.6 -0.1-0.4-0.1-0.9-0.2-1.3 -0.1-1-0.1-2-0.1-2.6l0-4c0.1-1.1 0.2-2.2 0.3-3.4 0-1.2 0.2-2.4 0.2-3.6l0-3.8c0-0.5 0-1 0-1.5s0.1-1.1 0.1-1.6c0-0.6 0.1-1.1 0-1.7 0-0.1 0-0.3 0.1-0.4 0-0.1 0.1-0.2 0.2-0.2 0.3 0 0.7-0.1 1-0.1 0.7 0 1.5 0.2 2.1 0.6 0.5 0.4 0.6 0.9 0.6 1.5 0.1 1.2-0.1 2.3-0.1 3.5 0 0.5 0 1 0 1.5 0 0.8 0 1.5 0.1 2.3 0 0.7-0.3 1.5-0.4 2.2 -0.1 0.8 0 1.6 0.1 2.5 0 0.1 0 0.1 0 0.2 -0.1 0.4-0.1 0.8-0.1 1.2 0 1.1-0.1 2.1-0.1 3.2 0 0.7-0.2 1.4-0.2 2.2 0.1 0.5 0 1.1 0 1.6 0 0.3 0.1 0.5 0.1 0.8 0 0.2 0.1 0.3 0.4 0.3 0.4 0 0.7 0 1.1 0 0.5 0 1.1 0.1 1.6 0.1 0.1 0 0.2 0 0.3 0 0.3 0 0.7 0 1 0.1 0.2 0.1 0.5 0 0.7 0 0.4-0.1 0.7 0 1 0.3l0.4 0.4C426.2 47.5 426.1 47.8 425.7 47.9z"/><path d="M438.2 48.9c0 0.1-0.1 0-0.1 0 -0.7-0.2-1.2-0.6-1.5-1.2l-0.4-0.6c-0.1-0.2-0.2-0.2-0.4-0.1 -0.6 0.4-1.3 0.7-2 0.9 -0.8 0.2-1.6 0.3-2.4 0 -3.2-0.9-4.8-3.3-5.5-6.5 -0.3-1.3-0.5-2.6-0.7-4 -0.1-1.3 0.1-2.6 0-3.8 0-3.2 0.7-7 2.4-9.7 0.6-1 1.3-1.8 2.2-2.5 1.6-1.2 4.3-1.4 6.1-0.9 1 0.3 1.8 0.9 2.5 1.6 0.3 0.3 0.6 0.6 0.6 1 0 0.1 0.1 0.1 0.1 0.2 1.1 1.3 1.4 4.7 1.6 6.3 0.1 1.1 0.2 2.2 0.2 3.3 0 0.7-0.1 1.4-0.2 2.1l-0.3 2.6c-0.1 0.4-0.2 0.9-0.2 1.4 0 0.1-0.1 0.3-0.1 0.4 -0.1 0.3-0.2 0.5-0.2 0.7 0 0.5-0.2 1-0.4 1.5l-0.3 1c-0.1 0.3-0.1 0.6-0.5 0.7 -0.1 0-0.2 0.2-0.2 0.4 -0.3 0.7-0.7 1.4-1.2 2 -0.2 0.2-0.1 0.4 0 0.5l0.8 1.4c0.1 0.2 0.3 0.4 0.3 0.7 0 0.1 0.1 0.2 0.1 0.3C438.5 48.7 438.3 48.7 438.2 48.9zM436.4 43.4c0.1-0.2 0.3-0.4 0.5-0.6 0.2-0.1 0.3-0.4 0.4-0.6 0.4-0.8 0.6-1.7 0.9-2.5 0.2-0.6 0.3-1.2 0.4-1.8 0.1-1 0.2-1.9 0.3-2.9 0.1-0.8 0.2-1.7 0.3-2.5 0-0.7-0.1-1.3-0.1-1.9 0-1.2-0.1-2.1-0.4-3.4 -0.2-0.9-0.1-1.8-0.6-2.6 -0.2-0.3-0.4-0.7-0.5-1 -0.9-2.1-3.3-1.9-4.8-0.7 -2.4 2.1-2.3 4.4-2.9 7.2 -0.1 0.6-0.3 1.3-0.3 1.9 -0.1 1.1-0.1 2.2 0 3.3 0 1.5 0.1 3 0.3 4.5 0 0.5 0.1 1.1 0.2 1.6 0.6 2.5 1.5 5.9 4.7 4.2 0.3-0.1 0.3-0.3 0.1-0.6 -0.5-1-0.9-2-1.4-3 0-0.1 0-0.2 0-0.3 0.2-0.3 0.4-0.4 0.8-0.3 0.6 0.2 1 0.5 1.3 1 0.2 0.4 0.4 0.8 0.6 1.2C436.3 43.5 436.3 43.4 436.4 43.4z"/><path d="M453.9 34.9c0-0.7 0.2-1.4 0.2-2 0-2.8 0-5.8 0.3-8.6 0.1-0.5 0.1-1 0.1-1.5 0-0.3 0-0.7 0-1 0-0.2 0.1-0.3 0.3-0.3 0.7 0 1.1 0.4 1.3 1.1 0.2 0.7 0.2 1.5 0.1 2.2 0 0.4 0 0.9 0 1.3 0 0.4 0 0.8 0 1.2 0 0.9-0.1 1.8-0.2 2.7 0 0.4 0 0.9 0 1.4 0 0.7 0 1.4-0.1 2.2 -0.1 0.5-0.1 1.1-0.1 1.6 -0.1 0.9-0.1 1.9-0.2 2.8 -0.2 1.5-0.3 3-0.7 4.5 -0.1 0.6-0.2 1.2-0.4 1.8 -0.9 2.7-2.8 5.4-6.1 4.7 -1.5-0.3-3-1.3-3.7-2.7 -0.8-1.4-1.2-3.1-1.5-4.7 -0.8-5.8-0.5-12.6 0.2-18.4 0-0.5 0.1-1 0.2-1.5 0.1-0.3 0.2-0.4 0.5-0.6 0.4-0.1 0.8-0.2 1.2-0.2 0.3 0 0.5 0.1 0.7 0.3 0.7 0.4 1.2 0.8 1.3 1.6 0.1 0.4 0.2 0.8 0 1.3 0 0.1 0 0.3 0 0.4 0 0.4 0 0.9-0.1 1.4 0 0 0 0.1 0 0.1 0 0.5-0.1 1 0 1.4 0 0.3 0 0.5-0.1 0.7 -0.1 0.6 0.1 1.1 0 1.7 -0.1 0.3 0 0.5 0 0.8 0 0.7 0 1.4-0.1 2.2 -0.1 1.1-0.1 2.2 0 3.4 0 0.5 0.1 1.1 0.1 1.6l0 1.1c0 1.4 0 2.7 0.2 4l0.2 1c0.4 2.3 2.4 4.4 4.3 1.5 1-1.6 1.4-4.1 1.5-4.9 0.2-1.6 0.4-3.2 0.5-4.8C453.9 35.5 453.9 35.2 453.9 34.9z"/><path d="M462.2 26.3c0 0.6 0.1 1.2 0.1 1.7 0 0.6 0.1 1.1 0.1 1.7 0 0.6 0.1 1.2 0.1 1.8 0.1 0.8 0.2 1.7-0.1 2.5 -0.1 0.2-0.1 0.4-0.1 0.6 0 0.3 0 0.7-0.1 1 0 0.4 0 0.7 0.1 1 0.1 0.5 0.2 1 0 1.5 0 0.1 0 0.3 0 0.5 0 0.7 0.1 1.5-0.1 2.2 -0.1 0.4-0.1 0.9-0.1 1.4 0 0.8-0.1 1.6-0.2 2.4 -0.1 0.4-0.1 0.8-0.1 1.1 0 0.3 0 0.5-0.1 0.8 0 0.1 0 0.2 0 0.3 0.1 0.1 0 0.2 0 0.3 -0.2 0.6-0.5 0.8-1.2 0.7 -0.3-0.1-0.6-0.1-0.9-0.1 -0.3 0.1-0.6 0-0.9-0.3 -0.1-0.1-0.2-0.3-0.2-0.4 -0.1-0.7-0.1-1.3 0-2 0-0.4 0-0.9 0-1.4 0-0.6 0.1-1.2 0.1-1.8 0-0.7 0-1.4-0.2-2.1 0-0.1 0-0.2 0-0.3 0.1-0.7 0-1.3 0-1.9 0-0.6 0-1.2 0.1-1.9 0.1-0.6 0.1-1.2 0.1-1.8 0-0.9 0-1.8 0.2-2.7 0-0.2 0-0.4 0-0.5 0-0.5 0-1 0.1-1.4 0-0.3 0-0.6 0-0.8 0-0.3 0-0.5 0-0.8 0.1-1 0-2-0.1-3.1l0-0.8c0-0.5 0-1-0.2-1.4l0-0.4c0-0.5 0.2-0.8 0.7-0.8 0.5-0.1 1 0 1.5 0.1 0.7 0.2 1.3 1 1.3 1.7 0 0.6 0.1 1.2 0.1 1.8 0 0.3 0 0.5 0 0.7C462.2 25.8 462.2 26 462.2 26.3z"/><path d="M27.9 51.6c0.1 0.2 0.1 0.5 0.1 0.7 0 0.3 0 0.7 0.1 1 0 0.3 0 0.6 0.1 0.9 0 0.4 0.1 1.6 0.1 2 0 0.4 0 0.8 0 1.1 0 0.4 0 0.7 0 1.1l0 0.4c-0.1 0.3-0.1 0.6-0.1 0.9 0 0.4 0 0.9 0 1.3 0 0.1-0.1 0.2-0.2 0.4 -0.1 0.1-0.3 0.2-0.3 0.4 0 0 0 0 0 0 -0.1 0-0.2 0-0.3 0.1 -0.1-0.1-0.3 0.1-0.4-0.1 -0.1-0.1-0.2-0.1-0.4-0.2 -0.2-0.1-0.3-0.2-0.4-0.5 -0.1-0.8-0.1-1.6-0.2-2.4 -0.1-0.5-0.1-0.9-0.1-1.3 0-0.1 0-0.3 0-0.4 0-0.6 0-2 0-2.5 0-1 0-2-0.1-3l-0.1-2.6c0-1.1 0-2.2 0-3.3 0-0.5 0-0.9 0-1.4 0-0.1 0-0.2 0-0.3 0-0.2 0-0.3 0.1-0.3 0.3-0.1 0.6-0.1 1 0 0.4 0.1 0.7 0.4 0.9 0.6 0.2 0.2 0.3 0.5 0.3 0.8 0 0.2 0 0.5 0 0.7 0 0.2 0 0.5 0 0.7 0 0.3 0 0.7 0 1 0.1 0.5 0 0.9 0.1 1.4 0 0.1 0 0.2 0 0.2 0 0.2 0 0.4 0 0.6 0.1 0.3 0 0.7 0.1 1.1V51.6z"/><path d="M32.4 46.4c0 0.1 0 0.1 0 0.2 0 0.4 0.1 0.8 0.1 1.1 0 0.3 0.1 0.7 0.1 1 0 0.1 0.1 0.1 0.1 0.1 0.7 0 1.4 0 2.1-0.1 0.3 0 0.5 0 0.8 0 0.3 0 0.6 0.2 0.8 0.3 0.1 0 0.1 0.1 0 0.3 -0.1 0.1-0.3 0.2-0.5 0.2 -0.3 0-0.5 0.1-0.8 0.2 -0.2 0.1-0.5 0.1-0.7 0.1 -0.6 0-1.1 0.1-1.6 0.2 -0.2 0-0.2 0-0.2 0.2 0 0.4 0 0.7 0 1.1 -0.1 0.8-0.1 1.5-0.1 2.2 0 0.4 0.1 0.9 0.1 1.3 0 0.5 0 1.1 0 1.6 0 0.6 0 1.2 0 1.9 0 0.4-0.1 0.7-0.1 1.1 0 0.1 0 0.2 0.1 0.3 0.1 0.1 0 0.2-0.1 0.3 -0.2 0.1-0.2 0.2-0.1 0.4 0 0.2-0.1 0.3-0.3 0.4 -0.1 0-0.2 0-0.4 0 -0.1 0-0.2-0.1-0.3-0.1 -0.1 0-0.2 0-0.3 0 -0.1 0.1-0.2 0.1-0.4 0l-0.5-0.3c-0.1 0-0.1-0.1-0.2-0.2 -0.2-0.5-0.3-1-0.2-1.4 0-0.3 0-0.6 0-0.9v-1.1c0-0.8 0-1.6 0-2.3 0-0.4 0-0.7 0-1.1l-0.1-1.9c0-0.5 0-1.1 0-1.6 0-1.1 0-2.2 0-3.3l0.1-2.2c0-0.1 0-0.2 0.2-0.2 0.4-0.2 0.8-0.2 1.3-0.1 0.2 0 0.4 0 0.6 0 0.6 0 1.1 0 1.6 0 0.5 0 1 0 1.5 0 0.2 0 0.5 0 0.7 0 0.5 0 1 0 1.5 0 0.3 0 0.7 0 0.9 0.3 0.1 0.1 0.2 0.1 0.1 0.3 0 0.1-0.2 0.2-0.3 0.2 -0.7 0-1.3 0.1-1.9 0.2 -0.7 0.2-1.4 0.1-2.1 0.2 -0.5 0.1-0.9 0-1.4 0C32.6 45.6 32.5 46 32.4 46.4z"/><path d="M47.3 49.4c0.3-0.8 0.5-1.6 0.8-2.3 0.3-0.6 0.6-1.3 0.8-2 0.2-0.5 0.4-0.9 0.6-1.4 0.1-0.2 0.3-0.4 0.3-0.6 0.1-0.1 0.2-0.2 0.4-0.2 0.4 0 0.8 0 1.2 0.2 0.3 0.1 0.5 0.4 0.4 0.7 0 0.2-0.1 0.4-0.1 0.5 0 0.2-0.1 0.4-0.2 0.5 -0.2 0.4-0.3 0.8-0.5 1.2 -0.2 0.5-0.3 0.9-0.4 1.4 -0.1 0.2-0.2 0.4-0.3 0.6 -0.2 0.6-0.4 1.3-0.6 1.9 -0.2 0.5-0.3 1.1-0.5 1.6l-0.7 2.2c-0.2 0.6-0.4 1.2-0.7 1.8 -0.1 0.3-0.2 0.6-0.3 0.9l-0.4 1.4c-0.2 0.7-0.4 1.3-0.6 2l-0.9 1.9c0 0.1-0.1 0.1-0.1 0.2 -0.1 0.2-0.2 0.4-0.4 0.4 0 0-0.1 0-0.1 0 -0.1 0-0.2 0.1-0.3 0 0 0-0.1 0-0.1 0 0 0-0.1 0-0.1 0 -0.1 0.1-0.2-0.2-0.3-0.1 -0.1 0.1-0.3 0-0.4-0.1 -0.2 0-0.3-0.3-0.3-0.5 0.2-0.6 0.2-1.3 0.5-1.9 0.2-0.5 0.3-1 0.4-1.5 0.2-0.7 0.4-1.4 0.6-2.2 0.1-0.6 0.3-1.1 0.4-1.7 0-0.2 0.1-0.5 0.2-0.7 0.2-0.7 0.5-1.5 0.8-2.2 0-0.1 0-0.2-0.1-0.3 -0.5-0.3-0.8-0.7-1.1-1.2 -0.3-0.5-0.7-0.9-1-1.3 -0.5-0.7-1-1.5-1.4-2.2 -0.3-0.5-0.4-0.9-0.6-1.4l-0.5-0.9c0 0 0 0 0-0.1 -0.1-0.2 0-0.4 0.2-0.5 0.3-0.1 0.6-0.1 0.9 0 0.1 0 0.1 0 0.2 0.1l0.3 0.4c0.3 0.5 0.8 0.9 1.1 1.5 0.1 0.2 0.2 0.4 0.3 0.6 0.1 0.2 0.2 0.4 0.3 0.6 0.2 0.4 0.5 0.7 0.7 1.1 0.2 0.3 0.5 0.6 0.7 0.9 0.2 0.2 0.3 0.5 0.5 0.8 0 0.1 0.1 0.2 0.2 0.3L47.3 49.4z"/><path d="M51.2 50.8c0.1-2.6 0.7-6.5 3.5-7.5 0.1 0 0.3-0.1 0.5 0 0.1 0 0.2 0 0.3 0 0.5-0.1 0.9-0.1 1.4-0.1 0.6 0.1 1.1 0.4 1.6 0.9 0.3 0.3 0.6 0.8 0.7 1.2 0.1 0.3 0.2 0.6 0.3 0.9 0.1 0.4 0.2 0.8 0.2 1.1 0.1 0.6 0.2 1.2 0.2 1.7 0 0.4 0.1 0.9 0 1.3 0 0.3 0 0.7 0 1.1 0 0.8 0 1.5 0 2.3 0 0.3 0 0.7-0.1 1 -0.1 0.4-0.1 0.8-0.2 1.2 0 0.2-0.1 0.4-0.1 0.6 0 0.4-0.2 0.7-0.3 1L59.2 58c-0.2 0.5-0.3 1.1-0.7 1.5 -0.2 0.2-0.4 0.4-0.5 0.6 -0.1 0.2-0.3 0.3-0.5 0.5 -0.2 0.1-0.4 0.2-0.6 0.4 -0.1 0.1-0.2 0.1-0.3 0.1l-0.9 0.1c-0.2 0-0.4-0.1-0.6-0.1 -0.2 0-0.4 0-0.6-0.1l-0.4-0.2c-0.4-0.1-0.6-0.4-0.9-0.7 -0.4-0.4-0.7-0.9-0.9-1.4 -0.2-0.5-0.4-1-0.5-1.6 -0.1-0.8-0.2-1.6-0.3-2.3 -0.1-0.7 0-1.5 0-2.2C51.2 52 51.2 51.3 51.2 50.8zM58.9 48.8c0-0.3 0-0.6-0.1-0.9 -0.1-0.3-0.1-0.6-0.2-1 -0.1-1-0.5-2.8-1.8-2.9 -2.6-0.2-2.9 4.6-3 6.2 0 0.5-0.1 0.9-0.1 1.4l0 2c0 0.6 0.1 1.2 0.2 1.9 0.1 0.5 0.1 1 0.2 1.4 0.1 0.3 0.1 0.7 0.2 1 0 0.1 0 0.3 0.1 0.4 0.3 0.5 0.5 1.5 1.2 1.7 0.8 0.3 1.6-0.6 1.9-1.2 0.4-0.7 0.6-1.4 0.8-2.1 0.2-1 0.4-1.9 0.4-2.9 0-0.8 0.1-1.5 0.1-2.3v-0.6C58.9 50.2 58.9 49.5 58.9 48.8z"/><path d="M68.5 52.4c0-0.5 0.1-0.9 0.1-1.3 0-1.8 0-3.8 0.2-5.6 0-0.3 0.1-0.6 0-1 0-0.2 0-0.5 0-0.7 0-0.1 0.1-0.2 0.2-0.2 0.4 0 0.7 0.3 0.9 0.7 0.1 0.5 0.1 1 0.1 1.5 0 0.3 0 0.6 0 0.9 0 0.2 0 0.5 0 0.8 0 0.6-0.1 1.2-0.1 1.8 0 0.3 0 0.6 0 0.9 0 0.5 0 0.9-0.1 1.4 0 0.3 0 0.7-0.1 1 0 0.6 0 1.2-0.1 1.8 -0.1 1-0.2 2-0.5 2.9 -0.1 0.4-0.2 0.8-0.3 1.2 -0.6 1.7-1.8 3.5-4 3 -1-0.2-1.9-0.9-2.4-1.8 -0.5-0.9-0.8-2-0.9-3.1 -0.5-3.8-0.3-8.2 0.2-12 0-0.3 0.1-0.6 0.2-1 0-0.2 0.1-0.3 0.3-0.4 0.3-0.1 0.5-0.1 0.8-0.1 0.2 0 0.3 0.1 0.5 0.2 0.5 0.2 0.8 0.5 0.8 1.1 0 0.3 0.1 0.5 0 0.8 0 0.1 0 0.2 0 0.3 0 0.3 0 0.6-0.1 0.9 0 0 0 0 0 0.1 0 0.3 0 0.6 0 0.9 0 0.2 0 0.3 0 0.5 0 0.4 0 0.7 0 1.1 0 0.2 0 0.4 0 0.6 0 0.5 0 0.9 0 1.4 0 0.7 0 1.5 0 2.2 0 0.4 0 0.7 0.1 1.1v0.7c0 0.9 0 1.8 0.1 2.6l0.1 0.6c0.3 1.5 1.5 2.9 2.8 1 0.7-1.1 1-2.7 1-3.2 0.1-1.1 0.3-2.1 0.4-3.2C68.5 52.8 68.5 52.6 68.5 52.4z"/><path d="M84.3 52.8c0 0.5-0.2 1-0.3 1.4 0 0.3-0.1 0.5-0.2 0.8 -0.2 0.6-0.3 1.2-0.5 1.7 -0.2 0.5-0.4 1-0.6 1.4 -0.3 0.4-0.6 0.8-1 1.2 -0.5 0.5-1 0.9-1.5 1.3l-0.2 0.2c-0.3 0.3-0.7 0.5-1.1 0.6 -0.3 0.1-0.6 0.3-1 0.3 -0.4 0.1-0.7 0.1-1.1 0.1 -0.2 0-0.4-0.1-0.6-0.1 -0.1 0-0.1-0.1-0.1-0.1C76 60.7 76 59.9 76 59c0-0.7-0.1-1.4-0.2-2.2l0-0.7c0-0.4-0.1-0.9-0.1-1.3 0-0.6 0-1.2 0-1.8 0-0.2 0-0.5 0-0.7 0-0.8-0.1-1.5-0.1-2.3 0-0.5 0-0.9 0-1.4 0-0.4 0-0.8 0-1.2s0-0.8 0-1.2c0-0.4 0-0.8 0-1.2 0-0.3 0-0.5 0-0.7 0 0 0 0 0 0 0-0.7 0.6-1 1.2-0.9 0.2 0 0.5 0.1 0.7 0.1 0.4 0 0.9 0.1 1.3 0.1 0.6 0.1 1.2 0.3 1.8 0.5 0.4 0.1 0.7 0.4 1 0.6 0.5 0.4 1 0.8 1.4 1.3 0.2 0.2 0.3 0.5 0.5 0.7 0 0 0 0.1 0.1 0.1l0.4 1.3c0.1 0.2 0.1 0.4 0.1 0.6 0 0.6 0.2 1.1 0.2 1.7v0.4C84.3 51.4 84.3 52.1 84.3 52.8zM78.9 60.3c0.3-0.2 0.6-0.5 1-0.8 0.5-0.4 0.9-0.8 1.2-1.3 0.3-0.3 0.5-0.6 0.6-1 0.4-0.8 0.8-1.7 0.9-2.6 0.1-0.6 0.3-1.2 0.3-1.8 0-0.5 0-1.1 0-1.6 0-0.8 0-1.5-0.1-2.3 0-0.2 0-0.4-0.1-0.5 -0.1-0.3-0.2-0.6-0.3-0.9 -0.1-0.5-0.4-1-0.9-1.4 -0.3-0.2-0.6-0.5-1-0.8 -0.8-0.4-1.6-0.7-2.6-0.7 0.3 0.1 0.2 3 0.3 3.4 0.1 0.4 0 0.8 0 1.2 0.1 0.6 0.1 1.3 0.1 1.9 0.1 1.3 0.1 2.6 0 3.8 0 0.5 0 0.9 0.1 1.3 0.1 0.3 0.1 0.6 0.1 1 0 0.3 0 0.6 0.1 0.9 0 0.1 0 0.1 0 0.2 0 0.2-0.1 0.4 0 0.5 0.1 0.3 0.1 0.6 0 0.9 0 0.1 0 0.3 0 0.4C78.8 60.4 78.8 60.3 78.9 60.3z"/><path d="M87.9 46.9c0 0.4 0.1 0.8 0.1 1.1 0 0.4 0 0.7 0 1.1s0 0.8 0.1 1.1c0.1 0.5 0.1 1.1-0.1 1.7 0 0.1 0 0.2 0 0.4 0 0.2 0 0.5 0 0.7 0 0.2 0 0.5 0.1 0.7 0.1 0.3 0.1 0.6 0 1 0 0.1 0 0.2 0 0.3 0 0.5 0 1-0.1 1.5 -0.1 0.3 0 0.6-0.1 0.9 0 0.5 0 1.1-0.1 1.6 0 0.3 0 0.5 0 0.7 0 0.2 0 0.4 0 0.5 0 0 0 0.1 0 0.2 0 0.1 0 0.1 0 0.2 -0.1 0.4-0.4 0.5-0.8 0.4 -0.2 0-0.4-0.1-0.6 0 -0.2 0-0.4 0-0.6-0.2 -0.1-0.1-0.1-0.2-0.1-0.3 -0.1-0.4 0-0.9 0-1.3 0-0.3 0-0.6 0-0.9 0-0.4 0.1-0.8 0.1-1.1 0-0.5 0-0.9-0.1-1.4 0-0.1 0-0.1 0-0.2 0.1-0.4 0-0.8 0-1.3 0-0.4 0-0.8 0.1-1.2s0-0.8 0-1.2c0-0.6 0-1.2 0.1-1.7 0-0.1 0-0.2 0-0.4 0-0.3 0-0.6 0.1-0.9 0-0.2 0-0.4 0-0.6 0-0.2 0-0.3 0-0.5 0-0.7 0-1.3 0-2v-0.5c0-0.3 0-0.6-0.1-0.9V44c0-0.3 0.1-0.5 0.5-0.5 0.3 0 0.6 0 1 0.1 0.4 0.1 0.8 0.7 0.8 1.1 0 0.4 0.1 0.8 0 1.2 0 0.2 0 0.3 0 0.5C87.9 46.5 88 46.7 87.9 46.9z"/><path d="M94.6 50.2c0.5 0 0.9-0.1 1.4-0.1 0.3 0 0.5 0.3 0.4 0.6 0 0 0 0.1-0.1 0.1 -0.1 0-0.3 0.1-0.4 0.1 -0.5 0.1-0.9 0.4-1.3 0.5l-0.3 0.1c-0.3 0-0.6 0-0.9 0h-0.1c-0.2 0-0.3 0.1-0.3 0.3L92.9 53c0 0.3 0 0.5 0 0.7 0 0.4 0 0.8-0.1 1.1 0 0.5 0 1 0 1.4 0 0.3 0 0.6 0 0.9 0 0.4 0 0.9 0 1.3 0 0.4 0 0.7-0.1 1.1 0 0.1 0 0.3 0 0.4 0 0.1 0 0.2 0.2 0.2l0.7-0.1c0.6-0.2 1.2-0.3 1.9-0.5 0.2 0 0.5 0 0.7-0.1 0.3 0 0.6 0 0.9-0.1 0.4-0.1 0.6 0.3 0.5 0.6 -0.1 0.2-0.3 0.3-0.4 0.3 -0.4 0-0.8 0.1-1.1 0.2 -0.5 0.1-1 0.2-1.5 0.4 -0.6 0.2-1.2 0.4-1.9 0.5 -0.2 0-0.4 0.2-0.7 0.3 -0.3 0.1-0.5 0.2-0.8 0.2 -0.1 0-0.2 0-0.3-0.1 -0.4-0.3-0.5-0.7-0.6-1.2 0-0.4 0-0.9 0-1.3 0-0.8-0.1-1.6-0.1-2.4 0-0.8-0.1-1.7-0.1-2.5 0.1-1.1 0-2.3 0.1-3.4l0.1-2.2c0-0.6 0.1-1.1 0.1-1.7l0.2-1.7c0-0.3 0-0.6 0-1 0-0.1 0-0.2 0-0.3 0-0.2 0-0.3 0.2-0.4 0.4 0 0.8-0.1 1.2 0.1 0.1 0.1 0.3 0.1 0.5 0.1 0.5 0.1 0.9 0.1 1.4 0.1 0.5 0 1 0.1 1.5 0h1c0.2 0 0.4 0.1 0.6 0.2 0.1 0.1 0.1 0.2 0.1 0.3 0 0.1 0 0.1-0.1 0.1C96.4 44.9 96 45 95.6 45c-0.7 0-1.4 0-2.1 0 -0.2 0-0.3 0.1-0.3 0.3 0 0.3 0 0.6 0 0.9 0 0.2 0 0.4 0 0.6 0 0.1 0 0.2 0 0.2 0 0.8 0 1.6 0 2.3 0 0.3-0.1 0.6-0.1 0.9 0 0 0 0.1 0 0.2C93.6 50.3 94.1 50.2 94.6 50.2z"/><path d="M136.3 32.8c0.2-0.1 1-0.4 1.2-0.4 0.1 0 0.8-0.2 0.8-0.2 0.4-0.1 1.2-0.4 1.2-0.4V18.3l-1.8-0.9c0-0.4 0.5-0.6 0.8-0.6 0.6 0 3.4-0.2 4.1-0.2 0.1 0 0.5 0 0.6 0 0.3 0.6-0.7 1-1 1.2 -0.1 0-0.8 0.3-0.8 0.4 0 0.1 0 0.5 0 0.6 0 0.1 0.4 0.7 0.4 0.8 0.1 0.1 0.4 0.8 0.4 1 0 0.1 0.2 0.6 0.2 0.6 0 0.1 0 0.6 0 0.6 0 0.1 0.4 1.1 0.4 1.2 0.3 1.7-0.3 3.4-0.4 5.1 0 0.5 0 2.6 0 3.1 0.2 0 1 0.2 1.2 0.2 2.2 0.6-3.8 2-3.9 2 -0.6 0.2-1.1 0.6-1.8 0.4 -0.2 0-1-0.5-1.2-0.6C136.6 33.2 136.3 32.9 136.3 32.8zM141.4 28.9l0.3-0.1c0 0 0.1-1.5 0.1-2.1 0-0.5 0-2.5 0-2.8 0.1-0.2 0-0.7-0.1-0.8 0 0.1-0.1 0.7-0.1 0.9 -0.1 0.7-0.4 2.4-0.3 2.5C141.2 26.9 141.3 28.5 141.4 28.9zM141.6 31.2l-0.1-1.6c-0.1 0.2-0.3 0.8-0.2 0.9C141.3 30.6 141.5 31.2 141.6 31.2z"/><path d="M152.2 31.7c-0.6-4.7-0.3-9.7 0.2-14.4 0.2 0 1.2 0 1.4 0 1.5 0.2 0.7 4.2 1.4 4.5 1.2-1 1.9-2.6 3.5-3.3 0.1 0 0.8-0.2 1-0.2 0.3 0 1.3 0 1.4 0 0.1 0 0.6 0.6 0.8 0.8 1.4 1.7 1.3 3.8 1.2 5.9 -0.1 0.9-0.3 1.6-0.6 2.4 -1.2 2.9-2.1 4.3-5.1 5.5 -0.8 0.3-1.8-0.1-2 0 -0.5 0.2-0.5 0.5-1.2 0.4 -0.2 0-0.9-0.2-1-0.2C152.7 32.9 152.3 32.3 152.2 31.7zM153.6 28.7l0.3-0.1c0 0 0.1-1.5 0.1-2.1 0-0.5 0-2.5 0-2.8 0.1-0.2 0-0.7-0.1-0.8 0 0.1-0.1 0.7-0.1 0.9 -0.1 0.7-0.4 2.4-0.3 2.5C153.4 26.7 153.5 28.4 153.6 28.7zM153.9 31.1l-0.1-1.6c-0.1 0.2-0.3 0.8-0.2 0.9C153.5 30.5 153.8 31.1 153.9 31.1zM155.7 31.3c0 0 0.6-0.1 0.8-0.2 0.1 0 0.4-0.2 0.4-0.2 0.4-0.3 1.5-1.5 1.6-1.6 0.1-0.1 0.7-1.2 0.8-1.6 1-2.3 1.5-5.2 0.8-7.5 -0.1-0.2-0.4-0.8-0.6-0.8 -1.1-0.2-2.5 2.3-2.9 2.8 0 0.1-0.2 0.4-0.2 0.4 -0.3 0.8-0.5 1.7-1.2 2.2 0 0.4 0 2.1 0 2.5 0 1 0.2 3.6 0.2 3.7L155.7 31.3z"/><path d="M164.9 31.9c-1.7-1.9-1.3-5.7-1-7.9 0.4-2.8 1.1-5.6 3.7-7.1 1-0.6 1.9-0.8 3.1-0.4 0.3 0.1 1.3 0.6 1.4 0.6 0.1 0 0.6 0.9 0.8 1.2 2.3 3.8 1.9 14.3-3.7 15.3 -0.4 0.1-1.4 0.2-1.4 0.2 -0.1 0-1-0.3-1.2-0.4C166 33.1 165.2 32.2 164.9 31.9zM166.1 29.2c0-0.1 0-0.7 0-0.8 0-0.3-0.2-2.4-0.2-2.6 -0.1-2.2 0.4-4.6 0.8-6.7 0 0 0-0.2 0-0.2 -0.9 0.6-1.1 3.1-1.2 4.1 0 0.3-0.2 1.7-0.2 2.1 0 0 0 0.2 0 0.2 0 0.1 0.2 0.7 0.2 0.8 0 0.3 0 1.6 0 1.8 0 0 0.2 0.2 0.2 0.2C165.8 28.1 166.1 29 166.1 29.2zM170.6 30.9c0.1-0.2 0.5-0.8 0.6-1 0.1-0.3 0.6-1.1 0.6-1.2 0.5-1.3 0.9-2.7 0.8-4.1 0-0.6-0.2-3.1-0.2-3.7 -0.1-0.2-0.5-1-0.6-1.2 -0.4-0.8-1.8-2.7-2.6-1.4 0 0.1-0.5 0.8-0.6 1 -0.1 0.1-0.2 0.4-0.2 0.4 0 0.1-0.2 1.1-0.2 1.2 -0.3 1.4-0.8 2.8-0.8 4.3 0 0.7 0 4 0 4.7 0.1 0.2 0.3 1 0.4 1.2 0 0.1 0.2 0.4 0.2 0.4C169.2 33 169.8 32.2 170.6 30.9z"/><path d="M174.8 31.5c-0.1-0.2-0.2-0.9-0.2-1 -0.2-4.6 0.4-8.9 1.2-13.4 0.5-1 1.8-0.5 2.4-0.3 0.4 0.2 0.9 0.9 1.1 1.3 0.7 1.5 1.2 3 1.8 4.5 0.8 1.6 1.3 3.2 2.4 4.7V16.4c0.1-0.6 0-0.8 1.1-0.8 0.5 0 1.8 0.4 1.8 1 0.3 3-0.4 6.1-0.2 9.2 -0.2 0.8 0.4 5.6-1 6.1 -1.1 0.5-2.7 0.8-3-0.2 -1.3-2.3-2-4.7-3.3-6.9 0.1 1.2-0.2 2.3-0.2 3.5 0 0.1 0 1.1 0 1.2 0 0.5-0.2 2.1-0.2 2.3 -0.1 0.3-0.3 1-0.8 1 -0.3 0-1.7 0-2 0 -0.1-0.1-0.5-0.5-0.6-0.6C175 32 174.8 31.6 174.8 31.5zM176.3 28.7l0.3-0.1c0 0 0.1-1.5 0.1-2.1 0-0.5 0-2.5 0-2.8 0.1-0.2 0-0.7-0.1-0.8 0 0.1-0.1 0.7-0.1 0.9 -0.1 0.7-0.4 2.4-0.3 2.5C176.1 26.7 176.2 28.4 176.3 28.7zM176.5 31.1l-0.1-1.6c-0.1 0.2-0.3 0.8-0.2 0.9C176.1 30.5 176.4 31.1 176.5 31.1z"/><path d="M188.1 13c0.8-1.2 0.9-2.2 0.8-3.7 0.4-0.1 0.7 0 1 0.2 0.1 0.1 0.4 0.4 0.4 0.4v2.1c0 0.5-1.2 1.2-1.6 1.2 0 0-0.2-0.2-0.2-0.2C188.4 12.9 188.2 12.9 188.1 13z"/><path d="M193.3 30.1c0 0-0.2-0.4-0.2-0.4 0-0.2 0-1.7 0-1.8 0-0.1-0.2-0.9-0.2-1 0-0.4 0-2.7 0-3.2 0.1-1.7 0.5-3.4 0.8-5.1 0 0 0-0.2 0-0.2h-2c-0.1 0-0.6-0.6-0.8-0.8 -0.1-0.2 0.1-0.4 0.2-0.4 2.3-0.1 4.8-0.3 7.1-0.2 1.4 0.5 0.2 0.9-0.6 1 -0.2 0-1 0.2-1.2 0.2 -0.5 1-0.5 2.4-0.6 3.5 -0.1 0.5-0.2 2-0.2 2.1 0 0.5 0 3.1 0 3.7 0 0.3 0.2 2.5 0.2 2.8 0 0.9 0.3 1.8 0.4 2.6 0.1 0.8-1.1 0.8-1.6 0.6C193.2 32.7 193.4 31.4 193.3 30.1zM194.6 30.4l0.3-0.1c0 0 0.1-1.5 0.1-2.1 0-0.5 0-2.5 0-2.8 0.1-0.2 0-0.7-0.1-0.8 0 0.1-0.1 0.7-0.1 0.8 -0.1 0.7-0.4 2.4-0.3 2.5C194.4 28.4 194.6 30 194.6 30.4zM194.9 32.7l-0.1-1.6c-0.1 0.2-0.3 0.8-0.2 0.9C194.5 32.1 194.8 32.7 194.9 32.7z"/><path d="M213.7 29.7c0-0.3-0.2-1.5-0.2-1.7l-0.2-0.2c-0.1 0.2-0.5 1.1-0.6 1.3 -0.1 0.3-0.4 0.9-0.4 0.9 -0.1 0.2-0.3 1.7-0.4 2 -0.1 0.6 0 1.4-0.8 1.5 -0.7 0.1-1.8 0.1-2.5-0.4 -1.3-0.9-1.6-3-1.7-4.4 -0.4-3.8-0.3-7.5 0.4-11.3 0 0 0.5-0.2 0.6-0.2 0.3 0 1.4 0 1.5 0 0.1 0 0.9 0.4 1.2 0.6 0.2 0.2 0.2 0.7 0.2 0.9 0 0.3-0.2 2.3-0.2 2.5 0 0.3 0 2.4 0 2.7 0 0.4-0.5 4 0.4 3.8 0.2-0.4 0.8-2 0.9-2.3 0.4-1 0.6-2.1 1.7-2.5 0.3-0.1 0.6-0.3 1.5 0 1.2 1.1 0.7 3.5 0.8 5.6 0 0.3 0.5 2.8 0.8 2.9 0.5 0.2 1.5-2.5 2-5.2 0.1-0.3 0.7-3.4 0.7-3.4 0-0.6 0-3.3 0-3.9 0-1-1.3-4 0-4.4 1.7-0.4 2 3.2 2.2 6.1 0.1 3.9-0.1 11.3-4.3 13.3C215.1 34.8 214 31.5 213.7 29.7zM207.4 27.5c0.1 0 0.1-0.2 0-0.2C207.3 27.3 207.3 27.5 207.4 27.5zM209.2 29.2c0-0.1 0-0.7 0-0.8 0-0.3-0.2-2.4-0.2-2.6 -0.1-2.2 0.4-4.6 0.8-6.7 0 0 0-0.2 0-0.2 -0.9 0.6-1.1 3.1-1.2 4.1 0 0.3-0.2 1.7-0.2 2.1 0 0 0 0.2 0 0.2 0 0.1 0.2 0.7 0.2 0.8 0 0.3 0 1.6 0 1.8 0 0 0.2 0.2 0.2 0.2C208.9 28.1 209.2 29 209.2 29.2zM210.6 28.4h0.2l-0.2-0.2V28.4z"/><path d="M231.6 34.7c-0.1-0.3-0.6-1.3-0.6-1.4 -0.4-1.2-0.6-2.6-1.2-3.7 -0.5 0-2.8-0.2-3.3-0.2 -0.2 0-0.8-0.1-0.9 0.2 0 0-0.2 0.5-0.2 0.5 -0.5 0.8-0.5 1.6-0.9 2.4 0 0.1-0.2 0.8-0.2 0.8 -0.3 0.4-1.4 0.3-1.6-0.2 0 0 0-0.3 0-0.4 1-4.2 1.6-7 3.3-11.2 0.3-1 1-4.3 2.4-4.7 0.3-0.1 1.4-0.1 1.6 0 0.7 0.2 0.4 1 0.4 1.4 0.8 2.6 1 6 3.2 14.1 0.1 0.5 0.4 0.7 0.2 1.2 -0.1 0.3-0.7 1.4-0.8 1.6 -0.4 0.2-0.8 0.4-1.2 0C231.8 35.1 231.7 34.8 231.6 34.7zM226 28.2h3.6c0.1-1-0.2-2.1-0.4-3.1 -0.1-0.5-0.5-2.7-0.6-3.2l-0.6-0.5c-0.2 1.2-0.8 2.3-1.1 3.4C226.2 26 226.4 28.2 226 28.2zM231.7 31.2l0.3-0.1c0 0-0.3-1.5-0.4-2 -0.1-0.5-0.5-2.5-0.6-2.7 0-0.3-0.2-0.7-0.3-0.8 0 0.1 0 0.7 0.1 0.8 0 0.7 0.1 2.4 0.2 2.5C231.1 29.3 231.5 30.8 231.7 31.2zM232.4 33.4l-0.5-1.5c-0.1 0.2-0.1 0.8 0 1C231.9 32.9 232.3 33.4 232.4 33.4z"/><path d="M234 31.5c-0.1-0.2-0.2-0.9-0.2-1 -0.2-4.6 0.4-8.9 1.2-13.4 0.5-1 1.8-0.5 2.4-0.3 0.4 0.2 0.9 0.9 1.1 1.3 0.7 1.5 1.2 3 1.8 4.5 0.8 1.6 1.3 3.2 2.4 4.7V16.4c0.1-0.6 0-0.8 1.1-0.8 0.5 0 1.8 0.4 1.8 1 0.3 3-0.4 6.1-0.2 9.2 -0.2 0.8 0.4 5.6-1 6.1 -1.1 0.5-2.7 0.8-3-0.2 -1.3-2.3-2-4.7-3.3-6.9 0.1 1.2-0.2 2.3-0.2 3.5 0 0.1 0 1.1 0 1.2 0 0.5-0.2 2.1-0.2 2.3 -0.1 0.3-0.3 1-0.8 1 -0.3 0-1.7 0-2 0 -0.1-0.1-0.5-0.5-0.6-0.6C234.2 32 234 31.6 234 31.5zM235.5 28.7l0.3-0.1c0 0 0.1-1.5 0.1-2.1 0-0.5 0-2.5 0-2.8 0.1-0.2 0-0.7-0.1-0.8 0 0.1-0.1 0.7-0.1 0.9 -0.1 0.7-0.4 2.4-0.3 2.5C235.3 26.7 235.4 28.4 235.5 28.7zM235.7 31.1l-0.1-1.6c-0.1 0.2-0.3 0.8-0.2 0.9C235.3 30.5 235.6 31.1 235.7 31.1z"/><path d="M249.1 30.1c0 0-0.2-0.4-0.2-0.4 0-0.2 0-1.7 0-1.8 0-0.1-0.2-0.9-0.2-1 0-0.4 0-2.7 0-3.2 0.1-1.7 0.5-3.4 0.8-5.1 0 0 0-0.2 0-0.2h-2c-0.1 0-0.6-0.6-0.8-0.8 -0.1-0.2 0.1-0.4 0.2-0.4 2.3-0.1 4.8-0.3 7.1-0.2 1.4 0.5 0.2 0.9-0.6 1 -0.2 0-1 0.2-1.2 0.2 -0.5 1-0.5 2.4-0.6 3.5 -0.1 0.5-0.2 2-0.2 2.1 0 0.5 0 3.1 0 3.7 0 0.3 0.2 2.5 0.2 2.8 0 0.9 0.3 1.8 0.4 2.6 0.1 0.8-1.1 0.8-1.6 0.6C248.9 32.7 249.2 31.4 249.1 30.1zM250.4 30.4l0.3-0.1c0 0 0.1-1.5 0.1-2.1 0-0.5 0-2.5 0-2.8 0.1-0.2 0-0.7-0.1-0.8 0 0.1-0.1 0.7-0.1 0.8 -0.1 0.7-0.4 2.4-0.3 2.5C250.2 28.4 250.3 30 250.4 30.4zM250.7 32.7l-0.1-1.6c-0.1 0.2-0.3 0.8-0.2 0.9C250.3 32.1 250.6 32.7 250.7 32.7z"/><path d="M265 30.1c0 0-0.2-0.4-0.2-0.4 0-0.2 0-1.7 0-1.8 0-0.1-0.2-0.9-0.2-1 0-0.4 0-2.7 0-3.2 0.1-1.7 0.5-3.4 0.8-5.1 0 0 0-0.2 0-0.2h-2c-0.1 0-0.6-0.6-0.8-0.8 -0.1-0.2 0.1-0.4 0.2-0.4 2.3-0.1 4.8-0.3 7.1-0.2 1.4 0.5 0.2 0.9-0.6 1 -0.2 0-1 0.2-1.2 0.2 -0.5 1-0.5 2.4-0.6 3.5 -0.1 0.5-0.2 2-0.2 2.1 0 0.5 0 3.1 0 3.7 0 0.3 0.2 2.5 0.2 2.8 0 0.9 0.3 1.8 0.4 2.6 0.1 0.8-1.1 0.8-1.6 0.6C264.9 32.7 265.2 31.4 265 30.1zM266.3 30.4l0.3-0.1c0 0 0.1-1.5 0.1-2.1 0-0.5 0-2.5 0-2.8 0.1-0.2 0-0.7-0.1-0.8 0 0.1-0.1 0.7-0.1 0.8 -0.1 0.7-0.4 2.4-0.3 2.5C266.1 28.4 266.3 30 266.3 30.4zM266.6 32.7l-0.1-1.6c-0.1 0.2-0.3 0.8-0.2 0.9C266.2 32.1 266.5 32.7 266.6 32.7z"/><path d="M271.9 31.9c-1.7-1.9-1.3-5.7-1-7.9 0.4-2.8 1.1-5.6 3.7-7.1 1-0.6 1.9-0.8 3.1-0.4 0.3 0.1 1.3 0.6 1.4 0.6 0.1 0 0.6 0.9 0.8 1.2 2.3 3.8 1.9 14.3-3.7 15.3 -0.4 0.1-1.4 0.2-1.4 0.2 -0.1 0-1-0.3-1.2-0.4C272.9 33.1 272.2 32.2 271.9 31.9zM273.1 29.2c0-0.1 0-0.7 0-0.8 0-0.3-0.2-2.4-0.2-2.6 -0.1-2.2 0.4-4.6 0.8-6.7 0 0 0-0.2 0-0.2 -0.9 0.6-1.1 3.1-1.2 4.1 0 0.3-0.2 1.7-0.2 2.1 0 0 0 0.2 0 0.2 0 0.1 0.2 0.7 0.2 0.8 0 0.3 0 1.6 0 1.8 0 0 0.2 0.2 0.2 0.2C272.7 28.1 273 29 273.1 29.2zM277.6 30.9c0.1-0.2 0.5-0.8 0.6-1 0.1-0.3 0.6-1.1 0.6-1.2 0.5-1.3 0.9-2.7 0.8-4.1 0-0.6-0.2-3.1-0.2-3.7 -0.1-0.2-0.5-1-0.6-1.2 -0.4-0.8-1.8-2.7-2.6-1.4 0 0.1-0.5 0.8-0.6 1 -0.1 0.1-0.2 0.4-0.2 0.4 0 0.1-0.2 1.1-0.2 1.2 -0.3 1.4-0.8 2.8-0.8 4.3 0 0.7 0 4 0 4.7 0.1 0.2 0.3 1 0.4 1.2 0 0.1 0.2 0.4 0.2 0.4C276.2 33 276.7 32.2 277.6 30.9z"/><path d="M291.2 31.3c-1-4.5-0.2-9.2-0.8-13.9 0-0.1-0.2-0.7-0.2-0.8 0-0.2 0-0.4 0.2-0.4 0.7-0.1 1.4 0 2.1 0.2 1.7 0.7 1.5 2.1 1.6 3.7 0.1 2.9-0.3 4.9 0 7.6 0 0.1 0.2 1.3 0.2 1.4 0 0 0 0.5 0 0.6 0 0.6 0.2 1.8 0.2 1.8h1.4c0.1 0 0.4 0.3 0.4 0.4 0 0.2-0.5 0.8-0.6 0.8h-3.3c0 0-0.3-0.2-0.4-0.2C291.7 32.2 291.3 31.7 291.2 31.3zM292.9 23.9l0.3-0.1c0 0 0.1-1.5 0.1-2.1 0-0.5 0-2.5 0-2.8 0.1-0.2 0-0.7-0.1-0.8 0 0.1-0.1 0.7-0.1 0.8 -0.1 0.7-0.4 2.4-0.3 2.5C292.7 21.9 292.9 23.5 292.9 23.9zM293.2 26.2l-0.1-1.6c-0.1 0.2-0.3 0.8-0.2 0.9C292.8 25.7 293.1 26.2 293.2 26.2z"/><path d="M296.8 32.8c0.2-0.1 1-0.4 1.2-0.4 0.1 0 0.8-0.2 0.8-0.2 0.4-0.1 1.2-0.4 1.2-0.4V18.3l-1.8-0.9c0-0.4 0.5-0.6 0.8-0.6 0.6 0 3.4-0.2 4.1-0.2 0.1 0 0.5 0 0.6 0 0.3 0.6-0.7 1-1 1.2 -0.1 0-0.8 0.3-0.8 0.4 0 0.1 0 0.5 0 0.6 0 0.1 0.4 0.7 0.4 0.8 0.1 0.1 0.4 0.8 0.4 1 0 0.1 0.2 0.6 0.2 0.6 0 0.1 0 0.6 0 0.6 0 0.1 0.4 1.1 0.4 1.2 0.3 1.7-0.3 3.4-0.4 5.1 0 0.5 0 2.6 0 3.1 0.2 0 1 0.2 1.2 0.2 2.2 0.6-3.8 2-3.9 2 -0.6 0.2-1.1 0.6-1.8 0.4 -0.2 0-1-0.5-1.2-0.6C297.1 33.2 296.9 32.9 296.8 32.8zM301.9 28.9l0.3-0.1c0 0 0.1-1.5 0.1-2.1 0-0.5 0-2.5 0-2.8 0.1-0.2 0-0.7-0.1-0.8 0 0.1-0.1 0.7-0.1 0.9 -0.1 0.7-0.4 2.4-0.3 2.5C301.7 26.9 301.9 28.5 301.9 28.9zM302.2 31.2l-0.1-1.6c-0.1 0.2-0.3 0.8-0.2 0.9C301.8 30.6 302.1 31.2 302.2 31.2z"/><path d="M308 32.5c-0.2-0.4-0.7-1.3-0.8-1.4s0-0.7 0-0.8c0-0.1-0.1-0.3-0.2-0.4l-0.4 0.2c0.1-1.1-0.5-2.2-0.8-3.3 -0.4-1.5-0.8-2.8-0.6-4.4h-0.2V21h-0.2l-0.4-3.6c0.1 0 0.5-0.2 0.6-0.2 0 0 0.4-0.2 0.4-0.2 0.5 0 1.9 0 1.9 0l0.8 0.6c-0.1 1.3 0.4 3 0.6 4.2 0 0.1 0 0.5 0 0.6 0.1 0.2 0.5 2.3 0.6 2.5 0 0 0 0.4 0 0.4 0 0 0.1 0.2 0.2 0.2 0.3 0.4 1 3.1 0.6 3.1 1 0 0.6 2.5 1.3 2.7 2.2-3.9 3.1-8.3 4.2-12.6 0-0.1 0.4-1.1 0.4-1.1 0.1-0.1 0.2-0.7 0.2-0.8 0.3-0.2 0.6 0.4 0.6 0.6 0 0.3 0 1.4 0 1.5 0 0.2-0.4 1.4-0.4 1.5 -0.4 2.2-0.7 4.2-1.3 6.3 -0.1 0.1-0.4 1.2-0.4 1.3 -0.5 1.6-1.4 3.1-2.1 4.6 -0.1 0.1-0.5 1.2-0.6 1.3 -0.2 0.3-0.2 0.1-0.4 0.2 -0.1 0-0.4 0.2-0.4 0.2 -0.6 0.1-1.5-0.2-1.9-0.4C308.8 33.6 308.3 33 308 32.5zM306.5 27.8c0.1 0 0.1-0.2 0-0.2C306.4 27.6 306.4 27.8 306.5 27.8z"/><path d="M320.1 33.4c-2.6-0.6-2.1-2.4-2-4.4 0.1-1.3 0.2-5.7 0.2-6.2 0.1-1.6 0.8-3.8 0.7-5.3 0.3 0.1 0.4-0.2 0.6-0.2 0.2 0 1.9-0.1 2.4-0.2 0.4 0 3.5-0.1 3.9-0.2 0.4 0 1.1-0.3 1.6-0.2 0.4 0.1 0.2 0.4 0 0.5 -0.3 0.1-1.4 0.6-1.6 0.7 -0.6 0-3.1 0.2-3.6 0.2 -0.1 0-0.7 0.1-0.8 0.1 -0.1 0-0.2 0.2-0.2 0.2 0 0.1 0 0.8 0 0.9 -0.2 2.4-0.8 4.9-0.6 7.3 0.9 0.1 1.7-0.3 2.6-0.1v0.1c-0.6 0.7-1 0.9-2 1.1 0.1 0.2-0.2 0.4-0.4 0.4l-0.1 4.1c1.7 0.3 3.2-0.5 4.9-0.7 0.7 0.2-0.3 1.3-0.5 1.6 -0.2 0.1-1.4 0.3-1.6 0.4 -0.1 0-0.9 0.2-1 0.2 0 0-0.4 0.2-0.4 0.2 -0.1 0-0.6-0.2-0.6-0.2C321.4 33.6 320.2 33.4 320.1 33.4zM319.7 28.7l0.3-0.1c0 0 0.1-1.5 0.1-2.1 0-0.5 0-2.5 0-2.8 0.1-0.2 0-0.7-0.1-0.8 0 0.1-0.1 0.7-0.1 0.9 -0.1 0.7-0.4 2.4-0.3 2.5C319.5 26.7 319.6 28.4 319.7 28.7zM319.9 31.1l-0.1-1.6c-0.1 0.2-0.3 0.8-0.2 0.9C319.5 30.5 319.8 31.1 319.9 31.1z"/><path d="M327.1 27.7c0-0.6 0-3.5 0-4.1 0-0.1 0.2-1.1 0.2-1.2 0.2-1.5 0.2-3 0.4-4.5 0.4-3.1 0.9-5.8 1.8-8.8 0.1-0.4 0.4-1.2 0.6-1.4 0.4-0.4 1-0.1 1.4 0 0.3 0.2 1 0.4 1.2 0.8 0.2 0.4-0.5 2.9-0.6 3.5 -0.3 1.9-0.8 4.3-0.6 6.3 -0.3 0.2-0.7 1.3-0.8 1v0.2c0.1 0.1 0.4 0.1 0.4 0 0.1-0.1 0.2-0.5 0.2-0.6 0 0.4 0 2.3 0 2.6 0 0.5-0.4 1.1-0.4 1.6 0 0.3 0.5 0.1 0 0.8v4.9c0 0-0.3 0.2-0.4 0.2 -0.9 0.3-1.6 0.3-2.6 0.2 0 0-0.2-0.2-0.2-0.2C327.3 28.6 327.2 28.4 327.1 27.7zM327.3 31c0.9-0.1 2.2-0.2 3.1 0.2 0 0 0.2 0.2 0.2 0.2 0.1 0.2 0.4 0.6 0.4 0.6 0.1 0.2 0.2 1-0.2 1.2 -0.3 0.1-1.4 0.6-1.6 0.6 -0.4 0.1-0.7-0.2-1-0.4C327.5 32.9 327.2 31.7 327.3 31zM328.5 21.8l0.3-2.5c-0.2 0.3-0.6 1.1-0.6 1.5C328.1 20.8 328.4 21.8 328.5 21.8zM328.8 18.1l0.5 0c0 0 0.6-2.4 0.7-3.3 0.2-0.8 0.8-3.9 0.8-4.4 0.2-0.3 0.2-1.1 0.2-1.3 -0.1 0.2-0.4 1.1-0.5 1.3 -0.4 1-1.2 3.7-1.2 4C329.2 14.8 328.9 17.4 328.8 18.1zM330.7 22.9c0.1 0 0.1-0.2 0-0.2S330.6 22.9 330.7 22.9zM331.2 17.8c0.1 0 0.1-0.2 0-0.2C331 17.6 331 17.8 331.2 17.8z"/><path d="M433.8 12.4c0 0 0 0.1 0 0.2 0 0 0 0.1 0 0.1 0 0 0 0 0 0.1v0c-0.1 0.2-0.2 0.4-0.2 0.5 -0.1 0.1-0.1 0.3-0.2 0.4l-0.1 0.2c0 0 0 0.1-0.1 0.2 0 0.1-0.1 0.1-0.1 0.2l-0.3 0.5 -0.1 0.1v0c-0.1 0.2-0.3 0.5-0.5 0.7 -0.2 0.3-0.6 0.6-1.1 0.9v0c0 0.3 0 0.5 0 0.8 0 0.2-0.1 0.5-0.1 0.7 0 0.3-0.2 0.5-0.3 0.7 -0.2 0.2-0.4 0.4-0.7 0.5 -0.3 0.1-0.5 0.1-0.8 0.1 -0.3 0-0.5-0.2-0.5-0.4 -0.1-0.2-0.1-0.3 0-0.5 0.1-0.4 0.3-0.7 0.6-1 0.3-0.3 0.6-0.5 0.9-0.6 0-0.5-0.1-0.9-0.2-1.4s-0.2-0.9-0.3-1.3c-0.1-0.2-0.1-0.3-0.2-0.5 -0.1-0.2-0.1-0.3-0.2-0.5l-0.3-0.8 -0.2 0.5 -0.1 0.3c-0.1 0.1-0.1 0.3-0.2 0.4 0 0.1-0.1 0.2-0.2 0.4 0 0 0 0.1-0.1 0.2 0 0.1-0.1 0.2-0.2 0.3 -0.1 0.1-0.1 0.1-0.2 0.2 -0.1 0-0.1 0-0.2 0l0 0c0.1-0.1 0.1-0.2 0.2-0.3 0.1-0.1 0.1-0.2 0.2-0.4 0.1-0.3 0.3-0.5 0.4-0.8 0.1-0.2 0.2-0.3 0.2-0.5 0.1-0.2 0.1-0.3 0.2-0.5l-0.2-0.5c-0.1-0.2-0.2-0.4-0.2-0.6 -0.1-0.2-0.1-0.4-0.2-0.6C428 9.6 428 9.4 428 9.1c0-0.2 0.1-0.4 0.3-0.7 0.2-0.3 0.5-0.4 0.8-0.3 0.2 0 0.4 0.1 0.5 0.3 0.1 0.2 0.2 0.3 0.2 0.5 0 0.2 0 0.3 0 0.5 0 0.4-0.1 0.8-0.3 1.1 0 0.1 0 0.2 0 0.3l0.3 0.7c0.1 0.2 0.2 0.3 0.2 0.5 0.1 0.2 0.1 0.3 0.2 0.5 0 0.1 0 0.2 0.1 0.2 0 0.1 0 0.1 0.1 0.2l0.3 1.1c0.1 0.3 0.2 0.6 0.2 0.9 0 0.3 0.1 0.6 0.1 1 0.4-0.2 0.7-0.5 0.9-0.7 0.2-0.2 0.3-0.4 0.5-0.6 0 0 0 0 0-0.1s0-0.1 0.1-0.1h0l0.3-0.5c0.1-0.1 0.2-0.2 0.2-0.4 0.1-0.1 0.1-0.2 0.2-0.4l0.4-0.8 0.2-0.5c0 0 0 0 0 0 0 0 0 0 0 0 0 0 0 0.1 0 0.1 0 0 0 0.1 0 0.1L433.8 12.4zM430 17.5c0-0.1 0-0.2 0-0.3 0-0.1 0-0.2 0-0.3 -0.5 0.3-0.9 0.6-1 0.8 -0.1 0.3-0.2 0.5-0.2 0.6 0 0.2 0 0.3 0.1 0.5 0.1 0.1 0.2 0.1 0.4 0.1 0.2-0.1 0.4-0.3 0.5-0.6C429.9 18 430 17.7 430 17.5zM428.9 9.1c0.1 0.2 0.1 0.4 0.2 0.6 0.1 0.2 0.1 0.4 0.2 0.6 0.1-0.1 0.1-0.3 0.2-0.4 0-0.2 0-0.3 0.1-0.5 0-0.1 0-0.3 0-0.5s-0.1-0.3-0.2-0.4c-0.1 0-0.2 0-0.3 0.2C428.9 8.9 428.9 9 428.9 9.1z"/><path d="M441.3 12.5c0 0 0 0.1 0 0.1 0 0 0 0 0 0.1 -0.1 0.2-0.2 0.4-0.2 0.5s-0.1 0.3-0.2 0.4c-0.1 0.1-0.1 0.1-0.1 0.2l-0.2 0.3c0 0.1-0.1 0.2-0.1 0.2 -0.1 0.1-0.1 0.2-0.2 0.2 -0.1 0.1-0.2 0.3-0.3 0.4 -0.1 0.2-0.2 0.3-0.3 0.4l-0.5 0.6 -0.1 0.1c-0.1 0.1-0.2 0.3-0.3 0.4 -0.1 0.1-0.3 0.2-0.4 0.2 -0.1 0-0.3 0-0.4 0 -0.1 0-0.3-0.2-0.4-0.4 -0.1-0.2-0.2-0.4-0.3-0.6 -0.1-0.2-0.1-0.4-0.2-0.6 0-0.1-0.1-0.3-0.1-0.4s0-0.2 0-0.4l-0.1 0.1c-0.1 0.1-0.3 0.2-0.4 0.3 -0.1 0.1-0.2 0.2-0.4 0.3 -0.2 0.1-0.3 0.2-0.5 0.3 -0.2 0.1-0.3 0.1-0.5 0.2 0 0-0.1 0-0.2 0 -0.1 0-0.1 0-0.1 0 -0.2 0-0.3 0-0.4 0 -0.1 0-0.2-0.1-0.2-0.1 -0.1 0-0.1-0.1-0.2-0.1 -0.1-0.1-0.2-0.2-0.3-0.4 -0.1-0.1-0.1-0.3-0.2-0.5 0-0.1 0-0.1-0.1-0.2 0-0.1 0-0.1-0.1-0.2 -0.1-0.2-0.1-0.5-0.1-0.7s0-0.5 0-0.7c0-0.3 0.1-0.6 0.2-0.8s0.2-0.5 0.3-0.8c0.1-0.3 0.4-0.5 0.7-0.8 0.2-0.2 0.4-0.3 0.6-0.4 0.2-0.1 0.4-0.2 0.7-0.2 0.2 0 0.5 0.1 0.7 0.2 0.2 0.1 0.3 0.2 0.5 0.4 0.1 0.1 0.2 0.3 0.3 0.5 0 0 0 0 0 0l0 0 0.1-0.1c0.1-0.3 0.2-0.5 0.3-0.7 0-0.1 0.1-0.2 0.3-0.1l0.2 0.1 0.2 0.1 -0.1 1.1c0 0.2-0.1 0.5-0.1 0.7s-0.1 0.5-0.1 0.7c0 0.2 0 0.3-0.1 0.4s0 0.3-0.1 0.4c0 0.2 0 0.3 0 0.5 0 0.2 0 0.3 0 0.5 0 0.2 0 0.4 0 0.6 0 0.2 0 0.4 0.1 0.6 0.1 0.3 0.2 0.4 0.4 0.4 0.2 0 0.3-0.1 0.4-0.2 0.1-0.2 0.3-0.3 0.4-0.5 0.1-0.2 0.2-0.3 0.2-0.3 0.1-0.1 0.2-0.2 0.2-0.3 0 0 0.1-0.1 0.2-0.3l0.3-0.5 0.4-0.7c0.1-0.2 0.2-0.3 0.2-0.4 0.1-0.1 0.1-0.3 0.2-0.4l0.2-0.5c0 0 0 0 0 0.1 0 0 0 0.1 0 0.1 0 0 0 0.1 0 0.1L441.3 12.5zM437.4 11.5c0-0.2 0-0.4-0.1-0.6 -0.1-0.1-0.1-0.2-0.1-0.2 0-0.1-0.1-0.1-0.1-0.2 0 0-0.1-0.1-0.1-0.1 0 0-0.1-0.1-0.1-0.1 -0.1 0-0.2-0.1-0.2-0.1 -0.1 0-0.1-0.1-0.2 0 -0.3 0-0.5 0.1-0.7 0.4 -0.3 0.5-0.5 1.1-0.6 1.7 0 0.3-0.1 0.5-0.1 0.8 0 0.3-0.1 0.5 0 0.8l0 0.2c0 0.3 0 0.7 0.3 1 0.1 0.2 0.3 0.2 0.5 0.1 0.1 0 0.2-0.1 0.3-0.1 0.1-0.1 0.2-0.1 0.2-0.2 0.2-0.2 0.4-0.4 0.6-0.6 0.2-0.2 0.3-0.4 0.3-0.6C437.1 13 437.2 12.3 437.4 11.5z"/><path d="M446.1 12.3c0 0 0 0.1 0 0.2 0 0 0 0.1 0 0.1s0 0 0 0.1v0c-0.1 0.2-0.2 0.4-0.2 0.5 -0.1 0.1-0.1 0.3-0.2 0.4l-0.1 0.2c0 0 0 0.1-0.1 0.2 0 0.1-0.1 0.1-0.1 0.2l-0.3 0.5c-0.1 0.2-0.3 0.4-0.5 0.6l-0.5 0.6c-0.3 0.3-0.7 0.4-1.1 0.4 -0.2 0-0.3 0-0.5 0 -0.1 0-0.3-0.1-0.6-0.3 -0.2-0.1-0.4-0.2-0.5-0.5s-0.3-0.4-0.4-0.6c-0.1-0.1-0.1-0.2-0.2-0.4 -0.1-0.1-0.1-0.3-0.1-0.4 0-0.1-0.1-0.2-0.1-0.3 0-0.1 0-0.2 0-0.3 0-0.1 0-0.2 0-0.3 0-0.1 0-0.2 0-0.3 0-0.1 0-0.2 0-0.4 0-0.2 0-0.4 0-0.6s0-0.4 0.1-0.6c0-0.1 0.1-0.3 0.1-0.4 0-0.1 0.1-0.2 0.1-0.4 0-0.1 0.1-0.3 0.1-0.4 0-0.1 0.1-0.2 0.1-0.4 0-0.1 0.1-0.1 0.1-0.2s0.1-0.1 0.2-0.1c0.1-0.1 0.2-0.1 0.3-0.1 0.1 0 0.2 0 0.3 0 0.1 0 0.1 0 0.2 0.1 0.1 0.1 0.1 0.1 0.1 0.2 0 0.2 0 0.4 0 0.5 0 0.1 0 0.2 0 0.3 0 0.1 0 0.2 0 0.3l-0.1 0.3 -0.1 0.6 0 0.6 -0.1 0.4 -0.1 0.7c0 0.1 0 0.3 0 0.4 0 0.1 0 0.2 0 0.3 0 0.2 0 0.4 0 0.5 0 0.1 0 0.2 0 0.3s0 0.2 0.1 0.3c0.1 0.2 0.2 0.4 0.4 0.6 0.2 0.2 0.4 0.3 0.6 0.2 0.2 0 0.3-0.1 0.5-0.2 0.1-0.1 0.3-0.2 0.5-0.4 0.1-0.1 0.2-0.2 0.3-0.4 0.1-0.1 0.2-0.3 0.3-0.4L445 14c0.1-0.1 0.2-0.2 0.2-0.4 0.1-0.1 0.1-0.2 0.2-0.4l0.4-0.8 0.2-0.5c0 0 0 0 0 0.1 0 0 0 0.1 0 0.1 0 0 0 0.1 0 0.1L446.1 12.3zM442.1 7.2c0.1-0.2 0.2-0.4 0.4-0.5 0 0 0.1 0 0.1 0 0 0 0.1 0 0.1 0 0.1 0 0.1 0 0.2 0 0.1 0 0.1 0.1 0.1 0.1 0.1 0.3 0.1 0.5-0.1 0.8 -0.1 0.1-0.1 0.1-0.2 0.2 0 0-0.1 0.1-0.2 0 -0.2 0-0.3 0-0.4-0.2C442.1 7.5 442.1 7.4 442.1 7.2z"/><path d="M454.6 12.2c0 0 0 0.1 0 0.2 0 0 0 0.1 0 0.1s0 0 0 0.1v0c-0.1 0.2-0.2 0.4-0.2 0.5 -0.1 0.1-0.1 0.3-0.2 0.4l-0.1 0.2c0 0 0 0.1-0.1 0.2 0 0.1-0.1 0.1-0.1 0.2 -0.1 0.2-0.2 0.3-0.3 0.5 -0.1 0.2-0.2 0.3-0.3 0.4l-0.2 0.3c-0.1 0.3-0.3 0.6-0.6 0.8 -0.1 0.1-0.2 0.2-0.4 0.2 -0.2 0-0.3 0-0.5 0 -0.1 0-0.1-0.1-0.2-0.1 0 0-0.1-0.1-0.1-0.1 -0.1-0.1-0.2-0.2-0.2-0.3 0-0.1-0.1-0.1-0.1-0.2 0-0.1-0.1-0.1-0.1-0.2 -0.1-0.1-0.1-0.3-0.2-0.4 -0.1-0.2-0.1-0.3-0.1-0.5 0-0.1-0.1-0.2-0.1-0.4 0-0.1 0-0.3-0.1-0.4l-0.2-0.9 -0.1-0.5v-0.1h0l-0.1 0.1c-0.1 0.2-0.2 0.3-0.2 0.5 -0.1 0.2-0.1 0.3-0.2 0.5 -0.1 0.2-0.2 0.5-0.3 0.7l0 0.1c-0.1 0.1-0.1 0.2-0.2 0.3s-0.1 0.2-0.1 0.3c0 0 0 0.1 0 0.1 0 0 0 0.1 0 0.1l-0.1 0.1c0 0.1-0.1 0.3-0.2 0.4 0 0-0.1 0.1-0.1 0.1 0 0 0 0.1-0.1 0.1 -0.1 0.1-0.1 0.1-0.2 0.2 0 0.1-0.1 0.1-0.2 0.1 -0.1 0.1-0.2 0.1-0.4 0.2 0 0-0.1 0-0.1 0s-0.1 0-0.1 0c-0.1 0-0.2 0-0.3 0 -0.1 0-0.2 0-0.3 0 -0.2-0.1-0.4-0.1-0.5-0.2 -0.1-0.1-0.2-0.2-0.3-0.3s-0.2-0.2-0.2-0.4c-0.1-0.1-0.1-0.3-0.1-0.4 0-0.1-0.1-0.2-0.1-0.4 0-0.2-0.1-0.3-0.1-0.5 0-0.2 0-0.3 0-0.5 0-0.1 0-0.2 0-0.3 0-0.1 0-0.2 0-0.3l0.1-0.5 0.2-0.6c0.1-0.2 0.2-0.4 0.3-0.5l0.3-0.5c0-0.1 0.1-0.2 0.2-0.2 0.1-0.1 0.1-0.1 0.2-0.2 0.1-0.1 0.2-0.2 0.3-0.3 0.1-0.1 0.3-0.2 0.4-0.3l0.2-0.2 0.2-0.1c0.1 0 0.1 0 0.2 0 0 0 0.1 0 0.2 0 0 0 0 0 0 0 0 0 0 0 0 0 0.1 0 0.1 0 0.2 0 0.1 0 0.1 0 0.2 0 0.2 0 0.3 0.2 0.4 0.4 0 0.1 0 0.2 0.1 0.2s0 0.2 0 0.2c0 0.1 0 0.2 0 0.3 0 0.1 0 0.2-0.1 0.3l-0.1 0.1c0-0.1-0.1-0.1-0.1-0.2 0-0.1 0-0.2 0-0.4 0-0.1 0-0.2 0-0.4 0-0.1 0-0.2-0.1-0.4 -0.1-0.1-0.2-0.2-0.3-0.2 -0.2 0-0.3 0-0.5 0.1 -0.2 0.1-0.3 0.2-0.5 0.5 -0.1 0.2-0.2 0.4-0.2 0.6 -0.1 0.2-0.2 0.4-0.2 0.6 0 0.1-0.1 0.2-0.1 0.4 0 0.1 0 0.3-0.1 0.4 0 0.1-0.1 0.2-0.1 0.2 0 0.1 0 0.2 0 0.2l-0.1 0.5 -0.1 0.8 0 0.4c0 0.1 0 0.3 0 0.4 0 0.1 0 0.3 0 0.4 0 0.2 0.1 0.4 0.2 0.6 0.1 0.3 0.3 0.4 0.6 0.3 0.1 0 0.3-0.1 0.4-0.2 0.1-0.1 0.2-0.2 0.3-0.3s0.1-0.2 0.2-0.3c0.1-0.2 0.2-0.3 0.3-0.5 0.1-0.2 0.2-0.4 0.3-0.5 0-0.1 0.1-0.2 0.1-0.3 0-0.1 0.1-0.2 0.1-0.3 0.1-0.2 0.2-0.3 0.2-0.5s0.1-0.3 0.2-0.5c0.1-0.2 0.2-0.4 0.3-0.7l0-0.1 -0.1-0.6c0-0.2 0-0.4 0-0.5s0-0.3 0-0.5c0-0.1 0-0.2 0-0.3 0-0.1 0-0.2 0-0.3s0-0.2 0-0.3 0-0.2 0-0.3l-0.1-0.8c0 0 0-0.1 0-0.2 0-0.1 0-0.1 0-0.2l0-0.8c0-0.1 0-0.1 0-0.2 0-0.1 0-0.1 0-0.2 0-0.1 0-0.2 0-0.3 0-0.1 0-0.2 0-0.3 0-0.1 0-0.2 0-0.4 0-0.1 0-0.2 0-0.4 0-0.1 0-0.2 0-0.2 0-0.1 0-0.1 0-0.2 0-0.1 0-0.3 0-0.4 0-0.1 0-0.3 0-0.4 0-0.2 0.1-0.3 0.1-0.5 0-0.2 0-0.3 0.1-0.5l0.2-0.8 0-0.3 0.1-0.3c0 0 0.1-0.1 0-0.1 0 0 0-0.1 0-0.1 0.1-0.3 0.3-0.6 0.6-0.7 0.1-0.1 0.1-0.1 0.2-0.1s0.1-0.1 0.2-0.1c0.1 0 0.1 0 0.2-0.1 0.1 0 0.1 0 0.2 0 0.1 0 0.1 0 0.2 0s0.1 0 0.2 0c0.1 0 0.2 0 0.4 0.1 0.2 0.1 0.4 0.3 0.5 0.4 0 0.1 0.1 0.1 0.1 0.2 0 0.1 0 0.1 0.1 0.2 0 0.1 0.1 0.1 0.1 0.2 0 0.1 0 0.1 0 0.2 0.1 0.3 0.1 0.5 0.1 0.8 0 0.3 0 0.5 0 0.8 0 0.1 0 0.2 0 0.2 0 0.1 0 0.1 0 0.2 0 0.1-0.1 0.2-0.1 0.3 0 0.1 0 0.2 0 0.3l-0.2 0.7 -0.3 0.9c-0.1 0.2-0.2 0.4-0.2 0.7 -0.1 0.2-0.1 0.4-0.2 0.7 0 0.2-0.1 0.3-0.2 0.5 -0.1 0.2-0.1 0.3-0.2 0.5L452 8.4l-0.1 0.3c0 0.1-0.1 0.2-0.1 0.2s-0.1 0.1-0.1 0.2c-0.1 0.1-0.1 0.2-0.2 0.4 0 0.1-0.1 0.2-0.1 0.4 0 0.1-0.1 0.1-0.1 0.2 0 0.1-0.1 0.1-0.1 0.2 0 0 0 0.1 0 0.1l0 1.5c0 0.1 0 0.3 0 0.4s0 0.3 0 0.4c0 0.2 0 0.4 0.1 0.5 0 0.2 0.1 0.4 0.1 0.5 0 0.1 0 0.2 0 0.3s0 0.2 0.1 0.3c0.1 0.1 0.1 0.3 0.1 0.4 0 0.1 0.1 0.3 0.1 0.4 0.1 0.2 0.1 0.3 0.2 0.4 0.1 0.1 0.2 0.2 0.3 0.1 0.1 0 0.3-0.1 0.4-0.3 0.1-0.1 0.1-0.2 0.2-0.3 0.1-0.1 0.1-0.2 0.2-0.3 0.2-0.3 0.4-0.7 0.6-1 0.1-0.1 0.2-0.2 0.2-0.4 0.1-0.1 0.1-0.2 0.2-0.4l0.4-0.8 0.2-0.5c0 0 0 0 0 0.1 0 0 0 0.1 0 0.1 0 0 0 0.1 0 0.1L454.6 12.2zM451.2 9.1c0 0.1 0 0.1 0 0.2 0 0.1 0 0.1 0 0.2l0.1 0 0.2-0.3 0.3-0.7c0-0.1 0.1-0.2 0.1-0.2 0-0.1 0.1-0.2 0.1-0.2l0.4-0.8c0-0.1 0.1-0.3 0.1-0.4 0-0.1 0.1-0.3 0.1-0.4 0-0.1 0.1-0.2 0.1-0.3 0-0.1 0.1-0.2 0.1-0.3 0-0.1 0-0.1 0-0.2 0-0.1 0-0.1 0-0.2 0-0.1 0.1-0.2 0.1-0.4l0.1-0.3 0.2-0.4c0-0.1 0.1-0.3 0.1-0.4 0-0.1 0.1-0.2 0.1-0.4 0-0.1 0.1-0.3 0.1-0.4 0-0.1 0-0.2 0-0.4 0-0.1 0-0.2 0-0.2 0-0.1 0-0.2 0-0.2l0-0.9c0-0.1 0-0.1 0-0.2 0-0.1 0-0.1-0.1-0.2 0-0.1 0-0.1-0.1-0.2 0-0.1 0-0.2-0.1-0.3 0-0.1-0.1-0.2-0.1-0.3 -0.1-0.1-0.2-0.2-0.4-0.2s-0.3 0-0.4 0.1c-0.2 0.2-0.3 0.4-0.4 0.7 0 0.1-0.1 0.2-0.1 0.3 0 0.1 0 0.2-0.1 0.3 0 0.1-0.1 0.2-0.1 0.3s0 0.2 0 0.3c0 0.1-0.1 0.2-0.1 0.3 0 0.1 0 0.2 0 0.3 0 0.1 0 0.1 0 0.2 0 0.1 0 0.1 0 0.2l-0.1 0.7 0 0.3 0 0.3c0 0.1 0 0.2 0 0.3 0 0.1 0 0.2 0 0.3v0l-0.1 0.6 0 0.2c0 0.1 0 0.2 0 0.3 0 0.1 0 0.2 0 0.3 0 0.1 0 0.2 0 0.3 0 0.1 0 0.2 0 0.3l0 0.3c0 0.1 0 0.1 0 0.2 0 0.1 0 0.1 0 0.2 0 0.1 0 0.1 0 0.1 0 0 0 0.1 0 0.1 0 0.1 0 0.2 0 0.3 0 0.1 0 0.2 0 0.3 0 0.1 0 0.2 0 0.2C451.2 8.9 451.2 9 451.2 9.1z"/><circle cx="104.1" cy="44.2" r="2.2"/><circle cx="121.2" cy="44.2" r="2.2"/><circle cx="111.9" cy="44.2" r="2.2"/><path d="M341.9 51.2c-1.8 0-3.2 1.5-3.2 3.3 0 1.8 1.5 3.2 3.3 3.2 1.8 0 3.2-1.5 3.2-3.3S343.6 51.2 341.9 51.2z"/><path d="M351.9 51.1c-4.1 0-4 6.4 0.1 6.3C356 57.4 355.9 51.1 351.9 51.1z"/><path d="M363.7 51.6c-0.1 0-0.2-0.1-0.3-0.1 -0.9-0.4-1.6-0.6-2.5-0.3 -0.8 0.2-1.5 0.8-2 1.5 -0.9 1.5-0.3 3.6 1.2 4.5 0.1 0.1 0.2 0.1 0.3 0.2 1.6 0.9 3.6 0.3 4.5-1.2 0.4-0.8 0.6-1.7 0.3-2.6C365 52.8 364.5 51.9 363.7 51.6z"/><path d="M373.6 51.7c-1.6 0-3 1.4-3 3 0 1.6 1.4 3 3 3 1.6 0 3-1.4 3-3S375.2 51.6 373.6 51.7z"/><path d="M384.8 51.3c-1.9 0-3.4 1.6-3.4 3.5 0 1.9 1.6 3.4 3.5 3.4 1.9 0 3.4-1.6 3.4-3.5C388.3 52.8 386.7 51.3 384.8 51.3z"/><path d="M396.8 51.6c-2.1 0-3.8 1.8-3.8 3.9 0 2.1 1.8 3.8 3.9 3.8 2.1 0 3.8-1.8 3.8-3.9C400.6 53.3 398.9 51.6 396.8 51.6z"/><path d="M409.4 52c-1.9 0-3.5 1.6-3.5 3.5 0 1.9 1.6 3.5 3.5 3.5 1.9 0 3.5-1.6 3.5-3.5C412.9 53.6 411.3 52 409.4 52z"/><path d="M423.7 51.3c-2 0-3.6 1.7-3.6 3.7 0 2 1.7 3.6 3.7 3.6 2 0 3.6-1.7 3.6-3.7C427.3 52.9 425.7 51.3 423.7 51.3z"/><path d="M435.9 51.4c-1.7 0-3 1.4-3 3.1 0 1.7 1.4 3 3.1 3 1.7 0 3-1.4 3-3.1C439 52.8 437.6 51.4 435.9 51.4z"/><path d="M446.7 49.9c-1.2 0.3-2.1 1.3-2.4 2.4 -0.4 1.5 0.3 3.2 1.6 3.9 0.1 0 0.1 0.1 0.2 0.1 1.6 0.9 3.4 0.3 4.4-1.2 0-0.1 0.1-0.1 0.1-0.2 0.7-1 0.6-2.5 0-3.5C449.9 50.2 448.2 49.5 446.7 49.9z"/><path d="M457.7 50.4C457.7 50.4 457.7 50.4 457.7 50.4c-1.9 1-2.4 3.5-1.4 5.3 1.2 2 4.4 2.6 6 0.7 0 0 0 0 0.1-0.1 1.1-1.3 1.5-3.1 0.6-4.6C461.9 49.9 459.6 49.4 457.7 50.4z"/><path d="M471.6 50c-2 0-3.7 1.7-3.7 3.7 0 2 1.7 3.7 3.7 3.7 2 0 3.7-1.7 3.7-3.7C475.3 51.6 473.6 50 471.6 50z"/><path class="st0" d="M136.6 48.4c1.4 0.7 3 0.7 4.5 1.5 1.5 0.7 2.9 1.4 4.4 1.9 3.8 1.3 6.9 4.2 9.5 7 0.6 0.6 1.6 0 1.4-0.8 -0.7-2.9-1.2-7.2-3.6-9.5 1.1 0 2.1 0 3.2 0 0.2 0.1 0.5 0.2 0.6 0.3 1.3 0.7 2.8 1.7 3.5 2.9 0.6 1 2.1 3.7 3.5 2.3 0.1-0.1 0.1-0.3 0.1-0.4 -0.4-0.6-1.1-1-1.5-1.6 -0.4-0.6-0.7-1.4-1.2-1.9 -0.5-0.5-1.2-1.1-1.9-1.6 1.2 0 2.4 0 3.6 0 0.7 0.6 1.4 1.2 2.1 1.8 0.7 0.7 1.6 1.5 2.5 1.8 0.2 0.1 0.5 0 0.7-0.2 0.3-0.3 0.3-0.8-0.1-1.1 -0.7-0.3-1.5-1-2-1.6 -0.3-0.3-0.5-0.6-0.8-0.9 20.7 0 41.4-0.1 62.2-0.1 5.3 0 10.6 0 15.9 0 0.1 0.2 0.2 0.3 0.4 0.3 4.4 0.9 12.6 5.1 15.1 9 0.4 0.6 1.5 0.6 1.6-0.2 0.2-0.9-0.1-2.9 1.3-2 1 0.7 2.1 1.3 3.2 1.9 0.5 0.3 1.3-0.1 1.3-0.7 -0.3-2.6 3.6 0.2 5.3 1 0.3 0.1 0.6 0.2 0.8 0 1.4-1 0.7-1.4 1.7-3.2 0-0.1 0.1-0.2 0.1-0.2 1.7 0.4 4 1.6 5.7 2.1 0.3 0.1 0.6 0 0.8-0.2 2.7-3.2 5.6 3.5 8.4 0.2 1.1-1.4-0.1-1.9 2.3-0.4 0.6 0.4 1.2 0.8 1.8 1.2 0.2 0.1 0.6 0.2 0.8 0 0.9-0.6 0.9-0.7 1-1.8 0 0.4 4.4 2.5 4.8 2.7 0.5 0.2 1.1 0.1 1.2-0.5 0.6-2.7 3.1-1.4 4.9 0.1 0.5 0.4 1.1 0.2 1.4-0.4 0.4-1-0.1-3.5 2.2-1.4 0.7 0.6 1.8 1.1 2.6 1.6 0.6 0.3 1.2-0.1 1.2-0.7 0.1-0.8 0.1-1.4 0-2.2 -0.5-2.6 7.4 3.3 5.5 1.6 0.6 0.6 1.5 0 1.4-0.8 -0.8-4.8-3.9-6.2-7.5-8.6 0.7-0.6 1.3-1.2 1.7-2 0.7-1.4 0.8-3 0.9-4.5 0-0.5-0.7-0.9-1.1-0.6 -1 1.1-2.3 1.3-3.7 0.5 0.1-0.7-0.7-1.2-1.2-0.7 -1.8 1.7-3.5 2.8-3.9-0.1 0-0.4-0.4-0.8-0.9-0.7 -0.6 0.2-4.5 2.4-4.5 1 0-0.4-0.5-0.9-0.9-0.7 -1.7 0.7-5.4 4.1-5.4 0.7 0-0.4-0.5-0.9-1-0.7 -0.8 0.3-5.3 2.3-5.3 1.5 0.1-0.9 0.1-1-0.1-1.9 -0.1-0.5-0.7-0.7-1.1-0.4 -1.6 1-4.7 3.4-5.5 0.7 -0.1-0.5-0.7-0.6-1.1-0.4 -1.6 0.7-5.1 3.6-5.5 0.7 -0.1-0.5-0.7-0.6-1.1-0.4 -2.4 1-5.5 3.5-6.7 0.1 -0.1-0.4-0.5-0.7-1-0.5 -2.2 0.7-4.1 1.9-6.1 0.2 -0.4-0.4-1-0.3-1.3 0.2 -2.3 3.1-7.7 6.8-11.7 7.9 -7 0-14.1 0-21.1 0 -19.4 0-38.8-0.1-58.2 0 0.2-0.3 0.5-0.6 0.7-0.9 0.2-0.4 0.8-1.1 0.7-1.5 -0.1-0.3-0.4-0.5-0.7-0.4 -0.6 0.2-0.8 0.8-1.1 1.3 -0.4 0.5-0.7 1-1.3 1.4 -0.1 0-0.1 0.1-0.2 0.1 -1.6 0-3.2 0-4.9 0 0.9-0.9 1.5-2.1 2-3.1 0.5-0.3 0.4-1-0.3-1.1 -0.1 0-0.1 0-0.2 0 -0.3 0-0.6 0.2-0.7 0.5 -0.6 1.3-1.3 2.9-2.6 3.7 0 0-0.1 0.1-0.1 0.1 -1.8 0-3.6 0-5.4 0 0.5-0.3 1-0.6 1.5-1 0.9-0.8 1.2-2 1.6-3 0.6-1.7 0.2-4.3-0.8-5.8 -0.4-0.5-1.3-0.5-1.5 0.2 -0.7 2.9-5 4.8-7.4 6.5 -2.3 1.6-4.9 2.4-7.5 3.2 -0.2 0-0.3 0-0.5 0 -0.4 0-0.6 0.2-0.7 0.4 0 0 0 0 0 0 -0.1 0-0.1 0.1-0.2 0.1C136.3 47.1 135.9 48 136.6 48.4zM253.5 51.6c-1.8-1.2-3.7-2.5-5.7-3.3 2.2 0 4.3 0 6.5 0 0 0 0.1 0.1 0.1 0.1 0.8 0.4 1.2 1.1 1.8 1.7 1.1 1.1 1.7 2.6 2.8 3.8 -0.1 0.5-0.2 0.9-0.3 1.4C257.3 53.8 255.2 52.7 253.5 51.6zM260.5 53.3c-0.1-0.5-0.5-0.8-0.9-1.2 -0.7-0.6-0.9-1.6-1.5-2.3 -0.4-0.5-0.8-1-1.3-1.5 0.6 0 1.2 0 1.8 0 0 0.1 0.1 0.2 0.2 0.2 0.8 0.4 1.5 0.5 2.2 1 0.6 0.4 1.2 0.9 1.7 1.5 0.5 0.6 1 1.2 1.2 2 0.1 0.4 0.2 0.6 0.3 0.8 0 0.1-0.1 0.2-0.1 0.3 -0.1 0.3-0.1 0.7-0.1 1C262.9 54.3 261.8 53.6 260.5 53.3zM270.8 55.6c-1.6-0.8-3.3-1.9-5.1-2.3 0-0.1-0.1-0.3-0.2-0.4 0.1 0.1-0.1-0.6-0.2-0.8 -0.2-0.4-0.3-0.7-0.5-1.1 -0.5-0.7-1.1-1.4-1.7-2 -0.4-0.3-0.8-0.6-1.2-0.9 1.7 0 3.4 0 5.2 0 0.7 0.3 2 1 2.1 1.2 0.5 0.7 0.9 1.4 1.3 2.2 0.4 0.8 1.1 1.9 2 2.2C271.8 54.7 271.6 56.1 270.8 55.6zM273.4 52.8c-0.1 0-0.1 0-0.2 0 -0.4-0.7-1.2-1.2-1.5-2 -0.4-0.9-0.8-1.8-1.5-2.5 -0.1-0.1-0.2-0.1-0.2-0.2 0.2 0 0.5 0 0.7 0 2 0 4 0 6.1 0 0.2 0.1 0.3 0.2 0.5 0.4 0.7 0.8 1.3 1.8 2 2.7 0.5 0.7 1 1.3 1.6 2C278 54.8 276.2 52.7 273.4 52.8zM282.2 53.2c-0.1-0.5-0.4-1-0.8-1.4 -1-0.9-1.6-2.1-2.4-3.1 -0.1-0.1-0.2-0.3-0.3-0.4 1.4 0 2.8 0 4.2 0 0.8 0.8 1.5 1.5 2.2 2.3 0.5 0.6 2.2 1.7 2.2 2.5 0 0.1 0 0.2 0 0.3 -0.1 0.1-0.1 0.2-0.1 0.3C287.4 56.7 283.8 54 282.2 53.2zM292.9 54.9c-1-1-2.7-1.6-4.2-1.9 -0.1-0.4-0.1-0.7-0.4-1 -0.5-0.7-1.2-1.2-1.8-1.8 -0.5-0.6-1.1-1.3-1.6-1.8 2 0 4 0 5.9 0 0.5 0.5 1 1 1.4 1.6 0.7 1.2 0.8 2.5 1.4 3.7C293.2 54.3 293 54.9 292.9 54.9zM299.6 53.9c-0.6 1.4 0.1 2.4-1.8 1.3 -2-1.2-1.4-1.1-3-1.9 -0.4-1-0.5-2.1-1-3 -0.3-0.6-0.6-1.3-1.1-1.9 1.3 0 2.7 0 4 0 1 0.8 1.8 2.1 2.4 3 0.4 0.6 0.8 1.3 1.1 1.9 0 0 0 0 0 0C300 53.4 299.8 53.6 299.6 53.9zM301.8 53.4c-0.3-1.3-1.2-2.6-2-3.6 -0.3-0.4-0.7-0.9-1.1-1.4 1.4 0 2.8 0 4.2-0.1 0 0 0.1 0.1 0.1 0.1 0.4 0.6 1 1.1 1.5 1.7 0.7 0.7 1 1.3 1.3 2.1 0.1 0.3 0.2 0.6 0.3 0.9 -0.5 0.4-0.6 1.4-0.6 2.3C304.3 54.3 303.2 53.6 301.8 53.4zM307.4 52.8c-0.2-0.7-0.5-1.4-0.8-2.1 -0.3-0.8-1-1.2-1.5-1.8 -0.1-0.2-0.3-0.4-0.5-0.6 1.1 0 2.2-0.1 3.4-0.1 0 0 0.1 0.1 0.1 0.1 0.2 0.4 0.5 0.6 0.8 0.9 0.5 0.5 1 1 1.5 1.5 0.5 0.5 0.9 0.8 1.1 1.5 0 0 0 0.1 0 0.1 -0.3 0.2-0.4 0.5-0.4 0.9 0.2 0.7 0.3 1.4 0.4 2.1C310.2 54.1 308.9 53 307.4 52.8zM317.6 53.5c-1.4-0.8-3.1-1.3-4.7-1.4 0-0.7-0.5-1.5-0.9-2 -0.4-0.4-1-0.9-1.5-1.3 0.1-0.1 0.1-0.1 0.2-0.2 0.1-0.2 0.3-0.5 0.5-0.7 0.1 0 0.2 0 0.2 0C314 49.6 316.4 50.8 317.6 53.5zM311.8 42.4c1.1-0.4 1.9-1.6 1.2 0 -0.6 1.4-1.1 3.3-2.5 4.4 -1.2-0.1-2.4-0.1-3.6-0.2 0.4-1.2 1-2.2 1.4-3.3 0.1-0.3 0.2-0.6 0.3-0.9 0.1 0.3 0.4 0.5 0.7 0.5C310.7 42.9 310.4 42.9 311.8 42.4zM304.8 42.7c1.1-0.2 2-0.4 2.8-0.7 -0.1 0.3-0.2 0.7-0.4 1 -0.4 1.3-1 2.3-1.1 3.6 -1.2 0-2.5-0.1-3.7-0.1 0.3-0.4 0.6-0.9 0.9-1.3 0.3-0.5 0.4-1 0.6-1.5 0.1-0.3 0.3-0.6 0.4-0.9C304.4 42.7 304.6 42.7 304.8 42.7zM302.6 40.8c1.5-0.8 1.1-0.2 1.2 0.8 -1.1 0.6-1.1 2.2-1.7 3.2 -0.3 0.6-0.7 1.1-1.1 1.5 0 0 0 0.1-0.1 0.1 -1.3 0-2.7 0-4-0.1 0.3-0.3 0.5-0.6 0.7-0.8 0.7-0.7 1.1-1.6 1.7-2.4 0.3-0.4 0.5-0.8 0.7-1.3C300.9 41.7 301.5 41.4 302.6 40.8zM298.2 41.3c0 0.3 0.2 0.5 0.4 0.6 -0.2 0.5-0.6 1-0.8 1.3 -0.4 0.6-0.8 1.2-1.3 1.7 -0.4 0.4-1 0.9-1.4 1.4 -1.4 0-2.7 0-4.1 0 0.1-0.1 0.1-0.1 0.2-0.2 0.6-0.7 1.2-1.3 1.7-2 0.2-0.2 0.5-0.5 0.6-0.8 0.1-0.3 0-0.5 0.3-0.8C295.5 42.5 298.2 41.6 298.2 41.3zM290.7 41.4c2.6-0.8 0.1-0.5 1.4 0.7 0.1 0.1 0.2 0.2 0.3 0.2 -0.1 0.2-0.2 0.4-0.2 0.5 -0.1 0.7-1.1 1.5-1.6 2 -0.5 0.5-0.8 1.1-1.3 1.5 -1.6 0-3.2 0-4.7 0 0.3-0.4 0.6-0.9 0.9-1.3 0.3-0.5 0.5-1.2 0.8-1.6 0.3-0.3 0.6-0.6 0.8-1C288.3 42.5 290 41.6 290.7 41.4zM286 41.8c-0.5 0.4-0.9 1.1-1.1 1.6 -0.2 0.6-0.6 1.1-0.9 1.7 -0.2 0.4-0.5 0.9-0.8 1.2 -1.8 0-3.6 0-5.4 0.1 1.6-1.2 2.6-2.9 3.9-4.4 1-0.2 2.5-0.9 3-1.3C285.7 39.9 285.6 41.1 286 41.8zM279.2 40.2c0.3 1 0.4 1.3 0.9 1.5 -0.5 0.7-0.9 1.5-1.5 2.1 -0.4 0.6-1 1-1.4 1.6 -0.2 0.4-0.5 0.7-0.8 1 -2 0-3.9 0-5.9 0 0.6-0.5 1.1-1 1.6-1.6 0.8-0.9 1.7-1.9 2.4-2.8C276.2 41.5 279.3 40.5 279.2 40.2zM272.3 41c0 0.3 0.4 0.8 0.6 1 -0.5 0.6-0.9 1.3-1.4 1.8 -0.7 0.9-1.5 1.8-2.4 2.6 -0.3 0-0.6 0-0.9 0 -1.9 0-3.7 0-5.6 0 0.1-0.1 0.2-0.1 0.3-0.2 0.7-0.6 1.4-1.1 2-1.7 0.5-0.5 0.9-1 1.4-1.5 0.3-0.3 0.5-0.5 0.8-0.7C267.9 42.2 272.4 40.1 272.3 41zM264.8 40.1c0.2 0.7 0.5 1.3 0.9 1.8 -0.7 0.6-1.2 1.4-1.7 1.8 -0.8 0.8-1.7 1.6-2.7 2.2 -0.2 0.1-0.5 0.3-0.6 0.5 -1 0-2 0-3 0 0.3-0.3 0.7-0.5 1-0.8 1-0.6 1.7-1.2 2.3-2.2 0.4-0.8 1.2-1.3 1.4-2.2 0 0 0 0 0 0C263.6 40.9 264.9 40.4 264.8 40.1zM255.2 42.9c0.7-0.4 1.9-0.8 2.4-1.4 1.1-1.4 1.1-0.8 2 0.3 0.2 0.2 0.5 0.2 0.8 0.2 0 0 0 0 0 0 0 0.1-0.1 0.1-0.1 0.2 -0.3 0.4-0.4 0.8-0.7 1.2 -0.4 0.5-0.8 0.8-1.3 1.1 -0.8 0.6-1.7 1.1-2.4 1.8 -0.2 0.1-0.3 0.2-0.5 0.3 -1.9 0-3.8 0-5.8 0C251.5 45.4 253.1 44 255.2 42.9zM150.6 48.9c2.3 0.9 3.1 4 3.7 6.7 -2.1-2-4.4-3.6-7.1-5 -1.7-0.8-3.5-1.5-5.3-2.2 2.8 0 5.5 0 8.3 0C150.2 48.6 150.4 48.8 150.6 48.9zM148.3 43.6c2-1.3 4.5-2.6 5.8-4.6 0.2 0.7 0.2 1.4 0.1 2.1 -0.4 2.7-1.6 3.4-3.6 4.8 -0.2 0.2-0.4 0.4-0.4 0.6 -2.3 0-4.6 0-6.9 0C145.1 45.7 146.7 44.6 148.3 43.6z"/></svg>