<svg id="Layer_1" xmlns="http://www.w3.org/2000/svg" viewBox="0 0 592 284.5">
  <style>
    .st0{fill:#231F20;}
  </style>
  <path id="Arrow" d="M288.4 212.7c-1.2-.7-2.7-1-4-1.5-1.5-.6-2.9-1.2-4.4-1.8-5.4-2.3-10.6-4.9-15.9-7.4h-.2c-.2-.1-.5 0-.6.4-.2 2.6-.2 5.3-.2 8h-.2c-.2 0-.5 0-.7-.1h-.1c-23.6-.3-47.3-.6-70.9-.8-3.3 0-6.6 0-10-.1-2.8 0-5.7-.1-8.5-.1 1.9-.9 3.2-2.5 3.8-4.5.1-.2-.1-.3-.3-.3-2.7.7-6.1 1.8-7.2 4.5-1.1-4.6-5.4-8.1-10.2-8-.2 0-.4.2-.3.4.9 2.6 1.3 5.3.9 8-.6-2.5-1.3-5-2.1-7.4-.3-.8-.5-1.6-1.3-2-1-.5-2.6-.3-3.7-.3-.2 0-.4.2-.3.4 1.4 2.7 2.5 5.6 3.2 8.5-.9-1.9-1.9-3.7-2.8-5.6-1-2-1.6-3.7-4.1-4-5-.7-10.1.1-14.7 2-.2.1-.3.3-.1.5 2.3 2.2 4.4 4.6 6.2 7.3-1.1-1.1-2.2-2.2-3.3-3.2-.9-.8-1.8-1.5-2.8-2.2-.8-.6-1.6-1.3-2.7-1.2-2.1.2-4 2-5.4 3.3-2.1 2-4.1 4.1-6 6.3-.2.2-.1.6.3.6h.3c2.2 1.5 3.9 3.6 4.4 6.3.1.2.3.3.5.2 2.1-1 3.8-2.8 4.6-5-.1 2-1 4-2.5 5.5-.1.1-.1.3 0 .5 3.2 3.4 8.3 5.9 13 5.3 2.1-.3 2.8-3.2 3.4-4.8.6-1.7 1-3.4 1.2-5.1.2 3-.1 6.1-.9 9-.1.2.1.4.3.5 4.5.4 8.9-.3 13-2.2 1.5-.7 3.8-1.6 4.5-3.2.4-1 .3-2.2.4-3.3v-2.3c.9 1.9 1.2 4 1 6.2 0 .3.3.4.5.3 2.8-1.3 4.6-4 5-7 1.2 2.5 3.3 4.5 5.8 5.5.2.1.4-.2.4-.4-.6-1.8-1.6-3.3-2.9-4.6 4.3.2 8.7.2 13.1.1h3.8c6 .1 11.9.1 17.9.2 11.9.2 23.9.4 35.8.7l20.2.6c-.1 2.1-.1 4.3 0 6.4 0 .3.3.4.5.2 1 .1 2-.3 2.9-.6 1.1-.3 2.2-.7 3.3-1 2-.7 4.1-1.3 6.1-2 4.2-1.4 8.5-2.7 12.6-4.2.1 0 .2-.1.3-.2.1-.1.2-.1.2-.3.7-.6.3-.8-.1-1zm-129-11.1c.8 0 1.5.1 2.2.3 1 3.1.7 6.2-.4 9.2h-1.4l.1-.1c.7-3.2.6-6.4-.5-9.4zm-11.8-2.1c1.4.1 2.5.3 3.4 1.6.7 1 1.2 2.2 1.7 3.3 1.1 2.2 2.2 4.4 3.4 6.6.2.3.6.1.5-.2-.7-3.7-1.9-7.2-3.6-10.6 1.2 0 2.8-.1 3.5.8.6.9.8 2.4 1.2 3.4.7 2.2 1.2 4.4 1.7 6.6 0 .1.1.1.1.2-2.6 0-5.3.1-7.9.1-.6-2.2-1.7-4.4-2.8-6.4-1.1-1.9-2.3-3.8-3.7-5.5.7 0 1.6 0 2.5.1zm-3.2-.1c1.4 1.9 2.6 3.7 3.7 5.7s1.8 4.1 2.8 6.2c-1.7 0-3.4.1-5.1.1v-.2c-1.7-4.1-4.2-8-7.4-11 2-.5 4-.8 6-.8zm-9.9 2c.6-.3 1.3-.5 2-.7 3.2 3.1 5.2 6.9 7.4 10.7h-1.7v-.2c-2.2-3.6-4.8-6.9-7.7-9.8zm-3.6 1.4c1.3-.2 2.3.8 3.3 1.6 1 .7 1.9 1.5 2.8 2.3 1.6 1.5 3.2 3 4.6 4.7-1.9 0-3.7 0-5.6.1v-.1c-1.9-2.9-4.5-5.8-7.6-7.4.8-.6 1.6-1.1 2.5-1.2zm-2.8 1.4c2.9 2.1 5.4 4.3 7.4 7.3h-2c-1.2-2.8-3.6-5.2-6-6.9.2-.1.4-.3.6-.4zm-6.9 8.1c2.1 0 4.2 0 6.3-.1-.8 1.4-1.8 2.6-3 3.8-.7-1.4-1.8-2.7-3.3-3.7zm4.1 5.7c-.1-.6-.3-1.1-.6-1.6h.1c1.4-1.1 2.5-2.5 3.3-4.1h1.6c-.6 2.4-2.2 4.5-4.4 5.7zm-4.6-6.4c1.4-1.6 2.8-3.1 4.3-4.6l2.2-2.2c2.4 1.8 4 4.1 5.7 6.6-4 .1-8.1.2-12.2.2zm7.4 8c1.7-2.1 2.4-4.7 2.3-7.3 2.7 0 5.4-.1 8.1-.1-.1.1-.1.1-.1.2.6 2.2.2 4.4-.3 6.5-.2.9-.4 1.7-.7 2.6-.2.8-.5 2.1-1.2 2.7-3.1-.8-5.9-2.4-8.1-4.6zm8.5 4.6c1.1-1.1 1.4-3.5 1.8-4.7.6-2.4 1.1-4.8.5-7.2v-.1h1.5c.4 4.4-.5 8.3-2.3 12.3-.5-.2-1-.2-1.5-.3zm7-5.4c-.4 1.3-.9 2.5-1.4 3.7-.2.5-.5 1.2-.9 1.6-.5.4-1.3.4-1.9.4h-1c2.2-3.6 2.9-8.1 2.5-12.3 1.2 0 2.5 0 3.7-.1 0 2.2-.4 4.5-1 6.7zm.7-7.4v-.2c-1.9-3.9-4.3-7.7-7.6-10.6.4-.1.9-.3 1.4-.4 3 3.4 5.5 7 7.3 11.1-.4.1-.7.1-1.1.1zm.7 12.6c1-3.9 1.1-8 .3-11.9h.1c2.4 0 4.8-.1 7.2-.1v.1c1.4 3.7 1.7 7.4.6 11.2-2.6.6-5.4.8-8.2.7zm8.7-.9c1.1-3.6 1-7.7-.6-11.2h1.5c.5 1.8 1.1 3.4 1 5.4 0 1.8-.3 3.6-.7 5.4-.3.1-.8.3-1.2.4zm8-7.8c0 1.1.1 2.4-.2 3.4-.6 1.8-3.7 2.9-5.4 3.5-.3.1-.5.2-.8.3 1-3.2 1.6-7.7-.3-10.7 2.2 0 4.5-.1 6.7-.1-.1.1-.1.1-.1.3.1 1.1.1 2.2.1 3.3zm-.2-4.2c1.3-2.8 1.5-6 .6-9 .4.1.8.3 1.3.5-.1 0-.1.1-.1.2.5 2.8.3 5.6-.7 8.3h-1.1zm2.6 8.2c.1-2.6-.5-5.2-1.8-7.4l-.1-.1c2.1 0 4.1-.1 6.2-.2.1 3.2-1.6 6.1-4.3 7.7zm-1.1-8.2c1.1-2.6 1.3-5.5.7-8.3 2.8 1.6 4.9 4.5 5.1 7.9 0 .4.6.4.6 0 .1-3.5 3.7-4.8 6.6-5.6-.7 1.9-2.2 3.4-4.2 4-.1 0-.2.1-.2.2h-.6c-.2-.1-.5 0-.5.3v1.4c-2.5 0-5 0-7.5.1zm11.4 6.7c-2.6-1.3-4.5-3.5-5.3-6.3h1.5c0 .5 0 1 .1 1.5 0 .2.1.3.3.3 0 .1.1.3.3.3h.3c1.3 1.3 2.2 2.7 2.8 4.2zm-3.2-4.8c.1-1 0-2 0-3.1 2.5.2 5.1.3 7.6.3-.1.8-.1 1.7 0 2.6-2.5 0-5 0-7.6.2zm9.4-.2h-1.1c.1-.8.1-1.8 0-2.6h1.1c-.1.8-.1 1.7 0 2.6zm2.1 0h-1.6c0-.9.2-1.7.2-2.5v-.1h1.6c-.1.9-.2 1.8-.2 2.6zm2.2-2.5c-.1 0-.2 0-.3.1-.2-.1-.4-.1-.5 0v-.2c.3 0 .5 0 .8.1 0-.1 0 0 0 0zm2.2 2.6c.1-.9.1-1.8.1-2.7h2.4c-.2.9-.1 1.8 0 2.7h-2.5zm3 .1c0-.9.1-1.8.1-2.7h.7c0 .9 0 1.8.1 2.7h-.9zm5.5 0h-4.3c.1-.9.1-1.8.1-2.7 1.4 0 2.9 0 4.3.1-.1.9-.1 1.7-.1 2.6zm48 .9c-15.8-.4-31.7-.7-47.5-.8v-.1l.3-2.6c3.5 0 7 .1 10.5.1 11.9.1 23.7.3 35.6.4h1.2c-.2 1-.3 2-.1 3zm.5 0c.1-1 .1-2 .2-3h.7c.1 1 .1 2 .2 3h-1.1zm2.6.1h-1.1c0-1-.1-2-.1-3h1.3v1.6c0 .4 0 .9-.1 1.4zm6.4.1c.1-1 .1-2.1.1-3.1h2.7c0 1-.1 2.1 0 3.1-.9.1-1.8 0-2.8 0zm6.6-.4v.5c-.7 0-1.4 0-2.1-.1.1-1 .1-2.1.1-3.1v-.1h2.1c0 1.1-.1 1.9-.1 2.8zm3.5-1.7c0 .8 0 1.6-.1 2.4-1 0-1.9-.1-2.9-.1.3-1 .3-2.1.2-3.2h2.2c.2 0 .4-.1.4-.3h.2v1.2zm1-9.1c3.3 1.8 6.7 3.5 10.2 5-1.6 1.3-3.1 2.7-4.6 4-1.8-1.7-3.7-3.5-5.7-5 .1-1.4.1-2.7.1-4zm-.2 9.1c0-1.5.1-3 .1-4.6 1.7 1.7 3.5 3.2 5.2 4.9-.2.2-.4.3-.5.5l-2.9 2.6c-.7.6-1.4 1.2-2 1.8.1-1.7.1-3.5.1-5.2zm5.1 7.6c-1.1.4-2.2.7-3.3 1.1-.7.2-1.5.4-2.1.8.1-1.2.2-2.3.2-3.5.8-.5 1.6-1.3 2.3-1.9 1-.9 2.1-1.8 3.1-2.7.2-.2.4-.3.5-.5 1.7 1.6 3.3 3.3 5 4.8-1.8.6-3.7 1.3-5.7 1.9zm6.4-2.1c-1.5-1.8-3.4-3.5-5.1-5.1 1.5-1.3 3.1-2.6 4.5-4 .1-.1.1-.2.1-.2.3.1.6.3.9.4 1.9.9 3.9 1.7 5.8 2.5 1 .4 2.1.8 3.1 1.2.5.2 1 .4 1.6.6l.9.3c.2.1.4.2.6.2-4.1 1.3-8.2 2.7-12.4 4.1z"/>
  <g id="of_the_lake">
    <path d="M316.3 210.8v.7c0 .2.1.5.2.7-.1.2-.1.3-.1.4-.2.3-.3.6-.4.9-.1.2-.3.5-.5.9l-.2.4c-.2.3-.3.5-.4.7-.1.2-.3.4-.5.7-.3.4-.7.8-1 1-.3.2-.7.4-1.1.6-.7.4-1.4.5-2.2.4l-.7 1c-.1.2-.3.4-.4.5-.2.1-.3.3-.5.5-.4.4-.7.6-1 .7l-.5.2c-.6.2-1.2.2-1.8.1-.2-.1-.3-.1-.5-.1-.1 0-.3 0-.5-.1-.1 0-.2-.1-.3-.2-.1-.1-.2-.1-.3-.2-.2-.1-.5-.2-.7-.4-.2-.1-.5-.3-.7-.4-.3-.2-.6-.5-.9-.8-.3-.3-.5-.6-.7-.9-.2-.3-.4-.6-.5-.9-.1-.3-.2-.6-.4-.9l-.3-1.2c-.1-.4-.1-.8-.2-1.3v-1c0-.7.1-1.5.3-2.3l.3-1 .3-1.1c.2-.7.6-1.4 1.2-2l.9-1c.8-.8 1.7-1.2 2.7-1.4.3-.1.6-.1.9-.1h.9c.1 0 .2 0 .2.1 0 0 .1.1.1.2s0 .1-.1.1l-.9.1c-.2.1-.4.2-.5.3l-1.1 1.2c-.2.3-.5.6-.7.9-.2.3-.4.7-.5 1.1l-.3 1.2-.3 1.2-.1 1.2-.1 2c0 .6 0 1.1.1 1.6s.2 1.1.4 1.6c.1.2.2.5.2.7.1.2.1.5.2.7 0 .2.2.5.4.7l.5.9.4.4c.2.1.3.2.5.2.1.1.3.1.5.1.4-.1.8-.2 1.1-.3.3-.1.7-.3.9-.6.2-.2.5-.4.7-.6s.4-.5.6-.8l.2-.4s-.1 0-.3-.1c-.3-.1-.6-.2-.8-.4-.2-.1-.5-.3-.7-.5-.8-.6-1.3-1.4-1.7-2.1-.3-.8-.6-1.5-.6-2.2-.1-.7-.1-1.3 0-1.9.1-.5.1-.9.2-1.1v-.4c0-.1 0-.2.1-.3 0-.1.1-.2.1-.4.1-.3.3-.7.6-1 .3-.4.6-.6.9-.9.5-.3 1.1-.5 1.6-.4.2 0 .3 0 .4-.1.2 0 .4 0 .6.1l.6.3c.6.3 1 .8 1.3 1.5.4.9.6 1.9.6 2.9 0 .5-.1 1-.2 1.5l-.2 1.1c-.1.3-.2.6-.2.9-.1.3-.1.6-.2.9l-.6 1.6c-.1.1-.2.3-.2.5.1 0 .2.1.5.1.4 0 .7-.2 1.1-.3.4-.2.7-.4 1-.6.1-.2.3-.3.4-.5.1-.2.3-.3.4-.5s.3-.4.4-.6c.1-.3.3-.6.4-.8.2-.4.4-.7.5-1 .1-.3.3-.6.5-1l.7-1.2zm-6.2 6.1l.5-1.3c.1-.4.2-.8.4-1.2.1-.4.2-.8.2-1.2l.3-1.8c.1-.6.1-1.2 0-1.9s-.4-1.4-.7-1.9c-.3-.4-.6-.7-.9-.8-.2 0-.3 0-.4-.1-.3.1-.5.3-.7.7-.2.4-.4.7-.5 1 0 .1-.1.2-.1.4s-.1.3-.1.3c0 .2 0 .5-.1.7 0 .2-.1.5-.1.7l-.1 1.3v.8c0 .3.1.5.2.8 0 .3.1.6.1.9 0 .3.1.6.3.9.2.4.4.7.6 1 .2.3.5.6.9.8l.2-.1z"/>
    <path d="M332 209.3l-.3.9-.3.9c-.1.3-.2.6-.4.9-.1.1-.1.2-.2.3 0 .1-.1.3-.1.3-.2.3-.3.6-.4.9-.1.3-.3.6-.5.9-.1.1-.2.3-.2.5-.3.5-.7 1.1-1.2 1.9-.5.8-1.1 1.5-1.9 2.1-.6.5-1.2 1-2 1.3-.8.3-1.3.5-1.7.6l-.1.1-1.8.5c-.2 0-.4.1-.6.1h-.6l-.6.1.6.7.8 1 .4.5.3.5.4.7c.1.2.2.4.2.5.1.1.1.3.2.5l.8 1.9.7 2.1.4 1.3c.1.3.2.7.2 1s.2.7.2 1.1c.1.4.1.7.1.9 0 .4.1.8.1 1.2v1.2c0 .4.1.8.1 1.2v1.2c0 .5-.1.9-.2 1.3 0 .2-.1.4-.1.5 0 .2-.1.3-.2.5-.2.4-.3.7-.5 1-.2.3-.5.5-.8.7-.1 0-.3.1-.4.1h-.4c-.1 0-.2.1-.3.1-.8-.1-1.5-.5-2.1-1-.2-.2-.4-.4-.5-.7-.2-.3-.3-.5-.5-.8l-.9-1.5c-.2-.5-.4-1.1-.6-1.6l-.3-1.1-.3-1.1c-.1-.3-.1-.7-.2-1 0-.4-.1-.7-.2-1l-.3-1.9c0-.2-.1-.4-.1-.7 0-.3-.1-.6-.1-.8 0-.3-.1-.5-.1-.8l-.1-.9v-2c0-.2-.1-.3-.1-.5V223l.1-1.9v-.4l.1-2.7v-1.8l.2-2v-.6c0-.2 0-.4.1-.6 0-.2 0-.5.1-.9l.2-1.6.4-2.3c0-.2 0-.4.1-.5l.2-1.8.5-2.9.4-2 .3-1.4c0-.2.1-.5.2-.7.1-.2.1-.5.2-.7.1-.3.2-.6.2-.8.1-.3.2-.5.2-.8 0-.4.1-.8.3-1.1.1-.3.3-.7.4-1.1l1-2.7.4-.7.6-1.3.5-.9c.1-.1.1-.2.2-.4 0-.1.1-.2.2-.3.1-.1.2-.2.2-.3.1-.1.1-.2.2-.3.4-.7.9-1.3 1.3-1.9.3-.3.6-.6.8-1 .3-.3.6-.6.9-1 .2-.3.5-.5.9-.7l.6-.3c.2-.1.5-.2.8-.2h.2c.1 0 .1-.1.2-.1l.6.3c.2.1.4.3.5.5.2.2.3.4.3.6 0 .2.1.4.1.6.1.4.2.8.2 1.2v1.3c0 .3-.1.6-.1.9s-.1.5-.2.8l-.2 1c-.1.3-.2.6-.2 1-.1.3-.1.6-.2 1 0 .1 0 .2-.1.3 0 .1-.1.2-.1.3L328 195l-.9 1.9c-.2.4-.4.9-.6 1.3l-.6 1.2c-.2.4-.5.9-.9 1.4l-.9 1.5-.6.9c-.2.3-.4.5-.6.8l-.7 1c-.2.4-.5.7-.9 1-.2.2-.4.5-.6.8-.2.3-.5.5-.7.8l-.7.7c-.1.1-.1.1-.1.2s0 .1-.1.2l-.2 1.6c0 .3-.1.5-.1.8 0 .2-.1.5-.1.8-.1.4-.1.9-.2 1.2 0 .4-.1.8-.1 1.2v6.2c0 .2.1.4.4.4h1c.3 0 .7-.1 1-.2.8-.1 1.4-.3 1.8-.5s.9-.4 1.5-.6c.4-.2.7-.3 1.1-.5.4-.2.7-.4 1-.7.4-.4.8-.8 1.2-1.3.3-.4.7-.9.9-1.2l.1-.1.8-1.4c.2-.3.4-.7.7-1.2.2-.5.4-.8.5-.9l.9-2.1c.2-.3.3-.5.3-.7.1-.1.1-.3.2-.6l.1.1.1.1s0 .1.1.1l-.1.1zm-12.2 14l-1.3-1.5-.1.1v2.3c0 .4 0 .8.1 1.1v1.3s.1.7.1 1.1v1l.2 2c0 .3.1.7.1 1 0 .3.1.7.2 1l.2 1.9.5 2.6c.2.5.3 1 .5 1.5.1.5.3 1 .5 1.5.1.3.2.6.3 1 .1.3.4.6.7.9.1.1.3.2.5.2.2.1.4 0 .5 0 .4-.3.7-.6.7-1 .1-.2.1-.4.1-.6.1-.2.1-.5.2-.7 0-.2.1-.5.1-.7v-3.7c0-.2 0-.3-.1-.4l-.1-1.3-.4-1.7c0-.2-.1-.3-.1-.5s-.1-.3-.2-.5c0-.2-.1-.4-.2-.6-.1-.2-.1-.4-.2-.6-.1-.2-.2-.4-.2-.6-.1-.2-.2-.5-.2-.7-.2-.4-.3-.8-.5-1.2-.1-.4-.3-.8-.5-1.1 0-.2-.1-.3-.2-.4-.1-.1-.1-.2-.2-.4-.1-.3-.3-.7-.5-1l-.5-1.3zm-.4-16.2c.2-.1.3-.2.4-.3.2-.1.3-.3.4-.4.1-.1.2-.3.4-.5 0 0 .1-.1.1-.2s0-.1.1-.2l.9-1 1.8-2.6.6-.9.6-.9c.2-.3.4-.7.6-1.1.2-.4.4-.8.6-1.1.4-.7.7-1.5 1-2.2.3-.7.6-1.5.9-2.3.2-.4.3-.8.5-1.2.1-.4.3-.8.4-1.2.2-.5.4-1.1.5-1.6.3-1.1.4-2.1.5-3 .1-.4.1-.8.1-1.2V184c0-.2-.1-.4-.1-.6 0-.2-.1-.4-.2-.6-.3-.4-.6-.6-1.1-.4-.2.1-.3.2-.5.3-.2.1-.3.3-.4.5v.2c-.4.4-.7.9-1 1.4l-.9 1.5c-.2.4-.4.8-.5 1.2-.1.4-.3.8-.5 1.1l-.8 1.9-1 2.6-.9 3-.4 1.2-.5 2.2-.9 3.7-.2 1.1c-.1.3-.1.6-.2 1 0 .3-.1.6-.1 1l-.2.8zm62.7 5.1c0 .1-.1.2-.1.3 0 0 0 .1-.1.1-.2.5-.4.9-.5 1.2-.2.3-.3.6-.5 1-.1.1-.2.2-.2.4l-.5.8-.3.6c-.1.2-.3.4-.4.6-.3.5-.6 1-1.1 1.5-.4.5-.8 1-1.2 1.3-.2.2-.4.3-.6.4h.1c-.6.4-1.4.6-2.1.6-.8-.1-1.4-.3-1.9-.7-.5-.4-.8-.9-1.1-1.4-.2-.3-.3-.6-.4-1-.1-.3-.2-.7-.4-1 0-.2-.1-.3-.1-.4 0-.1 0-.3-.1-.4-.1-.4-.2-.7-.2-1-.1-.4-.2-.9-.2-1.4-.1-.5-.2-.9-.2-1.4l-.3-1.5c-.2-.6-.4-1.1-.6-1.5-.2-.5-.6-.6-1-.2l-.9.9c-.3.3-.5.7-.7 1.1-.1.2-.2.4-.3.5-.1.2-.2.3-.4.5-.3.4-.5.9-.7 1.4-.2.5-.4.9-.6 1.4-.1.3-.3.5-.4.8-.1.2-.3.5-.4.9l-1 2.6c-.2.3-.3.6-.4.9l-.3.9c0 .2-.2.3-.4.3-.1 0-.2-.1-.3-.2l-.1-.7-.4-.9c0-.3-.1-.6-.2-1l-.2-1-.3-1.6c0-.2-.1-.4-.1-.6 0-.2-.1-.4-.2-.6-.1-.3-.1-.5-.1-.8 0-.2 0-.5-.1-.7l-.2-1.4c-.2.3-.3.7-.5 1.1s-.4.8-.5 1.1-.3.7-.5.9c-.1.3-.2.4-.3.5-.2.4-.4.9-.6 1.4-.2.5-.5.9-.7 1.4l-1.2 2.6c-.2.3-.4.6-.6 1-.2.3-.4.6-.7.9-.5.6-1.1.9-1.8 1.1-.5.1-1 .1-1.4 0-.7-.2-1.3-.7-1.7-1.4-.2-.2-.3-.4-.4-.7-.1-.2-.2-.5-.3-.8-.1-.2-.2-.4-.2-.6-.1-.2-.2-.4-.2-.6-.1-.2-.1-.4-.2-.5 0-.2-.1-.3-.1-.5l-.3-1.9-.2-1.5c0-.3-.1-.6 0-.9 0-.3 0-.6-.1-.9-.1-.5-.1-1-.1-1.5v-2.7s0-.8.1-1.2v-1.6c0-.5 0-1 .1-1.4-.1 0-.2.1-.2.1-.1 0-.1.1-.2.1-.6.5-1.3.9-2 1.2-.3.1-.5.2-.8.3-.2.1-.5.3-.8.3-.2.1-.4.1-.7.1h-1.2c-.4 0-.8-.2-1.2-.5-.8-.5-1.2-1.2-1.2-2.3 0-.4 0-.7.2-.9.2-.2.3-.4.5-.6.1-.1.3-.1.5 0s.3.2.4.4c.1.3 0 .5-.2.6-.2.2-.3.1-.4-.1 0 0 0-.1-.1-.2-.5.5-.5 1.1 0 1.7.6.7 1.3 1.1 2.2 1h.6c.1 0 .3-.1.4-.1.1 0 .3-.1.4-.2.5-.2 1-.4 1.6-.7l1.5-.9c.1-.1.3-.2.4-.3s.3-.2.5-.2c0-.2 0-.4.1-.5 0-.4.1-.7.1-1.1 0-.3.1-.7.2-1.1l.3-2.9.4-2.7.4-2.1c.2-1 .4-1.9.7-2.9l.7-2.2.5-1.4c.3-.6.7-.9 1.2-1.1h.2c.2 0 .3.2.4.4.1.2.2.5.3.7.1.2.2.5.2.8 0 .2 0 .5-.1.9-.1.3-.2.6-.3.8-.1.3-.1.5-.2.8l-.7 2.8c-.2.8-.4 1.5-.5 2.3-.2.8-.3 1.5-.4 2.3l-.3 2.2-.2 1.8.5-.4c.4-.4.9-.7 1.4-1.1l1.4-1.1c.3-.2.6-.4 1-.5.3-.2.7-.3 1-.3.7-.1 1.2.2 1.6.9.2.4.3.9.2 1.3-.1.4-.3.8-.7 1-.1 0-.2 0-.4-.1-.1-.2-.1-.4 0-.5l.1-.1c.3-.2.4-.6.3-1.1-.1-.5-.4-.7-.8-.7-.2 0-.4.1-.6.1-.2 0-.4.1-.5.2-.4.2-.9.4-1.2.7-.4.3-.8.6-1.1.9l-1.6 1.3-.7.5c-.2 1.7-.3 3.4-.4 5.1-.1 1.7-.1 3.4.1 5.1.1 1.3.2 2.6.2 3.8s.3 2.4.8 3.6c.3.9.7 1.6 1.2 2.1.5.4.9.4 1.4-.2.3-.4.6-1 1-1.5l1.2-2.3 1.5-3c.1-.2.2-.5.5-1s.5-1 .8-1.6c.3-.6.5-1.1.8-1.6s.4-.9.5-1.1v-.4c0-.5 0-.9-.1-1.3s-.1-.7-.1-1.1c0-.3-.1-.7-.1-1.1V201c0-.7.1-1.4.2-2 .1-.7.2-1.3.4-2 .1-.6.2-1.3.2-1.9.1-.6.2-1.2.4-1.9l.3-1.5.3-1.3c.1-.4.2-.8.3-1.3 0-.2.1-.3.2-.5s.1-.3.2-.5.1-.3.2-.5c0-.2 0-.3.1-.5s.2-.4.2-.7c.1-.2.2-.4.2-.6.1-.2.1-.5.2-.7l.4-1 .4-.9c.1-.3.2-.6.4-.9.1-.3.3-.6.4-.9.2-.4.4-.9.7-1.3.3-.4.5-.9.8-1.3.3-.5.6-1 .9-1.4.3-.5.6-.9.9-1.3.2-.4.6-.8 1-1.2.3-.3.6-.5.9-.8.3-.2.6-.4 1-.6.3-.1.7-.2 1-.2.3 0 .7 0 1 .2.5.4.8.9 1 1.5.1.4.1.7.1 1.1 0 .3-.1.7-.1 1 0 .2 0 .4-.1.6-.1.2-.1.4-.2.6-.1.3-.2.6-.2.9-.1.3-.2.6-.2.9-.2.4-.3.7-.5 1.1-.1.4-.3.7-.4 1.1-.1.3-.2.7-.4 1-.1.4-.3.7-.4 1 0 .2 0 .3-.1.5-.2.3-.3.6-.4.8s-.2.5-.3.8c-.2.4-.4.7-.5 1.1-.2.4-.3.8-.5 1.2-.1.2-.2.4-.2.5-.1.2-.2.3-.2.5-.2.2-.3.5-.4.8-.1.3-.2.5-.4.8 0 .1-.1.1-.1.2l-.1.1c0 .3-.1.5-.3.7-.2.2-.3.4-.4.6-.2.3-.4.7-.6 1-.2.4-.4.7-.6 1.1-.1.2-.2.4-.3.5-.1.2-.2.3-.3.5-.3.6-.6 1.1-1 1.6-.3.5-.6 1.1-1 1.6-.1.2-.2.3-.2.5-.1.2-.1.4-.1.6 0 .2.1.4 0 .6s-.1.4-.1.6v6.4c0 .3.1.6.1.9 0 .2 0 .5.1.8l.1 1.7c0 .2 0 .4.1.6 0 .2.1.4.1.6l.4 2.2c0 .1.1.3.2.6.1-.2.2-.4.2-.6s.2-.4.3-.6c.1-.2.2-.5.4-.7.1-.2.3-.5.4-.7.2-.3.3-.6.5-1 .2-.3.3-.6.5-1l1.4-2.2 1.3-1.5c.4-.3.9-.5 1.5-.6.3 0 .5.1.8.1.2 0 .4.2.6.4l.7 1.3c.2.5.2 1.1.2 1.8 0 .2 0 .4.1.7 0 .2.1.5.1.7l.1 1.4c0 .4.1.9.1 1.3v1.3c0 .4 0 .9.1 1.3.1.5.2.9.2 1.3.2.6.4 1 .7 1.2.3.2.6.4 1 .5.4 0 .8-.1 1.2-.3.6-.4 1-.7 1.3-1 .3-.3.5-.6.8-.9l.6-.9.7-1.2 1-1.8c.2-.4.4-.7.5-1 .1-.3.3-.6.5-1l.6-1.2s.1 0 .1.1v1.7zm-19.4-14.6l.1.1.4-.5.7-1c.2-.4.5-.8.7-1.2l1.6-2.8c.2-.3.3-.5.4-.8.1-.2.2-.5.4-.8.1-.1.2-.2.2-.3.1-.1.1-.2.2-.3l.5-1c.2-.3.3-.6.4-.9.1-.3.3-.6.4-.9l.9-2.2c.1-.3.2-.5.3-.8.1-.2.2-.5.4-.7.1-.2.1-.3.2-.5 0-.1.1-.3.2-.4l.3-.9c.1-.3.3-.6.3-.9.2-.4.3-.8.4-1.2.1-.4.2-.8.3-1.1.1-.3.2-.6.2-.9.1-.3.2-.6.2-.9.1-.3.1-.6.2-1 0-.3-.1-.6-.2-1-.2-.4-.4-.6-.7-.7-.3-.1-.6 0-.8.2-.1.1-.1.1-.2.1-.2.2-.3.3-.5.4-.2.1-.3.2-.4.4-.2.1-.3.3-.4.4-.1.2-.2.3-.4.5-.3.4-.6.8-.8 1.2l-.6 1.2c-.2.4-.4.9-.6 1.4-.2.5-.4 1-.6 1.4-.1.2-.1.3-.2.5 0 .2-.1.4-.2.6l-.9 2.9-.3 1.3-.3 1.3-.4 1.7c-.1.3-.2.7-.2 1s-.2.7-.2 1c-.1.4-.2.7-.2 1.1-.1.3-.1.7-.2 1.1l-.2 1.8-.4 2.1z"/>
    <path d="M393.2 211.8v.4c0 .1-.1.2-.1.3v.1c-.2.5-.4.9-.6 1.2-.2.3-.3.6-.5.9l-.2.4c0 .1-.1.2-.2.4s-.2.3-.2.4l-.7 1.2c-.3.6-.7 1.1-1.2 1.7l-1.1 1.2c-.8.7-1.7 1-2.6.9-1-.1-1.9-.3-2.8-.8-.2-.1-.4-.3-.6-.4l-.5-.5c-.2-.1-.4-.3-.5-.5l-.3-.6c-.1-.2-.2-.5-.3-.7-.1-.2-.2-.5-.3-.8-.2-.7-.3-1.2-.4-1.6 0-.4-.1-.9-.1-1.4 0-.4-.1-.8 0-1.4s.1-1.1.2-1.4c.1-.4.2-.7.2-1.1s.2-.7.4-1c.2-.4.4-.9.6-1.3.2-.4.5-.8.9-1.2.4-.4.8-.7 1.2-1 .4-.3.8-.5 1.4-.6.4-.1.8-.2 1.2-.2.4-.1.8 0 1.2.2 1.1.4 1.6 1.2 1.6 2.2 0 .5-.1.9-.3 1.4-.1.4-.3.8-.5 1.2-.2.4-.5.8-.9 1.2-.4.3-.7.7-1 1-.3.2-.6.5-.9.7-.3.2-.6.5-.9.7-.4.3-.8.5-1 .5-.2.1-.2.3-.2.4 0 .3.1.6.1.9v.9c0 .4.1.9.3 1.3.1.4.3.9.5 1.3l.4.7c.5.8 1.2 1.2 2.1 1.2s1.6-.4 2.1-1l.9-.9c.3-.3.5-.6.7-1l.7-1.2c.2-.3.4-.6.5-.9.1-.3.3-.6.5-.9l1-1.9.3-.6.3-.6s.1 0 .1.1v.1c0 .1.1.2 0 .2v.2zm-10.3.6s-.1.1-.1.3h.1l.1-.1c.3-.2.6-.4 1-.6.3-.2.6-.4 1-.7.3-.2.6-.5.9-.8.2-.3.5-.5.8-.8.6-.7 1.1-1.5 1.3-2.6.2-.9-.1-1.6-1-2.1-.4-.2-.7-.2-1 0-.6.4-1 .9-1.3 1.5l-.9 1.9c-.1.2-.1.3-.2.4 0 .1-.1.3-.1.4l-.6 3.2zm38.5-31.3v2.4c0 .4-.1.7 0 1.1v1.1l-.4 2.4-.2 1.3c-.2 1.5-.5 3-.9 4.5-.1.2-.2.5-.2.7-.1.2-.1.5-.2.7-.1.5-.2 1-.4 1.5-.1.5-.3 1-.4 1.6-.1.3-.2.6-.3 1-.1.3-.2.6-.4 1s-.3.7-.5 1.1c-.1.4-.3.7-.4 1.1l-.3.5-.5 1.5c-.1.3-.2.6-.4.9-.2.3-.4.6-.5.9-.1.2-.2.3-.2.5-.1.1-.1.3-.2.5-.2.3-.3.6-.5.8-.2.3-.3.6-.5.9-.2.4-.5.8-.7 1.2-.2.4-.5.8-.7 1.3-.1.2-.1.4-.1.5s0 .3.1.5c0 .2 0 .4.1.5 0 .2.1.3.1.5s.1.3.1.5v.5c0 .4 0 .7.1 1.1.1.4.2.7.2 1 .1.7.3 1.4.4 2 .2.6.3 1.3.5 2 .2.8.4 1.6.7 2.4.2.5.5 1 1 1.3.2.2.4.3.7.3.3 0 .5-.1.7-.2.4-.3.8-.7 1-1.2.2-.5.4-1 .5-1.5 0-.2.1-.3.1-.5s0-.3-.1-.5c0-.2 0-.5.2-.8l.2-.2c.1 0 .1.1.2.2s.1.3.1.7c-.1.4-.2.8-.2 1.2-.1.4-.2.8-.4 1.2-.1.2-.2.5-.3.8s-.2.5-.4.7l-.6.5c-.2.1-.4.2-.5.3-.1.1-.3.2-.5.2s-.3-.1-.5 0h-.4c-.8-.2-1.5-.6-2.1-1.1-.3-.3-.5-.6-.7-1-.2-.6-.5-1-.8-1.4l-.3-.6c-.1-.2-.1-.4-.2-.6-.2-.7-.4-1.3-.6-1.7-.3-1-.6-2-.8-3s-.3-2-.5-3.1c-.1-.6-.2-1.1-.2-1.7-.1-.5-.1-1.1-.2-1.7-.1-.8-.1-1.6-.1-2.6 0-.1 0-.2-.1-.2-.2-1.1-.3-2.1-.1-3.2v-1.9s0-.5.1-.7c.1-.4.2-.9.2-1.4 0-.5 0-.9.1-1.4.1-.6.2-1.2.2-1.8l.3-1.8c.1-.3.1-.6.2-.9 0-.3.1-.6.1-.9l.2-1.2.6-2.7.5-1.8.5-1.2c.4-1 .9-2 1.5-3.1.1-.2.2-.5.3-.7.1-.2.3-.5.5-.7.4-.6.9-1.1 1.4-1.6.5-.5 1-1 1.7-1.3.6-.4 1.3-.6 2.1-.6.5 0 .9.2 1.1.6.1.2.2.4.4.6.1.2.2.4.2.7 0 .1 0 .2.1.3 0 .1.1.2.1.3 0 .1 0 .2.1.3v.3zm-.7 1.9v-.4c.1-.4.1-.9 0-1.4-.1-.5-.2-1-.3-1.4-.1-.2-.2-.3-.3-.5-.1-.1-.2-.3-.3-.5l-.1-.1h-.7c-.2 0-.4.1-.6.3-.4.3-.7.6-.9 1l-.6 1.2c-.2.4-.4.7-.6 1.1-.2.4-.3.8-.4 1.2 0 .1 0 .2-.1.2l-.4 1c-.1.2-.2.5-.2.7-.1.2-.1.5-.2.7-.3.8-.5 1.5-.7 2.1v.1l-.2 1.3-.3 1.5c-.1.5-.3 1-.3 1.5-.1.5-.2 1-.2 1.5s-.1 1-.2 1.5l-.1 1.5-.4 3.2c0 .2-.1.4 0 .6v.6c0 .4-.1.7-.1 1.1s0 .7.1 1.1v.3c-.1.4-.1.7-.1 1v1.6c0 .6.1 1.1 0 1.7 0 .6.1 1.1.2 1.7l.1-.1c.2-.3.4-.7.6-1.1.2-.4.4-.8.6-1.1.3-.4.6-.9.9-1.4s.5-1 .7-1.5c.4-.8.7-1.6 1.1-2.5.3-.9.7-1.7 1-2.6l.4-.9c.1-.2.1-.3.2-.5s.1-.3.2-.5.2-.5.2-.7c.1-.2.1-.5.2-.7 0-.4.1-.7.2-1 .1-.3.2-.6.3-1 .2-.6.3-1.1.3-1.5l.3-1.7.3-1.7c.1-.2.1-.4.2-.6 0-.2 0-.4.1-.6l.1-.7.2-1.5.2-2.4v-.3c-.4-.1-.4-.2-.4-.4zm18.4 29.2c0 .1-.1.2-.1.3 0 0 0 .1-.1.1-.2.5-.4.9-.5 1.2-.2.3-.3.6-.5 1-.1.1-.2.2-.2.4l-.5.8-.3.6c-.1.2-.3.4-.4.6-.2.3-.4.6-.7 1.1-.3.4-.6.8-.8 1l-1.1 1.3-.2.2c-.2.3-.5.6-.8.9-.3.2-.6.4-.9.5-.3.1-.6.1-1 0-.3-.1-.6-.4-.9-.9-.2-.4-.4-.9-.6-1.3s-.3-.9-.4-1.3c-.1-.3-.1-.6-.1-.9 0-.3 0-.6-.1-.9l-.3.2c-.3.2-.6.5-.9.8s-.5.5-.9.7c-.4.2-.7.5-1.1.6-.4.2-.8.3-1.2.4-.1 0-.2.1-.4 0h-.3c-.4-.1-.7-.1-.9-.1-.2-.1-.4-.2-.5-.3-.2-.1-.3-.2-.5-.3-.3-.3-.6-.6-.8-.9-.2-.3-.3-.7-.4-1.2 0-.2-.1-.3-.2-.5-.1-.1-.1-.3-.2-.5-.1-.6-.2-1.1-.1-1.7 0-.6.1-1.1.1-1.7.1-.7.2-1.3.5-1.9s.5-1.2.9-1.8c.4-.6.9-1.3 1.6-1.9.4-.4.9-.7 1.4-1 .5-.2 1-.4 1.6-.4.5 0 1.1.1 1.8.5.4.2.8.5 1.1.9.3.3.5.7.7 1.2 0 .1 0 .1.1.1l.1.1.2-.3c.2-.6.4-1.1.7-1.6.1-.3.3-.4.6-.2l.4.2.4.2-.3 2.6c-.1.6-.2 1.1-.2 1.7-.1.5-.2 1.1-.2 1.7 0 .4-.1.7-.2 1.1-.1.3-.1.7-.2 1.1 0 .4-.1.7-.1 1.1v1.1c0 .5.1 1 .1 1.5s.1 1 .2 1.5c.2.6.5 1 .9.9.4 0 .7-.2 1-.5.3-.4.7-.8 1-1.2.3-.4.5-.6.5-.7.3-.3.5-.5.5-.6.1-.1.2-.3.4-.6l.7-1.2 1-1.8c.2-.4.4-.7.5-1 .1-.3.3-.6.5-1l.6-1.2s.1 0 .1.1.1.2 0 .2 0 .2 0 .2v.7zm-9.4-2.4c.1-.5 0-1-.2-1.4-.1-.2-.2-.4-.3-.5-.1-.2-.2-.3-.3-.5l-.3-.3c-.1-.1-.2-.2-.3-.2-.2-.1-.4-.2-.5-.3-.1-.1-.3-.1-.5-.1-.7 0-1.2.3-1.6 1-.7 1.2-1.2 2.6-1.5 4.1l-.3 1.8c-.1.6-.1 1.2-.1 1.9v.4c-.1.8.1 1.6.7 2.4.3.4.7.5 1.2.3.2-.1.5-.2.6-.3.2-.1.4-.3.6-.5.6-.4 1.1-.9 1.5-1.3.4-.4.6-1 .7-1.5-.1-1.6.2-3.3.6-5z"/>
    <path d="M460.1 211.8v.8l-.1.5c-.2.5-.4.9-.5 1.2-.2.3-.3.6-.5.9-.1.2-.2.3-.2.4l-.5.9-.7 1.1c-.2.4-.5.9-.9 1.3-.1.2-.2.4-.3.5-.1.2-.2.3-.4.5-.2.3-.5.6-.7.9l-.6.9c-.5.7-1.1 1.2-1.7 1.6-1.5.9-3 .9-4.6.2-.2-.1-.4-.2-.6-.4-.2-.2-.3-.4-.5-.6-.3-.5-.6-1.2-.8-1.9-.1-.2-.1-.3-.1-.5 0-.1 0-.3-.1-.5l-.3-2.6c0-.2-.1-.4 0-.6v-1c0-.1-.1-.3-.1-.4-.1-.2-.2-.5-.2-.9-.1-.6-.5-1-1-1.2-.1 0-.2-.1-.3 0h-.4l-.2.2s-.1.1-.2.1c0 0-.1-.1-.1-.2.1-.4.4-.8.9-1 .2-.1.5-.2.8-.3.3-.1.5-.2.8-.2.3-.1.6-.2.9-.2.3-.1.6-.2.9-.4.3-.1.6-.3.9-.5.3-.2.5-.4.8-.6.3-.2.5-.4.7-.6.2-.2.4-.5.6-.7.3-.3.5-.6.7-1 .3-.5.4-1.1.2-1.6l-.1-.9c-.1-.4-.3-.7-.7-.9-.2-.2-.5-.2-.8-.2-.2.1-.3.1-.5.1-.1 0-.3 0-.5.1-.4.2-.9.5-1.3.9-.2.2-.4.3-.6.5l-.6.6c-.2.2-.3.4-.5.5-.1.2-.3.3-.4.5l-1.1 1.8c-.1.2-.2.4-.5.7l-.8 1.5-1 1.8c-.1.3-.3.6-.4.9-.1.3-.3.6-.4.9-.2.4-.4.9-.5 1.3-.1.4-.3.9-.4 1.3l-.5 1.5c-.1.2-.2.2-.3.2-.1.1-.2 0-.3-.2-.1-.2-.2-.4-.2-.6 0-.2-.1-.4-.1-.6-.3-1.4-.5-2.9-.6-4.3l-.3-4.3c0-.2-.1-.4 0-.6v-1.9l-.1-2.1v-2.1l.2-2.6v-2.4c.1-.3.1-.5.2-.8s.1-.5.1-.8l.4-2.2v-.1c-.1-.2-.1-.4 0-.6.1-.2.1-.4.2-.6l.2-1.3c0-.2 0-.3.1-.3l.5-2.4c.1-.2.2-.5.2-.8.1-.3.1-.5.2-.8l.6-1.8c.2-.5.4-1 .6-1.4.2-.4.4-.9.7-1.3.1-.2.2-.4.4-.7.1-.2.3-.5.4-.7.1-.2.3-.4.4-.5l.5-.5c.3-.4.6-.7 1.1-1.1.1-.1.2-.1.3-.2.1 0 .2-.1.3-.2.2-.1.4-.2.7-.2.2 0 .5-.1.7-.1.4 0 .7.1 1 .4l.4.4c.1.1.2.3.3.4.2.4.4.9.5 1.2.1.3.2.7.2 1.2.1.2.1.4.2.7s.1.5.1.7v2.2s0 .7-.1 1c0 .3 0 .6-.1 1-.1.3-.1.6-.2 1 0 .2-.1.4-.1.7l-.2 1c0 .2 0 .4-.1.5-.1.2-.1.3 0 .5 0 .1 0 .3-.1.5s-.1.4-.2.7c0 .2-.1.5-.2.7l-.2.6-.3 1.4-.1.1-.7 1.7-.5 1c-.1.3-.2.6-.4.9-.1.3-.3.6-.4.9l-1.5 2.9-.7 1.4c-.1.1-.2.2-.2.4-.1.1-.1.3-.2.4-.2.2-.3.5-.4.8-.1.3-.2.5-.4.8l-.7 1.2-.7 1.2c0 .1-.1.2-.1.2 0 .1-.1.1-.1.2-.1.2-.2.3-.2.5v.5l.1.9.2 1.8.1 1.1.1.1.5-1.1.6-1 .5-.9c.1-.2.3-.5.4-.7.1-.2.3-.5.5-.7l.7-1.3c.1-.2.2-.3.3-.5.1-.1.3-.3.4-.5.2-.3.4-.5.6-.8s.4-.5.6-.7l.5-.5c.2-.2.4-.3.6-.5.2-.2.4-.3.6-.5l.6-.3c.2-.1.4-.2.6-.2.2-.1.4-.1.6-.2.2 0 .4-.1.6-.1.3 0 .5 0 .7.1.4.1.9.2 1.2.4.2.2.5.5.8.7.3.2.4.5.5.9l.1 1v.8c0 .3-.1.5-.2.7-.1.2-.2.3-.3.5-.1.1-.2.3-.3.5-.4.5-.9.9-1.6 1.3-.3.2-.6.3-.9.4-.3.1-.6.2-.9.4l-1.7.7-1.2.4c-.1 0-.2.1-.4.1l.6.3c.3.2.6.5.9.8.3.3.5.6.7 1s.3.8.4 1.2l.3 1.2c.1.3.1.6.2.8 0 .3.1.5.1.8.1.3.1.6.2.9 0 .3.1.6.2.9.1.4.2.9.3 1.5.1.6.2.9.2 1 .3.6.6.9 1.1.8.4-.1.9-.3 1.3-.7.5-.4.9-.9 1.3-1.4.4-.5.8-1 1-1.4.3-.4.6-.8.9-1.3.3-.4.6-.8.8-1.2.1-.2.2-.4.4-.6l.3-.6c.2-.3.4-.6.5-.9.1-.3.3-.6.5-.9.2-.3.4-.6.5-.9.1-.3.3-.6.5-1l.6-1.2s.1 0 .1.1v.5zm-19.7-4.2c0 .1 0 .2.1.3.1-.2.3-.5.4-.7.1-.2.3-.4.3-.6.2-.3.3-.5.5-.8.1-.2.3-.5.4-.8l1-1.9.5-.9c.1-.2.2-.3.3-.4.1-.1.2-.3.3-.5l.3-.6.3-.6c.1-.2.2-.5.3-.7.1-.2.3-.5.4-.8l.4-.9c0-.1.1-.2.2-.3.1-.1.1-.2.2-.3.1-.3.2-.5.4-.8.1-.2.2-.5.3-.8l.2-.7.6-2.4.6-2.6.2-.9c0-.3.1-.5.1-.8v-.8c.1-.4.1-.7.2-1.1 0-.4.1-.8.1-1.1V184c0-.4-.1-.8-.1-1.1 0-.3 0-.5-.1-.6-.1-.2-.1-.4-.2-.6 0-.2-.1-.4-.1-.6-.1-.5-.3-1-.6-1.5-.2-.4-.5-.5-.9-.5-.4.1-.7.2-.9.5-.6.6-1.2 1.4-1.6 2.4-.2.4-.4.8-.5 1.2-.1.4-.3.8-.5 1.2-.2.6-.4 1.1-.5 1.6l-.7 3c-.1.3-.1.6-.2.8 0 .3-.1.5-.1.8-.1.2-.1.5-.2.7 0 .2-.1.5-.1.8l-.2.9-.2 1.9-.4 2.4v.6c-.1.4-.1.8-.2 1.2 0 .4-.1.8-.1 1.2v.6l-.2 2.7v4z"/>
    <path d="M473.1 211.8v.4c0 .1-.1.2-.1.3v.1c-.2.5-.4.9-.6 1.2-.2.3-.3.6-.5.9l-.2.4c0 .1-.1.2-.2.4s-.2.3-.2.4l-.7 1.2c-.3.6-.7 1.1-1.2 1.7l-1.1 1.2c-.8.7-1.7 1-2.6.9-1-.1-1.9-.3-2.8-.8-.2-.1-.4-.3-.6-.4l-.5-.5c-.2-.1-.4-.3-.5-.5l-.3-.6c-.1-.2-.2-.5-.3-.7-.1-.2-.2-.5-.3-.8-.2-.7-.3-1.2-.4-1.6 0-.4-.1-.9-.1-1.4 0-.4-.1-.8 0-1.4s.1-1.1.2-1.4c.1-.4.2-.7.2-1.1s.2-.7.4-1c.2-.4.4-.9.6-1.3.2-.4.5-.8.9-1.2.4-.4.8-.7 1.2-1 .4-.3.8-.5 1.4-.6.4-.1.8-.2 1.2-.2.4-.1.8 0 1.2.2 1.1.4 1.6 1.2 1.6 2.2 0 .5-.1.9-.3 1.4-.1.4-.3.8-.5 1.2-.2.4-.5.8-.9 1.2-.4.3-.7.7-1 1-.3.2-.6.5-.9.7-.3.2-.6.5-.9.7-.4.3-.8.5-1 .5-.2.1-.2.3-.2.4 0 .3.1.6.1.9v.9c0 .4.1.9.3 1.3.1.4.3.9.5 1.3l.4.7c.5.8 1.2 1.2 2.1 1.2s1.6-.4 2.1-1l.9-.9c.3-.3.5-.6.7-1l.7-1.2c.2-.3.4-.6.5-.9.1-.3.3-.6.5-.9l1-1.9.3-.6.3-.6s.1 0 .1.1v.1c0 .1.1.2 0 .2v.2zm-10.3.6s-.1.1-.1.3h.1l.1-.1c.3-.2.6-.4 1-.6.3-.2.6-.4 1-.7.3-.2.6-.5.9-.8.2-.3.5-.5.8-.8.6-.7 1.1-1.5 1.3-2.6.2-.9-.1-1.6-1-2.1-.4-.2-.7-.2-1 0-.6.4-1 .9-1.3 1.5l-.9 1.9c-.1.2-.1.3-.2.4 0 .1-.1.3-.1.4l-.6 3.2z"/>
  </g>
  <g id="ThePrincess">
    <path d="M127.9 107.6c-.1 2.1.1 4.2.5 6.2.2.7-1.1 1.1-1.2.4-.4-2-.6-3.9-.5-6-2.9 2.6-6.4 3.9-10 4.8v.1c1.8 13.9 4.5 26.3 8.5 39.8 1.3-.5 2.7-1 4-1.5.7-.2 1.1.9.3 1.1-5.1 1.6-10.2 3.9-15 6.4.1.4-.5.7-.9.5-1.7 1-3.4 1.9-5.1 2.9-.6.4-1.3-.5-.7-1 1.7-1 3.4-2 5.1-2.9-6-13.1-10.4-26.9-12.9-41.1 0-.1 0-.2.1-.3-1.8.8-3.6 1.8-5 3.1-2.6 2.4-4.2 5.5-4.4 8.8 0 .1 0 .3-.1.4.6.6 1.1 1.2 1.6 1.8.5.6-.6 1.3-1.1.7l-3.9-4.5c-.5-.6.6-1.2 1.1-.7.4.5.8 1 1.3 1.5.9-6.1 5.9-10.8 12.2-13 8.2-2.7 17.9-2 24.6-8.2.4-.4.9 0 1 .1.1.1.5.2.5.6z"/>
    <path d="M179.2 125.8l-5.6 1.2c1.2 3.7 2.4 7.4 3.9 11 .1.4-.1.7-.5.8 0 .1.1.1.1.2 1.2-.4 2.5-.8 3.7-1.1.8-.2 1 .9.2 1.1-4.3 1.2-8.6 2.7-12.7 4.4.1.3.3.7.4 1.1.2.6-.9.9-1.2.3l-.3-.9c-.8.4-1.7.8-2.6 1.1-.7.3-1.2-.7-.5-1 1-.4 1.9-.8 2.8-1.2-1.5-4.3-2.9-8.6-4.1-13.1-3.7 1-7.4 2.1-11 3.3 1.2 4.5 2.7 8.8 4.8 13.1 1.5-.4 3.1-.8 4.7-1.1.7-.2 1 .9.3 1.1-1.5.4-2.9.7-4.4 1.1.3.6-.7 1.1-1.1.5v-.2c-5.1 1.4-10.2 3.2-15.1 5.3-.7.3-1.3-.7-.6-1 .9-.4 1.9-.8 2.8-1.2-.2 0-.4-.1-.4-.4-1.2-4.1-2.3-8.1-3.5-12.2-5.1 2.5-9.9 5.7-13 10.3-.4.6-1.5.1-1.1-.5 2-3 4.9-5.5 8-7.6 1.8-1.2 5.5-2.7 5.8-3.4 1.8-3.8-4.7-21.9-6.4-33.1-1.3.3-2.6.6-3.8.9-.8.2-1.1-.8-.3-1.1 1.4-.4 2.8-.8 4.2-1.1.2-.2.6-.2.8-.1 1.9-.4 3.8-.7 5.8-1 2.1-.3 4.2-.4 6.4-.7v-.1c-.1-.8 1.2-1.1 1.2-.3 0 .1 0 .2.1.2 1.2-.2 2.4-.4 3.6-.8.7-.2 1 .9.3 1.1-1.2.4-2.5.7-3.7.8 1.1 10 2.1 20.3 4.5 30.2.8-.3 1.5-.5 2.3-.7 2.8-.9 5.8-1.8 8.7-2.6-2.3-8.5-3.9-17.1-4.9-25.8 0 0 0-.1.1-.1-1.3.4-2.7.8-3.9 1.1-.8.2-1.1-.9-.3-1.1 5.2-1.6 10.8-2.7 16.1-3.7.8-.2 1 1 .2 1.1-.4.1-1 .2-1.5.3.1 0 .2.2.2.4.6 8.5 2.2 17 4.6 25.2l5.7-1.2c.7-.1.9 1 .2 1.2z"/>
    <path d="M210.3 90.7c.2 2.3.1 4.6-.2 6.9-.1.7-1.3.6-1.3-.1.3-2.1.3-4.2.2-6.3-5.1.1-10.3.4-15.4 1.1-.2 6.6.1 13.1.7 19.6 3.1-.8 6.3-1.4 9.5-1.7.8-.1 1 1.1.2 1.2-3.2.3-6.4.8-9.6 1.7.7 8.1 2 16.1 3.6 24.1 4.6-1.3 9.2-2.6 13.9-3.5h.1c-.4-2.1-.4-4.2-.2-6.3.1-.7 1.3-.6 1.2.1-.4 2.7-.2 5.4.5 8 .2.7-.9.8-1.1.2-.1-.3-.1-.6-.2-.9h-.1c-4.7.9-9.3 2.1-13.9 3.5.3 1.3.5 2.6.9 3.9.2.7-1 .9-1.2.2-.3-1.2-.6-2.5-.8-3.8h-.2c-3.4 1-6.9 2.1-10.2 3.3h-.1c-1.5.6-3.1 1.2-4.7 1.9-.7.3-1.2-.7-.5-1 1.4-.6 2.8-1.2 4.3-1.7-1.8-7.1-3.2-14.2-4.2-21.5-.9.8-1.6 1.6-2.3 2.6-.7 1-1.7 2.4-1.6 3.6.1.8-1.1 1-1.2.2-.3-2.2 1.7-4.7 3.2-6.4.5-.5 1-1 1.6-1.5-1-7.9-1.7-15.9-1.8-23.8-2 .4-4.1.9-6 1.3-.8.2-1.1-1-.2-1.2 2.1-.5 4.4-1 6.6-1.4h.1c4.1-.8 8.2-1.5 12.4-2 .2-.3.7-.3.9-.1 5.3-.6 10.6-1 15.9-1.1.2 0 .4.2.5.2.2.3.7.4.7.7zm50.5 14.5c-2.1 5.6-7.4 9.4-13.2 10.8.8 4.8 1.8 9.5 3.1 14.2 1.4 0 2.9.1 4.2.2.7 0 .5 1.2-.2 1.1-1.2 0-2.5-.1-3.7-.1 0 .1.1.2.1.3.2.7-.9 1.1-1.1.4-.1-.2-.2-.5-.2-.7-4.1 0-8.3.4-12.4 1.1-.7.1-.8-1.1-.1-1.2 1.1-.2 2.3-.3 3.4-.5-.1 0-.2-.2-.2-.4-.9-4.6-.8-12.6-2.1-14-.2-.2-.6-.9-.1-1.2-1.1-9.6-1.6-19.6-1.2-29.2-3.1.5-6.1 1.3-8.8 2-.8.2-1.3-.9-.4-1.1 6.9-1.9 14.2-3.7 21.3-2.1 4.9 1.1 9 3.8 11.2 8 1.7 3.8 1.9 8.4.4 12.4zm-2.6-13.3c-2.8-4.1-7.1-5.9-11.9-6.4.1.1.1.2.1.3-.9 9.4-.6 19.7 1 29 1.8-.5 3.5-1.2 5.1-2.1 3.7-2.2 6.5-5.5 7.5-9.6 1-3.6.5-7.9-1.8-11.2z"/>
    <path d="M296.1 128.9c-2.3-.2-4.6.2-6.9 1-.7.2-1-.9-.3-1.1.9-.3 1.9-.6 2.8-.8-.9-5.8-2.9-11.5-5.9-16.6-2 .8-4.1 1.1-6.2 1.1 0 5.2.3 10.4 1 15.5v.3c.6-.2 1.3-.3 1.9-.2.8.1.4 1.2-.3 1.1-.7-.1-1.8.4-2.6.7-.7.2-1.4.5-2.1.8-1.3.4-2.7.9-4 1.3-2.7.9-5.5 1.9-8.3 2.9-.7.3-1.1-.8-.4-1.1l5.1-1.8c-.1-.1-.1-.2-.2-.3-4.2-16.2-4.9-29.7-2.2-46.3-1.9 0-3.8 0-5.6-.1-.8 0-.9-1.2-.1-1.1 1.9.1 4 .1 5.9.1.2-.4.9-.3 1.1 0 4.5 0 9-.2 13.5-.6.4-.1.6.2.6.4 3.1-.1 6.1 1 8.3 2.9 4.9 4.2 5 10.7 2.5 16.1-1.3 2.8-3.3 5.7-6.1 7.4-.2.2-.4.3-.7.4 3.1 5.2 5.1 10.9 6 16.9 1-.1 2.1-.2 3.1-.1.8 0 .8 1.2.1 1.2zm-9.8-19c.9-.5 1.8-1.1 2.6-1.9 2.6-2.6 4.4-6.1 5-9.6.6-3.5-.3-7.1-2.8-9.8-2-2.1-5-3.5-8.1-3.4-2.3 8.6-3.4 17.3-3.5 26 2 0 3.9-.3 5.7-1-.3-.5.7-1 1.1-.3 0-.1 0-.1 0 0zm32 19.8c-1 .1-1.9.3-3 .4-.1.1-.4.1-.5 0-3.7.4-7.4.5-11.1.4-.2.1-.5 0-.7-.1-1-.2-2.7-.1-4-.3-.8-.1-.8-1.2 0-1.1l3.7.3c-.8-7-1-13.9-1-20.8 0-7.1.4-14.4 1.5-21.5 0-.1.1-.2.1-.3-1.2.2-2.4.2-3.6.4-.8.1-.8-1.1 0-1.1 6.6-.7 13.3-1.5 20-2.2.8-.1 1.1 1.1.3 1.1l-2.9.3c.1.1.1.2.1.4-2.4 14.3-3 28.9-1.8 43.3l2.5-.3c.9-.1 1.1 1 .4 1.1z"/>
    <path d="M367.9 89.7l-3.8-.9v.1c-3.4 14.3-7.3 28.5-11.6 42.6 1 .2 2.1.6 3 1.1.6.3-.1 1.3-.7.9-.9-.5-1.9-.8-2.8-1-.3.1-.5 0-.7-.1-.8-.3-2.1-.2-3.1-.3-2.4-.1-4.9-.1-7.3 0-.8.1-1-1.1-.2-1.1.4 0 .7-.1 1.2 0 .7-4.1 1.6-8.1 2.4-12.1-.7-4.6-1.5-9.2-2.7-13.8-.8-3.4-1.7-6.9-2.6-10.3-.2-.8-.5-1.6-.7-2.4.1 13.1-1.1 24.9-3.1 37.8.7.1 1.3.1 1.9.2.8.1.7 1.3-.1 1.2-4.5-.6-9.2-.7-13.8-.3-.1.1-.3 0-.5 0-1.5.1-3.1.3-4.5.5-.8.1-1-1-.3-1.1 1.4-.2 3-.4 4.4-.5 1.6-7.4 2-15.1 2.1-22.6.1-7.2.5-14.8-1.9-21.9h-.1l-5.5.6c-.8.1-1.1-1-.3-1.1 7.4-.7 14.8-2.2 22.3-1.7.8.1.8 1.2-.1 1.2-.6 0-1.3-.1-2-.1l.3 1.2c1.3 2.7 1.9 5.5 2.7 8.3.9 3.5 1.9 7 2.7 10.5.9 3.7 1.6 7.3 2.3 11 1.9-9.3 3.9-18.5 6.1-27.7-2.5.1-4.9.3-7.3.7-.8.1-1-1-.2-1.2 8.2-1.4 16.7-.9 24.9 1.3.9.1.4 1.2-.4 1zm32.3 5c0-.1.1 0 .1-.1h-.1c-2.6-2.8-6.5-3.9-10.3-3.9-2.6 2.9-4.8 6.1-6.6 9.4-3.3 6-5.3 12.4-6.2 19-.5 3.4-.7 6.9-.5 10.3.1 1.6.2 3.3.4 4.9.2 1.3.5 3.1 1.8 3.5 4.1 1.3 9.8-.1 14.1-2.5 0-.1.1 0 .1 0 .2-2.9.8-5.8 1.3-8.6.1-.7 1.3-.5 1.2.2-.7 2.9-1.1 5.8-1.3 8.8 0 .2-.2.4-.4.5 0 .1-.1.1-.2.1-4.5 2.5-9.6 3.7-14.6 2.8h-.3c-.1 0-.2 0-.3-.1-1.8-.4-3.6-1-5.4-2-2.5-1.4-4.6-3.4-6.1-5.8-1.7-2.9-2.3-6.4-2.2-9.7.1-7.2 2.5-14.8 6.3-21 3-5 7.5-8.8 13.7-10.2 1.4-.3 3-.5 4.4-.5v-.1c.3-.3.8-.2 1 0 4.1.1 8.2 1.4 11 4.3.2.1.2.3.2.5.1.1.2.3.1.5-.5 1.6-1.1 3.3-1.4 5-.1.7-1.4.5-1.2-.2.5-1.7.9-3.4 1.4-5.1z"/>
    <path d="M439.2 101.4c-.7 2.2-1.6 4.3-2.6 6.3-.4.6-1.5.1-1.1-.6 1-1.9 1.8-3.8 2.4-5.8-4.8-1.7-9.8-3.3-14.8-4.6-2.5 6.1-4.6 12.3-6.4 18.6 3.2.4 6.4 1 9.4 1.9.8.2.5 1.4-.3 1.1-3.1-.9-6.3-1.5-9.5-1.9-2.2 7.8-4 15.8-5.3 23.8 4.7.4 9.5.9 14.3 1.8 0 0 .1 0 .1.1.4-2.1 1.1-4 2.1-5.9.3-.6 1.4-.1 1.1.5-1.3 2.4-2.1 5-2.4 7.6 0 .7-1.2.4-1.1-.3 0-.3.1-.6.1-.9h-.1c-4.7-.8-9.5-1.4-14.3-1.7l-.6 4c-.1.7-1.3.5-1.2-.2.2-1.3.4-2.6.6-3.8h-.2c-3.6-.3-7.2-.6-10.7-.7h-.1c-1.7 0-3.4 0-5 .1-.7.1-.8-1.1-.1-1.2 1.5-.1 3.1-.1 4.6 0 .9-7.3 2.1-14.4 3.8-21.6-1.1.4-2.1.9-3.1 1.6-1 .7-2.4 1.6-2.8 2.8-.2.7-1.3.5-1.2-.2.5-2.2 3.3-3.8 5.3-4.8.6-.3 1.3-.6 2-.8 1.9-7.7 4.2-15.4 7-22.8l-6.1-.9c-.8-.1-.6-1.3.2-1.2 2.2.3 4.5.7 6.7 1.1h.1c4.1.7 8.2 1.6 12.3 2.6.3-.2.7 0 .9.2 5.1 1.4 10.3 2.9 15.2 4.8.2.1.3.3.4.4.1.1.5.4.4.6zm29.3 25.8c-2.3-.7-4.8-1.2-7.2-1.2-.8-.1-.8-1.2-.1-1.2 1.5.1 4 .7 4.4.5 1.4-.8 2.8-10.3-.1-15.2-1.3-2.1-3.2-3.8-5.6-4.8-5.7 6.7-9.5 17.7-9.2 26.5 1.4.9 2.7 1.9 4.1 2.9 3.2 2.4 5.7 5.7 4.9 9.7-.7 3.4-3.8 5.9-7.2 6.6-3.4.6-6.9-.3-10-1.7-2.8-1.3-5.6-3.3-7.5-5.7-2-2.7-2.1-6.1-1.8-9.2l-2.4-.6c-.7-.2-.5-1.3.3-1.1 1.9.5 3.9 1 5.8 1.4.7.2.4 1.3-.3 1.1l-2.2-.6c-.3 3.7.1 7.2 3.1 9.9 1.3 1.2 2.9 2.4 4.5 3.3.1-.1.2-.1.4-.2 3.3-.1 6.3-1.7 8.1-4.4 1.5-2.3 3.1-6.4 1.4-9l-2.1-1.5c-.1 0-.1 0-.2-.1-3.1-2.2-6.2-4.6-8.5-7.5-2.5-3.1-4.1-7.4-3-11.2 1.1-3.9 4.7-6.8 8.5-8.5 3.8-1.8 8.6-2.7 13-1.2.3 0 .5.1.7.3 3.7 1.5 6.5 4.8 7.6 8.3 1.4 4.3.2 8.8-1.1 13 .7.1 1.4.3 2 .5.8.1.5 1.2-.3.9z"/>
    <path d="M500.5 137.7c-2.3-.8-4.7-1.4-7.2-1.6-.8-.1-.8-1.3 0-1.2 1.5.1 4 .9 4.4.7 1.5-.8 3.4-10.1.7-15.2-1.2-2.2-3-4-5.3-5.2-6.1 6.4-10.5 17.1-10.7 25.9 1.3 1 2.6 2.1 3.9 3.2 3 2.6 5.4 6 4.4 10-.9 3.4-4.1 5.7-7.6 6.1-3.4.5-6.9-.7-9.9-2.3-2.7-1.5-5.4-3.6-7.2-6.1-1.9-2.8-1.8-6.2-1.3-9.3-.8-.2-1.6-.5-2.4-.8-.7-.2-.4-1.3.3-1.1l5.7 1.8c.7.2.3 1.4-.3 1.1-.7-.2-1.5-.5-2.2-.7-.5 3.7-.3 7.2 2.6 10 1.3 1.3 2.7 2.5 4.3 3.5.1-.1.2-.1.4-.2 3.3.1 6.4-1.4 8.3-4 1.7-2.2 3.5-6.2 1.9-8.9-.7-.5-1.4-1.1-2-1.7-.1 0-.1 0-.2-.1-3-2.3-6-4.9-8.1-8-2.3-3.3-3.7-7.6-2.4-11.4 1.3-3.8 5.1-6.5 9-8 3.9-1.6 8.8-2.2 13.1-.5.3 0 .5.1.7.4 3.7 1.7 6.2 5.2 7.2 8.7 1.2 4.4-.3 8.8-1.8 12.9.7.2 1.3.4 2 .7.9.5.5 1.6-.3 1.3z"/>
  </g>
  <g id="Banner">
    <path class="st0" d="M586.1 244.4c-3.9-15.1 2.7-28.5 4.8-43.8 1-7.4 1.5-11.4-5-14.2-10.1-4.2-18.8-14.8-29.5-16.4.6-13.7 1-27.4.5-41.2.4-.4.8-.9.8-1.8 0-12.3-34.5-22.4-41.9-25.2-23.8-9-46.9-20.5-71.2-28-22.7-6.9-45.6-12.2-68.7-15.8-12.1-1.9-24.3-2.8-36.4-4-10.7-1.1-21.1 1.6-31.7 1-23.3-1.3-46.3 5.9-69.5 5.5-22.8-.4-46.9 4.9-69 11.8-12.1 3.8-24.2 7.6-36.3 11.6-4.6 1.5-9.1 1.3-13.5 3.3-7.1 3.2-13.3 7.7-20.8 9.6-13.1 3.3-24.1 8.1-36.6 13-4.5 1.7-7.8 3.4-11.8 6.7-.6.5-7.3 6.2-7.8 6.2s-1 .3-1.3.8c-.4.2-.7.6-.7 1.3-.6 14-.1 27.9.7 41.8-.6.2-1.1 1-1.6 1.8-.5-.1-1.1 0-1.4.5-3.2 4.3-6.8 7.3-11 10.1-7.5 5-16.8 7.2-23.9 12.9-.6.5-.8 1.2-.7 1.8 0-.1-.1-.1-.1-.2-.9-1.4-2.9.5-2.1 2 8 14.1 17.2 28.8 10.2 46.5-4.7 11.9-5.8 26.4-7.2 39.3-1 .7-.6 3.1.8 3.1 3.9.1 7.4-3.7 10.5-6.3 7.4-6.2 15.9-10.3 23.6-16 17.3-12.7 39-24 59.3-25.4 1.1-.1 1.7-1.1 1.8-2.2v-.2c0-.6-.1-1.2-.4-1.7.7.1 1.6-.5 1.6-1.6.2-7.7.2-15.4.2-23.1 0-2.8-.1-6.3-1.4-8.6 24.1-6.7 46.9-19.3 71.5-22.8 22.5-3.2 45-8.8 67.3-13.1 23.8-4.6 47.2-5.5 71.2-7.7 10.7-1 23.3-.8 33.8 1.4 9.6 2 19.9.2 29.7 2.1 11.1 2.2 21.9 5.6 33 8.3 11.3 2.8 23.1 2.6 34.3 5.6 16.7 4.5 33.3 9.2 49.8 14.2-.2.6-.2 1.4.2 2 2.2 3.4.3 17 .3 21 0 8.5.3 16.6 1.2 24.9v.1c0 .8.6 1.4 1.2 1.4.1 0 .3 0 .4-.1.1.7.6 1.2 1.3 1.3 16.8 1.8 33.7 11.6 49.5 18.3 8.5 3.6 16.4 8.6 24.6 12.9 5.9 3.1 14.9 6.7 18.6 13.5.6 1.1 1.5 1.2 2.2.9.6 1.2 2.4.6 2.4-.9.2-12.9-2.6-25.8-5.8-38.2zm-41.2-28.6c.2.1.4.3.6.4h-.6v-.4zm-.2.2v.3h-2.4c-.1-.5-.1-.9-.2-1.4h1.6c.4.3.8.6 1.1.9l-.1-.1v.3zm-4.4-1.1h1.5c0 .3 0 .6.1.8 0 .2.1.4.1.5h-1.7v-1.3zm1.7 1.5c.1.4.1.9.1 1.3-.3 0-.7 0-1-.1-.3 0-.7 0-1-.1 0-.4 0-.8.1-1.2.6.1 1.2.1 1.8.1zm0-1.7v-1.1l1.4 1.1H542zm-.2 0h-1.5v-1.4h1.5v1.4zm-1.5-1.6v-1c.4.3.8.6 1.2 1h-1.2zm-.4-1.3h-2.3c0-.3 0-.6.1-.8h1.3c-.1 0-.1-.1-.2-.2h-1.1v-.7h.1c.3.2.5.4.8.6.5.4 1.1.9 1.8 1.4-.3-.1-.4-.2-.5-.3zm-2.4 4.4c-.1-.3-.1-.7 0-1v-.3h2.6c0 .5 0 .9-.1 1.3h-2.5zm2.5.2c0 .3-.1.7-.1 1v.1c-.6 0-1.2 0-1.8-.1h-.5c0-.4-.2-.7-.2-1.1h2c.2.1.4.1.6.1zm0-3.3h-2.6c0-.3 0-.7.1-1.1h2.5v1.1zm0 1.5c-.2.1-.5.1-.7.1h-1.8c0-.5 0-.7-.1-1.1v-.3c.9 0 1.7 0 2.6.1v1.2zm-4.1-1.4h1.3v1.5h-2c0-.5 0-1 .1-1.5h.6zm-.5-.1v-1h1.9v1.1h-.9c-.4-.1-.7-.1-1-.1zm1.8 1.8v1.3h-1.9v-1.3h1.9zm0 1.4c0 .4 0 .7.1 1.1h-2c0-.4 0-.7-.1-1.1h2zm.1-4.4h-1.9c0-.1 0-.3.1-.4v-.5h1.8v.9zm-1.1-1h-.8v-.7h1.9v.7h-1.1zm.4-.9h-1.2v-.8c0-.3 0-.6-.1-.8-.1-.1-.2-.1-.3-.2h-1.3v-.9c-.1-.1-.3-.2-.4-.3-.6 0-1.1 0-1.7.1v-1.2c-.1-.1-.3-.2-.4-.3h-1.9c0-.2-.1-.4-.1-.6-.1-.3-.1-.6-.1-.9 2.7 1.8 5.5 3.7 8.2 5.7v.1c-.2.1-.5.1-.7.1zm-1.9.2h.4v.7h-1.4v-.7h1zm-1-.2v-1.7h1.3c0 .3 0 .6.1.8v.8c-.4.1-.9.1-1.4.1zm1.4 1v.9h-1.4v-.9h1.4zm.1 1v1.1h-1.3v-1c.3-.1.8-.1 1.3-.1zm-.1 1.2v1.5h-1.2v-1.5h1.2zm-.8 1.7h.8v1.3h-1.2v-1.3h.4zm.7 1.4c.1.3.1.7.2 1H534v-1h1zm.1 1.2c0 .5.1 1.1.1 1.6h-1.3v-1.6h1.2zm-2.9-.1v-.9h1.4c0 .3 0 .7.1 1-.5-.1-1-.1-1.5-.1zm1.5.1v1.6h-1.5v-1.7c.5.1 1 .1 1.5.1zm-8.6 1.6c.7 0 1.4.1 2.1.1v.8h-2.1v-.9zm-2.5.8v-.9h2.3v.9c-.8.1-1.5 0-2.3 0zm2.3.2v.9h-2.3v-.9h2.3zm-2.3-1.1v-1.5h2.3v1.4c-.8 0-1.5.1-2.3.1zm0-1.7c0-.3-.1-.6-.2-.8h2.5v.9c-.8-.1-1.5-.1-2.3-.1zm-.2-1v-1.4c.4 0 .9 0 1.3.1h1.3c0 .4 0 .9-.1 1.3h-2.5zm-1.9 3.8h1.9v1h-1.8v-.3c-.1-.3-.1-.5-.1-.7zm0-.2v-.9c.6 0 1.3 0 1.9.1v.8h-1.9zm1-1h-1.1c0-.5-.1-1-.1-1.5h1.9c0 .4.1.8.1 1.2v.3c-.2.1-.5.1-.8 0zm-6 2v-.9h1.6v.9h-1.6zm1.5.2v.8h-1.5v-.8h1.5zm-1.6-1.2v-.9h1.6v1c-.5-.1-1.1-.1-1.6-.1zm0-1.1c0-.5-.1-1-.2-1.4h1.8v1.4h-1.6zm-15.7 6.5h.2c0 .5-.1.9-.1 1.4h-2.2v-1.4c.8 0 1.6.1 2.1 0zm-2.1-.2v-1h.8c.5 0 1-.1 1.5-.1h.1v.1c0 .3-.1.7-.1 1h-.8c-.5.1-1 0-1.5 0zm0-1.1v-1.5h2.5v1.4c-.9 0-1.7.1-2.5.1zm2.4-1.7h-2.4v-1.1h2.7v.4c0 .3-.1.5-.1.8-.1-.1-.2-.1-.2-.1zm-5.4-22.5h.1v.9h-.9c.1-.9.1-1.8.2-2.7h.7v1.6h-.8v.1c.2.1.5.1.7.1zm-.6-1.9c.1-.9.1-1.8.1-2.7h.8c0 .5-.1 1-.1 1.6h-.7v.2h.7c0 .3 0 .6-.1.9h-.7zm.1-3.9h.8v1.1h-.8c0-.7 0-1.4-.1-2.1h.9v.8h-.9c.1.1.1.1.1.2zm8.2-.9c0-.1 0-.1 0 0h1.2v.8h-1.3c0-.4.1-.6.1-.8zm1.6.8h1.3c0 .4 0 .8.1 1.2h-1.5v-1.3c0 .1.1.1.1.1zm-.1-.1v-.7h1.4v.7h-1.4zm1.5 1.5v1.3c-.5 0-.9.1-1.4.1h-.2v-1.3c.6-.1 1.1-.1 1.6-.1zm4.7 1.3h2.4v.1c0 .4-.1.7-.1 1.1h-.8c-.5 0-1 0-1.5.1v-.2c-.1-.3 0-.7 0-1.1zm8.4 2.6h-1.5v-.9c.5 0 1 .1 1.5.1v.8zm-.5.1h.5v1.2h-1.6v-1.2h1.1zm-1.1 3.4v-.8h1.7c0 .3 0 .6.1.9-.6-.1-1.2-.1-1.8-.1zm1.8.2v.8h-1.8v-.8c.6-.1 1.2-.1 1.8 0zm-.9-1.2h-.9v-.9h1.6c0 .3 0 .6.1.9h-.8zm-.9 2.1h1.7v1.6h-1.8c.1-.5.1-1 .1-1.6zm1.8 1.8v1.4c-.6 0-1.2 0-1.8-.1v-1.3h1.8zm-.1 1.6v.8h-1.8v-.9c.6.1 1.2.1 1.8.1zm-3.4 10c-.1-.3-.1-.7-.1-1v-.1c.6 0 1.1.1 1.7.1h.3v.9c-.6.1-1.3.1-1.9.1zm0 1.8c0 .3 0 .7.1 1-.9 0-1.8 0-2.7.1V219h2.6zm.4-3h-.6v-1.2h1.9c0 .4.1.9.1 1.3-.4 0-.9-.1-1.4-.1zm-3.2.3v-.2h2.5c0 .4.1.7.1 1.1h-2.5v-.7c-.1-.1-.1-.1-.1-.2zm-2.1-8.1h1.7v1.4h-1.8v-.5c.2-.2.2-.5.1-.9zm1.8 1.6v1h-1.6v-.1c0-.3-.1-.6-.1-.9.5.1 1.1.1 1.7 0zm-6.5 10.4h1.9v.7h-1.8v-.2c-.1-.2-.1-.3-.1-.5zm1.9.9v1.1c-.6.1-1.3.1-1.9.1v-1.2h1.9zm-2.1-6.3c.4 0 .8 0 1.3-.1h.7v1.3h-2v-1.2zm0-12.9h1.4v.7h-1.3c-.1-.2-.1-.4-.1-.7zm.5 12.7h-.5c0-.4 0-.9.1-1.3.6 0 1.3-.1 1.9-.1v1.3c-.5 0-1 .1-1.5.1zm-.5-7.2v-.4h2v1.1c-.7.1-1.4.1-2 .2v-.9zm1.5-.5h-1.4v-1.2c.4 0 .8 0 1.2-.1h.6c.1.4.2.9.2 1.3h-.6zm-1-1.4h-.5v-1.3c.5 0 1 0 1.4-.1v.1l.3 1.1c-.3.1-.8.2-1.2.2zm1.2-1.7c0-.2-.1-.5-.1-.7v-.2h2.6v.9h-.3c-.7.1-1.4.1-2.1.2-.1-.1-.1-.2-.1-.2zm2.4-1.1h-2.5v-.7h2.7v.3c-.1.1-.2.2-.2.4zm-.4-.9h-2.1v-1.1h2.8c0 .4-.1.7-.1 1.1h-.6zm-2.1-1.3v-1.1c.3 0 .6-.1.9-.1.6-.1 1.2-.1 1.8-.1v1.3c-.9.1-1.8.1-2.7 0zm0-4.1s0 .1 0 0c-.4.1-.7.2-1.1.2h-.3v-1.3c.4 0 .9 0 1.3-.1v.8c.1.2.1.3.1.4zm-1.3-1.3c0-.4 0-.8-.1-1.2h1.3v1.1c-.4.1-.8.1-1.2.1zm-.1 1.7h1.3c0 .4-.1.9-.2 1.3h-1.3c.2-.5.2-.9.2-1.3zm1.2 7.1c-.5 0-.9.1-1.4.1v-1.2h1.3c0 .4.1.8.1 1.1zm0-2.4v.3h-1.4v-1.1h1.4v.8zm-1.4 18.5h-1.4v-1.1h1.3c.1.4.1.8.1 1.1zm-.9-1.3h-.5v-1h1.3c0 .4.1.7.1 1.1-.3 0-.6-.1-.9-.1zm.7-2.7h-1.2v-1.1c.4 0 .8 0 1.2-.1v1.2zm0 .2c0 .4 0 .9.1 1.3H504v-1.4c.3.1.7.1 1.1.1zm.1-3.4v.4h-1.3v-1.3h1.4c-.1.4-.1.7-.1.9zm-.1.5v1.3c-.4 0-.8 0-1.2.1v-1.3c.4 0 .8 0 1.2-.1zm-1.2 9.2h1.4v1.3c-.5 0-.9.1-1.4.1v-1.4zm.7-.2h-.6V221h1.4v1.2c-.4.1-.6.1-.8.1zm-.2-1.4h-.5v-.7h1.4v.8c-.3-.1-.6-.1-.9-.1zm.9-4.7h2c0 .4 0 .7.1 1.1-.6.1-1.3.1-1.9.2-.2-.5-.2-.9-.2-1.3zm2-3.2c-.6.1-1.3.1-1.9.1v-1.2h1.9v1.1zm-1.9-1.2c0-.1 0-.2.1-.3v-.4h1.8v.7h-1.9zm1.2-.9h-1.1c0-.4-.1-.8-.1-1v-.1h2c0 .1-.1.5-.1 1.1h-.7zm.8-1.6v.4h-1.9v-1.1h.3c.6-.1 1.1-.1 1.7-.2v.5c-.1.1-.1.2-.1.4zm0-3.9c0-.2-.1-.4-.1-.5-.1-.2-.1-.5-.2-.7.4 0 .8-.1 1.2-.1.4 0 .8-.1 1.2-.1v1.5h-1.6c-.2-.2-.4-.2-.5-.1zm2.1.1c.1.3.2.5.2.8 0 .2 0 .4.1.6h-2.1c0-.4-.1-.9-.2-1.3.6 0 1.3-.1 2-.1zm2.4-2.7c0 .3.1.6.1.8h-2.2v-.8h2.1zm-2.2-.1v-.7h2.1v.7h-2.1zm.3 6.6v.5h-2.3v-1.4h.1c.7-.1 1.4-.1 2.1-.1 0 .2.1.3.1.5v.5zm0 1.6h-2.5v-1.1h2.3c.1.4.2.8.2 1.1zm-1.4-2.8h-.9v-1h2.1v.4c0 .2 0 .3.1.4v.1c-.4.1-.9.1-1.3.1zm1.1-4.2c.7 0 1.5-.1 2.2-.1 0 .5.1 1 .1 1.6h-2.2c0-.6 0-1-.1-1.5zm.4 8.9h-1c-.5.1-1.1.1-1.6.2 0-.3 0-.7.1-1h2.5v.8zm0 1.6h-2.5c0-.4-.1-.5-.1-.9v-.4c.2 0 .5 0 .7-.1.6-.1 1.2-.1 1.8-.2 0 .7 0 1.2.1 1.6zm-2.6.8v-.5h.1c.8 0 1.6-.1 2.5-.1 0 .5 0 .9-.1 1.4h-2.6c0-.2.1-.5.1-.8zm2.6-3.4h-2.6v-.7h2.4v.4c.2.1.2.2.2.3zm0-4.9c-.1-.3-.1-.7-.1-1v-.3h2.2v1.3h-.6c-.6-.1-1.1 0-1.5 0zm1.7 6v1.5h-1.5v-1.5h1.5zm-1.4-.1v-.8h1.5c0 .3 0 .5-.1.8h-1.4zm.4 1.8h1c0 .4 0 .7.1 1v.2h-1.6v-1.4c.2.2.3.2.5.2zm1.1-3v.1h-1.6v-.7h1.6c.1.2 0 .4 0 .6zm-1.6 4.6c.3 0 .6 0 .9-.1h.9c.1.4.1.7.1 1.1h-2v-.1c0-.3 0-.6.1-.9zm6.2-8.1h-1.7c0-.2 0-.3-.1-.5s-.1-.4-.1-.6c.6 0 1.2.1 1.7.1.1.4.2.7.2 1zm-1.7 1.2v-1h1.7v1.4h-1.7v-.4zm1.7-3.3c0 .3 0 .6-.1 1-.3 0-.6 0-.9-.1h-.8c0-.2 0-.3-.1-.5-.1-.3-.2-.5-.2-.8h2.1v.4zm-4.2 4.9v-1h2.3c0 .2 0 .6.1 1-.9-.1-1.6 0-2.4 0zm2.3.1v.9h-2.4c0-.3.1-.5.1-.8.8-.1 1.5-.1 2.3-.1zm0-1.7v.4h-2.3v-1.4h2.4v.3c-.1.2-.1.4-.1.7zm-2 2.6h2v.9H512c0-.3.1-.5.1-.8.2-.1.4-.1.5-.1zm1.8-4.7c0 .3.1.6.1.8h-2.3c0-.4 0-.7.1-1.1h2.2c-.1.2-.1.2-.1.3zm-2.2-4.2v-.2h1.8v.9h-1.6c-.2-.3-.2-.5-.2-.7zm1.7-1.3h-1.8c0-.3 0-.7.1-1h1.8c-.1.3-.1.7-.1 1zm0 .2v.8h-1.8v-.8h1.8zm-1.8 11h2.6v1.7c-.8 0-1.5 0-2.2-.1h-.4v-1.6zm0 1.7c.9 0 1.7 0 2.6.1v1.2c-.8 0-1.7-.1-2.5 0-.1-.4-.1-.8-.1-1.3zm-1.9 5.4v-1.1h2.1v1c-.7.1-1.4.1-2.1.1zm2.1.2v.8h-2.1v-.7c.7-.1 1.4-.1 2.1-.1zm-2.1.9h2.1v.9h-2.1v-.9zm4.6-10.1h2v.2c0 .2-.1.5-.1.7h-1.8v-.2c0-.3-.1-.5-.1-.7zm2 3.5c0 .1 0 .1 0 0-.6.1-1.3.1-1.9.1v-1.7h1.8c.1.6.1 1.1.1 1.6zm-.1-2.6v.8h-1.8v-.9c.6.1 1.2.1 1.8.1zm.2.4v-.3h1.6v.8H517c-.1-.2-.1-.4-.1-.5zm0-.5c0-.2 0-.5.1-.7 0 0 0-.1.1-.1h1.4v.9c-.6-.1-1.1-.1-1.6-.1zm.8-1h-.7v-.2c0-.3-.1-.5-.2-.8h1.6v.9c-.2.1-.4.1-.7.1zm0-1.1h-.8c0-.1 0-.3-.1-.4 0-.3 0-.7-.1-1h1.8v1.4h-.8zm-.9.6c.1.2.1.3.1.5h-2.1v-1h1.8c.1.2.1.3.2.5zm-.2-11v1.2h-2.3v-1.2h2.3zm-2.4-.1v-1.1c.8 0 1.6.1 2.4.2 0 .3-.1.5-.1.8v.1h-2.3zm2.4 1.5v.9h-2.4v-1c.8.1 1.6.1 2.4.1zm0 1.1v.9h-2.4v-.9c.8.1 1.6 0 2.4 0zm0 1v.8h-2.5v-.9c.9.1 1.7.1 2.5.1zm0 1c0 .6-.1 1.1-.1 1.7h-2.2c0-.1-.1-.3-.1-.4-.1-.4-.1-.8-.1-1.3h2.5zm-2.2 3h-2.1c0-.4.1-.8.1-1.3h1.8c0 .5.1.9.2 1.3zm-1.9-1.4h-.1v-1.6h1.6v.8c0 .3.1.6.1.8h-1.6zm1.5-7.5h-1.3c0-.4 0-.8.1-1.3h1.4c-.2.5-.2.9-.2 1.3zm0 .2v1.1h-1.5c.1-.4.1-.7.1-1.1.5-.1.9-.1 1.4 0zm-1.2 1.2h1.1v1.2h-1.7c0-.3.1-.6.2-.9 0-.1 0-.2.1-.3h.3zm-1.7-1.2c.4 0 .8 0 1.1-.1 0 .4-.1.7-.1 1.1h-2.2v-1c.4.1.8 0 1.2 0zm-1.2 1.2h2.2c0 .3-.1.7-.2 1v.2h-2v-1.2zm2 1.4c0 .3-.1.7-.1 1h-2c0-.4.1-.7.1-1.1.6.1 1.3.1 2 .1zm-2.1-4.3h-2.6v-1.3c.4 0 .7-.1 1.1-.1.5-.1 1.1-.1 1.7-.1-.2.5-.2 1-.2 1.5zm0 .2c0 .5-.1.9-.1 1.4H507c.1-.4.1-.9.2-1.3.8 0 1.7-.1 2.6-.1zm-2.6 1.6h2.5v1h-1.1c-.6 0-1.1.1-1.6.1v-.3c0-.3 0-.5.1-.8h.1zm-.3-4.9v.5h-1.4c0-.2 0-.5-.1-.7h1.5v.2zm-.2 4.9v1.1c-.5 0-.9.1-1.4.1 0-.3 0-.7.1-1v-.2h1.3zm-1 1.4c.3 0 .6-.1 1-.1v1h-1.4v-.9h.4zm-.5-2.8c0 .4-.1.8-.1 1.2h-1.5v-1.1c.6 0 1.1-.1 1.6-.1zm0 1.4v1.3h-1.5v-1.3c.5-.1 1 0 1.5 0zm-3 24.1v-1.2h1.5v1.2h-1.5zm1.5.2c0 .4 0 .9-.1 1.3-.5 0-1 .1-1.5.1 0-.5 0-1 .1-1.4h1.5zm-1.5-1.6v-.8h1.5v.7c-.5.1-1 .1-1.5.1zm0-.9v-1.1h1.5v1.1h-1.5zm.3-1.2h-.3v-1c.5 0 .9 0 1.4-.1h.1v1c-.4 0-.8.1-1.2.1zm1.2-18.1h1.4v1.1h-1.3c0-.4-.1-.8-.1-1.1zm0-.2v-.8h1.4v.9h-.7c-.2-.1-.5-.1-.7-.1zm.2 5.1v-1.3h1.2v1.3c-.4-.1-.8 0-1.2 0zm1.1.1v1.2h-1.2v-1.1c.5 0 .9-.1 1.2-.1zm-.4-1.6h-.7v-1.3h1.2v1.2c-.2.1-.4.1-.5.1zm-.2-1.4h-.6v-.7h1.3v.7h-.7zm-.5 4.3h1.2v1.3h-1.2c-.1-.3-.1-.8 0-1.3zm-.1 2.3v-.7h1.3v1.1h-1.4c.1-.2.1-.3.1-.4zm-.1 8.2c-.5 0-1 .1-1.4.1v-1.5h1.4v1.4zm-1.5-1.5c0-.3-.1-.7-.1-1 .5 0 1 0 1.4-.1 0 .4 0 .7.1 1v.1h-1.4zm-6.2-6.1h1.1v1h-1.6c0-.3-.1-.6-.1-.9.1-.1.3-.1.6-.1zm-.7-.1v-1.1h1.7v1.1h-1.7zm.1 2.1v-.8h1.6c0 .2 0 .4-.1.6v.2h-1.5zm1.5.1c0 .4 0 .8-.1 1.1h-1.5V212h1.6zm-1.5 1.3h1.5v1.5h-1.5v-1.5zm1.5 1.7c0 .2 0 .4.1.7v.3h-1.7v-.9c.6-.1 1.1-.1 1.6-.1zm-1.6 1.2v-.1c.5 0 1.1 0 1.7.1.1.5.1 1 .2 1.5h-2c0-.5 0-1 .1-1.5zm1.6-14.5h-2c0-.3.1-.6.1-.9h2.1c-.2.3-.2.6-.2.9zm0 1.1h-2.1v-.8h2.1c-.1.2 0 .5 0 .8zm-.8-2.1h-1.2v-.9h2.1c0 .2-.1.4-.1.6v.3h-.8zm1 12.6h2.6v1.4c-.8 0-1.6.1-2.4.1h-.2v-1.5zm2.8-1.3h1.8v1.2h-1.9v-.1c.1-.3.1-.7.1-1.1zm1.9-.2H500v-.3c0-.2-.1-.4-.1-.6h2v.1c-.1.4-.1.6-.1.8zm-1.9 1.6h1.9c0 .4 0 .8.1 1.2v.3h-2v-1.5zm1-2.5h-1.1v-.9h1.7c.1.2.1.3.2.5s.1.4.1.6c-.3-.2-.6-.2-.9-.2zm-5.7 8.1h2.1v.9h-2.1v-.9zm0 3.4c.7 0 1.4 0 2.1.1v1.5h-2.1v-1.6zm0-.1v-1.1h2.1v1.1h-2.1zm0-1.3v-.8h2.1v.8h-2.1zm2.1-5c-.1-.3-.1-.6-.1-1h1.2c.5 0 .9-.1 1.4-.1v1.1h-2.5zm0-6.1c.2 0 .4 0 .6.1.3 0 .5.1.8.1.3 0 .6 0 .9-.1v.9h-2.3c.1-.4.1-.7 0-1 .1.1.1 0 0 0zm2.3-.6v.5h-.3c-.5.1-.9 0-1.4 0h-.6c0-.2 0-.4-.1-.5v-.6c.5 0 .9-.1 1.3-.1h1.1v.7zm-2.3 1.7h2.3v.8h-2.5c.2-.2.2-.5.2-.8zm2.4-4.7c-.1-.2-.1-.3-.1-.5h2v.1c0 .3 0 .6-.1.9h-1.8v-.5zm-.1 2.2h-2.4c0-.5 0-1 .1-1.5.8 0 1.6.1 2.2 0v.1c0 .5.1.9.1 1.4zm-2.4-5.5v-.1h1.7v1.1h-1.6c0-.3 0-.6-.1-1zm0 9c0 .1.1.1 0 0h2.5v1.1h-2.6c0-.3.1-.7.1-1.1zm2.5-4.9c.4 0 .8 0 1.2-.1h.6v.1c0 .4 0 .8.1 1.1v.2H500c0-.3 0-.6-.1-.9-.1-.1-.2-.2-.2-.4zm1.9 2.6h-.9c-.3 0-.6 0-.9.1v-1.2h1.7v.7c0 .2.1.3.1.4zm0-4h-2c-.1-.2-.1-.4-.2-.6-.1-.3-.1-.5-.1-.8h2.4c-.1.4-.1.9-.1 1.4zm-2.4.1c.1.4.2.7.2 1.1h-.4c-.6 0-1.2 0-1.8-.1v-1h1c.4.1.7.1 1 0zm0-10.5c0 .5-.1 1-.1 1.4-.5 0-.9 0-1.4.1v-1.5h1.5zm-1.5-.2V194h1.5c0 .4 0 .8-.1 1.1h-1.4zm.7 1.9h.7v1.1h-1.4c0-.3 0-.7.1-1 .2-.1.5-.1.6-.1zm.8 8.7c-.6 0-1.2.1-1.8.1v-1.6h1.6v.4c0 .4.1.7.2 1.1zm-.3-4h-1.8c0-.3 0-.6.1-.9.2 0 .5 0 .7.1.3 0 .5.1.8.1h.2v.7zm0 .2v.9h-1.8c0-.3-.1-.6-.1-.8.7-.1 1.3-.1 1.9-.1zm-1.7 15.9c.1.4.1.8.1 1.1h-2.1v-1.1h2zm-2 6.3h2.2v1h-2.3c.1-.3.1-.6.1-1zm2.1-7.8v-.1c.9 0 1.8.1 2.4 0 0 .5.1.9.2 1.4h-2.6c0-.4.1-.9 0-1.3zm1.3 1.4h1.5c.1.3.1.6.1.9v.1c-.3 0-.6.1-.9.1-.5.1-.9.1-1.4 0h-.4c0-.4 0-.8-.1-1.2.4.2.8.1 1.2.1zm-1.1 1.3c.2 0 .3 0 .5.1.3 0 .5.1.8.1.5 0 .9-.1 1.4-.1 0 .3 0 .6.1 1h-2.7v-.8c-.1-.2-.1-.2-.1-.3zm2 1.1h.7v.8h-2.7c0-.3 0-.6-.1-.8h2.1zm.7-2.5c-.1-.5-.2-.9-.2-1.4h2.1v1.5H501c-.3-.1-.5-.1-.8-.1zm.7-1.6h-.9v-1.1h2c0 .3 0 .7.1 1-.5.1-.8.1-1.2.1zm1-3.7v-.3h1.6v1.3H502c-.1-.4-.1-.7-.1-1zm1.6-.5h-1.6c0-.2 0-.5.1-.7v-.1h1.4c.1.3.1.5.1.8zm-1.4-.9v-.3c0-.3-.1-.5-.2-.8h1.6v1.1h-1.4zm.4-1.2h-.6v-1c.6 0 1.1 0 1.7-.1v1c-.4 0-.7 0-1.1.1zm-.3-1.2h-.3c0-.5-.1-1-.1-1.5h1.8v1.4c-.5 0-1 .1-1.4.1zm-.4-1.6v-1.1c.6 0 1.2 0 1.8-.1v1.1c-.6.1-1.2.1-1.8.1zm1.8-1.3c-.6 0-1.1.1-1.7.1h-.1v-1.4h1.8v1.3zm-1.7-1.5v-1.2h1.7v1.3c-.6-.1-1.1-.1-1.7-.1zm0-1.4v-.8h1.7v.7c-.6.1-1.2.1-1.7.1zm0-1v-1h1.6c0 .4 0 .7.1 1.1-.6 0-1.2-.1-1.7-.1zm-2.4-8.7h2.6v.3c0 .2-.1.3-.1.5h-2.4v-.3c-.1-.1-.1-.3-.1-.5zm2.5 3.8v-1.4h1.4v1.3c-.4 0-.9.1-1.4.1zm1.4.1v1.1h-1.5c0-.2 0-.3.1-.5 0-.2 0-.3.1-.5.4-.1.9-.1 1.3-.1zm0 1.2v1.4c-.4 0-.8.1-1.2.1h-.3c0-.5 0-1 .1-1.5h1.4zm0 1.6v.8h-1.6v-.8h1.6zm.1-5.8v1.3h-1.4c0-.4 0-.8.1-1.2.4-.1.9-.1 1.3-.1zm-1.4-1.7v.7h-2.6v-.9c.2 0 .5-.1.7-.1h1.9v.3zm-2.6 1.8h2.5c0 .2-.1.3-.1.5v.8h-2.4V194zm.3 1.3h2v1.5h-2.5c0-.5.1-.9.1-1.4.2-.1.3-.1.4-.1zm.1 1.6h1.9c0 .3-.1.7-.1 1h-2.4c0-.4 0-.7.1-1.1.1.1.3.1.5.1zm-.2 1.3c.4 0 .8 0 1.2-.1h.8c0 .3-.1.6-.1.9v.5h-2.4v-1.3h.5zm1.9 1.5v.8h-.9c-.5 0-1 .1-1.5.1v-1h1.7c.2.1.5.1.7.1zm-1.4 1.1h1.4v1h-2.4v-.9c.4-.1.7-.1 1-.1zm-.9 1.2v-.1h2.4v.8h-2.4c-.1-.2 0-.4 0-.7zm.5.9h1.8v1.2h-2.5V203c.4-.1.6-.1.7-.1zm-.6-9.1h-1.5v-.8h1.5v.8zm-1.5-1v-.9h.3c.3 0 .5.1.8.1h.5v.9c-.6-.1-1.1-.1-1.6-.1zm1.5-1h-1.5v-1.2c.3 0 .6-.1.9-.1h.6v1.3zm-.2 6.4v1.4h-1.6c.1-.5.2-1 .2-1.4h1.4zm-3.7-4.2h2.1v1.1h-2.2c.1-.4.1-.7.1-1.1zm-.1-1h2.2v.8h-2.2c.1-.2 0-.5 0-.8zm2.3-1.2h-2.2v-1.1h2.2v1.1zm-1.5.1h1.5v.9h-2.2v-1c.2.1.4.1.7.1zm1.4 3.4v1.5H495c.1-.5.1-1 .2-1.5v-.1c.7.1 1.5.1 2.2.1zm0 4.5c.4 0 .8-.1 1.2-.1h.4v1h-1.8c.1-.3.1-.6.2-.9zm-.3-.2H495V198c.7 0 1.5.1 2.4.1-.2.5-.2 1-.3 1.5zm-2.3 3.3h2.2c0 .4.1.8.1 1.1h-2.2v-.8c-.1-.1-.1-.2-.1-.3zm2.2 1.3v1.5h-2.1c-.1-.5-.1-1-.2-1.6.8.1 1.6.1 2.3.1zm.1 1.7v1h-1.9c0-.3-.1-.6-.1-.9.6-.1 1.4-.1 2-.1zm-.1 1.1c0 .5-.1 1-.1 1.5h-1.7c0-.5-.1-1-.2-1.6.7.1 1.4.1 2 .1zm-1.8 18.2c.7 0 1.5.1 2.2.1v1.5h-2.3c0-.5 0-1.1.1-1.6zm2 1.7h.2v1.2h-2.3V227c.7-.1 1.4-.1 2.1-.1zm3.1-2.2v-.6h1.6c0 .3 0 .7-.1 1h-1.6c0-.1.1-.3.1-.4zm0-.8v-.9c0-.2 0-.4.1-.6h1.5v1.5h-1.6zm.6-1.6h-.5c0-.2.1-.4.1-.5v-.6h1.5v1.2c-.4-.1-.7-.1-1.1-.1zm0-1.3h-.4v-.8h1.6v.8c-.5-.1-.8 0-1.2 0zm0-1h-.5v-1h1.6v1.1c-.3-.1-.7-.1-1.1-.1zm0-1.2h-.6c0-.4-.1-.7-.1-1.1h1.8v1c-.3.1-.7.1-1.1.1zm1.1-5.4h1.5v1.3c-.5 0-1 .1-1.4.1-.1-.5-.1-.9-.1-1.4zm.1 10.7c.5 0 1 0 1.5-.1 0 .4 0 .7-.1 1.1H502c.1-.3.1-.7.1-1zm1.7-14.3h1.4v1.1h-1.4v-1.1zm1.4 1.3v.7h-1.4v-.7h1.4zm-1.3 12.9c.5 0 .9 0 1.4-.1v1.2h-1.4c-.1-.3-.1-.7 0-1.1zm1.8-6.4c.5-.1 1.1-.1 1.6-.2 0 .4.1.8.1 1.2v.2h-2c0-.4 0-.7-.1-1.1.2 0 .3-.1.4-.1zm.1 1.3h1.6v1.1h-1.9v-1.1h.3zm-.3 3.5c.6 0 1.3-.1 1.9-.1 0 .4.1.9.1 1.3-.6 0-1.2.1-1.7.1h-.3v-1.3zm2-6.1v-.1h2.5c0 .3-.1.7-.1 1h-1.4c-.3 0-.6 0-1 .1.1-.3 0-.6 0-1zm.1 2.5v-1.4h.2c.7-.1 1.4-.1 2.1-.1v1.5c-.7.1-1.5 0-2.3 0zm2.3.2v1.1h-2.4V219h2.4zm-2.3 1.2h2.3v.7h-2.3v-.7zm1.3.9h1v.8c-.3 0-.5 0-.8.1-.5 0-1 .1-1.4.1 0-.3-.1-.7-.1-1h1.3zm-1.2 1.2c.2 0 .4 0 .5-.1.6-.1 1.1-.1 1.7-.1v1.5h-2c-.1-.4-.2-.9-.2-1.3zm3.4-15.3h.9c0 .4 0 .7-.1 1.1h-1.7c0-.3-.1-.7-.1-1 .3 0 .7-.1 1-.1zm1 10.4c0 .5.1 1 .1 1.5h-2.1v-1.5h2zm-1.9 5v-.3c.7 0 1.4-.1 2.1-.1v1.6h-2.2c.1-.4.1-.8.1-1.2zm2.1-5h2.6c.1.4.2.9.2 1.3v.1h-2.7c0-.4 0-.8-.1-1.2v-.2zm2.9 2.7v.8h-2.7c0-.3 0-.5-.1-.8h2.8zm0 .9v.8h-2.7v-.8h2.7zm1.7-8.1h1.5v1.6H517c0-.5-.1-1-.1-1.6zm1.6 1.9c0 .4.1.8.1 1.2v.2c-.5 0-1 0-1.4-.1 0-.4-.1-.9-.1-1.3h1.4zm1.6-4h-1.4v-1h1.4v1zm0 5.4h-1.2v-1.4h1.2v.6c-.1.2 0 .5 0 .8zm-.1-1.6h-1.2V213c.4 0 .9 0 1.3.1 0 .5-.1 1-.1 1.5zm-1.2-1.8v-.8h1.4v.7c-.5.1-1 .1-1.4.1zm.3-.9h-.3v-.9h1.4v.9h-1.1zm-.3-6.4v-1.6c.4 0 .8 0 1.2.1v1.6c-.4-.1-.8-.1-1.2-.1zm1.2.1v1.5h-1.2v-1.4h1c.1-.1.1-.1.2-.1zm-1.2-1.9v-.8c.4 0 .8 0 1.2.1v.8c-.4-.1-.8-.1-1.2-.1zm.3-1h-.3v-.9h1.3v.9h-1zm-.3 4.6h1.2v.8h-1.2v-.8zm1.2-5.6h-1.3c0-.3 0-.6-.1-.9h1.4v.9zm-1.3 8v-1.4h1.3c0 .3 0 .7.1 1v.5c-.4 0-.9-.1-1.4-.1zm1.3-9.1h-1.4c0-.4 0-.8-.1-1.2h1.5c.1.4.1.8 0 1.2zm-2.3 19.3h-.5v-.9h1.5v.9h-1zm1 .2v.9h-1.5v-.9h1.5zm-1-1.3h-.5v-1.4h1.4v1.5c-.2-.1-.6-.1-.9-.1zm.9-2.4v.8h-1.4v-.9c.5 0 .9.1 1.4.1zm-1.4 4.7c.5 0 1 0 1.5.1v.8h-1.5c-.1-.4 0-.7 0-.9zm1.7-4.7h1.2v.8h-1.2v-.8zm1.2 1c0 .5.1 1 .1 1.5-.4 0-.9 0-1.3-.1v-1.5c.4.1.8.1 1.2.1zm3.2-14.6h-1.4v-.9h2.7c0 .1 0 .2-.1.4 0 .2-.1.4-.1.6-.4-.1-.7-.1-1.1-.1zm1.1.2v.8H522c0-.3-.1-.5-.1-.8h2.5zm-2.3 2.5h-1.8v-1.6h1.4c0 .1 0 .2.1.3.1.5.2.9.3 1.3zm0 .2c.1.4.2.9.2 1.3v.1h-2v-1.5c.6.1 1.2.1 1.8.1zm-1.8-2v-.8h1.3c0 .3 0 .5.1.8-.5.1-1 0-1.4 0zm.1 7.8v-.5h1.8v.9h-1.9c.1-.2.1-.3.1-.4zm0-1.6h1.9v.8h-1.8c-.1-.3-.1-.6-.1-.8zm1.9 2.2v.8c-.6 0-1.2 0-1.9-.1v-.8c.6.1 1.2.1 1.9.1zm-.4 1h.4v1.6h-2c0-.5 0-1 .1-1.6h1.5zm-1.7-11.3h1.4v.9h-1.3c0-.3-.1-.6-.1-.9zm1.4-.3v.2h-1.4v-.9h1.4v.7zm-1.3 18.4h-1.4v-.9h1.3c0 .3.1.6.1.9zm-1.4 2v-.7c.5 0 .9 0 1.4.1v.8c-.5-.2-1-.2-1.4-.2zm.2-.9h-.2v-.9h1.4v.9h-1.2zm1.2-4.8v-1.4c.7 0 1.3.1 2 .1v1.4c-.7-.1-1.4-.1-2-.1zm1.9.2c0 .3 0 .6.1.8h-1.9v-.8h1.8zm.1-6.6h-2v-.5c0-.3 0-.7-.1-1h2v.9c.1.3.1.4.1.6zm-2-1.7v-.8h2.1v.8h-2.1zm1.9-3.3c-.1-.3-.2-.6-.2-.9h2.4v1.1c0 .2 0 .4.1.6-.7 0-1.4 0-2.1-.1-.1-.2-.1-.4-.2-.7zm1.5 1h.8c0 .2.1.3.1.5 0 .3.1.6.1.9h-2.1c0-.5-.1-.9-.2-1.4h1.3zm5.2-1.2c0 .3.1.7.2 1h-1.8v-1.7c.5 0 1.1.1 1.6.1v.6zm-1.6 1.2h1.9l.3 1.4h-2.2c-.1-.5 0-.9 0-1.4zm2.1 1.5c0 .3.1.6.1.9h-2.4v-.9h2.3zm.4 3.7h2.1v.1c0 .3-.1.5-.1.8h-1.9v-.3c0-.2-.1-.4-.1-.6zm2 3.5v.2h-2v-1.5h1.9c.1.5.1.9.1 1.3zm-.1-2.5v1h-1.9v-1.1c.7.1 1.3.1 1.9.1zm.2 2.9c0 .4.1.9.1 1.3h-2v-.1c0-.4-.1-.9-.1-1.3.6.1 1.3.1 2 .1zm0-2.6v-.3h1.6v1.1H532c-.1-.3-.1-.6-.1-.8zm1.6-.4h-1.6c0-.3 0-.5.1-.8v-.1h1.4c.1.3.1.6.1.9zm-1.4-1v-.3c0-.1 0-.3-.1-.4h1.5v.7h-1.4zm.7-.8h-.8c0-.1-.1-.2-.1-.3 0-.2 0-.3-.1-.5 0-.3 0-.6-.1-.9h1.7v1.7c-.1-.1-.4-.1-.6 0zm-1-1.9v-.9h1.8v1c-.7-.1-1.3-.1-1.8-.1zm-.1 2s.1.1 0 0c.1.3.1.5.1.6h-2.1v-.6h2zm-2-2.9h1.8c0 .3 0 .6.1.9h-1.7c0-.2 0-.4-.1-.6-.1-.1-.1-.2-.1-.3zm.1 2.7s0-.1 0 0c0-.3 0-.5.1-.8v-.9h1.7v1c0 .2.1.5.2.7h-2zm1.7-4c0 .4 0 .8-.1 1.2h-1.8c0-.3 0-.5-.1-.8-.1-.2-.1-.4-.2-.6h2.1c.1.1.1.1.1.2zm-1.9 2.4v1.7h-.5c-.6 0-1.1 0-1.7-.1 0-.2-.1-.5-.1-.7v-.9h2.3zm0 2.5h-2.3v-.8h.2c.7 0 1.4.1 2 .1 0 .2.1.4.1.7zm-2.3.1h2.3v.8h-2.5c.1-.2.1-.5.2-.8zm.2 1h2.1v1.1c-.8 0-1.6-.1-2.4-.1h-.1c0-.3.1-.6.1-.9.1-.1.2-.1.3-.1zm-2.3-3.6h1.7v.9c0 .2 0 .4.1.7-.6 0-1.1-.1-1.7-.1h-.1v-1.5zm1.8 1.7v.8h-1.6c0-.3-.1-.6-.1-.8.5-.1 1.1-.1 1.7 0zm-1.7 1.8v-.9h1.6c0 .2 0 .4-.1.6v.2c-.4.1-1 .1-1.5.1zm1.6.2v.9h-1.5v-.8c.4-.1.9-.1 1.5-.1zm-1.6 1h1.5v1.7h-1.5v-1.7zm1.5 1.8c0 .2 0 .5.1.7 0 .2.1.4.1.6h-1.8v-.1c0-.2.1-.7.1-1.3.5.1 1 .1 1.5.1zm.2 1.5c0 .3.1.6.1.9h-2c0-.3 0-.6.1-.9h1.8zm-2-3.3v1.7c-.9 0-1.7 0-2.6-.1 0-.5 0-.7-.1-1.1v-.5h2.7zm-2.5-.2v-.8h2.5v.8h-2.5zm2.5-1h-2.5c0-.3 0-.6.1-1h2.4v1zm-2.4-1.1v-.8h2.3c0 .3 0 .6.1.9-.8-.1-1.6-.1-2.4-.1zm2.4-1.5v.6h-2.3v-1.5h2.3v.9zm-2.4-1.1v-.8h2.1v.2c0 .3.1.5.2.7-.7-.1-1.5-.1-2.3-.1zm2.1-4.2h2.2c0 .5.1 1.1.1 1.7h-2.1c-.1-.6-.2-1.2-.2-1.7zm2.3 9.5v-.4c.9 0 1.7.1 2.6.1v1.5H527v-1.2zm-.1-9.7h-2.2v-.8h2.2v.8zm-2 2h2.1c0 .4 0 .9-.1 1.3H525c0-.4-.1-.8-.1-1.3zm2 1.5v.9h-1.7c0-.3-.1-.6-.1-.9h1.8zm-.2 10.2h.5c0 .5.1 1 .1 1.6h-.1c-.6 0-1.2-.1-1.9-.1h-.1v-1.4c.4-.1.9-.1 1.5-.1zm.4-2.6h2.6v1.3h-2.4c-.1-.4-.2-.8-.2-1.3zm.4 1.5h2.2c0 .3.1.6.1.9h-2.6v-.9h.3zm2.4 1.1c.1.4.1.8.2 1.2v.5h-2.7c0-.5 0-.9-.1-1.4v-.2c.9-.1 1.7-.1 2.6-.1zm-2.4 1.7c.9.1 1.7.1 2.6.1v.7h-2.7v-.7c0-.1.1-.1.1-.1zm2.6-1.9c-.1-.3-.1-.6-.1-.9h2v1c-.6-.1-1.3-.1-1.9-.1zm1.9.2v1.6h-1.7c0-.6-.1-1.1-.2-1.6h1.9zm-.1-4.3h1.5v1.5h-1.5c.1-.5.1-1 0-1.5zm1.6 1.7c0 .3 0 .7.1 1v.3c-.5 0-1 0-1.4.1 0-.4-.1-.9-.1-1.3.4-.1.9-.1 1.4-.1zm-6.3-11.1c0-.2-.1-.5-.1-.8v-.1h.1l1.5.9h-1.5zm-.4-1.1c-.7.1-1.4.1-2.1.1v-.9h.8c-.1 0-.1-.1-.2-.1.6.3 1 .6 1.5.9zm-2.1-1v-.3c-.1 0-.1-.1-.2-.1.2.1.4.3.7.4h-.5zm-.2 0h-2.7v-.8h2c.2.1.5.3.7.4.1.1 0 .3 0 .4zm-.9-1h-1.7v-1c.6.4 1.2.7 1.9 1.1-.1 0-.2-.1-.2-.1zm-2-1.1v1.1h-1.4v-1.3h1c.2.1.3.2.5.3 0-.1 0-.1-.1-.1zm-1.3-.4v-.3c-.1 0-.1-.1-.2-.1v.4h-1.5v-.8h.6c.6.3 1.1.6 1.6.9-.1-.1-.3-.1-.5-.1zm-1.7-1.1v-.2c-.1 0-.2-.1-.3-.1v.3c-.5 0-1 0-1.5-.1 0-.2 0-.4.1-.6v-.3c.7.3 1.3.6 2 1h-.3zm-1.8-1c0 .3-.1.7-.1 1-.4 0-.8 0-1.1-.1-.4 0-.8 0-1.3-.1 0-.4 0-.8.1-1.2h1.7c-.1-.1-.2-.1-.3-.1.3.1.7.3 1 .5zm-2.5-.5v-.6c-.1 0-.2-.1-.3-.1v.8c-.5 0-.9 0-1.4-.1v-1.3c-.1 0-.2-.1-.3-.1v1.4c-.8 0-1.5-.1-2.3 0 .1-.4.1-.7.1-1.1v-.4h1.6c1.3.5 2.6 1.1 3.9 1.7-.3-.2-.8-.2-1.3-.2zm-4.1-1.9v-.6c-.1 0-.1 0-.2-.1l1.5.6c-.4.1-.8.1-1.3.1zm-.3.1c-.3 0-.5 0-.8.1-.6.1-1.3.1-1.9.2V194h2.5c.1 0 .2.1.3.1-.1.2-.1.4-.1.7zm-2.7-1c0-.2 0-.4.1-.7-.2-.1-.4-.1-.6-.2h-1.2v-.4c-.1 0-.2-.1-.2-.1v.5h-1.4v-.9c-.1 0-.2-.1-.3-.1v1h-1.2c0-.3.1-.7.1-1.1h.8c-.1 0-.2-.1-.3-.1.7.2 1.4.4 2.1.7 1.4.4 2.7.9 4.1 1.4h-2zm-4.7-2.2h-.1v-.1h-.1c.1 0 .3.1.4.1h-.2zm-.3 0h-1.4c-.4 0-.9.1-1.3.1v-1.1c-.2-.1-.3-.1-.5-.2 1.1.3 2.1.7 3.2 1v.2zm-4.6-1.1v-.4c-.1 0-.2-.1-.2-.1v.5h-2.2v-1.2c-.1 0-.1 0-.2-.1l3.9 1.2c-.5.1-1 .1-1.3.1zm-.2 6.5c0 .3 0 .6-.1 1h-.3c-.7 0-1.4 0-2.1-.1v-.2c0-.2 0-.5.1-.8.9.1 1.8.1 2.4.1zm-2.5-5.2h-1v.1h1v.9h-.9c-.1-.7-.1-1.5-.3-2.2h1.2v1.2zm-1.1 9h.9c0 .3 0 .6-.1.9h-.9v.2h.9v.3c0 .2 0 .3-.1.5h-.8c0-.6.1-1.2.1-1.9zm-.1 2.1h.8v1.2h-.8c-.1-.5 0-.8 0-1.2zm.1 1.2h.6v.9c0 .2.1.4.1.7h-1v.2h1c0 .1.1.3.1.4 0 .2 0 .3.1.5h-1.1v.1h1.2c0 .2.1.3.1.5 0 .4.2.7.2 1.1h-1.4v.1h1.5v1.1h-1.4v.1h1.4c0 .3 0 .6.1.9h-1.4v.2h1.5v.8h-1.5v.1h1.5v1.1h-1.5v.1h1.4v1.6h-1.5v.2h1.5v.9h-1.5v-11.8c-.1.2 0 .2 0 .2zm.4 26.4c0-.8-.1-1.6-.2-2.3h.8v.9h-.7v.2h.7v.7c-.2.1-.4.3-.6.5zm-.6-8.1h1.3v1.6h-1.2c0-.6-.1-1.1-.1-1.6zm1.3 1.7v.9h-1.1v.1h1.1v1.6h-.9c-.1-.9-.1-1.8-.2-2.6h1.1zm-.1 2.8v1.1h-.8c0-.4-.1-.8-.1-1.2h.7c.1.1.2.1.2.1zm-1.2-10.8h1.4c0 .4-.1.9-.1 1.3v.3h-1.4v.1h1.4v1.1h-1.4v.1h1.4v.9h-1.4v.2h1.4v.8h-1.4c.1-1.6.1-3.2.1-4.8zm0 5h1.4v1.1h-1.3v-.7c-.1-.1-.1-.2-.1-.4zm1.5 8.6v-.4h.6c-.2.1-.4.3-.6.4zm.9-.6h-.9v-1h2.3v.1c-.5.3-1 .6-1.4.9zm1.7-1h-.1v-1.2c.3 0 .7-.1 1-.1h1.2v.3c-.7.4-1.4.7-2.1 1zm2.3-1v-.2h.7c-.2.1-.4.1-.7.2zm1.2-.4h-1.1c0-.5.1-.9.2-1.4h1.6c0 .4 0 .8-.1 1.3-.2 0-.4.1-.6.1zm.8-1.3v-.2h1.5v.8c-.5.1-1 .3-1.5.4v-1zm1.8-.1h1.4v.3c-.5.1-1 .2-1.4.3v-.6zm1.6 0h1.2l-1.2.3v-.3zm2.1-.1h-2V224c.4 0 .7 0 1.1-.1h1c0 .4.1.9.1 1.3h-.2zm.3-.1v-1.3c.7 0 1.4-.1 2.1-.1v1c-.7.1-1.4.3-2.1.4zm2.4-1.3h2.1v.4c-.7.2-1.4.3-2.2.5 0-.3 0-.6.1-.9zm2.3.4v-.4h1.3c.1 0 .3-.1.4-.1-.5.2-1.1.3-1.7.5zm1.8-.5c-.6 0-1.2 0-1.8-.1V222h2.6c0 .2-.1.4-.1.5v.9c.1 0 .2 0 .3-.1v-.4c0-.4.1-.7.1-1h1.5v.9c.1 0 .1 0 .2-.1v-.9h1.5v.4c-1.4.6-2.8 1-4.3 1.5zm4.6-1.6c.4 0 .8 0 1.2.1.2-.1.4-.1.7-.2h-.3v-.8h1.9v.4c.1 0 .2 0 .2-.1v-.3h1.6c-1.7.4-3.5.7-5.3 1.2v-.3zm6.2-1.1v-.9h2.1v.5h.2v-.4h2.5c.3 0 .6-.1.9-.2h-.5v-.7h1.6v.5h.2v-.4h1.5v.2h.2v-.2h1.2c.3 0 .6-.1.9-.1h-.6c0-.5-.1-1.1-.1-1.6h2c0 .3.1.7.1 1v.3h.3v-1.3c.8 0 1.5.1 2.3.1v.8h.2v-.7c.7 0 1.4.1 2 .1v.3h.2v-.2h1.2c.3-.1.6-.1.9-.2h-2.1c-.1-.4 0-.9 0-1.3h2.5c0 .4.1.8.2 1.2h.2c-.1-.4-.1-.8-.2-1.2h.7c.4.3.8.6 1.2.8-7.5 1.6-15 2.5-22.5 4 .3-.3.5-.3.7-.4zm-476.9-1.5c0-.1 0-.3-.1-.4h2.1v.3c-.6-.1-1.3-.1-2 .1zm2.2-.2v-.3c.2 0 .3 0 .5.1.3 0 .5.1.8.1.5 0 .9-.1 1.4-.1v.9c-.8-.4-1.7-.6-2.7-.7zm14.4-6.5h-1.5v-.8h1.5v.8zm.1 2.9v.2h-1.6c0-.3 0-.8.1-1.4h1.4c0 .5 0 .8.1 1.2zm-.1-2.8v1.5h-1.5v-1.5h1.5zm-1.6 3.3H65c.1.4.1.7.1 1.1h-2v-.1c0-.4.1-.7.1-1zm6.5-5.9c.1.2.1.3.1.5h-2.1v-1h1.8c.1.2.2.3.2.5zm1.9 10.8v.8h-1.5v-.8h1.5zm-1.5-.1v-.9h1.4v.9h-1.4zm1.5-1.1h-1.4v-.9h1.5c-.1.3-.1.6-.1.9zm-.9-1.1h-.5v-1.4h1.4v1.5c-.3-.1-.6-.1-.9-.1zm.5-1.6h-1v-.9c.5 0 1 .1 1.4.1v.8h-.4zm-1.1-1.1c0-.4-.1-.9-.1-1.3h1.5c0 .4.1.8.1 1.2v.2c-.5-.1-1-.1-1.5-.1zm-1.7 4.8v-.9H70v.9h-1.6zm1.5.2v.8h-1.5v-.8h1.5zm-1.5-1.2v-.9H70v1c-.6-.1-1.1-.1-1.6-.1zm-.8-7v1.7c-.8 0-1.5 0-2.2-.1H65v-1.6h2.6zm-2.5-.1c0-.3 0-.5.1-.8h2.4v.9h-1c-.5-.1-1-.1-1.5-.1zm2.5 1.9v1.2c-.8 0-1.7-.1-2.5 0-.1-.4-.1-.8-.1-1.3.9.1 1.8.1 2.6.1zm-2.4 4.1h-2.1v-1.5h2c.1.6.1 1 .1 1.5zm0 .2v1h-2.1v-1.1c.7.1 1.4.1 2.1.1zm0 1.2v.8h-2.1v-.7c.7-.1 1.4-.1 2.1-.1zm-2.1.9h2.1v.9h-2.1v-.9zm2.2-4.8v-.2h2.5c0 .4.1.7.1 1.1h-2.5v-.7c-.1-.1-.1-.1-.1-.2zm4.4-3.5h-1.8v-.9h1.8v.9zm-1.8-1v-.2c0-.2-.1-.4-.1-.6h2v.2c0 .2-.1.5-.1.7-.6-.1-1.2-.1-1.8-.1zm-2.1 5.6h2.1c.1.4.2.9.2 1.3v.1h-2.7c0-.4 0-.8-.1-1.2v-.3c.1.1.3.1.5.1zm2.1-1.3c.6 0 1.1.1 1.7.1h.3v.9H68c0-.2 0-.6-.1-1 0 .1 0 .1 0 0zM66 219h2c0 .3 0 .7.1 1-.9 0-1.8 0-2.7.1V219h.6zm2.1 1.1v.8h-2.7c0-.3 0-.5-.1-.8h2.8zm.1.9v.8h-2.6v-.8h2.6zm-.1-3.6h1.8v1.4h-1.6c0-.5-.1-.9-.2-1.4zm2.2-2.8H70c-.1-.6-.1-1.1-.1-1.7h1.5v1.6c-.3.1-.7.1-1.1.1zm1.1-4.5v.7H70v-.2c0-.3-.1-.5-.2-.8h1.6v.3zm-1.4 1s0-.1.1-.1h1.4v.9h-1.6c0-.3 0-.6.1-.8zm1.4.9v.8h-1.5v-.8h1.5zm-1.5 4.1c-.5 0-1-.1-1.4-.1h-.6v-1.2h1.9c.1.4.1.8.1 1.3zm-2-1.5v-1.7h1.8c0 .5 0 1.1.1 1.6v.1h-1.9zm-.3-3.2v.5h-2.4c0-.3.1-.5.1-.8h2.3v.3zM63 216h-2.6v-1.4h.1c.8 0 1.6-.1 2.5-.1.1.6 0 1.1 0 1.5zm-1.1 4h-1.4v-1.1h2.3v1.1h-.9zm1 .2v.7h-2.3v-.7h2.3zm-2.3-1.4v-1.4h.2c.7-.1 1.4-.1 2.1-.1v1.5c-.8.1-1.5 0-2.3 0zm.9-1.6c-.3 0-.6 0-1 .1 0-.3-.1-.6-.2-.9v-.1h2.5c0 .3-.1.7-.1 1-.3-.1-.7-.1-1.2-.1zm-.7-2.7h-.3c0-.4-.1-.5-.1-.9v-.4c.3 0 .5 0 .7-.1.6-.1 1.2-.1 1.8-.2v1.5c-.6.1-1.4.1-2.1.1zm-2.3 5.7h1.9v.7h-1.8v-.2c-.1-.2-.1-.3-.1-.5zm0-.2c0-.4 0-.7-.1-1.1h1.9v1.1h-1.8zm-1.1-1.3h-.5v-1h1.3c0 .4 0 .7.1 1.1-.4 0-.6-.1-.9-.1zm.8.2v1.1h-1.4v-1.1h1.4zm-1.3 1.3h1.4v.8h-1.4v-.8zm2.4-1.4h-.9c0-.4-.1-.7-.1-1.1h.3c.5-.1 1.1-.1 1.6-.2 0 .4.1.8.1 1.2v.2c-.3-.1-.7-.1-1-.1zm-1-1.3c0-.4-.1-.8-.1-1.3h2c0 .4 0 .7.1 1.1-.7 0-1.3.1-2 .2zm1.9-1.6v.2h-2v-1.2c.4 0 .8 0 1.3-.1h.7v1.1zm-2.1 1.6h-1.2v-1.4h1.2v1.4zm-1.4 2.5h-1.5v-1.1h1.5v1.1zm-1.2-1.2h-.3v-1c.5 0 .9 0 1.4-.1h.1v1c-.4 0-.8.1-1.2.1zm1.2-1.3c-.5 0-1 .1-1.4.1v-1.5h1.4v1.4zm-1.7 1.3h-1.7c0-.4-.1-.7-.2-1.1h1.8c.1.4.1.8.1 1.1zm-1.6 1.1v-1H55v1.1h-1.4c-.1 0-.1 0-.2-.1zm1.6.3v.3c-.3-.1-.6-.2-1-.3h1zm.2 0h1.5v.7h-.4c-.4-.1-.7-.3-1.1-.4v-.3zm1.7.9h1.4v.4c-.5-.1-1-.3-1.4-.4zm1.6 0h1.9v.8c-.2 0-.3 0-.5-.1l-1.4-.3v-.4zm2.1.8v-.8h2.3v.8c-.3 0-.5 0-.8.1-.2 0-.4 0-.6.1.3 0 .5.1.8.1h.5v.1h.1c-.7-.2-1.6-.3-2.3-.4zm2.5.2c.7 0 1.4-.1 2.1-.1v.5h.2v-.6H68c0 .2-.1.4-.1.5v.4h.3c0-.3.1-.6.1-.9h1.5v1.2h.1c-2.3-.3-4.5-.6-6.8-1 0 .1 0 0 0 0zm7 0h1.5v1.4c-.5-.1-1-.1-1.5-.2v-1.2zm1.7 1.4v-1.4c.5 0 .9 0 1.4.1v1.5c-.5-.1-1-.1-1.5-.2h.1zm10.6-16.2c0 .3.1.6.1.9h-2.4v-.9h2.3zm-2.2-.1c0-.5.1-.9.1-1.3h1.9l.3 1.4c-.9-.1-1.6-.1-2.3-.1zm6.6-3.1H88v1.5h-1.2v-1.5zm.4 1.7h.7v1.3h-1.2v-1.3h.5zm.7 1.4c.1 0 .1 0 0 0 0 .4.1.7.1 1h-1.3v-1h1.2zm9.6 2.1v.6h-2.2c0-.2-.1-.4-.1-.6v-.6c.8 0 1.6.1 2.4 0-.1.2-.1.4-.1.6zm0 1.5h-2.3v-.9h2.2c.1.3.1.6.1.9zm-2.3.2h2.3v.8h-2.4c.1-.3.1-.5.1-.8zm2.3-2.4h-2.4v-1.3h2.2c.1.4.2.8.2 1.3 0-.1 0-.1 0 0zm-2.3-1.5c0-.5.1-.9.1-1.4h1.8l.3 1.4h-2.2zm.1-1.6v-1.3h1.6v.3c0 .3.1.6.2.9-.7.1-1.3.1-1.8.1zm-.1-1.5c0-.3-.1-.7-.1-1v-.2h1.7v1.2c-.5.1-1 0-1.6 0zm-.1 8h2.5v1.3c-.9 0-1.7-.1-2.6-.1 0-.4.1-.8.1-1.2zm2 12h.8v.2c0 .4-.1.8-.1 1.2h-2.3V224h1.6zm-1.6-.2v-1.3c.8 0 1.7 0 2.5.1v1.2h-2.5zm1.9 7.1c-.1-.2-.3-.4-.4-.6h.5c-.1.2-.1.4-.1.6zm-.6-.8l-.8-.8h1.6c0 .3 0 .6-.1.8h-.7zm.8-2h-2.2V227h2.2v.2c.1.3.1.6 0 .9zm-2.1-1.3v-1.3h2.3c0 .4-.1.9-.1 1.3h-2.2zm0 1.4h2.2v.9h-1.8l-.3-.3c-.1-.2-.1-.4-.1-.6zm-.7 0h.5v.3c-.2-.1-.4-.1-.5-.3zm-4.5-21v1.1h-2v-1c.6-.1 1.3-.1 2-.1zm-2-.2v-1.3h1.8c.1.4.2.9.2 1.3-.7.1-1.4.1-2 0zm2.3 13v-.7h.7c.5 0 1.1-.1 1.6-.1v.8h-2.3zm2.3.1v.8h-2.4v-.9c.8.1 1.6.1 2.4.1zm-2.3-1v-1.5c.8 0 1.5.1 2.3.1v1.3c-.8.1-1.6.1-2.3.1zm.5-1.6h-.5c0-.4-.2-.7-.2-1.1h2.5c0 .3-.1.7-.1 1v.1h-1.7zm-.6 6.3h-2v-1.5h1.9c0 .5 0 1 .1 1.5zm-2-3.7h1.9v.9h-1.8v-.3c-.1-.2-.1-.4-.1-.6zm.7-.1h-.7v-.7h1.9v.7h-1.2zm.1 2.2h-.9v-1h1.9v1.1c-.3-.1-.6-.1-1-.1zm.8-13.7h.2v1.5h-1.9v-.8c0-.3 0-.6-.1-.8.6 0 1.2 0 1.8.1zm-.9 2.4h-.8v-.7h1.9v.7h-1.1zm1 .1v.9h-1.9c0-.1 0-.3.1-.4v-.5h1.8zm-1.9 2.1v-1h1.9v1.1h-.9c-.3-.1-.6-.1-1-.1zm1.9 4.3h-2c0-.4 0-.7-.1-1.1H90c.2.4.2.8.2 1.1zm-.1.2h.2c0 .3.1.7.1 1v.5h-1.9c0-.5-.1-1.1-.1-1.6.5.1 1.1.1 1.7.1zm-1.7 6.4h2.1c0 .4.1.9.1 1.3h-2.2V224zm2.2-1.9c0-.3-.1-.6-.1-.9h2.3v1.1h-2.2v-.2zm2.2.3v1.4h-2.1c0-.5-.1-1-.1-1.4h2.2zm0 1.6v1.3h-2V224h2zm-2.3-7.8c-.1 0-.1 0 0 0-.1-.3-.1-.7 0-1v-.3h2.6c0 .5 0 .9-.1 1.3h-2.5zm.1-7.9v-1.1h2.1v.5c0 .2.1.4.2.6-.7.1-1.5 0-2.3 0zm2.4.3v1.3c-.8 0-1.5.1-2.3.1v-1.6c.7.1 1.5.2 2.3.2zm-2.4 1.6h.7c.5 0 1.1-.1 1.6-.1 0 .3 0 .5.1.8h-2.4v-.7zm2.4.8v.8h-2.5c0-.3 0-.6.1-.8H93zm-2.4 1H93v1.1h-2.6c0-.3 0-.7.1-1.1h.1zm2.4 1.3v1.4h-2.5v-1.4H93zm-.1-7.5c-.1 0-.1 0 0 0 .7-.1 1.4-.1 2.1-.1 0 .5 0 .9-.1 1.4H93c0-.4-.1-.9-.1-1.3zm.4 6v-.8h1.6v.8h-1.6zm1.5.2c0 .4-.1.8-.1 1.2h-1.5v-1.1c.6-.1 1.1-.1 1.6-.1zm-1.5 1.3h1.5v1.3h-1.5v-1.3zm1.5 1.5c0 .3 0 .6.1.8 0 .2.1.4.1.5h-1.7c0-.2 0-.7.1-1.3.4.1.9 0 1.4 0zm.1-4h-1.6c0-.3-.1-.5-.1-.8.5 0 1-.1 1.6-.1h.2v.4c-.1.2-.1.4-.1.5zm-1.8 13v-1.4c.7 0 1.4 0 2.1.1v1.3h-2.1zm2.2 1.5h-2.2V224h2.2v1.3zm-2.2-3.1v-1.1h2.1v1.2c-.7 0-1.4 0-2.1-.1zm0-1.3v-.8h2.1v.8h-2.1zm0-.9v-.8c.5 0 1.1-.1 1.6-.1h.5v.9h-2.1zm.2-1h-.2v-1.3c.7 0 1.4.1 2 .1 0 .4 0 .8.1 1.1-.7.1-1.3.1-1.9.1zm-.2-11.8H95c0 .4 0 .8-.1 1.3h-.8c-.3 0-.6 0-.9-.1 0-.4-.1-.8-.1-1.2zm.1 2.1v-.7c.6 0 1.1.1 1.7.1v.6c0 .2 0 .4.1.6h-1.8v-.6zm-.2 16.2h2.2v1.3c-.4 0-.8 0-1.2-.1-.4 0-.7 0-1.1-.1.1-.3.1-.7.1-1.1zm2.3-7.8c-.1-.4 0-.9 0-1.3h2.5c.1.4.1.9.2 1.3h-2.7zm2.6.2c0 .3.1.5.1.8v.2h-2.7c0-.4 0-.8-.1-1.1 1 .1 1.8.1 2.7.1zm-2.7-1.7c-.1-.5-.2-.9-.2-1.4h2.6v1.4h-2.4zm2.4-2.8v1.2H95v-1.3c.9.1 1.7.1 2.6.1zm-2.5 4.2c-.3 0-.7 0-1-.1-.3 0-.7 0-1-.1 0-.4 0-.8.1-1.2H95c0 .6.1 1 .1 1.4zm-2.3-12.1c0-.5-.1-.9-.1-1.4.8 0 1.5 0 2.3.1v1.3h-2.2zm-.1-1.5v-1.1h2.1c.1.4.1.8.1 1.2-.7-.1-1.5-.1-2.2-.1zm0-1.3v-.8h2v.8h-2zm0 4.4h-2.1c0-.4-.1-.9-.2-1.3h2.1c.1.2.1.4.1.5 0 .2.1.5.1.8zm-2.4-1.5c-.1-.2-.1-.5-.2-.8-.1-.2-.1-.5-.2-.7h2.4v.9c0 .2 0 .3.1.5-.6.1-1.3.1-2.1.1zm2-1.6h-2.4c-.1-.4-.1-.7-.1-1.1h2.5v1.1zm-2.3 1.6h-1.8v-1.5h1.4v.2c.2.4.4.8.4 1.3zm-.7-1.6h-1.1v-1h1.3c0 .4 0 .7.1 1.1-.1-.1-.2-.1-.3-.1zm-1 9.2h1.9v1.5h-2c0-.5.1-1 .1-1.5zm1.9 1.7v1.3h-1.9v-1.3h1.9zm-2.2 1.3h-1.2v-1.3H88v1.3zm-.1.1c.1 0 .1 0 0 0 .1.3.1.7.2 1h-1.2v-1h1zm.2-3.2h-1.3v-1h1.4v.8c-.1 0-.1.1-.1.2zm0 .1v1.5h-1.2v-1.5h1.2zm-1.2 9.1h1.4v1.5h-1.4c-.1-.4-.1-.9 0-1.5zm0-.1v-1h1.4v1h-1.4zm0-1.2v-.9h1.4v.9h-1.4zm1.3-1h-1.4v-.7h1.3c.1.2.1.4.1.7zm-1.3-.8v-1.6h1.2c0 .5.1 1.1.1 1.6-.4-.1-.9-.1-1.3 0zm-.2-7.3v-.9h1.4v.9h-1.4zm0-1v-.7h1.4v.7h-1.4zm1.4-.9h-1.4v-1.7H88c0 .3 0 .6.1.8v.9zm-4.8 10v-.7h1.6v.7h-1.6zm1.7.1v.9h-1.6v-.9H85zm-1.6 1.7v-.7h1.5v1.1h-1.6c0-.1.1-.3.1-.4zm.1.6h1.4c0 .5 0 .9-.1 1.4v.1h-1.7v-.8c0-.2 0-.5.1-.7h.3zm1.5-3.2h-1.7c0-.6-.1-1.1-.2-1.6H85v1.6zm-6.7-7.3v-.9h1.6c0 .2 0 .4-.1.6v.2c-.5.1-1 .1-1.5.1zm1.5.2c0 .3 0 .6-.1.9h-1.5v-.8c.6-.1 1.1-.1 1.6-.1zm-1.5 1h1.5v1.7h-1.5v-1.7zm1.5 1.8c0 .2 0 .5.1.7 0 .2.1.4.1.6h-1.8v-.1c0-.2.1-.7.1-1.3.5.1 1 .1 1.5.1zm.1-4h-1.6c0-.3-.1-.6-.1-.8.6 0 1.2 0 1.8.1v.3c-.1 0-.1.2-.1.4zm-1.7-1.1c-.1-.2-.1-.4 0-.6v-.9h1.7v.9c0 .2 0 .4.1.7-.6 0-1.2 0-1.8-.1zm1.7-1.6h-1.7c0-.3-.1-.6-.1-.9H80c-.1.3-.1.6-.1.9zm6.6-1.1c-.6 0-1.2 0-1.8.1v-1.3h1.8v1.2zm.1 8.8v.3c-.5 0-1 0-1.4.1 0-.4-.1-.9-.1-1.3h1.5c-.1.3-.1.6 0 .9zm-.1-8.7v1h-1.7v-.9c.5 0 1.1-.1 1.7-.1zm-3.3 9.1h-.3v-.1c0-.4-.1-.9-.1-1.3h2c0 .4.1.9.1 1.3-.5.1-1.1.1-1.7.1zm1.7.1v1H83c-.1-.3-.1-.6-.1-.9.7-.1 1.4-.1 2-.1zm-2.2-5.4h2.1v.1c0 .3-.1.5-.1.8h-1.9v-.3c0-.2 0-.4-.1-.6zm.1 6.3h-2.6v-.9h2.4c.1.3.2.6.2.9zm2-2.8v.2h-2v-1.5h1.9c0 .5.1.9.1 1.3zm-.1-2.5v1h-1.9v-1.1c.7.1 1.3.1 1.9.1zm.2.3v-.3h1.6v1.1H85c-.1-.3-.1-.6-.1-.8zm1.5-.4h-1.6c0-.3 0-.5.1-.8v-.1h1.4c.1.3.1.6.1.9zm-1.4-1v-.3c0-.1 0-.3-.1-.4h1.5v.7H85zm.8-.8H85c0-.1-.1-.2-.1-.3 0-.2 0-.3-.1-.5 0-.3 0-.6-.1-.9h1.7v1.7c-.2-.1-.4-.1-.6 0zm-1.1.1s0 .1 0 0c.1.3.1.5.1.6h-2.1v-.6h2zm-2-2.6v-.3h1.8c0 .3 0 .6.1.9h-1.7c-.1-.2-.2-.4-.2-.6zm0 8.7h-2.4c-.1-.5-.2-.9-.2-1.4h2.6v1c-.1.2-.1.3 0 .4zm-2.9 3.7h-1.7v-.9c.7 0 1.4.1 2.1.1v.8h-.4zm.4.1v.9h-2.1v-.9h2.1zm-2.1 1.1c.7 0 1.4 0 2.1-.1v.9H78c.1-.2.1-.5.1-.8zm2.1-2.1c-.1 0-.1 0 0 0-.7 0-1.3-.1-1.9-.1h-.1v-1.4h2.1c-.2.4-.1 1-.1 1.5zm-2.1 3.3v-.2h2.2v1.6h-2.2v-1.4zm2.2-4.9h2.6c.1.4.1.8.2 1.2v.5h-2.7c0-.5 0-.9-.1-1.4v-.3zm.2 1.7c.9.1 1.7.1 2.6.1v.7h-2.7v-.7c0-.1 0-.1.1-.1zm2.6.9v.9h-2.6c0-.3 0-.6-.1-.9h2.7zm-.2 3.8h-2.4v-1.6c.8 0 1.7.1 2.5.1v.2c-.1.4-.1.8-.1 1.3zm.1-1.7c-.9 0-1.7-.1-2.6-.1v-.9h2.7v.5c0 .1 0 .3-.1.5zm1.9-9h1.5c0 .5 0 1 .1 1.5H85c0-.5-.1-1-.1-1.5zm.2 9.2h1.5c0 .5 0 1-.1 1.5H85c0-.5.1-1 .1-1.5zm0-.2v-1.1h1.5v1.1h-1.5zm0-1.2v-.9h1.5v.9h-1.5zm.1-1v-.7h1.5v.7h-1.5zm.6-.8h-.6v-1.7h1.5v1.6c-.3.1-.6.1-.9.1zm-.6-1.8v-.9h1.4v1c-.4-.1-.9-.1-1.4-.1zm1.4-13v1.3h-1.8v-1.5h1.8v.2zm-3.9 5.6s0-.1 0 0c0-.3 0-.5.1-.8v-.9h1.7v1c0 .2.1.5.2.7h-2zm1.8-4c0 .4-.1.8-.1 1.2h-1.8c0-.3 0-.5-.1-.8-.1-.2-.1-.4-.2-.6h2.1c.1.1.1.1.1.2zm-2 2.4v1.7H82c-.6 0-1.1 0-1.7-.1 0-.2-.1-.5-.1-.7v-.9h2.3zm0 2.5h-2.3v-.8h.2c.7 0 1.4.1 2 .1.1.2.1.4.1.7zm-2.3.1h2.3v.8H80c.2-.2.2-.5.2-.8zm.3 1h2.1v1.1c-.8 0-1.6-.1-2.5-.1H80c0-.3.1-.6.1-.9.1-.1.2-.1.4-.1zm2.1 1.2v1.5H80v-1.6c.9 0 1.7.1 2.6.1zm-2.5 4.2h-2c0-.3 0-.6.1-.9H80c0 .2 0 .6.1.9zm-.2-10.2H78c-.1-.4-.1-.9-.2-1.3h2.1c.1.4 0 .8 0 1.3zM75.6 219v-1.5h2.3v1.4c-.8 0-1.6.1-2.3.1zm2.3.1v.9h-2.3v-.9h2.3zm-2.3-1.8c0-.3-.1-.6-.2-.8h2.5c0 .3 0 .6-.1.9-.7-.1-1.5-.1-2.2-.1zm0 2.8h2.3v.9h-2.3c-.1-.3-.1-.6 0-.9zm2.3 1.1v.8h-2.3c0-.3 0-.5-.1-.8h2.4zm-.1 1v1.7c-.7 0-1.4 0-2.1-.1 0-.5-.1-1.1-.1-1.6h2.2zm-2.4-5.9v-1.4c.4 0 .9 0 1.3.1H78c0 .4 0 .9-.1 1.3h-2.5zm2.6-3.2v1.7c-.9 0-1.7 0-2.6-.1 0-.5 0-.7-.1-1.1v-.5H78zm-2.6-.2v-.8h2.5v.8h-2.5zm2.3-5.4c0 .3.1.5.2.7-.8 0-1.5 0-2.3-.1v-.8h2.1v.2zm-2.1 1.8v-.9h2.3v1.5h-2.3v-.6zm1.3.7h1c0 .3 0 .6.1.9h-2.4v-.8c.4-.1.9-.1 1.3-.1zm1.1 1v.9h-2.5c0-.3 0-.6.1-1 .8.1 1.6.1 2.4.1zm-4.9 1.1v.7c-.4 0-.9 0-1.3-.1v-.8c.4.1.9.1 1.3.2zm-1.4-1.2h1.4v.9h-1.3c-.1-.3-.1-.6-.1-.9zm1.4 2.1c0 .5-.1 1.1-.1 1.6h-1.2V213h1.3zm-.3 1.7h.2v1.4h-1.2v-1.4h1zm.2 1.7v.8h-1.2v-.8H73zm.1 1c0 .5.1 1 .1 1.5-.4 0-.9 0-1.3-.1v-1.5c.4.1.8.1 1.2.1zm2.1-6.6h-1.8c0-.3 0-.7-.1-.9.7 0 1.3 0 1.9.1.1.1.1.4 0 .8zm.1 7.8v.3h-2c0-.5-.1-1-.1-1.5h1.9c.2.4.2.8.2 1.2zm-1.9-7.1v-.5h1.8v.9h-1.9c.1-.2.1-.3.1-.4zm1.8.6v.8c-.6 0-1.2 0-1.9-.1v-.8c.7.1 1.3.1 1.9.1zm0 5.2h-1.9v-.8h1.9v.8zm0-1.4v.4h-1.9v-1.4c.7 0 1.3.1 2 .1-.1.4-.1.7-.1.9zm-2 4.6v.5h-1.4v-.9h1.4v.4zm0-.6h-1.4v-.9h1.3c.1.3.1.6.1.9zm-1.3 2v-.7c.4 0 .9 0 1.4.1v.8c-.5-.2-1-.2-1.4-.2zm3.4-2.8v.8h-1.9v-.9c.6.1 1.3.1 1.9.1zm-1.8 1h1.9v1h-1.8v-.3c-.1-.3-.1-.5-.1-.7zm0 1.1h1.9v.8c-.6 0-1.3 0-1.9-.1-.1-.2 0-.4 0-.7zm1.8-11.9v.6h-2v-.5c0-.3 0-.7-.1-1h2c.1.2.1.6.1.9zm-2 3.8s0-.1 0 0h1.9v1.6h-2c.1-.6.1-1.1.1-1.6zm-.2-3.8v.5c-.5 0-.9 0-1.4-.1v-1.4H73c0 .3 0 .6.1 1zm0 .6v.9h-1.4v-1c.5.1.9.1 1.4.1zm.3 13.8v-1.5h1.9c0 .5.1 1.1.2 1.6H74c-.2-.1-.4-.1-.6-.1zm2.5.3h2v.2l-2.1-.3c-.1.1 0 .1.1.1zm2.2.3v-.2h2.2v.5h.1l-2.4-.3h.1zm2.4-.2H83v.1c0 .2 0 .4-.1.6-.8-.1-1.6-.1-2.4-.2v-.5zm2.7.6v-.6h1.7v.9h.1c-.6 0-1.1-.1-1.7-.2-.2 0-.1-.1-.1-.1zm1.8-.7h1.5c0 .4 0 .7-.1 1.1h.2c0-.4 0-.7.1-1.1h1.4v1.3h-.4l-2.2-.3c-.2 0-.4 0-.6-.1.1-.2.1-.5.1-.9zm3.5 1.5h2.2v.6c.1 0 .1 0 .2.1v-.6h2v1.2h-.7c-1.2-.6-2.5-1-3.8-1.2-.1-.2 0-.2.1-.1zm4.2 1.3v.1c-.1-.1-.2-.1-.3-.2.1.1.2.1.3.1zm.3 0c.8 0 1.5.1 2.2.1v1.2h-.6c-.5-.4-1-.7-1.6-1v-.3zm4.5 4.2zm.6-.7c-.1 0-.2.1-.3.2v-.2h.3v-.2h-.2c0-.3.1-.6.1-.8h.1v-.2H98v-.9h.1v-.1H98v-1h.1v-.2H98c0-.3.1-.7.1-1V222c0 .2-.1.3-.1.5-.8 0-1.7-.1-2.5-.1v-1.2h2.6v-.2h-2.6c0-.3 0-.5-.1-.8h2.7v-.2h-2.7v-.8h2.7v-1.9c0-.2-.1-.5-.1-.7h.1v-.1H98c0-.5-.1-.9-.1-1.4h.2v-.2h-.2v-1.2h.1v-.2h-.1v-1.2h.1v-.2h-.1v-.3c0-.2-.1-.4-.1-.6h.1v-.2h-.1v-.9h.1v-.4l-.3-3.7v-.3c0-.2-.1-.3-.1-.5-.1-.2-.1-.5-.1-.8h.1v-.2h-.1v-.3l-.3-1.2v.1h-1.8v-.8h1.6c0-.1 0-.1-.1-.2h-1.5c0-.3 0-.6.1-.9h.9s.1 0 .1.1c2.5 3.2 1.4 29.3 1.7 29.3zm-2.4-29.8c0 .1.1.1.1.2h-.7c-.1 0-.2 0-.2.1.2-.1.5-.2.8-.3zm-1.1.3h.3c0 .3-.1.6-.1.9h-2v-.4c.5-.1 1.2-.3 1.8-.5zm-2.1.9h-1.2l1.2-.3v.3zm-1.8.2h1.7c0 .1 0 .2-.1.3 0 .2 0 .3-.1.5h-2.6v-.6c-.1 0-.2 0-.2.1v.6h-1.3v-.2c-.1 0-.2 0-.2.1v.1h-.4c1.1-.3 2.2-.6 3.2-.9zm-3.5 1h.8v1h-1.2v-.9c.1 0 .2-.1.4-.1zm-.7.2v.9h-1.7v-.3c.6-.3 1.1-.5 1.7-.6zm-1.9.8h-.9l.9-.3v.3zm-1.5.2h1.4c0 .5-.1 1-.1 1.5h-2.1c0-.2-.1-.4-.1-.6-.1-.2-.1-.4-.1-.7.4 0 .7-.1 1-.2zm-1.2.4v.1c0 .3.1.7.2 1h-1.8v-.7c-.1 0-.2.1-.3.1v.6h-1.6c1.1-.4 2.3-.8 3.5-1.1zm-4.4 1.4c0 .1.1.3.1.4 0 .3.1.6.1.9h-2.1c0-.2 0-.4-.1-.5.7-.3 1.3-.6 2-.8zm-2.3.8c0 .1 0 .2.1.4v.1H74c.4-.2.8-.4 1.2-.5zm-1.7.6h1.8v.8h-2v-.8h.2zm-.5.2v.6h-1.2v-.2c-.1 0-.2.1-.3.1v.1h-.3l1.8-.6zm-2.2.8h.6v1.4h-1.6c0-.1 0-.3-.1-.4v-.6c.4-.1.8-.3 1.1-.4zm-1.3 1.4h-1.7v-.1c.6-.2 1.1-.5 1.7-.7v.8zm-2.4.1h.4c0 .2 0 .6.1 1-.8 0-1.5 0-2.3.1v-.3c.6-.3 1.2-.5 1.8-.8zm.4-.1zm-2.6 1.2h-.4c.1-.1.3-.1.4-.2.1.1 0 .1 0 .2zm-.7.2h.7c0 .2 0 .4-.1.6v.1h-1.6v-.4c.4-.1.7-.2 1-.3zm-1.2.7h-.4c.1-.1.3-.2.4-.2v.2zm-.7.2h.8v.8h-1c-.5.1-1.1.1-1.6.2v-.1l1.8-.9zm-2.1 1zm0 .2v1.3c-.5 0-1 .1-1.5.1h-.5v-.5c.6-.3 1.1-.6 1.7-1-.1 0-.1.1-.2.1h.5zm-2.2 1.6v1.2h-1.2v-1.1s.1 0 .1-.1h-.1c.5.1.9.1 1.2 0zm-.7-.1c.3-.2.5-.3.8-.4v.4c-.3-.1-.6 0-.8 0zm-.7 1.2s0 .1 0 0c-.5.1-1 .1-1.4.1v-.1c-.1 0-.1.1-.2.1-.1.1-.2.1-.3.2h.4v1.5h-1.8c0-.2-.1-.4-.1-.7-.1 0-.2.1-.2.1 0 .2.1.4.1.5h-1.3c-.1 0-.2.1-.3.1h1.7c.1.3.1.6.1.9v.1c-.3 0-.6.1-.9.1-.5.1-.9.1-1.4 0h-.4v-.8s-.1 0-.1.1c2.1-.8 4.2-1.9 6.3-3.1-.2.4-.2.7-.2.9zm-6.4 2.3v.7h-2c.6-.2 1.2-.4 2-.7zm-2 .7c0 .1 0 .1 0 0 0 .1 0 .1 0 0zm-.5-.9c-.2-.2-.5-.4-.9-.5.7.1.9.3.9.5zm-20.2 46.7c-3.6 2.6-7.7 4.4-11.4 6.8-3.1 2-6 6-9.3 8.2 1-9.2 2.1-18.8 4.3-27.5 1.6-6.3 7-15.1 6.8-22-.4-12.2-7.9-24.9-14.3-34.6.4.1.8.1 1.2-.2 7.6-5.3 16.3-7.5 23.8-13.1 3.8-2.8 7.1-5.4 10.2-9.4 1-1.4 1-2 1.1-2 0 0 .1.2.5.6.2.2.4.2.5 0 .1-.2.3-.3.4-.4.9 15.4 2 30.8 2 46.3 0 1 .4 1.6 1 1.8v.4c0 1 .7 2 1.6 1.9.3 0 .6 0 .9-.1.1 0 .2-.1.3-.1.1.1.2.2.3.2h.1c6.1 1.7 11.6 3.9 18 5.2 5 1 10 1.7 15.1 2.1 2.9.3 10.9-.1 13.6 3.6-14.7 1.8-29.4 8.4-42.7 15.7-8.4 4.7-16.1 10.8-24 16.6zM443.4 169c-12.1-1.4-24.6-3.3-36.6-5.9-10-2.2-19.6-6.6-29.7-8.2-19.6-3.3-39.4-3.1-59.1-3.8-9.3-.3-19.8 0-29 1.6-11.5 1.9-23 .4-34.5 2.4-24 4.2-47.9 9.3-71.7 14.7-11.9 2.7-23.9 2.7-35.5 7.2-11.3 4.4-22.5 8.6-33.8 12.7-11.5 4.3-23.4 7.1-34.9 11.3-5.5 2-11.1 3.3-16.4 5.9-3.7 1.8-11.2 7.3-15.5 8.1v-4.3c5.2-3.9 11.4-5.8 16.6-9.7 1.7-1.3 4-1.4 5.9-2.5 2.8-1.6 6.2-3.3 9.2-3.8.5-.1.4-1.2-.1-1.2-5 .1-9.7 3.3-14.4 5.1-5.5 2-12.5 6.4-17.2 10.6-.1-5.3-.2-10.7-.4-16 2.2-3 5.7-3.9 8.7-5.2 4.4-2 8.9-3.9 13.3-5.6 2.8-1.1 5.8-1.3 8.5-2.8.5-.3.2-1.2-.3-1.2-7.4-.3-15 5.3-21.9 7.8-2.2.8-5.1 1.6-7 3.5 0 0-.7.8-1.4 1.5l-.3-8.4c.1-.1.2-.2.4-.3 2.8-2.5 7.4-3.5 10.6-4.8 2.2-.9 4.4-1.9 6.4-3.1 4.1-2.4 8.9-2.6 13.2-4.1.5-.2.3-.9-.1-1-5.3-.6-10.4 1.6-15.3 4.1-5.1 2.6-10.6 4.4-15.5 7.6-.1-2.4-.2-4.8-.4-7.1 4.8-2.3 9.6-5.1 14.5-6.9 3.9-1.4 9-2.5 12.4-5.2.4-.3.3-1.2-.2-1.1-3.9.5-6.9 2.6-10.7 3.9-5.6 2-10.7 4.8-16.1 7.3-.1-2.2-.2-4.5-.4-6.7.2.1.5 0 .7-.3 1.7-3.2 7.3-5.7 10.2-6.9 4.4-1.7 8.9-3.4 13.3-5.2.6-.2.5-1.3-.1-1.3-2.3-.2-4 1.2-6.2 1.8-2.8.9-5.7 2.2-8.4 3.3-2.9 1.2-7.6 3.6-9.6 6.9-.2-3.1-.4-6.2-.5-9.3 3.9-2.5 8.6-3.8 12.8-5.5 4.1-1.6 8.4-4.4 12.8-4.1.4 0 .6-.6.3-.9-2.6-3-7.3.7-10 1.8-5.2 2.4-11 3.5-16.1 6.6-.1-2.3-.3-4.6-.4-6.9 8.1-5.4 16.9-8.7 25.8-11.3.6-.2.4-1.2-.1-1.3-5.3-.7-10.2 2.8-15.2 4.6-3.9 1.4-7.3 3.4-10.7 5.9-.1-2.1-.2-4.2-.4-6.3 4.5-2.1 8.2-6.5 12.8-8.7 5.1-2.4 10.2-5 15.3-7.3.3-.1.4-.8 0-.9-4.6-.9-9.6 3.7-13.8 5.4-5.2 2.2-9.3 7-14.3 9.6-.1-2.4-.2-4.8-.4-7.3.5-.1.9-.5 1.1-1.1 3-1.1 5.5-4.4 8.1-6.5 9.2-7.4 24.3-13.4 35-16 10.9-2.6 20.5-5.1 30.6-10.7 10.6-5.8 24.2-7.5 35.4-11 21.4-6.8 42.7-11.4 64.5-15.9 10.7-2.2 21.1-.5 31.8-2.3 13-2.2 27.2-4.1 40.2-3.7 18.7.6 37.1-2.9 55.9-1.1 25.1 2.4 50.1 5.1 74.6 12.8 23.1 7.2 46 12.2 68.4 22.5 10.2 4.7 19.9 9 30.2 12.9 6 2.3 35.3 12.5 35.3 19.2 0 .8.3 1.4.7 1.8 0 .7 0 1.4-.1 2.1-2-4.6-7.2-5.5-11-7.7-6.8-3.8-12.2-7.1-19.7-6.7-.8 0-.8 1.5 0 1.6 10.2.6 22.6 6.6 30.7 14.4l-.6 14.9c-2.7-5.2-10.7-8.2-14.8-10.4-5-2.8-10.5-3-15.5-5.3-.7-.3-1.1 1-.5 1.5 3.1 2.5 8.2 2.2 11.7 3.7 6.6 2.8 13.4 7.1 18.9 12.2h.1l-.3 5.5c-.5-.8-1-1.7-1.7-2.4-2-2.2-5.6-3.5-8-5-6.5-4-13.2-5.4-20.3-7.6-1-.3-1.4 1.6-.4 1.9 6.8 2.1 13.6 3.3 19.9 7.4 3.3 2.1 8.1 3.7 10.2 7.8.1.1.1.2.2.2-.1 1.7-.2 3.4-.2 5.1-2-2.3-5.1-3.4-7.5-5.1-4.9-3.5-11-5.3-16.5-7-.9-.3-1.2 1.4-.4 1.6 8.1 2.5 17.9 6 24.2 13.1-.1 1.5-.1 3.1-.2 4.6-1.4-1.4-3.1-2.5-4.3-3.2-7.5-3.7-13.8-8.2-21.9-10.3-.9-.2-1.3 1.5-.4 1.8 6.3 1.7 12.2 4.3 17.9 8.1 3.1 2.1 6 3.6 8.6 6.2l-.3 7.5c-6.9-7.4-18.1-11.1-26.2-13.4-1-.3-1.4 1.6-.4 1.9 5.4 1.6 11 3.6 16 6.6 3.8 2.2 7.1 5.1 10.5 7.9l-.3 9c-1.8-2.4-3.7-4.7-6-6.4-5.3-4-11.2-6.1-17.1-8.2-.9-.3-1.3 1.4-.4 1.8 5.9 2.1 11.2 4.8 16.8 8 2.8 1.6 4.4 5 6.6 7.5-.1 2.7-.2 5.5-.2 8.2-2.4-3-5.6-5.1-8.4-7.3-5-3.9-10.6-7.4-16.1-10.1-.9-.5-1.3 1.4-.4 1.8 4.9 2.4 9.5 5.7 14.1 8.8 4 2.7 7.3 6.1 10.7 9.4-.1 3.3-.1 6.7-.1 10-5.2-1.5-13.4-9.8-17.4-13.4-8-7.3-18.7-10.2-28.1-13.6-11-4-22.5-7.5-33.7-10.5-9.1-2.4-19-7.1-28.6-8.2zm51.5 20.2v1.3h-1.2v.1c-.1-.7-.3-1.3-.5-1.9.6.1 1.1.3 1.7.5zm59.1 66.9c-9.8-5-20.2-8.9-30.2-13.2-1.8-.8-28.3-9-28-7.8-.1-.3-.2-.5-.4-.7 3.3-3.3 9.2-3.4 12.8-4.4 7.3-2 14.5-4.5 21.9-6.3 5.4-1.4 11-.8 16.4-1.7 2.5-.4 4.4-1.3 4.4-1.3.8.7 1.8-.2 1.9-1.2.8-.1 1.3-.8 1.3-1.7.4-.3.8-.8.8-1.7 0-10.5.4-20.9.9-31.2.3.1.6-.3.4-.7-.1-.2-.3-.4-.4-.6.2-3.7.3-7.4.5-11.1 9.1 4.1 17.2 11.2 25.9 16.3 10.4 6.1 4.2 21.7 1.4 33.1-3.2 13.3-4.4 10.4-.6 23.5 2.9 10 4.5 21.5 5.8 32.4-7.9-10.7-24.6-16.4-34.8-21.7z"/>
    <path class="st0" d="M77.4 186.2c-4.7-1-8.2 1.2-12.5 3.3-5.9 2.9-11.5 6.3-17.5 9.1-.9.4-.5 2.2.4 1.8 4.1-1.9 8.3-3.7 12.2-6.1 5.8-3.5 11.2-5.7 17.4-7.2.4-.1.4-.8 0-.9zm445.9-59.9c6.1 1.1 12.1 2.8 17.7 5.8 4.7 2.6 9.1 3.5 12.4 8.5.1.2.4 0 .4-.3-.9-5.2-3.7-6.4-7.9-8.2-7.5-3.2-14.4-6.2-22.3-7.6-.9-.1-1.3 1.6-.3 1.8z"/>
  </g>
  <path d="M213.6 7.7c0 1 .1 2 .5 2.9.4.9.7 1.8 1 2.7.6 1.9 1.2 3.8 1.7 5.7.5 1.9 1 3.9 1.6 5.8.1.4.2.8.2 1.2 0 .4.1.8.2 1.3.1.4.2.9.3 1.2.2.4.3.8.4 1.2.4 1.2.7 2.5 1.1 3.7.3 1.2.7 2.4 1.2 3.6.2-.5.3-1 .4-1.7.1-.7.1-1.4.1-2.2v-2.4c0-.8-.1-1.5-.1-2.2 0-.9-.1-1.9-.1-2.9s-.1-1.9-.1-2.9v-1.3c.1-.4.1-.9.1-1.3v-1.3c0-.4-.1-.9 0-1.3.1-.7.1-1.4.2-2.1.1-.7.1-1.4.1-2.1 0-.3 0-.5-.1-.7 0-.2-.1-.5-.1-.7 0-.6.1-1.1.1-1.7 0-.6 0-1.2-.3-1.7.1-.2.3-.4.5-.5.3-.1.5-.1.8-.2h1.7c.1.2.1.3 0 .4l-.3.3c-.1.1-.2.1-.4.2-.1.1-.2.2-.2.3-.3 1.2-.5 2.5-.8 3.9-.3 1.4-.5 2.9-.6 4.5v3.7c0 .5.1 1 .1 1.5.1 1.1.1 2.2 0 3.4-.1 1.2-.1 2.3 0 3.5v1.3c0 .5 0 1 .1 1.5 0 .2 0 .4.1.5.1.2.1.4.1.5.1 1.2 0 2.4-.2 3.5s-.3 2.3-.2 3.4c0 .3 0 .6.1.9 0 .3.1.7.1 1 0 .3 0 .7-.1 1-.1.3-.2.6-.4.9-.3.1-.7.2-1.1.3s-.7.1-1.1.1c-.3 0-.7-.1-.9-.3-.3-.2-.5-.5-.7-.9-.1-.2-.1-.3-.1-.5s0-.4-.1-.6c-.3-1.1-.7-2.2-1.1-3.3-.4-1.1-.9-2.3-1.3-3.5-.5-1.4-.9-2.8-1.2-4.3-.3-1.5-.7-2.9-1.1-4.4l-.6-2.1-.6-2.1c-.2-.8-.3-1.5-.4-2.2-.1-.7-.4-1.4-.7-2.1l-.3-1.8c-.1-.6-.3-1.1-.5-1.6-.3 1.4-.5 3-.6 4.6-.1 1.7-.1 3.3-.1 4.8-.2.4-.3 1-.3 1.7s0 1.4-.1 2.1c-.1 1.2-.2 2.3-.2 3.2 0 .9-.1 2-.3 3.2l-.3 3.1c-.1 1-.1 1.9-.2 2.9s-.1 1.9-.2 2.9c0 1-.1 2.1-.1 3.2.1.1.1.2.2.2s.2.1.2.1c.1 0 .1.1.2.1.1.1.1.2.1.3 0 .2-.1.4-.3.6-.2.2-.5.3-.7.3-.2.1-.4 0-.6 0s-.4-.2-.7-.2c-.2 0-.3-.1-.5-.1s-.4-.1-.5-.1c-.1 0-.3-.1-.3-.2-.1-.1-.1-.2 0-.4 0-.2.1-.3.2-.3s.3-.1.4 0h.5c.2 0 .3 0 .5-.1.1-.2.1-.5 0-.7 0-.3-.1-.5-.2-.7.2-.3.2-.5.1-.8-.1-.2-.1-.5-.1-.9 0-.8.1-1.6.3-2.5.1-.8.3-1.7.4-2.5.1-.5.1-1 .2-1.4.1-.4.1-.7.2-1.1 0-.4.1-.7.1-1.2v-1.5c0-1.4.1-2.9.3-4.4.2-1.5.4-3 .4-4.5.1-2.7.1-5.3.3-8l.3-8.1c-.3-.1-.8-.1-1.3 0s-.9 0-1.2-.3c0-.2-.1-.3-.1-.4v-.5c.5-.1 1-.2 1.5-.2h3.1c.5 0 .9-.1 1.3-.3.6.7.9.9 1.1 1.1zm21.9 29.4c.1.2.1.4.1.5 0 .2-.1.3-.1.4v.4c-.1.4-.1.8-.1 1.1 0 .4-.1.7-.3 1.1-.1.1-.1.2-.2.3 0 .1-.1.3-.1.4-.2.7-.5 1.3-.8 1.7-.4.4-.8.8-1.2 1.1-.2.1-.4.2-.7.2-.3 0-.6-.1-.9-.2-.3-.1-.6-.3-.8-.5-.3-.2-.4-.5-.6-.8-.2-.5-.3-1-.4-1.4-.1-.5-.2-.9-.3-1.5-.1-.5-.1-1-.2-1.4-.1-.4-.1-.9-.2-1.3 0-.3-.1-.7-.1-1v-1.8c0-.4.1-.8.1-1.2v-2.7c0-.5.1-1 .1-1.4.1-.3.1-.5.1-.8v-.8c0-.5.1-1 .1-1.5.1-.5.1-.9.2-1.4v-1.7c.1-.4.1-.9.2-1.3l3.6.2c-.1.4-.1.9-.1 1.4 0 .5-.1.9-.1 1.4 0 .3-.1.5-.1.8 0 .3-.1.6-.1.8-.1.9-.1 1.8-.2 2.6-.1.9-.2 1.8-.2 2.7-.1.9-.1 1.8-.1 2.8v2.8c0 .7 0 1.4.1 2 0 .7.1 1.3.3 1.9 0 .3.1.6.3.9.3.4.5.3.7-.1.2-.4.3-.8.5-1.1.2-.4.3-.8.4-1.2.1-.3.1-.5.1-.8v-.8c0-.1-.1-.3-.2-.4-.2-.2-.2-.4-.1-.8.1-.3.3-.4.5-.5.4 0 .7.3.8.9zm-4.4-21.5c-.4-.3-.7-.8-.8-1.5-.1-.6-.1-1.2.2-1.6.2-.3.5-.6.9-.8.3 0 .5-.1.8-.1.5 0 .8.1 1 .4.2.3.3.6.3.9 0 .4 0 .8-.1 1.1-.1.4-.2.7-.4 1-.2.3-.4.5-.6.6-.6.4-1 .4-1.3 0zm11.8 26.3c.2.1.4.1.5.1.2 0 .3.1.5.1.2.1.4.1.6.2.2.1.3.2.3.5-.1.1-.3.2-.4.2h-.7c-.4.2-.8.2-1.2.1-.4-.1-.8-.1-1.2-.1h-1.2c-.4 0-.8 0-1.2.1-.1 0-.2 0-.4.1-.1 0-.2.1-.4.2-.4.2-.7 0-.8-.4 0-.1-.1-.2-.1-.3 0-.1-.1-.2-.1-.3.1 0 .2-.1.3-.1h.3c.2-.1.3-.1.5-.1s.4 0 .5-.1c.3-.1.4-.1.4-.2s.1-.3.1-.6v-2.2c0-.8.1-1.6.1-2.4 0-.8.1-1.5.1-2.3V23.7c-.3 0-.5-.1-.7-.1h-1.1c-.1-.1-.2-.2-.2-.3-.1-.1 0-.2.1-.3.2-.1.3-.1.5-.2s.3-.1.5 0c.3.1.6.1.9 0 .3 0 .6-.1.9-.1h.5c.2 0 .3.1.5.1h.8c.4 0 .8.1 1 .3.2.2.4.5.4.9v.3c.3-.3.5-.5.8-.7.3-.2.5-.5.8-.7.7-.7 1.6-1.1 2.6-1.3.5-.1.9-.1 1.4 0 .5.1.9.1 1.3.1.5.1 1 .4 1.6.9.6.5.9 1.2 1.1 2 .2 1.1.3 2.2.2 3.4-.1.7-.1 1.4-.2 2l-.3 2c-.1.3-.1.5-.2.8 0 .3-.1.5-.2.8-.2.5-.3 1-.3 1.5s-.1 1-.2 1.5l-.3 1.3c-.1.5-.1.9-.2 1.4-.1.5-.1 1-.1 1.5s0 1 .1 1.5c.4.1.8 0 1-.4.2-.3.3-.5.4-.8.1-.3.2-.6.3-1 .1-.2.1-.3 0-.5 0-.2-.1-.3-.1-.5l-.1-.4c-.2-.5 0-.7.4-.6.3 0 .6 0 .8.1.4.1.6.4.4.8-.2.3-.3.7-.4 1.1-.1.4-.1.7-.2 1.1-.1.5-.3.8-.7 1.1-.2.2-.3.3-.4.5-.5.8-1.2 1.1-2 1-.6-.1-1.1-.3-1.5-.6-.3-.3-.6-.9-.9-1.6-.2-.6-.3-1.2-.4-1.9 0-.6 0-1.2.1-1.9.1-.6.1-1.2.2-1.8 0-.6.1-1.2.2-1.8s.1-1.2.2-1.8c.1-.6.1-1.2.2-1.8.1-.4.1-.9.1-1.3s0-.9.1-1.3v-2.6c-.1-.5-.2-.9-.4-1.4-.5-.9-1.3-1.1-2.4-.7-.2.1-.3.2-.4.3l-.4.4c-.2.3-.4.5-.6.8-.2.3-.4.5-.6.8-.2.2-.3.4-.4.7-.1.2-.3.5-.4.7v2.3c0 .6 0 1.2-.1 1.9 0 .7-.1 1.3-.1 2s0 1.3-.1 2c-.1 1-.1 2-.2 3.1v3.6c-.1-.4-.1-.3-.1 0zm23.2-.9l-.5.5c-.5.7-1.2 1.2-1.9 1.6-.7.4-1.5.7-2.3.9-.8.2-1.6.1-2.3-.1-.7-.3-1.3-.8-1.8-1.4-.1-.1-.2-.3-.3-.5-.2-.3-.3-.7-.4-1-.1-.3-.2-.7-.4-1.2-.1-.4-.1-.9-.2-1.3v-1.4c0-.6.1-1.2.2-1.8.1-.6.3-1.2.6-1.7.5-1.1 1.3-1.9 2.3-2.5.8-.4 1.7-.8 2.6-1l2.7-.6c.3-.1.7-.1 1.1 0 .4.1.8.2 1.1.4.1-.1.1-.2.1-.4 0-.1 0-.2-.1-.3-.1-.5-.1-1.1-.2-1.6 0-.5-.1-1-.2-1.6-.1-.5-.3-1-.5-1.4l-.9-1.2c-.3-.3-.7-.6-1.1-.7-.4-.1-.8-.1-1.2-.1-.7 0-1.3.3-1.9.9l-1 1c-.3.3-.5.8-.7 1.3-.1.3-.1.6.1.9.3.4.2.9 0 1.3l-.3.3s-.2.1-.4.1c-.4-.1-.6-.3-.6-.7v-1.2l.3-1.4c.1-.5.3-.9.6-1.4.3-.3.6-.7.9-1 .3-.3.7-.6 1.1-.9.3-.2.7-.3 1.1-.5l1.1-.3c.3-.1.5-.1.7 0 .2 0 .4.1.7.1.4 0 .7.1 1.1.2l1.1.3c.6.2 1.2.5 1.6.9.4.4.8.9 1.2 1.4.4.6.7 1.2.8 1.8.2.6.3 1.3.3 1.9.1.6.1 1.3.1 1.9v1.9c-.1.9-.1 1.8-.2 2.6-.1.9-.1 1.8-.2 2.7-.1.8-.1 1.6-.2 2.4-.1.8-.1 1.6-.2 2.4v.7c0 .2.1.5.2.7.2.6.6.8 1.1.5.4-.2.7-.4.8-.8.1-.3.2-.5.3-.7.1-.2.1-.5.1-.7 0-.1 0-.2.1-.3.1-.1.2-.2.2-.3.1-.1.1-.1.3-.1.1 0 .2.1.3.1.2.3.3.5.2.7-.3.7-.5 1.4-.9 2-.3.6-.9 1.1-1.7 1.4-.4.2-.9.2-1.3.1s-.8-.3-1.2-.5c-.6-.3-1.1-.8-1.4-1.3-.3-.5-.5-1.1-.6-1.8V41c.1.2.1.1 0 0zm.6-9.7v-.5s-.1-.3-.3-.3c-.5-.1-1-.1-1.5-.1-.3 0-.6.1-.8.1-.3.1-.6.1-.8.2-.7.2-1.1.5-1.4 1-.2.3-.3.5-.4.8-.1.3-.2.5-.4.8-.3.7-.5 1.5-.6 2.2-.1.8-.2 1.5-.2 2.3 0 .6 0 1.2.1 1.8l.3 1.8c0 .2.1.4.3.6.1.2.3.4.4.6.1.2.3.3.7.1.3-.1.4-.1.6-.2.5-.2.9-.5 1.2-.8s.5-.5.6-.5c.3-.2.5-.4.6-.6.2-.2.4-.5.6-.7.4-.4.6-.9.5-1.5.1-.8.1-1.5.1-2.1 0-.7.1-1.3.1-1.9.1-.6.1-1.1.2-1.6-.1-.4 0-1 .1-1.5zm23.9-4.3c-.1.5-.2 1-.2 1.5s-.1 1-.1 1.6c0 .5-.1 1-.1 1.5-.1.5-.2.9-.3 1.3.1 1.5.1 3 0 4.4-.1 1.5-.1 3-.1 4.5v1.5c0 .5.2.9.4 1.1.3.3.5.3.8.3.3-.1.7 0 1.2.1.2 0 .3.1.4.3.1.1.2.3.3.4.2.2.4.2.5.3.1 0 .2.1.2.4 0 .3-.1.5-.3.6-.2.1-.5.2-.8.3-.3 0-.6.1-.9.1h-.9c-.7.1-1.3.2-1.9.3-.6.2-1.2.3-1.9.4l-1.9.3c-.6.1-1.3 0-2-.1 0-.1 0-.3.1-.5.1-.3.1-.5.2-.7.3-.2.5-.3.8-.4.3-.1.5-.3.7-.5.2-.3.3-.5.4-.8 0-.3.2-.6.4-.9.3-1.4.4-2.8.5-4.3l.3-4.4c.1-1.5.1-2.9.2-4.4l.3-4.4.3-2.4.3-2.4c.2-1.8.2-3.7.2-5.6 0-1.9.1-3.9.3-5.9h-.8c-.3 0-.7.1-1 .1-.3 0-.6 0-.8-.1-.2-.1-.3-.3-.2-.7 0-.2.1-.3.3-.4.2-.1.4-.1.6-.2h1.1c.3-.1.5-.2.8-.4.3-.2.6-.3 1-.4.3-.1.5-.2.8-.2.3 0 .5-.1.8-.1.2-.1.3-.1.5-.2s.3-.1.5-.1c.4-.1.9-.1 1.4-.1.5 0 1.1-.1 1.6-.1.6-.1 1.2 0 1.6 0 .4.1.9.2 1.4.4 1 .3 1.7.7 2.1 1.1.4.5.8 1.1 1.2 2 .2.3.3.7.6 1.1.2.4.4.8.5 1.3.1.6.2 1.2.1 1.9s-.1 1.4-.2 2c-.2 1.3-.6 2.4-1.1 3.3-.5 1-1.2 1.8-2.1 2.4-.3 0-.6.1-.8.3-.2.2-.5.3-.8.5-.2.1-.3.1-.4.2-.1 0-.3.1-.4.2-.2.1-.3.2-.4.4-.1.2-.3.3-.4.4-.1.1-.3.2-.4.2-.2.1-.3.1-.5.2s-.3.2-.4.3c-.1.1-.2.2-.4.3-.4.3-.9.4-1.3.5-1-.2-1.4 0-1.9.4zM292 9.2c-.3 2.5-.6 5.2-.8 8-.2 2.8-.4 5.5-.5 8.1.5 0 1-.2 1.4-.5l1.2-.9c.2-.2.4-.3.7-.3.2-.1.5-.2.7-.3.4-.3.7-.6.9-.9.2-.3.4-.7.5-1.1.1-.4.2-.9.3-1.4s.1-1.1.2-1.8.1-1.4.2-2.2c.1-.7.1-1.4.1-2 0-.8 0-1.6-.2-2.2-.1-.7-.1-1.4 0-2.1-.3-.3-.6-.5-1-.6-.4-.1-.8-.1-1.2-.1-.4 0-.9.1-1.3.2-.4-.1-.8 0-1.2.1zM313.4 41l-.5.5c-.5.7-1.2 1.2-1.9 1.6-.7.4-1.5.7-2.3.9-.8.2-1.6.1-2.3-.1-.7-.3-1.3-.8-1.8-1.4-.1-.1-.2-.3-.3-.5-.2-.3-.3-.7-.4-1-.1-.3-.2-.7-.4-1.2-.1-.4-.1-.9-.2-1.3v-1.4c0-.6.1-1.2.2-1.8.1-.6.3-1.2.6-1.7.5-1.1 1.3-1.9 2.3-2.5.8-.4 1.7-.8 2.6-1l2.7-.6c.3-.1.7-.1 1.1 0 .4.1.8.2 1.1.4.1-.1.1-.2.1-.4 0-.1 0-.2-.1-.3-.1-.5-.1-1.1-.2-1.6 0-.5-.1-1-.2-1.6-.1-.5-.3-1-.5-1.4l-.9-1.2c-.3-.3-.7-.6-1.1-.7-.4-.1-.8-.1-1.2-.1-.7 0-1.3.3-1.9.9l-1 1c-.3.3-.5.8-.7 1.3-.1.3-.1.6.1.9.3.4.2.9 0 1.3l-.3.3c-.1.1-.2.1-.4.1-.4-.1-.6-.3-.6-.7v-1.2l.3-1.4c.1-.5.3-.9.6-1.4.3-.3.6-.7.9-1 .3-.3.7-.6 1.1-.9.3-.2.7-.3 1.1-.5l1.1-.3c.3-.1.5-.1.7 0 .2 0 .4.1.7.1.4 0 .7.1 1.1.2l1.1.3c.6.2 1.2.5 1.6.9.4.4.8.9 1.2 1.4.4.6.7 1.2.8 1.8.2.6.3 1.3.3 1.9.1.6.1 1.3.1 1.9v1.9c-.1.9-.1 1.8-.2 2.6-.1.9-.1 1.8-.2 2.7-.1.8-.1 1.6-.2 2.4-.1.8-.1 1.6-.2 2.4v.7c0 .2.1.5.2.7.2.6.6.8 1.1.5.4-.2.7-.4.8-.8.1-.3.2-.5.3-.7.1-.2.1-.5.1-.7 0-.1 0-.2.1-.3.1-.1.2-.2.2-.3.1-.1.1-.1.3-.1.1 0 .2.1.3.1.2.3.3.5.2.7-.3.7-.6 1.4-.9 2-.3.6-.9 1.1-1.7 1.4-.4.2-.9.2-1.3.1s-.8-.3-1.2-.5c-.6-.3-1.1-.8-1.4-1.3-.3-.5-.5-1.1-.6-1.8V41c0 .2 0 .1 0 0zm.5-9.7v-.5s-.1-.3-.3-.3c-.5-.1-1-.1-1.5-.1-.3 0-.6.1-.8.1-.3.1-.6.1-.8.2-.7.2-1.1.5-1.4 1-.2.3-.3.5-.4.8s-.2.5-.4.8c-.3.7-.5 1.5-.6 2.2-.1.8-.2 1.5-.2 2.3 0 .6 0 1.2.1 1.8l.3 1.8c0 .2.1.4.3.6.1.2.3.4.4.6.1.2.3.3.7.1.3-.1.4-.1.6-.2.5-.2.9-.5 1.2-.8.3-.3.5-.5.6-.5.3-.2.5-.4.6-.6.2-.2.4-.5.6-.7.4-.4.6-.9.5-1.5.1-.8.1-1.5.1-2.1s.1-1.3.1-1.9c.1-.6.1-1.1.2-1.6 0-.4 0-1 .1-1.5zm14.7 12.8h-.6c-.2 0-.4 0-.6.1-.4.1-.9 0-1.3-.2-.5-.2-.9-.3-1.2-.5-.1 0-.1 0-.2-.1-.4-.4-.8-.9-1.2-1.4-.4-.5-.6-1.1-.8-1.8-.1-.5-.2-.9-.3-1.3-.1-.4-.3-.9-.4-1.3 0-.1-.1-.2-.1-.3v-1.7c-.1-.6-.2-1.2-.2-1.8 0-.6.1-1.1.2-1.7l.3-2.1c.1-.7.3-1.4.5-2.1.2-.6.3-1.3.6-1.9.2-.6.5-1.2.9-1.7.2-.4.5-.7.8-1 .5-.4.9-.8 1.4-1.2.5-.4 1-.6 1.6-.7.3-.1.7-.1 1.2-.2s.9-.1 1.2-.1h.5c.2 0 .3-.1.5-.1.1 0 .2-.1.3-.3.1-.1.2-.3.2-.4.1-.1.1-.3.2-.4.1-.2.1-.3.2-.4.1-.1.2-.1.4-.2 0 .2 0 .3.1.4 0 .1.1.3 0 .4-.1.5-.1 1.1-.2 1.6-.1.6-.2 1.1-.3 1.6 0 .1-.1.2-.1.4 0 .1-.1.1-.2.1s-.1-.1-.2-.2-.1-.2-.2-.3v-.8c0-.3 0-.5-.1-.6-.1-.1-.2-.1-.5-.1-.4 0-.7.1-1.1.2-.3.1-.7.3-1 .7l-1 1.3c-.3.4-.6.9-.8 1.5-.4 1.2-.7 2.5-.8 3.8-.1.7-.1 1.4-.1 2.2 0 .7-.1 1.4-.1 2.2 0 .7-.1 1.4-.1 2v3.6c0 .5.1 1.1.1 1.7.1.5.2.8.5 1.1.3.3.5.4.8.5.7.2 1.4 0 2.1-.7l.9-.9c.4-.4.6-.9.6-1.5 0-.4.1-.7.3-.9.2-.2.3-.5.5-.7.3-.3.4-.2.5.1v.7c0 .5-.1 1.1-.1 1.6s-.1 1-.1 1.6v1c0 .2 0 .4-.1.5-.1.1-.3 0-.4-.2-.1-.1-.1-.3-.2-.4-.1-.1-.1-.3-.2-.4l-.2.2c-.1 0-.1.1-.2.2-.3.4-.7.7-1.2.9-.1.2-.6.3-1 .4zm14.2 0h-.6c-.2 0-.4 0-.6.1-.4.1-.9 0-1.3-.2-.5-.2-.9-.3-1.2-.5-.1 0-.1 0-.2-.1-.4-.4-.8-.9-1.2-1.4-.4-.5-.6-1.1-.8-1.8-.1-.5-.2-.9-.3-1.3-.1-.4-.3-.9-.4-1.3 0-.1-.1-.2-.1-.3v-1.7c-.1-.6-.2-1.2-.2-1.8 0-.6.1-1.1.2-1.7l.3-2.1c.1-.7.3-1.4.5-2.1.2-.6.3-1.3.6-1.9.2-.6.5-1.2.9-1.7.2-.4.5-.7.8-1 .5-.4.9-.8 1.4-1.2.5-.4 1-.6 1.6-.7.3-.1.7-.1 1.2-.2s.9-.1 1.2-.1h.5c.2 0 .3-.1.5-.1.1 0 .2-.1.3-.3.1-.1.2-.3.2-.4.1-.1.1-.3.2-.4.1-.2.1-.3.2-.4.1-.1.2-.1.4-.2 0 .2 0 .3.1.4 0 .1.1.3 0 .4-.1.5-.1 1.1-.2 1.6-.1.6-.2 1.1-.3 1.6 0 .1-.1.2-.1.4 0 .1-.1.1-.2.1s-.1-.1-.2-.2-.1-.2-.2-.3v-.8c0-.3 0-.5-.1-.6-.1-.1-.2-.1-.5-.1-.4 0-.7.1-1.1.2-.3.1-.7.3-1 .7l-1 1.3c-.3.4-.6.9-.8 1.5-.4 1.2-.7 2.5-.8 3.8-.1.7-.1 1.4-.1 2.2 0 .7-.1 1.4-.1 2.2 0 .7-.1 1.4-.1 2v3.6c0 .5.1 1.1.1 1.7.1.5.2.8.5 1.1.3.3.5.4.8.5.7.2 1.4 0 2.1-.7l.9-.9c.4-.4.6-.9.6-1.5 0-.4.1-.7.3-.9.2-.2.3-.5.5-.7.3-.3.4-.2.5.1v.7c0 .5-.1 1.1-.1 1.6s-.1 1-.1 1.6v1c0 .2 0 .4-.1.5-.1.1-.3 0-.4-.2-.1-.1-.1-.3-.2-.4-.1-.1-.1-.3-.2-.4l-.2.2c-.1 0-.1.1-.2.2-.3.4-.7.7-1.2.9-.1.2-.6.3-1 .4zm12.4-16.2v1l-.3 3.4c-.1 1.1-.1 2.3-.2 3.4-.1.7-.1 1.4-.2 2.2 0 .7-.1 1.5-.1 2.2 0 .4 0 .7.1 1.1.1.3.3.6.7.8.2.1.3.2.4.4l.4.4c-.2.2-.3.3-.4.3h-1.4l-1.7-.1-2.8-.1c-.2 0-.3-.1-.4-.1-.1 0-.2-.1-.4-.3.1-.2.1-.3.2-.4.1-.1.2-.1.4-.2s.3-.1.4-.1c.1 0 .3-.1.4-.1.3-.1.5-.4.5-.8 0-.6.1-1.2.1-1.9 0-.6 0-1.2.1-1.9v-.6c0-.2 0-.4.1-.6.1-.4.1-.8 0-1.2v-8.3c0-.4.1-.7.1-1.1v-2.8c.1-.9.1-1.8.1-2.7 0-.9 0-1.8.1-2.7.1-.8.1-1.7.2-2.5 0-.8.1-1.7.1-2.5V9.2c0-.2 0-.3.1-.5v-.8c0-.1-.1-.2-.2-.3-.2-.1-.3-.1-.4-.1-.1 0-.2.1-.3.2-.1.1-.1.2-.2.3s-.1.2-.2.4c-.2.3-.3.4-.5.4-.1-.1-.2-.1-.3-.2-.1-.1-.1-.2-.1-.4V7c0-.2.1-.3.2-.4.1-.1.2-.1.3-.1h1.1c.6-.2 1.3-.3 1.9-.3.6 0 1.3 0 1.9.1h.5c.1 0 .2 0 .3.1.1.3.2.5.4.8.1.3.1.5.1.9-.1.5-.1.9-.1 1.4v1.4c-.1.8-.1 1.6-.1 2.3v2.3c-.1.9-.1 1.8-.1 2.7 0 .9-.1 1.8-.1 2.7v1s0 .6-.1 1V25l.3-.5c.3-.4.5-.9.8-1.3.3-.5.5-.9.8-1.3.3-.5.8-1 1.3-1.3.5-.3 1-.6 1.6-.7.8-.1 1.5.1 2.2.6.6.5 1.1 1 1.4 1.7.3.6.6 1.4.8 2.1.3.8.3 1.6.1 2.4-.1.3-.1.5-.1.7 0 .2 0 .5-.1.7-.2.8-.3 1.7-.4 2.5-.1.8-.3 1.7-.4 2.5-.1.4-.1.8-.2 1.2-.1.4-.1.8-.2 1.3-.1.7-.1 1.3-.3 2l-.3 2v.9c0 .3 0 .6.1 1 .1.3.3.4.5.2.6-.5 1-1.1 1.3-2 .2-.4.3-.9.5-1.2.2-.4.3-.8.5-1.2.1-.2.1-.4.1-.7v-.7c0-.4.1-.7.4-.9.2-.2.3-.2.5-.2s.3.2.4.4c.1.1.1.3.1.4 0 .2 0 .3-.1.4-.2.3-.3.5-.3.8 0 .3-.1.6-.2.9-.1.5-.2 1-.3 1.4-.1.5-.3 1-.5 1.4-.3.3-.5.7-.7 1.1-.2.4-.5.7-.7 1.1-.3.4-.7.7-1.1.9-.4.2-.9.3-1.4.3-.4 0-.8-.1-1.1-.5s-.6-.8-.8-1.2c-.3-.9-.5-1.8-.4-2.7 0-.8.1-1.7.1-2.5s.1-1.7.1-2.5v-.6s.1-.4.1-.5c.1-.6.1-1.2.2-1.8.1-.6.2-1.2.2-1.7.2-.9.3-1.7.4-2.3.1-.6.1-1.3.1-2.1v-1.2c0-.4-.1-.8-.1-1.2-.1-.6-.3-.9-.6-1.1-.3-.1-.7 0-1 .3-.2.2-.4.3-.5.5-.1.2-.3.4-.4.7-.4.6-.7 1.2-1 1.7-.3.5-.6 1.2-.9 2l-1.4.7zm23 13.1l-.5.5c-.5.7-1.2 1.2-1.9 1.6-.7.4-1.5.7-2.3.9-.8.2-1.6.1-2.3-.1-.7-.3-1.3-.8-1.8-1.4-.1-.1-.2-.3-.3-.5-.2-.3-.3-.7-.4-1-.1-.3-.2-.7-.4-1.2-.1-.4-.1-.9-.2-1.3v-1.4c0-.6.1-1.2.2-1.8.1-.6.3-1.2.6-1.7.5-1.1 1.3-1.9 2.3-2.5.8-.4 1.7-.8 2.6-1l2.7-.6c.3-.1.7-.1 1.1 0 .4.1.8.2 1.1.4.1-.1.1-.2.1-.4 0-.1 0-.2-.1-.3-.1-.5-.1-1.1-.2-1.6 0-.5-.1-1-.2-1.6-.1-.5-.3-1-.5-1.4l-.9-1.2c-.3-.3-.7-.6-1.1-.7-.4-.1-.8-.1-1.2-.1-.7 0-1.3.3-1.9.9l-1 1c-.3.3-.5.8-.7 1.3-.1.3-.1.6.1.9.3.4.2.9 0 1.3l-.3.3c-.1.1-.2.1-.4.1-.4-.1-.6-.3-.6-.7v-1.2l.3-1.4c.1-.5.3-.9.6-1.4.3-.3.6-.7.9-1 .3-.3.7-.6 1.1-.9.3-.2.7-.3 1.1-.5l1.1-.3c.3-.1.5-.1.7 0 .2 0 .4.1.7.1.4 0 .7.1 1.1.2l1.1.3c.6.2 1.2.5 1.6.9.4.4.8.9 1.2 1.4.4.6.7 1.2.8 1.8.2.6.3 1.3.3 1.9.1.6.1 1.3.1 1.9v1.9c-.1.9-.1 1.8-.2 2.6-.1.9-.1 1.8-.2 2.7-.1.8-.1 1.6-.2 2.4-.1.8-.1 1.6-.2 2.4v.7c0 .2.1.5.2.7.2.6.6.8 1.1.5.4-.2.7-.4.8-.8.1-.3.2-.5.3-.7.1-.2.1-.5.1-.7 0-.1 0-.2.1-.3.1-.1.2-.2.2-.3.1-.1.1-.1.3-.1.1 0 .2.1.3.1.2.3.3.5.2.7-.3.7-.6 1.4-.9 2-.3.6-.9 1.1-1.7 1.4-.4.2-.9.2-1.3.1s-.8-.3-1.2-.5c-.6-.3-1.1-.8-1.4-1.3-.3-.5-.5-1.1-.6-1.8V41c.1.2.1.1 0 0zm.6-9.7v-.5s-.1-.3-.3-.3c-.5-.1-1-.1-1.5-.1-.3 0-.6.1-.8.1-.3.1-.6.1-.8.2-.7.2-1.1.5-1.4 1-.2.3-.3.5-.4.8s-.2.5-.4.8c-.3.7-.5 1.5-.6 2.2-.1.8-.2 1.5-.2 2.3 0 .6 0 1.2.1 1.8l.3 1.8c0 .2.1.4.3.6.1.2.3.4.4.6.1.2.3.3.7.1.3-.1.4-.1.6-.2.5-.2.9-.5 1.2-.8.3-.3.5-.5.6-.5.3-.2.5-.4.6-.6.2-.2.4-.5.6-.7.4-.4.6-.9.5-1.5.1-.8.1-1.5.1-2.1s.1-1.3.1-1.9c.1-.6.1-1.1.2-1.6-.1-.4 0-1 .1-1.5z" id="NinaPacha"/>
</svg>
