<?xml version="1.0" encoding="utf-8"?>
<!-- Generator: Adobe Illustrator 19.2.1, SVG Export Plug-In . SVG Version: 6.00 Build 0)  -->
<svg version="1.1" id="Layer_1" xmlns="http://www.w3.org/2000/svg" xmlns:xlink="http://www.w3.org/1999/xlink" x="0px" y="0px"
	 viewBox="0 0 479 213" style="enable-background:new 0 0 479 213;" xml:space="preserve">
<style type="text/css">
	.st0{fill:#231F20;}
</style>
<g>
	<path class="st0" d="M445.3,157.7c1.9-0.3,3.3-0.5,4.4-0.8c0.8-0.1,1.8-0.4,3-0.8c1.2-0.4,2.5-0.8,3.9-1.2c1.4-0.4,2.7-0.8,4-1.1
		c1.3-0.3,2.4-0.5,3.3-0.5c1.7,0,3.7,0.3,5.8,0.9c2.1,0.6,3.2,2.1,3.2,4.5c0,2.4-1.1,3.9-3.2,4.6c-2.1,0.7-4.1,1-5.8,1
		c-0.9,0-2-0.2-3.3-0.5c-1.3-0.3-2.6-0.7-4-1.2c-1.4-0.5-2.7-0.9-3.9-1.4c-1.2-0.5-2.2-0.8-3-0.9c-1.1-0.3-2.5-0.5-4.4-0.7
		c-1.9-0.2-3.4-0.4-4.6-0.7v-0.4C441.9,158.2,443.4,158,445.3,157.7z"/>
	<path class="st0" d="M449.7,146.7c0.9-1.9,1.8-3.8,2.7-5.7c0.9-1.9,2.3-2.9,4.3-2.9c2.8,0,4.2,1.3,4.2,3.8c0,1.5-0.6,2.9-1.8,4.3
		c-1.2,1.4-2.7,2.7-4.4,3.8c-1.7,1.1-3.5,2-5.2,2.7c-1.7,0.7-3.1,1-4.2,1c-0.9,0-1.5-0.1-1.8-0.4c1.1-0.5,2.2-1.3,3.3-2.4
		C447.9,149.8,448.9,148.4,449.7,146.7z"/>
	<path class="st0" d="M445.3,164.3c1.1,0,2.5,0.3,4.2,1c1.7,0.7,3.5,1.5,5.2,2.6c1.7,1.1,3.2,2.3,4.4,3.7c1.2,1.4,1.8,2.8,1.8,4.3
		c0,2.7-1.3,4-4,4c-2.1,0-3.6-1-4.4-2.9c-0.8-1.9-1.7-3.8-2.8-5.7c-0.7-1.7-1.6-3.1-2.8-4.2c-1.2-1.1-2.3-1.9-3.4-2.6
		C443.8,164.4,444.4,164.3,445.3,164.3z"/>
</g>
<g>
	<path class="st0" d="M118.4,160.6c-1.9-0.3-3.3-0.5-4.4-0.8c-0.8-0.1-1.8-0.4-3-0.8c-1.2-0.4-2.5-0.8-3.9-1.2
		c-1.4-0.4-2.7-0.8-4-1.1c-1.3-0.3-2.4-0.5-3.3-0.5c-1.7,0-3.7,0.3-5.8,0.9c-2.1,0.6-3.2,2.1-3.2,4.5c0,2.4,1.1,3.9,3.2,4.6
		c2.1,0.7,4.1,1,5.8,1c0.9,0,2-0.2,3.3-0.5c1.3-0.3,2.6-0.7,4-1.2c1.4-0.5,2.7-0.9,3.9-1.4c1.2-0.5,2.2-0.8,3-0.9
		c1.1-0.3,2.5-0.5,4.4-0.7c1.9-0.2,3.4-0.4,4.6-0.7v-0.4C121.8,161.1,120.3,160.8,118.4,160.6z"/>
	<path class="st0" d="M114,149.6c-0.9-1.9-1.8-3.8-2.7-5.7c-0.9-1.9-2.3-2.9-4.3-2.9c-2.8,0-4.2,1.3-4.2,3.8c0,1.5,0.6,2.9,1.8,4.3
		c1.2,1.4,2.7,2.7,4.4,3.8c1.7,1.1,3.5,2,5.2,2.7c1.7,0.7,3.1,1,4.2,1c0.9,0,1.5-0.1,1.8-0.4c-1.1-0.5-2.2-1.3-3.3-2.4
		C115.8,152.7,114.8,151.3,114,149.6z"/>
	<path class="st0" d="M118.4,167.2c-1.1,0-2.5,0.3-4.2,1c-1.7,0.7-3.5,1.5-5.2,2.6c-1.7,1.1-3.2,2.3-4.4,3.7
		c-1.2,1.4-1.8,2.8-1.8,4.3c0,2.7,1.3,4,4,4c2.1,0,3.6-1,4.4-2.9c0.8-1.9,1.7-3.8,2.8-5.7c0.7-1.7,1.6-3.1,2.8-4.2
		c1.2-1.1,2.3-1.9,3.4-2.6C120,167.2,119.4,167.2,118.4,167.2z"/>
</g>
<g>
	<g>
		<path class="st0" d="M123.2,56.7h0.9c12.1,5.1,18.1,13.8,18.1,26.3v1.4c0,7.9-3.9,15.6-11.8,23.1c-1.4,1.3-5.6,2.8-12.7,4.5
			c-10.9-3.9-16.3-12-16.3-24.5c0-14.9,5.9-24.9,17.7-29.9L123.2,56.7z M103.3,83.4v6.8l1.8,8.6h0.5v-0.5c-1.2-2.2-1.8-7.2-1.8-15
			H103.3z M105.5,99.3v0.9h0.5v-0.9H105.5z M106.9,85.7v0.9l0.9,7.3h0.5l-0.9-8.2H106.9z M107.4,80.7v3.6h0.5v-3.6H107.4z
			 M107.8,78.4v1.4h0.5v-1.4H107.8z M108.3,76.6v0.9h0.5v-0.9H108.3z M108.3,94.3v0.9h0.5v-0.9H108.3z M110.5,104.3
			c1.5,3,3.2,4.5,5,4.5h0.5v-0.5C115.1,108.4,113.3,107,110.5,104.3z M111,82.5v2.7c0.8,12.4,3.7,18.6,8.6,18.6l3.6,0.5
			c3.6,0,6-2.1,7.3-6.3c2.1-5.6,3.2-11,3.2-16.3c0-7.9-2-13.9-5.9-18.1H125C117.9,63.5,113.2,69.8,111,82.5z M117.8,107.5v0.5h0.9
			v-0.5H117.8z M119.1,107.9v0.5h0.9v-0.5H119.1z M137.3,73v0.5l0.9,7.3c0,4-1.1,9.3-3.2,15.9V97h0.5c2.4-4.5,3.6-9,3.6-13.6v-1.8
			l-1.4-8.6H137.3z M135.5,73.9v1.4l0.5,2.3L135,89.3v0.9h0.5l0.9-9.1v-0.5l-0.5-6.8H135.5z"/>
		<path class="st0" d="M170.8,55.4l0.5-0.1c4.9-0.1,7.6,1.7,8.1,5.3l0.1,0.9l-4.8,29.7l0.3,2.2c0.8,5.4,2.8,7.9,6.1,7.4l0.5-0.1
			c1.7-0.2,5-1.6,9.9-4.1l0.6,0.3l0.1,0.9c-0.1,5.2-2.3,8.1-6.5,8.7l-1.8,0.3c-4.5,0.6-8-1.5-10.5-6.3c-0.6-2-1.2-3-1.8-2.9
			c-4.1,8.8-9.7,13.8-16.6,14.8l-0.4,0.5L154,113c-4.1,0.6-7-2.7-8.7-9.7l-0.2-1.4c-2.5-17.1,3.4-31.3,17.6-42.5
			C165.4,57.1,168.1,55.8,170.8,55.4z M147,102.1l0.4,2.7l0.5-0.1l-0.4-2.7L147,102.1z M147.3,91.5l0.2,1.4l0.5-0.1l-0.2-1.4
			L147.3,91.5z M151.5,73.1c-3,7.1-4.3,12.9-3.9,17.5l0.1,0.5l0.5-0.1c1-7.9,2.3-13.9,3.9-18L151.5,73.1z M147.9,105.2l0.2,1.4
			c1.5,3.4,3.4,5,5.7,4.6l2.3-0.3l-0.1-0.5c-4.7-0.6-7.2-2.4-7.6-5.3L147.9,105.2z M151.4,98.3c0.7,4.6,2.2,7.4,4.5,8.5
			c5.1-0.7,10.4-10.5,15.9-29.3l3.2-12.1l-0.2-1.4c-0.9-2.9-2.4-4.2-4.7-3.9c-8.3,1.2-14.2,9-17.6,23.3
			C151,87.8,150.6,92.8,151.4,98.3z M158.2,107.3l0.1,0.5l0.5-0.1c2-0.7,2.9-1.5,2.8-2.3l-0.1-0.5L158.2,107.3z M176.8,102.9
			l0.1,0.4l0.5,0.4l0.5-0.1l-0.1-0.5l-0.5-0.4L176.8,102.9z M189.5,101.5c-0.2,1.2-2.5,2.3-6.9,3.2l-2.8-0.5l-0.5,0.1l0.1,0.4
			l4.1,0.3l2.3-0.3c1.8-0.2,3.1-1.3,4.1-3.3L189.5,101.5z"/>
		<path class="st0" d="M213.3,55.3c3.4,0,7,1.8,10.9,5.4v0.9l-0.9,0.9h-0.5l-8.6-1.8c-5,1.5-9.4,5.8-13.1,12.7
			c-1.8,5.2-2.7,9.3-2.7,12.2c1.2,10.6,4,15.9,8.6,15.9h1.8c3,0,4.5-1.1,4.5-3.2l-0.5-10.9c0-9.7,3.6-17.9,10.9-24.5h1.4
			c2.5,1.5,4.5,5.4,5.9,11.8v2.7c0,8.2-3,16.3-9.1,24.5l-1.8,1.8c6.3,6.7,9.5,15.3,9.5,25.8c-1,13.6-3.7,20.4-8.2,20.4
			c-5.1,0-8.5-8.2-10-24.5v-4.5l0.5-13.6h-3.6c-7.7,0-12.4-7.1-14.1-21.3c0-12.5,4.7-22.5,14.1-29.9L213.3,55.3z M209.2,60.3
			l-1.4,1.8l2.7-1.4v-0.5H209.2z M213.3,58.5V59h1.4v-0.5H213.3z M216.9,74.4c-1.5,4.2-2.3,8.2-2.3,12.2v2.3h0.5l2.3-14.1v-0.5
			H216.9z M215.5,106.1v2.3h0.5v-2.3H215.5z M216.4,96.1v1.4h0.5v-1.4H216.4z M218.2,108.4l-1.8,18.1v9.5c0,5.1,1.2,8.4,3.6,10h0.5
			c1.9-2.6,3.4-7.3,4.5-14.1C221.6,116.2,219.4,108.4,218.2,108.4z M217.3,73v0.9h0.5V73H217.3z M220,78.4v15.4h0.5
			c3.6-6.2,5.4-11.2,5.4-15v-4.5c0-2.2-0.5-3.4-1.4-3.6C221.6,72.9,220,75.5,220,78.4z M221,97.9l-0.9,1.4h0.5l0.9-1.4H221z
			 M225.9,88c0,0.8-1.2,2.9-3.6,6.3h0.5l3.6-5.9V88H225.9z M224.1,141.9v0.9h0.5v-0.9H224.1z M224.6,140.5v0.9h0.5v-0.9H224.6z
			 M225,138.7v1.4h0.5v-1.4H225z M226.4,86.6v0.9h0.5v-0.9H226.4z"/>
		<path class="st0" d="M262.5,52.6h0.9c4.8,2.1,7.2,7.3,7.2,15.4c0,7-2.6,17.1-7.7,30.4v0.9c5.2,10.3,11,15.4,17.2,15.4l0.5,0.5
			c1.4-4.9,2.5-7.4,3.2-7.7h1.4c1.2,0.4,1.8,1.8,1.8,4.1v0.9c0,3.4-2.6,5.5-7.7,6.3c-7.5,0-13.8-5.9-19-17.7
			c-1.9,1.8-5.6,3.2-10.9,4.1c-5.3,0-9.2-3-11.8-9.1c-3.6-8.1-5.4-15.5-5.4-22.2v-5.4c0-4.8,1.2-8.7,3.6-11.8h0.9
			c0.6,0,1.2,0.9,1.8,2.7l-0.9,2.7c1.2,25.4,4.8,38.1,10.9,38.1h1.4c3.9,0,5.9-1.8,5.9-5.4c-1.8-2.8-2.7-5.7-2.7-8.6v-1.8
			c0-6.8,2.4-16.7,7.3-29.9L262.5,52.6z M236.3,71.6V78c0,2.6,0.9,6.9,2.7,12.7h0.5v-0.5c-1.2-4.2-2.1-10.4-2.7-18.6H236.3z
			 M241.2,99.3v0.5l2.7,1.8v-0.5L241.2,99.3z M254.4,82.5v3.2l1.4,5.9h0.5v-0.5c-0.9-2-1.4-4.8-1.4-8.6H254.4z M254.4,100.7v0.5h0.9
			l0.5-0.5v-0.5L254.4,100.7z M256.2,83.4v1.8h0.5v-1.8H256.2z M256.7,96.6v0.9h0.5v-0.9H256.7z M258.5,70.3v5.9h0.5v-5.9H258.5z
			 M258.9,67.6v1.4h0.5v-1.4H258.9z M261.2,91.6V92h0.5c3.3-7.3,5-15.5,5-24.5c0-2.7-0.6-5.9-1.8-9.5
			C262.4,58,261.2,69.2,261.2,91.6z M283.4,112l-0.5,1.8v0.5h0.5l0.5-1.4V112H283.4z"/>
		<path class="st0" d="M288.7,63.4l0.5,0.1c2.8,2.7,3.9,6.3,3.5,10.8l-3,16.5c-0.7,7,1.6,12.1,7.1,15.3l2.7,0.7l2.3,0.2
			c6.5-0.9,9.9-3.5,10.4-8c0.2-1.4-0.9-2.7-3.2-4l-1.4,0.3l-1.1-1.9l0.1-1.4l2-1.6c5.7,0.6,8.4,2.9,8,6.7l-0.2,1.8
			c-3.4,9.4-8.7,13.7-15.9,13l-1.4-0.1c-8.5-0.9-14.1-7.4-16.7-19.5l-0.1-8.2C285,70.1,287.2,63.2,288.7,63.4z M298.4,37.1
			c2.6,0,4.5,0.1,5.6,0.4l0.5,0.6c0.5,0.6-0.2,1.7-1.9,3.2l-8.7,5.9c-6.2,3.7-9.6,5.2-10,4.6l-0.6-1.4
			C288.4,44.4,293.5,40,298.4,37.1z M283.8,84.7l-0.3,2.7l0.5,0.1l0.3-2.7L283.8,84.7z M284.4,93l-0.1,1.4l0.5,0.1l0.1-1.4L284.4,93
			z M284.6,94.9l-0.1,0.9h0.5l0.1-0.9L284.6,94.9z M285,96.2l-0.1,0.9l0.5,0.1l0.1-0.9L285,96.2z M288,75.6l-0.5,4.1h0.5l0.5-4
			L288,75.6z M289.5,79l-0.4,4l0.5,0.1l0.4-4L289.5,79z M289.7,67.1l-0.1,0.9l0.6,2.8h0.5l0.1-0.9l-0.6-2.8L289.7,67.1z M291.2,46.1
			l0.2,0.2l1.9-1l2.5-1.9l-0.2-0.3L291.2,46.1z"/>
		<path class="st0" d="M340.7,48.2c8.6,0,14,5.3,16.2,16.1l0.7,3.6c0.8,3.7,0,13.5-2.3,29.6c-0.7,2.6-0.4,7.2,0.9,13.7l0.7,3.6
			c2.6,5.6,7.3,7.8,13.8,6.5l0.8-0.2c2.6-0.9,3.7-2.5,3.2-4.8l0.3-0.6l1.3-0.2c0.6-0.1,1,0.3,1.2,1.1c0.6,8.2-0.9,12.7-4.7,13.4
			l-2.7,0.6c-6,1.2-11.2-3-15.5-12.6c-2.5-4.5-4.2-9-5.1-13.8c-1.1-5.4-1-15,0.2-28.7c0.3-2.9,0.1-6.4-0.7-10.5
			c-2-6.7-4.8-9.7-8.3-9l-0.9,0.2c-7.7,4.5-10.6,11.6-8.7,21.2c-0.2,12.9-1.1,23.4-2.9,31.6c-1.5,0.6-2.5,1.4-3.2,2.5l-1.1-0.7
			l-1-4.9c-0.9-4.7-0.4-14.5,1.5-29.5l-0.7-7.7l-0.2-0.9c-1.3-6.5-3.2-9.5-5.5-9.1l-0.3-1.3l0.7-1.1l3.1-0.6c3.6-0.7,5.9,1.6,7,6.9
			l0.5-0.1C330.9,54.2,334.8,49.5,340.7,48.2z M322.5,58.8c1.4,2.3,2.7,5.5,3.8,9.4l-0.1,1.9l0.1,0.5l0.4-0.1l0.6-4.2l-0.2-0.9
			c-0.8-3.7-2.1-5.9-4.1-6.6L322.5,58.8z M324.1,101.1l0.3,1.8l0.5-0.1l-0.3-1.8L324.1,101.1z M324.2,96.9l0.1,2.8l0.2,0.9l0.5-0.1
			l-0.1-2.8l-0.2-0.8L324.2,96.9z M324.2,95l0.3,1.4l0.5-0.1l-0.3-1.3L324.2,95z M324.4,93.1l0.2,1.4l0.5-0.1l-0.3-1.3L324.4,93.1z
			 M324.5,91.7l0.2,0.9l0.5-0.1l-0.2-0.9L324.5,91.7z M337.9,52.5l0.1,0.5l1.4-0.3l3.9-1.2l1.4,0.2l0.5-0.1l-0.1-0.5l-3.7-0.2
			L337.9,52.5z M342.3,53.5l0.1,0.5c5,1.8,8.1,5.8,9.3,12l0.3,1.3l0.5-0.1l-0.3-1.4c-1.8-8.9-4-13.1-6.7-12.5l-2.7,0.1L342.3,53.5z
			 M351.6,67.8l-0.1,22.7l0.1,2.7l0.1,0.5l0.5-0.1c0.8-12.9,0.9-20.7,0.4-23.2l-0.5-2.7L351.6,67.8z M354.4,68.1l0.5,2.2l0.5-0.1
			l-0.5-2.3L354.4,68.1z M354.6,70.9l0.1,2.7l0.3,1.4l0.5-0.1l-0.2-3.2l-0.2-0.9L354.6,70.9z M354.6,75.5l0.2,1.4l0.5-0.1l-0.3-1.3
			L354.6,75.5z M369.5,124.3h-2.3c0.5,0.8,1.4,1.1,2.9,0.8l0.9-0.2c1.6-0.3,2.5-1.1,2.8-2.4l-0.5,0.1L369.5,124.3z"/>
	</g>
	<circle class="st0" cx="92" cy="28.1" r="1.6"/>
	<circle class="st0" cx="87.4" cy="100.1" r="1.6"/>
	<circle class="st0" cx="87.2" cy="105.2" r="1.6"/>
	<circle class="st0" cx="87.7" cy="110.6" r="1.6"/>
	<circle class="st0" cx="87.5" cy="115.8" r="1.6"/>
	<circle class="st0" cx="86.3" cy="120.6" r="1.6"/>
	<circle class="st0" cx="85" cy="125.4" r="1.6"/>
	<circle class="st0" cx="83.7" cy="130.4" r="1.6"/>
	<circle class="st0" cx="81.6" cy="135.2" r="1.6"/>
	<circle class="st0" cx="69.1" cy="150.2" r="1.6"/>
	<circle class="st0" cx="79.2" cy="139.5" r="1.6"/>
	<circle class="st0" cx="72.8" cy="147.4" r="1.6"/>
	<circle class="st0" cx="76.3" cy="143.5" r="1.6"/>
	<circle class="st0" cx="97.5" cy="30.3" r="1.6"/>
	<circle class="st0" cx="102.5" cy="32.8" r="1.6"/>
	<circle class="st0" cx="108.3" cy="34.4" r="1.6"/>
	<circle class="st0" cx="119.6" cy="34.4" r="1.6"/>
	<circle class="st0" cx="113.4" cy="35.5" r="1.6"/>
	<circle class="st0" cx="124.9" cy="32.8" r="1.6"/>
	<circle class="st0" cx="133.5" cy="26.1" r="1.6"/>
	<circle class="st0" cx="129.7" cy="30" r="1.6"/>
	<path class="st0" d="M139,23.5c-0.4,1-4.4,4.7-12.1,11.1c-4.2,1.7-6.9,2.5-8.1,2.4c-3.7,1.8-10.3,1.3-19.8-1.4
		c-6.4-4-13.7-7.4-21.9-10.4c0-0.1,0-0.1,0.1-0.2c-1.1,0-2.1-0.2-2.8-0.5c0,0,0,0,0,0.1c-9.5-3.3-19.3-2.4-29.5,2.5l-4.4,2.6
		c-9.8,8.2-12.9,15.9-9.4,23l0.3,0.6l1.7,2.7c0.2,0.1,0.3,0.3,0.5,0.4c1.1-0.9,2.4-2,4-3.5c-1.1-2.3-1.4-4.8-0.9-7.5
		c1.6-8.2,5.9-14.1,12.9-17.6l3.5-0.9c9.3-1.2,15.2-0.3,17.8,2.6c0.5,0,1,0,1.5,0.1l-0.2-0.5l0.3-0.2l0.5,0.2l-0.2,0.5
		c1.2,0.2,2.1,0.5,2.7,0.9c0-0.1,0-0.2,0.1-0.2l9.6,4.2c-1,2.5-1.5,5.3-1.5,8.5l0.5,6.9c4.2,32.5,6.3,51.6,6.3,57.3v2.8
		c0,11.1-4,23.1-12,35.9c-12.9,12.9-27.5,19.3-43.9,19.3l-5.2-0.7c-10.5-6.3-15.7-13.2-15.7-20.7c1.1-5.5,3.2-8.3,6.3-8.3h0.5
		c4.2,1.6,6.3,3.4,6.3,5.5v2.1l-0.5,0.7c-1,0-1.6,0.5-1.6,1.4l1.6,4.8c5.6-2.3,8.4-5.5,8.4-9.7v-1.4c0-6.3-4.7-10.7-14.1-13.1
		c-2.8,0-4.2,0.5-4.2,1.4c-3.6,0-6.4,6-8.4,17.9c0,15.5,10.6,24.5,31.9,26.9c8.9,0,17.6-1.6,26.1-4.8C86.5,155,96.8,137.6,96.8,115
		v-3.4l-5.2-71.8l0.4-2.1l2.1,0.9c14.7,5,26.1,5.5,34,1.6l3.6-1.7c5.7-2.8,9.1-7.5,10.2-14.2C141,23.6,140,23.4,139,23.5z M33.9,55
		l-1.8-3.6c-1.6-3.2-0.9-7.5,2-13c-2.3,6.1-2.3,11.6,0.1,16.4L33.9,55z M69.6,26.9l-0.2-0.3l3.2,0.9l0.1,0.3L69.6,26.9z M29.9,138.4
		l1,1.4l-1,1.4V138.4z M75.9,158.4L62.8,166h-0.5v-0.7l13.1-7.6h0.5V158.4z M85.3,144.6h-0.5v-0.7l2.1-3.4h0.5L85.3,144.6z
		 M90,127.4l-4.2,11h-0.5c2.8-6.1,4.2-10.1,4.2-11.7H90V127.4z M93.2,106h-0.5v-3.4h0.5V106z M92.1,97.7h0.5v2.8h-0.5V97.7z
		 M87.4,37.6L86.9,50h-0.5v-9l0.5-4.1h0.5V37.6z M101.7,39.5L96.6,38l-0.1-0.3c3.2,1.1,5,1.5,5.4,1.3l0.2,0.3L101.7,39.5z
		 M118.6,41.2l-0.2-0.3l0.6-0.3l0.2,0.3L118.6,41.2z M129.1,38.4c-2,1-5.1,1.9-9.4,2.6l-0.2-0.3l0.3-0.2c3.2-0.8,5.8-1.6,7.8-2.7
		l1.3-0.6c2.2-1.1,5.3-3.5,9.2-7.3l0.3-0.1l0.2,0.3C135.7,33.9,132.6,36.7,129.1,38.4z"/>
</g>
<g>
	<path d="M168,199.4c0,0.1,0,0.2,0,0.3c0,0.1,0,0.3-0.1,0.5c-0.2-0.2-0.4-0.5-0.6-0.7c-0.2-0.2-0.4-0.4-0.6-0.7
		c-0.2,0.2-0.4,0.4-0.5,0.6c-0.2,0.2-0.3,0.4-0.5,0.6c-0.1-0.2-0.3-0.4-0.5-0.5c-0.2-0.2-0.3-0.3-0.5-0.5c-0.1,0-0.1,0-0.1,0.1
		c0,0.1,0,0.3,0,0.5c0,0.2,0,0.4,0,0.6c-0.1,0-0.2-0.1-0.3-0.1c-0.1,0-0.2-0.1-0.3-0.1c0,0.2,0.1,0.3,0.1,0.5c0,0.1,0,0.2,0.1,0.3
		c-0.4-0.3-0.7-0.7-1.1-1c-0.4-0.3-0.7-0.7-1.1-1.1c-0.2-0.2-0.4-0.4-0.5-0.6c-0.1-0.2-0.2-0.5-0.4-0.7c-0.3-0.6-0.6-1.2-0.8-2
		c-0.2-0.8-0.5-1.6-0.7-2.4c-0.2-0.8-0.5-1.6-0.7-2.4c-0.3-0.8-0.5-1.4-0.8-2c-0.5-0.9-0.8-1.9-1-3c-0.2-1-0.4-2.1-0.5-3.2
		c-0.1-0.7-0.2-1.2-0.4-1.7c-0.2-0.4-0.3-0.9-0.5-1.3c-0.2-0.4-0.3-0.9-0.5-1.3c-0.2-0.5-0.3-1-0.4-1.7c0-0.3-0.1-0.6-0.2-0.9
		c-0.1-0.3-0.2-0.5-0.5-0.8c-1.6,0.3-3.1,0.5-4.5,0.5c-1.4,0.1-2.9,0-4.6-0.2c-0.6-0.1-0.9,0.1-1.1,0.6c-0.2,0.5-0.4,0.9-0.6,1.3
		c-0.4,0.8-0.8,1.6-1.1,2.4c-0.3,0.8-0.6,1.6-1,2.4c-0.2,0.7-0.4,1.3-0.6,2c-0.2,0.7-0.4,1.4-0.8,2c-0.1,0.2-0.2,0.4-0.3,0.6
		c-0.1,0.2-0.2,0.4-0.3,0.6c-0.5,0.9-0.9,1.8-1.4,2.7c-0.4,0.9-0.9,1.8-1.4,2.6c-0.7,1.1-1.4,2.1-2.1,3.1c-0.8,1-1.7,1.8-2.8,2.6
		c-0.5,0.3-0.9,0.5-1.4,0.6c-0.5,0.1-1,0.2-1.5,0.3c-0.2,0-0.5,0.1-0.7,0.2c-0.3,0.1-0.5,0.1-0.7,0.2c-0.2,0-0.4,0.1-0.6,0.1
		c-0.2,0-0.4,0-0.6-0.1c-0.5-0.2-1-0.3-1.4-0.4c-0.5-0.1-0.9-0.4-1.3-0.8c-0.1-0.1-0.2-0.2-0.4-0.2c-0.2,0-0.4-0.1-0.6-0.1v-0.4
		c-0.5-0.3-1.1-0.6-1.6-0.8c-0.4-0.2-0.7-0.4-1-0.6c-0.3-0.2-0.7-0.3-1.1-0.3c-0.1,0-0.2,0-0.4-0.1c-0.1-0.1-0.3-0.2-0.4-0.2
		c-0.7-0.5-1.2-1.1-1.7-1.8c-0.4-0.7-0.8-1.4-1-2.3c0-0.1,0-0.2,0-0.3c0-0.1,0-0.2,0-0.3c0-0.1,0.1-0.4,0.3-0.6
		c0.2,0.1,0.4,0.2,0.5,0.4c0.3,0.2,0.5,0.5,0.8,0.7c0.2,0.3,0.5,0.5,0.8,0.7c0.3,0.2,0.7,0.3,1.2,0.2c0.6-0.2,1.2-0.4,1.8-0.8
		c0.7-0.4,1.2-0.8,1.8-1.3c0.5-0.5,1-1.1,1.5-1.6c0.1-0.2,0.3-0.4,0.4-0.6c0.1-0.2,0.3-0.4,0.4-0.6c0.8-0.9,1.3-1.9,1.7-3.1
		c0.2-0.8,0.5-1.5,0.8-2.2c0.3-0.7,0.5-1.4,0.8-2.1c0.2-0.7,0.6-1.6,1.1-2.8c0.5-1.1,0.8-2.1,1.1-2.8c-0.5,0-1.1,0.1-1.7,0.3
		c-0.6,0.2-1.2,0.4-1.7,0.6c-0.4-0.2-0.9-0.3-1.5-0.2c-0.8,0.1-1.7,0-2.6-0.3c0-0.5,0-1,0-1.5c0-0.1,0.1-0.2,0.1-0.4
		c0-0.2,0.1-0.4,0.2-0.7h0.6c0.5,0,0.9,0,1.3,0c0.4,0,0.8,0,1.2,0c0.4,0,0.8,0,1.3-0.1c0.5,0,1.1-0.1,1.7-0.3c0.3,0,0.6,0,0.8,0
		c0.3,0,0.6,0.1,0.8,0.1c0.1-0.2,0.2-0.4,0.3-0.7c0.2-0.8,0.5-1.7,0.8-2.7c0.3-1,0.6-2,1-3.1c0.4-1.1,0.7-2.1,1.1-3.1
		c0.4-1,0.7-1.9,1-2.6c0.5-1.2,1-2.4,1.4-3.7c0.4-1.2,0.8-2.4,1.3-3.7c0.5-1.5,1.1-3,1.6-4.4c0.6-1.4,1.1-2.9,1.6-4.4
		c0.4-1,0.7-2,1.1-3c0.4-1,0.7-2,1.1-3c0.2-0.5,0.4-1,0.6-1.5c0.2-0.5,0.4-1,0.6-1.6c0.2,0.5,0.5,0.8,0.8,1c0.3,0.2,0.6,0.4,1,0.6
		c0.2,0.1,0.3,0.2,0.4,0.3c0.3,0.4,0.6,0.6,0.9,0.6c0.3,0,0.7-0.1,1-0.2c0.3,0.1,0.5,0.3,0.8,0.5c0.2,0.2,0.5,0.3,0.7,0.5
		c0.2,0.1,0.3,0.2,0.3,0.3c0.2,0.2,0.4,0.5,0.6,0.7c0.2,0.2,0.4,0.4,0.6,0.7c0.7,0.6,1.2,1.2,1.6,1.9c0.4,0.7,0.7,1.5,1.1,2.3
		c0.2,0.4,0.4,0.8,0.6,1.2c0.2,0.4,0.4,0.8,0.5,1.2c0.2,0.6,0.5,1.2,0.7,1.8c0.2,0.6,0.5,1.2,0.7,1.9c0.2,0.7,0.5,1.3,0.7,1.9
		c0.2,0.6,0.5,1.2,0.7,1.9c0.1,0.4,0.2,0.7,0.2,1.1c0,0.3,0.1,0.7,0.2,1c0.2,0.6,0.3,1.1,0.5,1.7c0.1,0.5,0.3,1.1,0.6,1.6
		c0.3,0.6,0.5,1.2,0.6,1.9c0.1,0.7,0.3,1.3,0.4,2c0.1,0.7,0.2,1.4,0.3,2c0.1,0.7,0.2,1.3,0.4,1.9c0.4,1.6,0.7,3.1,0.9,4.7
		c0.3,1.6,0.5,3.2,0.7,4.8c0.2,1.2,0.6,2.3,1,3.2c0.4,1,0.8,2.1,0.9,3.3c0.1,0.6,0.2,1.1,0.2,1.7c0,0.6,0.1,1.2,0.1,1.7
		c0,0.9,0.1,1.9,0.4,2.8c0.2,0.9,0.5,1.8,0.9,2.7c0.3,0.8,0.6,1.6,0.8,2.5c0.2,0.9,0.4,1.8,0.5,2.6c0,0.5,0.1,1,0.2,1.6
		C167.8,198.3,167.9,198.9,168,199.4z M136,166.6c0,0,0,0.1,0,0.1c0,0,0.1,0,0.1-0.2v-0.2c0-0.3,0-0.6,0.1-0.8
		c0.1-0.3,0.2-0.5,0.3-0.7c0.2-0.1,0.3-0.2,0.3-0.5s0-0.4,0.1-0.5c0.1-0.2,0.1-0.4,0.1-0.6s0-0.4,0.1-0.7c0,0,0.1,0.1,0.1,0.1
		c0,0,0.1,0.1,0.2,0.2c0.1-0.2,0.2-0.4,0.2-0.6c0-0.2,0.1-0.4,0.1-0.6c-0.1,0-0.2,0-0.2-0.1c-0.1-0.3-0.1-0.8,0.1-1.4
		c-0.1,0.3-0.3,0.6-0.4,0.8c-0.1,0.3-0.2,0.5-0.4,0.6l-0.2,1.3c-0.2,0.2-0.5,1.1-0.9,2.6c0.1,0.1,0.1,0.2,0.1,0.2h0.1h-0.1
		c-0.1,0.4-0.2,0.7-0.3,1.1c-0.1,0.4-0.2,0.7-0.4,1.1c0.1-0.3,0.1-0.6,0.1-0.8c0-0.3,0.1-0.6,0.1-1c-0.1,0.4-0.2,0.7-0.3,1.1
		c-0.1,0.3-0.2,0.7-0.4,1.1c-0.2,0.7-0.4,1.4-0.6,2.2c-0.2,0.7-0.4,1.5-0.6,2.2c-0.1,0.4-0.1,0.7-0.1,0.7c0,0.1,0.2,0,0.4-0.1
		c0,0,0.1,0,0.1-0.1c0,0,0-0.1,0-0.2c0-0.1,0-0.1,0-0.2c0.1-0.4,0.3-0.8,0.4-1.2c0.1-0.4,0.3-0.8,0.6-1.1l0.1-0.4
		c0.1-0.4,0.2-0.8,0.3-1.1c0.1-0.4,0.2-0.8,0.2-1.2c0-0.1,0-0.2,0.1-0.4C135.8,166.9,135.9,166.8,136,166.6z M134.6,170.1
		c0-0.1,0.1-0.3,0.1-0.5h0.1c0,0.1,0,0.2,0,0.2C134.7,169.9,134.7,170,134.6,170.1C134.7,170.1,134.6,170.1,134.6,170.1z
		 M135.1,170.4c0,0,0.1-0.1,0.1-0.1c0,0,0.1-0.1,0.2-0.1c0-0.1,0-0.2-0.1-0.2c0,0.1-0.1,0.2-0.3,0.4
		C135.1,170.3,135.1,170.4,135.1,170.4C135.1,170.4,135.1,170.4,135.1,170.4z M135.4,169.7c0.1-0.1,0.2-0.3,0.2-0.5
		c0-0.2,0.1-0.3,0.2-0.5c-0.2,0-0.4,0.2-0.4,0.4c0,0.2,0,0.4-0.1,0.5C135.4,169.6,135.4,169.6,135.4,169.7
		C135.4,169.6,135.4,169.6,135.4,169.7z M136.1,176.1c0.1-0.4,0.3-0.8,0.4-1.2c0.1-0.4,0.2-0.8,0.3-1.2c-0.2,0.5-0.4,0.9-0.5,1.2
		C136.2,175.3,136.1,175.7,136.1,176.1z M136.3,164.5c0.1,0.2,0.1,0.4,0,0.5c-0.1,0.2-0.2,0.3-0.2,0.5
		C136,165.1,136.1,164.8,136.3,164.5z M137.5,172.5c0.1,0.1,0.2,0,0.3-0.3c0-0.1,0.1-0.2,0.1-0.3c0-0.1,0-0.1,0.1-0.1
		c0.1-0.1,0.1-0.1,0.1,0c0,0.1,0,0.2-0.1,0.3c0,0,0.1-0.1,0.1-0.1c0,0,0.1,0,0.1-0.1c0,0.1,0,0.2,0,0.2c0,0,0,0.1,0,0.2
		c0,0,0,0.1,0.1,0.1c0-0.1,0.1-0.4,0.1-0.7c0-0.2,0.1-0.4,0.1-0.5c0-0.2,0.1-0.3,0.1-0.5c0-0.1,0.1-0.2,0.1-0.2c0-0.1,0-0.1,0.1-0.2
		c0.2-0.3,0.4-0.6,0.4-0.9s0-0.6,0-0.8v-0.1c0,0.1,0.1,0.2,0.1,0.2c0,0,0.1,0.1,0.1,0.2c0.1-0.6,0.3-1,0.5-1.4
		c0.1-0.2,0.1-0.3,0.1-0.4c0,0-0.1,0-0.2,0c0.1-0.5,0.2-1,0.4-1.5c0.1-0.5,0.3-0.9,0.4-1.4c-0.2,0.3-0.4,0.7-0.5,1.1
		c-0.1,0.4-0.2,0.8-0.4,1.2c-0.2,0-0.5-0.1-0.8-0.1c0.1-0.1,0.1-0.2,0.1-0.2c0,0,0-0.1,0.1-0.1h0.3c0.2,0.1,0.4-0.1,0.6-0.6
		c0.1-0.3,0.1-0.5,0.1-0.8c0-0.2,0-0.5,0.1-0.7c0.1-0.5,0.2-0.8,0.4-1c0.2-0.5,0.3-0.8,0.2-1c0,0-0.1,0-0.1,0.1
		c-0.1,0.2-0.2,0.4-0.2,0.6c-0.1,0.2-0.1,0.4-0.2,0.6c0,0.2-0.1,0.4-0.2,0.5c-0.1,0.1-0.2,0.2-0.2,0.5c0,0,0,0.1,0,0.1
		c0,0,0,0.1,0,0.2c0-0.2,0-0.4,0-0.5c0-0.1,0.1-0.3,0.1-0.5v-0.1c-0.1,0.3-0.2,0.5-0.3,0.7v-0.5c-0.1,0.2-0.2,0.3-0.2,0.5
		c0,0.1-0.1,0.2-0.2,0.4l-0.1,0.1c0-0.2,0.1-0.4,0.1-0.6c0-0.2,0.1-0.4,0.1-0.6c-0.1,0.2-0.2,0.3-0.4,0.4c0.1,0.1,0.2,0.2,0.1,0.5
		c0,0.2,0,0.3,0.1,0.4c0.1,0.2,0.1,0.4,0,0.6c-0.1,0.2-0.2,0.3-0.3,0.5v-0.5c-0.1,0-0.2,0-0.2,0c0,0-0.1,0-0.1,0
		c0-0.2,0.1-0.4,0.1-0.6c0-0.2,0-0.3,0-0.5c0,0,0-0.1-0.1-0.1c-0.1,0.2-0.2,0.4-0.2,0.6c0,0.2-0.1,0.4-0.2,0.6v-0.3V165l-0.1-0.1
		c-0.1,0.5-0.3,0.9-0.4,1.3c-0.1,0.4-0.3,0.8-0.4,1.3l0.1,0.1c0.1-0.3,0.2-0.5,0.2-0.7c-0.1,0.6-0.2,1-0.3,1.3c0,0,0.1,0,0.1,0.1
		c0.1-0.2,0.2-0.4,0.3-0.6c0.1-0.2,0.2-0.4,0.3-0.6c0,0.2,0.1,0.3,0.2,0.4c0,0,0.1,0.1,0.1,0.1c0,0,0.1,0,0.1,0.1v0.1h0.1
		c-0.2,0.1-0.3,0.3-0.4,0.5c0,0.3-0.1,0.5-0.2,0.7c0.1-0.1,0.2-0.2,0.2-0.3c0-0.1,0.1-0.1,0.1,0.1v0.1c-0.2,0.3-0.3,0.5-0.3,0.6
		c0,0.1,0,0.3,0,0.5c0.1-0.5,0.2-0.8,0.3-1.1v-0.1c0.2-0.2,0.3-0.4,0.2-0.5c0-0.2,0-0.3,0-0.5l-0.1-0.1c0-0.1,0.1-0.2,0.1-0.2
		s0-0.2,0.1-0.3c0,0.2,0,0.3,0,0.4c0,0.1,0,0.2,0,0.4c0.1-0.3,0.2-0.5,0.2-0.6c0.2-0.1,0.3,0,0.2,0.2c-0.1,0.2-0.1,0.4,0,0.5
		c0.1-0.2,0.2-0.4,0.3-0.6c0.1-0.2,0.2-0.4,0.3-0.7c0,0.2-0.1,0.4-0.1,0.6c0,0.1,0,0.3,0,0.4c0,0.1,0,0.2,0.1,0.2c0,0,0,0.2-0.1,0.4
		c0,0-0.1,0.1,0,0.2c0,0.1,0,0.2,0,0.2H139c0,0,0.1,0,0.1,0.1l-0.2,0.8c0,0-0.1,0-0.1,0c0,0-0.1,0-0.2,0c0,0.8-0.1,1.4-0.4,1.8
		c0-0.1,0.1-0.2,0.1-0.2s0-0.2,0.1-0.2c0,0-0.1,0.1-0.2,0.1c0,0-0.1,0.1-0.2,0.1c0.1-0.5,0.2-0.9,0.4-1.3c0.2-0.4,0.3-0.9,0.3-1.4
		c-0.1,0.3-0.3,0.6-0.5,0.8c-0.2,0.2-0.3,0.6-0.2,1.1c0,0.1,0,0.2-0.1,0.4c-0.1,0.2-0.2,0.3-0.3,0.5c0.1-0.5,0.2-0.8,0-1.1
		c-0.1-0.3-0.2-0.6-0.1-1c-0.2,0.2-0.4,0.3-0.5,0.4l0.1-0.4c-0.1,0.1-0.1,0.2-0.2,0.3c-0.1,0.1-0.2,0.2-0.3,0.4
		c0-0.1,0.1-0.3,0.1-0.4c0-0.1,0-0.2,0.1-0.3c-0.1,0.5-0.2,0.9-0.2,1c0,0.2,0,0.4,0,0.8c0.2-0.5,0.3-0.7,0.4-0.4
		c0.1,0.1,0.1,0.2,0.1,0.4c0,0.2,0,0.3,0,0.5c0.5-0.1,0.6,0.3,0.3,1.2l-0.3,0.8c0.1-0.2,0.2-0.5,0.3-0.7
		C137.3,172.4,137.4,172.4,137.5,172.5z M137.1,164.1c0,0,0.1-0.1,0-0.1c0,0,0-0.1,0-0.1h-0.1c-0.1,0.4-0.3,0.7-0.4,1.1
		c-0.1,0.4-0.2,0.7-0.4,1.1c0.1,0,0.2,0.1,0.4,0.1c0-0.2,0.1-0.4,0-0.5c0-0.1,0-0.3,0-0.5c0-0.1,0.1-0.3,0.2-0.5
		C137,164.4,137.1,164.3,137.1,164.1z M137,160.3c0,0.2-0.1,0.4-0.1,0.7h0.1L137,160.3C137,160.3,137,160.3,137,160.3z M138.6,160.9
		c-0.4,0.7-0.7,1.4-0.8,2.2c-0.2,0.8-0.4,1.5-0.6,2.1c0.2-0.2,0.4-0.5,0.5-0.9c0.1-0.4,0.2-0.7,0.3-1.1c0.1-0.4,0.2-0.7,0.3-1.1
		C138.4,161.8,138.5,161.4,138.6,160.9z M137.3,168.5C137.3,168.5,137.4,168.5,137.3,168.5l0.3-0.1l-0.1-0.1c0,0-0.1,0-0.1,0.1
		c0,0,0,0.1-0.1,0.1V168.5z M137.6,171.4c0.1,0.2,0.1,0.4,0,0.5c-0.1,0.2-0.1,0.3-0.2,0.5c0-0.2,0.1-0.4,0.1-0.5
		C137.5,171.8,137.6,171.6,137.6,171.4z M138.1,158.2c0,0.1,0,0.2,0,0.2c-0.2,0.2-0.4,0.5-0.4,1c0.1,0,0.2,0,0.3,0
		c0.1,0,0.2,0,0.3,0c0.1-0.2,0.2-0.5,0.3-0.9l-0.4,0.4c0.1-0.2,0.2-0.5,0.2-0.7c0.1-0.2,0.1-0.5,0.1-0.7l-0.4,0.6
		C138.1,158.1,138.1,158.2,138.1,158.2z M138,160.1C138,160.1,138,160,138,160.1C138,160,138,160,138,160c-0.1,0.2-0.1,0.3-0.1,0.4
		c0,0.1-0.1,0.2-0.1,0.4c0,0,0.1,0,0.1-0.1c0-0.1,0.1-0.2,0.1-0.3C138,160.3,138,160.2,138,160.1z M138.7,174.8
		c0,0.2-0.1,0.5-0.1,0.7c0,0.2-0.1,0.5-0.2,0.7c0,0,0,0.1-0.1,0.2h-0.1c-0.1,0-0.2-0.1-0.1-0.4L138.7,174.8z M139,161.2
		c-0.1,0.3-0.2,0.6-0.3,0.8c-0.2,0.5-0.3,0.8-0.3,1c0,0.2,0,0.3,0,0.5c0-0.1,0.1-0.3,0.1-0.4c0-0.1,0-0.3,0.1-0.4
		c0,0,0.1,0.1,0.1,0.2v0.4c0.1-0.3,0.3-0.6,0.4-0.9c0.1-0.3,0.2-0.6,0.4-0.8l0.1,0.1c-0.1,0.2-0.2,0.4-0.2,0.6
		c0,0.2-0.1,0.4-0.2,0.6h0.1c0.1-0.2,0.2-0.4,0.2-0.6c0.1-0.2,0.2-0.4,0.2-0.6h0.5c0.1,0,0.3-0.3,0.4-0.8c-0.1,0.1-0.3,0.4-0.4,0.8
		c0-0.1,0-0.3,0-0.4c0-0.1,0-0.3,0-0.4c0,0-0.1,0.1-0.1,0.2c0,0.1-0.1,0.2-0.2,0.2c0.2-0.4,0.3-0.7,0.2-0.8c-0.1-0.1-0.1-0.3,0-0.6
		l-0.7,0.7C139.2,160.7,139.1,161,139,161.2z M139.5,159.1c0,0.1-0.1,0.2-0.1,0.4c0,0.1-0.1,0.3-0.1,0.4c0,0,0,0.1,0.1,0.1
		c0-0.1,0.1-0.2,0.1-0.4C139.4,159.4,139.4,159.3,139.5,159.1C139.5,159.2,139.5,159.1,139.5,159.1z M139.5,173.1
		c0-0.3,0.1-0.5,0.1-0.7c0-0.2,0-0.4,0.1-0.6l0.3,0.1c-0.1,0.2-0.2,0.4-0.2,0.5C139.6,172.6,139.5,172.8,139.5,173.1z M140.7,164.4
		c-0.2,0.4-0.3,0.7-0.2,0.9c0-0.1,0.1-0.3,0.1-0.4C140.6,164.8,140.7,164.6,140.7,164.4z M141.1,158.5c-0.4,0.5-0.5,0.8-0.2,1.1
		c0.1-0.2,0.1-0.4,0.1-0.5C141,158.9,141,158.7,141.1,158.5z M141.8,167c0,0,0-0.2,0.1-0.5l-0.1,0.7
		C141.8,167.2,141.8,167.1,141.8,167z M142.9,168.7c0.1-0.3,0.2-0.6,0.3-0.9c0-0.3,0.1-0.6,0.1-1c0,0.1-0.1,0.3-0.1,0.4
		c0,0.1-0.1,0.3-0.2,0.6c0.1-0.4,0.2-0.7,0.2-1c0-0.3,0.1-0.6,0.2-1c-0.2,0.4-0.4,0.8-0.5,1.1c-0.1,0.3-0.2,0.6-0.2,0.9
		c0,0.1,0.1,0.3,0.1,0.4C142.8,168.4,142.9,168.5,142.9,168.7z M145.1,171.7c0.6,0,1.2,0,1.9-0.1c0.7-0.1,1.5-0.2,2.2-0.3
		c0.8-0.1,1.5-0.2,2.2-0.3c0.7-0.1,1.4-0.1,1.9,0c-0.4-1-0.8-2.2-1.1-3.7c-0.4-1.5-0.7-3-1-4.6c-0.3-1.6-0.6-3.1-0.8-4.6
		c-0.2-1.5-0.4-2.7-0.4-3.8c-0.1,0.1-0.2,0.5-0.3,1c-0.1,0.5-0.2,1.1-0.3,1.7c-0.1,0.6-0.2,1.1-0.3,1.7c-0.1,0.5-0.2,0.8-0.2,1
		c-0.4,1.2-0.7,2.3-1,3.5c-0.3,1.2-0.7,2.3-1.2,3.4c-0.1,0.2-0.2,0.6-0.4,1c-0.2,0.4-0.3,0.8-0.5,1.3c-0.2,0.4-0.3,0.9-0.5,1.3
		s-0.2,0.7-0.3,0.9C145.1,171.1,145.1,171.4,145.1,171.7z"/>
	<path d="M204.8,165.1c0.3,0.5,0.6,1.1,0.8,1.6c0.2,0.6,0.4,1.1,0.5,1.7c0,0.1-0.1,0.2-0.1,0.3c0,0.1,0,0.2-0.1,0.3
		c0,0.1-0.2,0.6-0.5,1.5c-0.3,0.8-0.6,1.8-0.9,2.8c-0.3,1-0.6,1.9-0.8,2.8c-0.3,0.8-0.4,1.3-0.5,1.5c-0.3,1.2-0.7,2.4-1.3,3.5
		c-0.6,1.1-1,2.2-1.4,3.5c0,0.1-0.1,0.2-0.2,0.3c-0.1,0-0.2,0.1-0.2,0.3c0,0.6-0.2,1.2-0.5,1.8c-0.3,0.7-0.6,1.3-1,1.8
		c-0.4,0.6-0.9,1-1.4,1.4c-0.5,0.4-1.1,0.6-1.7,0.6c-0.7,0-1.4-0.1-2-0.4c-0.6-0.3-1.2-0.6-1.8-1c-0.5-0.4-1-0.9-1.5-1.4
		c-0.4-0.5-0.9-1.1-1.3-1.6c-0.1-0.1-0.2-0.3-0.3-0.5c0-0.2-0.1-0.4-0.2-0.6c-0.1-0.2-0.2-0.4-0.3-0.6c-0.1-0.2-0.2-0.4-0.4-0.6
		c-0.2-0.2-0.4-0.5-0.6-0.8s-0.3-0.6-0.4-0.9c-0.1-0.3-0.3-0.7-0.4-1.1s-0.3-0.8-0.4-1.1c-0.2,0.1-0.4,0.3-0.4,0.4
		c-0.2,0.3-0.4,0.6-0.6,0.9c-0.2,0.3-0.5,0.5-0.8,0.6c0,0.3-0.1,0.5-0.4,0.6c-0.3,0.1-0.4,0.3-0.5,0.6c0,0.1-0.1,0.3-0.3,0.4
		c-0.5,0.2-0.9,0.5-1.3,0.8s-0.8,0.5-1.3,0.8c-0.1,0-0.2,0.1-0.2,0.1c-0.1,0-0.1,0.1-0.2,0.1c-0.7,0.6-1.3,0.9-2,1
		c-0.7,0.1-1.5,0.1-2.3,0c-0.3,0-0.5-0.2-0.8-0.3c-0.2-0.2-0.5-0.3-0.8-0.4c-0.1-0.1-0.3-0.2-0.5-0.2c-0.2-0.1-0.3-0.1-0.5-0.2
		c-1.1-0.2-2.1-0.7-2.9-1.5c-0.8-0.8-1.5-1.7-2-2.8c-0.5-1.1-0.9-2.2-1.1-3.4s-0.3-2.3-0.2-3.4c0.1-0.5,0.1-1,0.1-1.5
		c0-0.5,0-1,0.1-1.5c0.1-0.6,0.2-1.3,0.3-2c0.1-0.8,0.3-1.5,0.4-2.2c0.2-0.7,0.4-1.4,0.7-2c0.3-0.6,0.7-1.2,1.1-1.7
		c0.6-0.6,1-1.1,1.3-1.5c0.3-0.4,0.7-0.8,1.2-1.3c0.2-0.2,0.6-0.4,1.1-0.6c0.5-0.2,0.9-0.4,1.1-0.5c1.6-1.2,3.2-1.8,5-2
		c0.2,0,0.4-0.1,0.6-0.3c0.2-0.1,0.4-0.2,0.6-0.1c0.5,0.1,0.9,0.1,1.3,0c0.4-0.1,0.8,0,1.1,0.4c0.2,0.2,0.4,0.4,0.7,0.5
		c0.3,0.1,0.6,0.2,0.9,0.5c0-0.6,0-1.1,0-1.6c0-0.4,0-0.9,0.1-1.4c0.1-0.9,0.3-1.9,0.4-2.8c0.1-0.9,0.3-1.9,0.5-2.8
		c0.2-1.1,0.4-2.2,0.6-3.3c0.2-1.1,0.4-2.2,0.6-3.3c0.2-0.8,0.4-1.6,0.6-2.4c0.2-0.8,0.5-1.6,0.7-2.4c0.5-1.6,1-3.1,1.6-4.6
		c0.5-1.5,1.1-3,1.8-4.6c0.1-0.1,0.2-0.4,0.3-0.8c0.2-0.9,0.6-1.6,1.2-2.2c0.8-0.7,1.5-1.2,2.3-1.8c0.8-0.5,1.7-0.9,2.6-1.1
		c0.6-0.1,1.1-0.1,1.5,0.1c0.3,0.3,0.7,0.6,1,0.8c0.3,0.3,0.7,0.6,1,0.9c0.3,0.4,0.5,0.9,0.5,1.3c0.1,0.9,0.2,1.9,0.2,2.9
		c0,1,0,1.9-0.1,2.9c-0.1,0.5-0.2,1-0.2,1.5c0,0.5-0.1,1-0.2,1.5c-0.3,1.5-0.7,3-1,4.4c-0.3,1.5-0.7,2.9-1.1,4.4
		c-0.1,0.5-0.2,0.9-0.4,1.4c-0.2,0.4-0.3,0.9-0.5,1.4c-0.1,0.2-0.2,0.5-0.2,0.7c0,0.2-0.1,0.4-0.2,0.7c-0.1,0.4-0.3,0.8-0.6,1.2
		c-0.8,1.2-1.5,2.5-1.9,3.8c-0.4,1.3-0.6,2.8-0.6,4.3c0,1.2,0,2.4,0.1,3.7c0.1,1.2,0.1,2.4,0.2,3.7c0,1.3-0.1,2.5-0.2,3.6
		c-0.1,0.8-0.2,1.7-0.3,2.5c-0.1,0.8-0.1,1.7,0.1,2.5c-0.2,0.7-0.3,1.3-0.1,1.9c0.1,0.6,0.2,1.3,0.2,1.9c0,0.6,0,1.2,0.1,1.8
		c0,0.6,0.1,1.2,0.1,1.8c0.1,0.8,0.1,1.6,0.1,2.4c0,0.8,0.1,1.6,0.4,2.4c0,0.2,0.2,0.5,0.4,1c0.2,0.5,0.4,0.7,0.7,0.7
		c0.1,0,0.3-0.1,0.4-0.3c0.1-0.2,0.2-0.4,0.3-0.7c0.1-0.3,0.2-0.5,0.3-0.8c0.1-0.3,0.2-0.4,0.2-0.5c0.1-0.2,0.2-0.4,0.3-0.5
		c0.1-0.2,0.2-0.4,0.3-0.6c0.1-0.2,0.2-0.4,0.2-0.5c0-0.2,0.1-0.3,0.2-0.5c0.1-0.3,0.3-0.6,0.5-0.8c0.2-0.3,0.3-0.5,0.4-0.8
		c0.1-0.2,0.2-0.5,0.2-0.8c0.1-0.3,0.2-0.5,0.2-0.8c0-0.1,0.1-0.2,0.2-0.2c0.1-0.1,0.1-0.2,0.1-0.3c0-0.2,0-0.4,0-0.4
		c0,0,0.1-0.1,0.2-0.2c0.1-0.1,0.1-0.2,0.1-0.3c0-0.1,0-0.2,0-0.3c0-0.3,0.2-0.5,0.4-0.8c0-0.1,0.2-0.7,0.5-1.6
		c0.3-0.9,0.6-1.9,0.9-2.9c0.3-1,0.6-2,0.9-2.9c0.3-0.9,0.4-1.4,0.5-1.6c0.1-0.1,0.2-0.3,0.2-0.4c0-0.1,0.1-0.2,0.1-0.4
		c0.1-0.1,0.1-0.3,0.1-0.5c0-0.2,0-0.3,0.1-0.5c0-0.2,0-0.4,0.1-0.7C204.6,165.6,204.7,165.4,204.8,165.1z M184.3,177.9
		c0.3-0.2,0.5-0.6,0.5-1c0.1-0.4,0.1-0.9,0-1.2c-0.4-1.8-0.6-3.6-0.8-5.4c-0.1-1.8-0.1-3.7,0.1-5.6c0-0.5,0.1-1,0.1-1.5
		c0-0.5,0.1-0.9,0.1-1.4c-0.1,0-0.1-0.3-0.1-0.7c0-0.4,0-0.7,0-0.7c-1.6,0-2.9,0-3.9,0.1c-1,0.1-1.9,0.6-2.6,1.5
		c-0.7,0.9-1.2,2-1.6,3.3c-0.4,1.3-0.6,2.7-0.8,4.1c-0.2,1.5-0.3,2.9-0.3,4.4c0,1.5-0.1,2.8-0.1,4c0,0.9,0,1.7,0.3,2.5
		c0.2,0.8,0.6,1.6,1,2.4c0.3,0.6,0.8,0.9,1.4,0.8c0.3,0,0.6-0.2,1-0.4c0.4-0.2,0.8-0.5,1.2-0.8c0.4-0.3,0.8-0.6,1.2-0.9
		c0.4-0.3,0.7-0.6,0.9-0.7c0.3-0.2,0.6-0.5,0.7-0.7c0.2-0.2,0.3-0.4,0.5-0.6c0.2-0.2,0.3-0.4,0.5-0.6
		C183.7,178.4,184,178.2,184.3,177.9z M186.4,158.6c0.2-0.5,0.4-1,0.5-1.6c-0.2,0.2-0.4,0.5-0.6,0.7
		C186.1,157.8,186.2,158.1,186.4,158.6z M187.5,156.9c0,0.2-0.1,0.4-0.1,0.6c0,0.2,0,0.4-0.1,0.6c0.3-0.2,0.4-0.4,0.3-0.6
		C187.6,157.4,187.5,157.2,187.5,156.9z M187.5,176.4c0.2,0.2,0.4,0.4,0.5,0.5s0.3,0.4,0.6,0.6c-0.1-0.3-0.2-0.6-0.2-0.9
		c0-0.3-0.1-0.5-0.2-0.8H188c0,0.1,0,0.3-0.1,0.6c-0.1-0.2-0.2-0.4-0.2-0.5c0-0.2,0-0.3,0.1-0.5c0.1-0.3,0.1-0.5,0.1-0.6
		c0-0.1,0-0.3-0.1-0.5c-0.1,0.4-0.2,0.7-0.2,1.1C187.5,175.8,187.5,176.1,187.5,176.4z M187.8,162.3c-0.1,0.3-0.1,0.6-0.1,1
		c0,0.3,0.1,0.6,0.1,1c0.1-0.3,0.2-0.6,0.2-0.9c0-0.3,0.1-0.6,0.2-0.9c0,0-0.1-0.1-0.1-0.1C188,162.4,187.9,162.4,187.8,162.3z
		 M187.8,178.7c0.1,0.1,0.3,0.2,0.4,0.2c0.1,0.1,0.2,0.2,0.4,0.2c-0.1-0.2-0.1-0.4-0.1-0.5c0-0.1,0-0.3-0.1-0.5
		C188.2,178.4,188,178.5,187.8,178.7z M188,159.3c0,0-0.1,0.1-0.1,0.1c0,0.1,0,0.2,0,0.2c0,0,0,0.1,0,0.2h0.1c0-0.1,0-0.2,0-0.2
		C188,159.5,188,159.4,188,159.3z M188.7,158c-0.2-0.2-0.4-0.3-0.5-0.2c-0.1,0-0.2,0.2-0.2,0.4c0.1,0,0.2-0.1,0.3-0.1
		C188.5,158.1,188.6,158,188.7,158z M188.8,155.7c-0.5-0.1-0.6,0.2-0.5,0.8c0.1-0.2,0.2-0.3,0.4-0.3
		C188.9,156.2,188.9,156,188.8,155.7z M188.9,158.8c0,0.3-0.1,0.6-0.1,0.9c0,0.3,0,0.6,0,0.9c0,0.2,0,0.5,0,0.7c0,0.2,0,0.4,0,0.7
		c-0.2,0.1-0.3,0.2-0.3,0.5c0,0.2,0,0.4,0,0.6c-0.1,0.2-0.1,0.4-0.1,0.6c0,0.2,0,0.4,0,0.7c0-0.3,0.1-0.6,0.1-0.8
		c0-0.3,0.2-0.5,0.4-0.7c0,0,0.1-0.1,0-0.2c0-0.1,0-0.2,0-0.2c0-0.2,0.1-0.5,0.1-0.8l0.4-0.1c0-0.2-0.1-0.5,0-0.8
		c0-0.3,0-0.5-0.1-0.6c-0.1-0.2-0.2-0.4-0.2-0.6C189.1,159.3,189,159.1,188.9,158.8z M189,163.5c-0.2,0.3-0.4,0.5-0.4,0.6
		c0,0.1,0,0.4,0.1,0.9c0-0.3,0.1-0.5,0.1-0.8C188.9,164,189,163.7,189,163.5z M188.9,178.4c0-0.3,0-0.5-0.1-0.6l-0.1,0.1
		c0,0.1,0.1,0.2,0.1,0.3C188.8,178.2,188.8,178.3,188.9,178.4L188.9,178.4z M189.4,178.9c0.1-0.3,0.2-0.5,0.2-0.6c0-0.2,0-0.4,0-0.5
		c0-0.2,0-0.3,0-0.5c0-0.1,0-0.2,0.1-0.3c0.1-0.1,0.1-0.2,0.1-0.3c0-0.2,0-0.5-0.1-0.7c0-0.3-0.1-0.5-0.1-0.7h-0.1
		c0,0.2-0.1,0.4-0.1,0.5c0,0.1,0,0.3-0.1,0.6c0-0.2-0.1-0.4,0-0.6c0-0.2,0-0.4-0.2-0.5c-0.2,0.2-0.3,0.4-0.1,0.5
		c0.1,0.2,0.2,0.4,0.1,0.6c-0.1,0.1-0.1,0.3,0,0.6c0.1,0.3,0.1,0.5,0.1,0.7c0,0.2,0.1,0.5,0,0.7
		C189.2,178.4,189.2,178.7,189.4,178.9z M189.2,158.9c0.5-0.9,0.5-1.7,0-2.3V158.9z M190.1,156.7c-0.2,0.5-0.3,0.8-0.4,1
		c0,0.2,0,0.4,0.1,0.6C189.9,157.6,190,157,190.1,156.7z M190.1,162.4c0-0.2-0.1-0.4-0.1-0.6c0-0.2-0.1-0.3-0.1-0.5c0,0-0.1,0-0.1,0
		c0,0-0.1,0-0.1,0c0,0.2,0.1,0.4,0.1,0.5S189.9,162.3,190.1,162.4z M189.9,179.3c0-0.2,0.1-0.4,0.1-0.6c0-0.2-0.1-0.4-0.2-0.6
		c0,0.2-0.1,0.4-0.1,0.6C189.7,178.8,189.8,179,189.9,179.3z M192.1,178.5c0-0.1,0.1-0.3,0.1-0.6c-0.3-0.1-0.4-0.2-0.6-0.3
		c0-0.3,0-0.6,0.1-0.9c0-0.3,0-0.6-0.1-0.8c-0.1-0.3-0.1-0.6-0.1-0.9c0-0.3,0-0.5,0.1-0.8c0.1-0.3,0.2-0.6,0.1-0.8
		c0-0.2-0.1-0.5-0.2-0.8c0-0.1,0-0.2,0-0.4c0-0.1,0.1-0.3,0.1-0.4l-0.1-0.5c0,0-0.1-0.2-0.1-0.4l-0.1-0.8c-0.1,0.4-0.2,0.7-0.2,1
		c-0.1,0.3,0,0.6,0.1,1c0,0.1,0,0.2-0.1,0.4c-0.1,0.3-0.2,0.6-0.2,0.9c0,0.3,0,0.7,0,1c0,0.1,0,0.2,0,0.2c0,0.1,0,0.1,0,0.2
		c-0.2,0.2-0.4,0.5-0.4,0.8c0,0.3,0,0.6,0,1c-0.1-0.2-0.2-0.5-0.2-0.7c-0.1-0.2-0.1-0.4-0.2-0.7h-0.1v1.3c0.2,0,0.4,0.1,0.6,0.1
		c0,0.2,0.1,0.4,0.2,0.5c0.1,0.2,0,0.4-0.2,0.6c-0.1-0.2-0.2-0.4-0.2-0.6c0,0.2-0.1,0.4-0.1,0.6c0,0.1-0.1,0.3-0.1,0.5
		c0.1,0,0.2-0.1,0.3-0.1c0.1,0,0.2,0,0.3,0l0.1,1.3l-0.5-0.2v0.8c0.2,0,0.4,0.1,0.5,0.1c0.1,0,0.3,0.1,0.4,0.1v0.1
		c0,0.2-0.1,0.4-0.1,0.5c0,0.2-0.1,0.4-0.1,0.6c0.3-0.2,0.5-0.4,0.5-0.5c0-0.1-0.1-0.3-0.2-0.6v-0.1l-0.1-0.3c0.1,0,0.2,0.1,0.2,0.1
		c0,0,0.1,0.1,0.2,0.1v-0.3c-0.2-0.2-0.3-0.4-0.4-0.8c0-0.3-0.1-0.6-0.2-0.8c-0.1-0.4,0-0.6,0.4-0.7
		C191.6,178.2,191.8,178.5,192.1,178.5z M191.9,179.3c0,0-0.2,0-0.4-0.1c0,0.1-0.1,0.2-0.1,0.2s0,0.2-0.1,0.2
		c0.3-0.1,0.4-0.1,0.5-0.1V179.3z M191.8,176.4c0,0.1,0.1,0.2,0.2,0.1c0,0,0.2-0.1,0.5-0.1l-0.4-0.4
		C191.8,176,191.7,176.1,191.8,176.4z M192.1,161.9c0.1-0.4,0.1-0.6,0.1-0.8c0-0.2-0.1-0.4-0.3-0.6c0.1,0.2,0.1,0.5,0.1,0.7
		S192,161.6,192.1,161.9z M192.6,180.4c0.2-0.2,0.2-0.5,0.1-0.7c-0.1-0.2-0.2-0.4-0.3-0.7C192.2,179.5,192.3,180,192.6,180.4z
		 M193.3,178.9c0-0.2,0-0.4,0-0.6c0-0.2,0-0.3,0-0.5c0-0.2-0.1-0.5-0.1-0.7c0-0.3-0.1-0.5-0.2-0.7c0-0.3,0-0.6,0-0.9
		c0-0.3,0-0.6,0.1-0.8c0.1-0.3,0.1-0.6-0.1-0.8s-0.2-0.5-0.1-0.7c-0.1,0.2-0.2,0.4-0.2,0.6c0,0.2,0,0.4,0,0.6c0,0.2,0,0.5,0,0.7
		c0,0.3,0,0.5-0.1,0.7c-0.1,0.3-0.1,0.5,0,0.6c0.1,0.1,0.2,0.1,0.2,0.1c0.1,0,0.2-0.1,0.2-0.1c-0.1,0.6-0.1,1.1-0.1,1.4
		C193,178,193.1,178.4,193.3,178.9z M195.3,143.5c0,0.8,0,1.6-0.1,2.4c0,0.8-0.1,1.6-0.1,2.4c0,0.2,0.1,0.4,0.2,0.7
		c0.1-0.1,0.2-0.3,0.2-0.4c0.1-0.1,0.1-0.2,0.2-0.3c0.3-0.8,0.7-1.7,1.1-2.5c0.4-0.8,0.7-1.7,0.9-2.7c0.7-2.2,1.1-4.3,1.4-6.4
		c0.2-1.3,0.3-2.6,0.4-4c0-1.3,0.1-2.7,0.1-4c0-0.4,0-0.8-0.1-1.2c-0.1-0.4-0.3-0.8-0.7-1.1c-0.5,0.2-0.8,0.4-0.9,0.5
		c-0.1,0.2-0.3,0.5-0.4,1.1c-0.2,0.6-0.4,1.2-0.5,1.8c-0.2,0.6-0.3,1.2-0.5,1.9c-0.1,0.4-0.2,0.9-0.2,1.3c-0.1,0.4-0.1,0.9,0,1.3
		c0,0.7,0,1.3-0.1,2c-0.1,0.7-0.2,1.4-0.3,2c-0.1,0.8-0.3,1.7-0.4,2.6C195.4,141.8,195.3,142.7,195.3,143.5z"/>
	<path d="M231.6,153.4C231.6,153.4,231.7,153.4,231.6,153.4c0.1-0.1,0.1-0.1,0.1-0.1c0,0.4,0,0.7-0.1,0.9c-0.2,1.1-0.5,2.2-0.8,3.2
		c-0.5,1.4-1,2.7-1.5,4.1c-0.5,1.4-0.9,2.7-1.4,4.1c-0.2,0.5-0.5,1.1-0.7,1.6c-0.2,0.6-0.4,1.1-0.6,1.7c-0.1,0.4-0.3,0.8-0.4,1.3
		c-0.1,0.4-0.2,0.9-0.4,1.3c-0.2,0.7-0.4,1.3-0.5,2c-0.2,0.7-0.4,1.3-0.6,2c-0.5,1.2-1,2.5-1.4,3.7c-0.4,1.3-0.8,2.6-1.3,3.9
		c-0.2,0.8-0.5,1.6-1.1,2.4c-0.3,0.5-0.6,1-0.9,1.4c-0.3,0.5-0.6,1-0.9,1.4c-0.2,0.3-0.4,0.5-0.6,0.8c-0.2,0.2-0.4,0.5-0.7,0.7h-0.6
		c-0.4,0.6-0.8,0.8-1.4,0.7c-0.6-0.1-1.1-0.3-1.7-0.7c-0.1,0.1-0.2,0.2-0.2,0.2s-0.2,0.1-0.2,0.1c-0.3,0.1-0.6,0.3-0.8,0.4
		c-0.3,0.1-0.6,0.1-0.9,0c-0.3-0.1-0.5-0.1-0.7,0.1c-0.5,0.3-0.9,0.4-1.3,0.3c-0.4-0.1-0.8-0.3-1.2-0.6c-0.7-0.4-1.2-0.9-1.6-1.5
		c-0.3-0.6-0.6-1.4-0.8-2.2c-0.3-1.4-0.7-2.8-1.1-4.2c-0.4-1.4-0.8-2.8-1.1-4.3c-0.6-2.5-1.1-5-1.6-7.4c-0.4-2.5-0.9-5-1.2-7.5
		c-0.1-0.9-0.3-1.9-0.4-2.9c-0.1-1-0.2-2-0.4-2.9c0-0.2-0.1-0.4-0.1-0.6c0-0.2-0.1-0.3-0.1-0.5c-0.1-0.5-0.2-1-0.3-1.6
		c-0.1-0.5-0.1-1.1,0-1.6c0-0.5,0.2-0.9,0.4-1.3c0.2-0.4,0.4-0.8,0.7-1.2c0.1-0.1,0.3-0.2,0.4-0.2c0.4,0,0.7-0.1,1.1-0.1
		c0.3,0,0.7-0.1,1.1-0.1c0.4,0,0.8,0.1,1.2,0.2c0.4,0.1,0.8,0.2,1.2,0.3c0.1,0,0.3,0.1,0.4,0.2c0.1,0.1,0.3,0.2,0.4,0.3
		c0.3,0.1,0.6,0.2,0.8,0.4c0.3,0.1,0.5,0.3,0.8,0.4c0.2,0.1,0.4,0.2,0.5,0.3c0.2,0.1,0.3,0.3,0.4,0.5c0,0.1,0.1,0.2,0.2,0.2
		c0.1,0,0.2,0.1,0.2,0.2c0.8,0.6,1.5,1.2,2.1,2c0.6,0.8,1.1,1.6,1.5,2.5c0.4,1.1,0.9,2.2,1.3,3.3c0.4,1.1,0.9,2.2,1.2,3.3
		c0.6,1.8,1.1,3.7,1.5,5.6c0.4,1.9,0.6,3.8,0.7,5.9c0.2-0.4,0.3-0.6,0.3-0.6c0.5-2,1-4,1.7-6c0.6-2,1.4-3.8,2.4-5.7
		c0.1-0.2,0.2-0.5,0.4-0.7c0.5-0.7,0.9-1.4,1.2-2.1c0.3-0.8,0.6-1.5,0.9-2.3c0.5-1,1-2.1,1.5-3.1c0.5-1,0.9-2,1.4-3.1
		c0-0.1,0.1-0.2,0.1-0.2c0-0.1,0.1-0.2,0.2-0.2c0.1-0.1,0.2-0.2,0.3-0.2c0.1,0,0.2-0.1,0.4-0.2c0,0.6-0.1,1.1-0.4,1.5
		c-0.3,0.4-0.4,0.9-0.4,1.4c0.3-0.1,0.4-0.2,0.5-0.4c0-0.2,0.1-0.4,0.2-0.6c0.3-0.4,0.5-0.6,0.6-0.8c0.2,0.3,0.4,0.6,0.6,0.9
		c0.2,0.3,0.3,0.6,0.5,0.8h0.2c0-0.4,0-0.7,0.1-0.8l0.1-0.1c0.1,0.4,0.2,0.6,0.2,0.8c0,0.1,0,0.3,0,0.4c0,0.1,0,0.3,0,0.4h0.3
		c0.1-0.2,0.2-0.5,0.2-0.7C231.4,153.9,231.5,153.6,231.6,153.4z M204.5,160.3c0.1,0,0.3,0.1,0.4,0.1c0.1,0,0.2,0,0.3,0
		c0.1-0.1,0.1-0.4,0-0.8c0-0.1-0.1-0.3-0.1-0.4c0-0.1,0-0.3-0.1-0.5c0-0.1,0-0.2-0.1-0.4c0,0-0.1,0-0.1-0.1c0,0.3-0.1,0.7-0.1,1
		C204.6,159.5,204.5,159.9,204.5,160.3z M205.3,172.8c0-0.1-0.1-0.3-0.1-0.4c0-0.1,0-0.3-0.1-0.4H205c0,0.1,0.1,0.3,0.1,0.4
		c0,0.1,0,0.3,0.1,0.4H205.3z M205.5,169.1c0,0.3,0.1,0.6,0.1,0.8c0,0.3,0.1,0.5,0.1,0.8c0.1,0,0.2,0,0.2-0.1c0.1-0.3,0.1-0.6,0-0.8
		c-0.1-0.3-0.2-0.5-0.3-0.7H205.5z M206.5,174.2l-0.5-0.5v-0.1c0.1-0.2,0.1-0.4,0.1-0.6c0-0.1-0.2-0.3-0.5-0.6
		c-0.1,0.2-0.1,0.4,0,0.6c0.1,0.2,0.2,0.3,0.3,0.5v0.1C206,174.1,206.2,174.3,206.5,174.2z M206,160.7c0,0.1-0.1,0.2-0.1,0.2
		c0,0-0.1,0.1-0.1,0.2c0.1,0.1,0.2,0.2,0.2,0.3c0,0.1,0.1,0.2,0.2,0.3c0-0.2-0.1-0.4-0.1-0.5C206.1,161,206.1,160.9,206,160.7z
		 M206.3,156.7c0,0-0.1-0.1-0.3-0.1v0.3c0,0,0,0.1,0.1,0.1c0,0,0.1,0.1,0.3,0.1C206.4,156.8,206.4,156.7,206.3,156.7z M208.6,170.3
		c0.1-0.5,0-0.8-0.1-1.1c-0.2-0.5-0.4-1-0.6-1.4c-0.1-0.5-0.2-1-0.3-1.4c-0.1-0.5-0.2-1-0.3-1.6c-0.1,0.1-0.3,0.2-0.4,0.2
		c-0.1,0-0.2,0.1-0.3,0.2c0.1,0.4,0.2,0.7,0.3,1c-0.3-0.1-0.4-0.3-0.5-0.4c0-0.1,0-0.3,0.1-0.6c-0.2,0-0.3-0.2-0.3-0.4
		c0-0.2,0-0.4-0.3-0.6c0,0.3,0,0.6,0,0.8c0,0.3,0.1,0.5,0.2,0.7c0.1,0.3,0.3,0.6,0.4,0.8c0.1,0.3,0.2,0.5,0.4,0.8
		c-0.2,0.2-0.3,0.4-0.4,0.6c-0.1-0.2-0.2-0.4-0.2-0.6c0-0.2-0.1-0.4-0.2-0.6c-0.3,0.6-0.2,1.1,0.1,1.6v0.1c-0.1,0-0.2,0.2-0.4,0.4
		c0,0.1,0,0.2,0.1,0.4c0,0.1,0.1,0.3,0.1,0.6c0.2-0.1,0.3-0.1,0.4-0.1c0,0.2,0,0.4,0,0.5c0,0.1,0.2,0.2,0.6,0.5
		c0.1,0.3,0.2,0.6,0.2,1c0.1,0.3,0.2,0.6,0.5,0.8c0.1-0.1,0.2-0.3,0.2-0.5c0-0.3,0.2-0.3,0.4-0.1c0-0.2,0.1-0.5,0.1-0.7
		C208.6,170.7,208.6,170.5,208.6,170.3z M206,171.1c0.1,0.5,0.2,1,0.2,1.5s0.3,1,0.7,1.4c-0.1-0.5-0.3-1-0.4-1.5
		C206.5,171.9,206.3,171.5,206,171.1z M207.1,158.2c-0.1-0.1-0.3-0.2-0.4-0.3c-0.1-0.1-0.2-0.2-0.4-0.4c0.2,0.5,0.2,0.9,0.2,1.3
		c-0.1,0.4,0.1,0.9,0.5,1.3c0-0.6,0-1-0.1-1.2C206.8,158.6,206.9,158.4,207.1,158.2z M206.8,163.4c-0.1-0.4-0.3-0.5-0.5-0.5
		c0,0.1,0.1,0.3,0.1,0.5c0,0.2,0,0.4,0.1,0.6c0.1-0.1,0.2-0.2,0.2-0.3C206.8,163.6,206.8,163.5,206.8,163.4z M206.8,168.3
		c0,0.2,0.1,0.3,0.1,0.5l-0.4-0.4v-0.1l0.2-0.4C206.7,168,206.8,168.2,206.8,168.3z M207.3,173.5c0.1-0.4,0.1-0.6,0-0.8
		c-0.1-0.2-0.2-0.4-0.4-0.7c0.1,0.2,0.1,0.5,0.2,0.7C207.2,172.9,207.2,173.2,207.3,173.5z M207.8,157c0-0.2-0.1-0.4-0.2-0.4
		s-0.3-0.1-0.5-0.3c0.1,0.2,0.2,0.4,0.2,0.6c0.1,0.2,0.1,0.3,0.1,0.4c-0.2,0.6,0,1.3,0.5,2c0-0.4-0.1-0.8-0.1-1.1
		C207.8,157.8,207.8,157.4,207.8,157z M207.9,162.7c0.2-0.1,0.3-0.2,0.3-0.2c0-0.1,0-0.3-0.1-0.8C208,162.1,207.9,162.5,207.9,162.7
		z M208.7,165.9c0-0.3,0.1-0.6,0-0.8c0-0.3-0.1-0.6-0.3-0.9c-0.1,0.4-0.2,0.7,0,1C208.5,165.4,208.6,165.6,208.7,165.9z M208.8,156
		c-0.1,0.1-0.2,0.3-0.1,0.4c0.1,0.4,0.2,0.8,0.1,1.2c0,0.4,0.1,0.8,0.4,1.1c0,0,0.1,0.1,0,0.2c0,0.1,0,0.2,0,0.3l0.2,0.6
		c0.1,0.2,0.2,0.4,0.3,0.6c0.1,0.2,0.1,0.4,0.1,0.6c0,0.1,0,0.2,0.1,0.2l0.1,0.1c0.2-0.1,0.4,0,0.4,0.1c0,0.2,0.1,0.3,0.2,0.4
		c-0.1-0.8-0.3-1.6-0.4-2.3c-0.1-0.8-0.3-1.5-0.5-2.3c-0.1-0.3-0.2-0.6-0.2-0.9c-0.1-0.3-0.2-0.6-0.4-0.8
		C209,155.5,208.9,155.7,208.8,156z M209.1,162.7c-0.3,0.6-0.3,1-0.2,1.3c0.2,0.3,0.4,0.7,0.6,1.1c0.1-0.4,0-0.8-0.2-1.1
		C209.1,163.7,209,163.2,209.1,162.7z M210.6,170.6c0.1,0,0.2-0.1,0.3-0.2c-0.1-0.3-0.2-0.6-0.2-1c-0.1-0.3-0.2-0.6-0.5-1
		c0,0.2,0,0.3,0,0.4c0,0.1,0,0.2,0,0.3c-0.2-0.3-0.3-0.5-0.4-0.6c0,0-0.1-0.2-0.1-0.4c0.1,0,0.2,0,0.3,0c0.1,0,0.2,0,0.3,0
		c-0.1-0.4-0.2-0.7-0.3-1.1c-0.1-0.3-0.2-0.7-0.3-1.1c-0.1,0.2-0.2,0.4-0.2,0.6c0,0.2-0.1,0.4-0.2,0.6c-0.2-0.3-0.3-0.3-0.4,0
		c0,0.3,0,0.6,0.1,1l0.6,2.3c0.4,0.1,0.6-0.1,0.6-0.6c0,0.1,0.1,0.2,0.1,0.3C210.5,170.4,210.5,170.5,210.6,170.6z M209.6,168.6
		c0-0.3-0.1-0.5-0.1-0.8c0.1,0.1,0.2,0.2,0.2,0.2c0,0,0.1,0.1,0.2,0.2c0,0.1,0,0.2,0,0.2c0,0,0,0.1,0,0.1v0.8h-0.1
		C209.7,169.1,209.6,168.9,209.6,168.6z M209.7,159.1C209.7,159.1,209.6,159.1,209.7,159.1c-0.1-0.1-0.1-0.1-0.1-0.1
		c0-0.2,0-0.4-0.1-0.6h0.1c0,0.1,0,0.2,0,0.3C209.7,158.9,209.7,159,209.7,159.1z M211,166c0,0.2,0.1,0.4,0.3,0.4c0,0,0.1,0,0.1,0.1
		c0,0.1,0.1,0.2,0.2,0.2c0-0.3,0-0.6,0.1-0.8c0.2,0.2,0.4,0.3,0.5,0.4c0-0.1-0.1-0.3-0.1-0.4c0-0.1,0-0.2-0.1-0.3
		c-0.2,0.1-0.3,0.2-0.4,0.2c0-0.1,0.1-0.3,0.2-0.4c0.1-0.1,0.1-0.3,0-0.4c-0.1-0.6-0.2-1.2-0.4-1.6c-0.1-0.2-0.2-0.4-0.4-0.6
		c-0.2-0.1-0.3-0.3-0.5-0.5c-0.1,0.3-0.2,0.5-0.3,0.5c0,0-0.2,0-0.4-0.2c-0.3,0.4-0.3,0.7,0,1.1c0.3,0.3,0.4,0.7,0.4,1.1
		c0,0,0,0.2,0.1,0.4c0,0.1,0.1,0.2,0.1,0.2c0.2-0.1,0.3-0.1,0.3,0.1C210.8,165.7,210.9,165.8,211,166z M210.9,168.1
		c0.1-0.7,0-1.1-0.3-1.2l-0.4,0.3c0.2,0.2,0.4,0.3,0.4,0.4L210.9,168.1z M211.8,168.4c0.2,0.4,0.4,0.4,0.5,0
		c-0.1-0.1-0.2-0.2-0.2-0.3c0-0.1-0.1-0.2-0.2-0.3c-0.1,0.1-0.1,0.2-0.1,0.2c0,0-0.1,0.1-0.1,0.1s0,0.1-0.1,0.1
		c-0.3,0.2-0.4,0.6-0.3,1l0.1,0.1c0.1,0,0.2-0.1,0.2-0.1c0,0,0.1-0.1,0.2-0.1c0-0.1,0-0.3,0-0.4
		C211.8,168.7,211.8,168.5,211.8,168.4z"/>
	<path d="M264,165.1c0.3,0.5,0.6,1.1,0.8,1.6c0.2,0.6,0.4,1.1,0.5,1.7c0,0.1,0,0.4-0.1,0.6c-0.3,0.8-0.6,1.6-0.9,2.5
		c-0.3,0.9-0.5,1.8-0.7,2.6c0,0.2-0.2,0.5-0.4,1c-0.2,0.5-0.5,1-0.7,1.6c-0.3,0.6-0.6,1.1-0.9,1.7c-0.3,0.6-0.7,1.1-1,1.4
		c-0.6,0.8-1.3,1.5-2,2.2c-0.8,0.7-1.6,1.4-2.5,1.9c-0.8,0.5-1.8,0.9-2.8,1.2c-1,0.3-2,0.5-3,0.5c-0.7,0-1.2,0-1.7,0
		c-0.5,0.1-1,0.1-1.7,0c-0.5,0-1.1-0.2-1.9-0.3c-0.7-0.2-1.4-0.3-1.9-0.4c-0.7-0.3-1.4-0.5-2-0.6c-0.2-0.1-0.5-0.3-0.7-0.5
		c-0.2-0.2-0.4-0.4-0.6-0.6s-0.3-0.4-0.6-0.6c-0.3-0.2-0.5-0.3-0.7-0.5c-0.4-0.2-0.7-0.5-1-0.8c-0.3-0.3-0.5-0.7-0.6-1.1
		c0-0.1-0.1-0.2-0.2-0.3c-0.1-0.1-0.2-0.2-0.3-0.3c-0.4-0.4-0.7-0.9-0.9-1.3c-0.2-0.5-0.4-1-0.6-1.5c-0.2-0.4-0.4-0.9-0.5-1.3
		c-0.1-0.4-0.3-0.9-0.5-1.3c-0.2-0.5-0.3-0.9-0.3-1.4c0-0.5,0-0.9,0-1.4c0-0.4,0-0.8,0-1.2c0-0.4,0-0.8,0-1.2c0-0.2,0-0.4,0-0.5
		c0-0.2,0-0.3,0-0.5c0-0.2,0-0.5,0-0.7s0-0.4,0.1-0.7c0.1-0.5,0.2-0.9,0.3-1.4c0.1-0.5,0.3-1,0.5-1.5c0.4-1,0.8-2,1.2-2.9
		c0.4-1,1-1.9,1.7-2.8c0.3-0.3,0.5-0.7,0.7-1s0.4-0.7,0.7-1.1c0.2-0.4,0.5-0.7,0.8-1c0.3-0.3,0.7-0.5,1-0.8c0.4-0.3,0.8-0.6,1.2-0.9
		c0.4-0.3,0.8-0.5,1.2-0.8c0.1-0.1,0.3-0.2,0.6-0.3c0.6-0.2,1.1-0.4,1.7-0.6c0.6-0.2,1.2-0.4,1.8-0.5c0.2-0.1,0.5-0.1,0.8-0.1
		c0.3,0,0.6,0,0.9,0c1.1-0.1,2.3-0.1,3.5,0.1c0.6,0.1,1.2,0.4,1.7,0.8c0.5,0.5,1.1,0.9,1.6,1.2c0.3,0.3,0.6,0.6,0.7,0.9
		c0.1,0.3,0.2,0.7,0.2,1.1c0.1,0.8,0.1,1.6,0,2.5c0,0.3-0.1,0.6-0.2,0.9c-0.2,0.7-0.5,1.3-0.8,1.8c-0.3,0.6-0.7,1.1-1.1,1.7
		c-0.2,0.4-0.5,0.7-0.8,1.1c-0.3,0.4-0.6,0.7-1,1c-0.4,0.4-0.8,0.8-1.1,1.1c-0.4,0.4-0.8,0.7-1.3,0.9c-0.6,0.7-1.2,1.2-2,1.6
		s-1.5,0.9-2.2,1.4c-0.1,0.1-0.2,0.2-0.4,0.3c-0.1,0.1-0.3,0.2-0.5,0.3c-0.2,0.5-0.2,1.1-0.1,1.6c0.1,0.6,0.2,1.1,0.4,1.7l0.2,0.4
		c-0.1,0.2-0.1,0.4-0.1,0.6c0.1,0.8,0.4,1.4,0.7,1.9c0,0.1,0.1,0.2,0.1,0.2s0,0.2,0.1,0.2c0,0.5,0.1,0.9,0.2,1.3
		c0.1,0.4,0.3,0.9,0.7,1.3c0.8,1.1,1.6,1.9,2.5,2.3c0.8,0.4,1.7,0.6,2.6,0.5c0.9-0.1,1.8-0.4,2.6-0.9s1.7-1.1,2.5-1.9
		c1-1,1.9-2.2,2.7-3.4c0.8-1.2,1.3-2.4,1.7-3.5c0.3-1,0.6-2,0.9-2.9c0.3-0.9,0.4-1.4,0.5-1.6c0.1-0.1,0.2-0.3,0.2-0.4
		c0.1-0.1,0.1-0.2,0.2-0.4c0-0.1,0.1-0.3,0.1-0.5c0-0.2,0-0.3,0.1-0.5c0-0.2,0.1-0.4,0.2-0.7C263.8,165.6,263.9,165.4,264,165.1z
		 M238.8,179.4c0.1,0,0.3-0.1,0.5-0.1c-0.2,0-0.5-0.1-0.8-0.2V179c-0.1-0.2-0.1-0.4-0.1-0.6c0,0-0.1,0-0.1,0c0,0-0.1,0-0.1,0
		c0.1,0.1,0.2,0.2,0.2,0.2c0,0.1,0.1,0.2,0.2,0.2v0.1C238.6,179.3,238.7,179.4,238.8,179.4z M240.6,180.5c0.1-0.1,0.2-0.2,0.2-0.2
		c0,0,0.1-0.1,0.1-0.1l-0.1-0.1l-0.1-0.1c-0.2,0.1-0.3,0.2-0.4,0.2C240.3,180.2,240.4,180.3,240.6,180.5z M241.7,180.7
		c-0.2,0.7,0,1.1,0.8,1.2c0-0.3-0.1-0.5-0.3-0.6S241.8,180.9,241.7,180.7z M242,182.1c0.1,0,0.2,0.1,0.2,0.1c0,0,0.1,0.1,0.2,0.2
		C242.3,182.3,242.2,182.2,242,182.1z M242.7,181.2c0-0.2-0.1-0.4-0.2-0.7c-0.1-0.1-0.2-0.2-0.3-0.2l-0.2,0.2
		C242,180.8,242.3,181,242.7,181.2z M244.1,156.2c0.1,0.2,0.2,0.4,0.3,0.5c0.1-0.1,0.2-0.3,0.4-0.4c0.1-0.1,0.2-0.2,0.2-0.3
		c0-0.2,0.1-0.4,0.2-0.5c0.1-0.1,0.3-0.2,0.5-0.3c0.1,0,0.2-0.1,0.2-0.2c0-0.1,0.1-0.2,0.2-0.4c-0.2,0.1-0.4,0.2-0.5,0.2
		c-0.1,0-0.2,0.1-0.3,0.1c-0.1,0-0.2,0-0.3-0.1c-0.1,0-0.2,0-0.2,0c-0.2,0.1-0.4,0.3-0.6,0.4c-0.2,0.1-0.3,0.3-0.3,0.6
		c0.1,0,0.3,0,0.4-0.1c0,0-0.1,0.1-0.1,0.1c0,0-0.1,0.1-0.1,0.1c-0.6-0.1-0.9,0-1.1,0.4c0,0.1-0.1,0.2-0.2,0.2
		c-0.1,0-0.2,0.1-0.3,0.2c0,0,0,0.1,0,0.1c0,0,0,0,0,0.1c0,0.1,0,0.2,0,0.2c0,0.1,0.1,0.2,0.1,0.3c0.2-0.3,0.5-0.6,0.7-0.8
		C243.4,156.5,243.7,156.3,244.1,156.2z M243.4,157.1c0.1,0,0.3,0,0.4,0c0.1,0,0.2-0.2,0.3-0.4c-0.2,0.1-0.5,0.2-0.8,0.3
		C243.3,157,243.3,157,243.4,157.1C243.4,157,243.4,157,243.4,157.1z M244.4,158.6c0,0-0.1,0.1,0,0.1c0,0,0,0.1,0,0.3
		c0.1-0.2,0.3-0.4,0.4-0.5c0,0-0.1-0.1-0.1-0.1C244.6,158.4,244.5,158.5,244.4,158.6z M244.4,160c0.1,0.1,0.2,0.3,0.4,0.4h0.1
		l0.1-0.8c0.3-0.1,0.5-0.1,0.6-0.1c-0.1-0.1-0.3-0.2-0.4-0.3v-0.1h0.1l0.4-0.1c0.1-0.2,0.2-0.4,0.3-0.5c0.1-0.1,0.2-0.3,0.3-0.4
		c0.1-0.2,0.3-0.5,0.5-0.8c0,0-0.1-0.1-0.2-0.1c-0.2,0.3-0.4,0.7-0.6,1c-0.2,0.3-0.4,0.7-0.6,1h-0.1v0.1l-0.2,0.4
		c-0.1,0.1-0.2,0.2-0.3,0.2C244.6,159.9,244.5,160,244.4,160z M247,155.2c-0.4,0.3-0.7,0.6-1,1c-0.3,0.4-0.5,0.7-0.7,1.1h-0.1v0.1
		c-0.1,0.1-0.2,0.3-0.3,0.5c-0.1,0.2-0.2,0.4-0.1,0.7c0.4-0.5,0.5-0.8,0.4-1.1c0,0,0-0.1,0.1-0.1c0.3,0,0.5-0.1,0.7-0.2
		c0.2-0.2,0.4-0.3,0.5-0.5c0.2-0.2,0.4-0.5,0.5-0.7c0.1-0.2,0.3-0.5,0.4-0.7h-0.1C247.1,155.1,247,155.1,247,155.2z M247.9,158
		c-0.2,0.5-0.5,0.9-0.7,1.4c-0.2,0.4-0.4,0.9-0.7,1.4c-0.1,0.4-0.3,0.7-0.4,1c-0.1,0.3-0.3,0.6-0.4,1c-0.1,0.5-0.2,1-0.2,1.4
		c0,0.5-0.1,1-0.2,1.5c0.3-0.2,0.5-0.4,0.8-0.5c0.2-0.1,0.5-0.3,0.7-0.4c0.7-0.3,1.3-0.6,1.8-1.1c0.6-0.4,1.1-0.8,1.6-1.3
		c0.6-0.5,1.2-1.1,1.8-1.7c0.6-0.6,0.9-1.3,1-2.1c0.2-0.3,0.4-0.7,0.4-1.1c0-0.4,0.1-0.8,0.1-1.1c0.1-1-0.3-1.7-1.3-2.2
		c-0.8-0.3-1.4-0.1-1.9,0.4c0,0.1-0.1,0.2-0.3,0.4c-0.5,0.4-1,0.8-1.4,1.2C248.5,157,248.2,157.5,247.9,158z"/>
	<path d="M296.4,165.1c0.3,0.5,0.6,1.1,0.8,1.6c0.2,0.6,0.4,1.2,0.5,1.8c0,0.1,0,0.3-0.1,0.6c0,0.1-0.2,0.6-0.5,1.5
		c-0.3,0.8-0.6,1.8-0.9,2.8c-0.3,1-0.6,1.9-0.8,2.8c-0.3,0.8-0.4,1.3-0.5,1.5c-0.2,0.9-0.5,1.8-0.8,2.7c-0.3,0.9-0.7,1.8-1.2,2.6
		c-0.5,0.8-1,1.5-1.7,2.2c-0.7,0.7-1.5,1.2-2.4,1.6c-1.2,0.5-2.5,0.7-3.9,0.5c-1.4-0.2-2.6-0.6-3.7-1.4c-0.7-0.6-1.2-1.1-1.6-1.7
		c-0.3-0.6-0.6-1.2-0.7-1.9c-0.1-0.7-0.2-1.4-0.2-2.1c0-0.7-0.1-1.5-0.1-2.3c0-0.6,0-1.2,0-1.8c0-0.6,0.1-1.1,0.2-1.7
		c0-0.4,0.1-0.7,0.2-1.1c0.1-0.3,0.2-0.7,0.2-1c0.1-0.3,0-0.6-0.2-0.7c0,0,0.1-0.1,0.1-0.1c0,0,0.1-0.1,0.1-0.1
		c0.2-0.2,0.2-0.4,0.1-0.6c-0.1-0.2-0.2-0.5-0.2-0.9c0-0.6,0.1-1.1,0.1-1.7c0-0.6,0-1.1,0-1.6c0-0.4,0-0.9,0.1-1.5
		c0.1-0.6,0-1.1-0.1-1.4c-0.1-0.2-0.3-0.4-0.4-0.5c-0.1-0.1-0.4-0.1-0.6-0.1c-0.2,0-0.4,0.1-0.8,0.3c-0.3,0.1-0.6,0.3-0.8,0.4
		c0,0-0.1,0-0.2,0.1c-0.1,0.2-0.3,0.3-0.6,0.4c-0.4,0.1-0.8,0.4-1.1,0.7c-1.6,1.5-2.8,3.1-3.7,4.7l-0.2,0.4c0,0,0,0-0.1,0.2
		c-0.1,0.2-0.2,0.4-0.3,0.7c0,0.3,0,1.2,0.1,2.6c0.1,1.4,0.2,3,0.3,4.7c0.1,1.7,0.2,3.4,0.3,5.2c0.1,1.7,0.2,3.1,0.3,4.1
		c0,0.4,0,0.8-0.1,1.1c-0.1,0.3-0.3,0.5-0.4,0.6c-0.2,0.2-0.3,0.4-0.4,0.7c-0.1,0.3-0.2,0.5-0.5,0.6c-0.2,0.2-0.6,0.4-1,0.5
		c-0.5,0.1-0.9,0.2-1.2,0.3c0,0-0.3,0.1-0.7,0.2c-0.4,0.1-0.6,0.1-0.7,0.1c-0.2-0.1-0.4-0.2-0.6-0.4c-0.2-0.1-0.4-0.3-0.6-0.4
		c-0.1-0.1-0.3-0.2-0.5-0.2s-0.3-0.1-0.5-0.2c-0.2,0-0.3,0-0.3,0.1c0,0.5-0.2,0.6-0.5,0.4c-0.3-0.2-0.6-0.5-0.8-0.7
		c-0.5-0.5-0.8-1-1-1.5c-0.1-0.5-0.2-1-0.4-1.7c-0.1-0.5-0.2-1-0.2-1.5c-0.1-0.5-0.2-1-0.2-1.5c-0.2-1.2-0.5-2.5-0.7-3.7
		c-0.2-1.3-0.4-2.5-0.6-3.8v-0.1c0.3-0.3,0.4-0.8,0.4-1.6c-0.4-2.5-0.6-5-0.6-7.4c0-2.4-0.2-4.9-0.4-7.4c0,0,0-0.1,0-0.1
		c0,0,0,0,0-0.1c0.2-0.2,0.4-0.4,0.6-0.6c0.2-0.2,0.4-0.4,0.5-0.6c0.2-0.3,0.4-0.5,0.7-0.7c0.3-0.2,0.5-0.2,0.8-0.1
		c0.5,0.1,1,0.2,1.4,0.3c0.4,0.1,0.9,0.2,1.4,0.3c0.4,0.1,0.7,0.3,1.1,0.6s0.7,0.5,1.1,0.8c0.1,0.1,0.3,0.3,0.4,0.5s0.3,0.4,0.4,0.6
		c0.2,0.4,0.4,0.7,0.5,0.9c0.2,0.2,0.3,0.4,0.4,0.6c0.1,0.2,0.2,0.4,0.4,0.7s0.3,0.6,0.6,1c0,0,0.2,0.1,0.4,0.5
		c0.2,0.4,0.4,0.5,0.4,0.4l0.2,1.9c0.1-0.2,0.2-0.4,0.3-0.5c0.1-0.2,0.2-0.3,0.4-0.5c0.2-0.4,0.5-0.7,0.7-1c0.2-0.3,0.4-0.6,0.7-1
		c0.4-0.6,0.9-1,1.4-1.3c0.2-0.1,0.4-0.3,0.6-0.5c0.1-0.2,0.3-0.3,0.4-0.5c0.2-0.2,0.5-0.5,0.7-0.7c0.2-0.2,0.5-0.4,0.8-0.6
		c0.4-0.2,0.8-0.5,1.3-0.8c0.5-0.3,1-0.5,1.4-0.6c0.3-0.1,0.6-0.2,0.9-0.3c0.3-0.1,0.6-0.2,1-0.3c0.2,0,0.4,0,0.6,0.1
		c0.1,0.1,0.3,0.1,0.6,0.1c0.3,0,0.6-0.1,1-0.1c0.3,0,0.6,0,1,0c0.8,0,1.5,0.2,2.1,0.6c0.1,0.1,0.4,0.3,0.8,0.5
		c0.1,0,0.2,0.2,0.3,0.4c0.1,0.2,0.2,0.4,0.4,0.6c0.1,0.2,0.3,0.4,0.4,0.6l0.2,0.4v0.2c-0.1,0.4,0,0.7,0.2,1
		c0.1,0.2,0.2,0.4,0.2,0.6c0,0.2,0.1,0.4,0.1,0.6c0.1,1,0.1,2-0.1,2.8c-0.1,0.8-0.3,1.5-0.4,2.2c-0.1,0.7-0.2,1.5-0.3,2.2
		c-0.1,0.5-0.3,1-0.5,1.3v0.2v0.8c0,0.1,0,0.2-0.1,0.4c0,0,0,0.1,0,0.1c0,0,0,0.1,0,0.2c0,0,0.1,0.1,0.1,0.1c0,0,0,0.1,0.1,0.1
		c0,0.2,0,0.3,0.1,0.4c0.1,0.1,0,0.2-0.1,0.3c-0.1,0-0.2,0.2-0.4,0.4l-0.4,2.1v0.5c0,0.3,0,0.6-0.1,1c-0.1,0.2-0.2,0.4-0.2,0.6
		c0,0.2-0.1,0.4-0.1,0.6c0,0.1-0.1,0.4-0.1,0.6v0.6c0,0.1,0,0.2,0,0.2c0,0.1,0,0.2,0,0.2c-0.1,0.6-0.1,1.1,0.2,1.6
		c0.3,0.7,0.8,1.1,1.3,1.1c0.5,0,1.1-0.2,1.6-0.6c0.5-0.4,1-0.8,1.5-1.4c0.4-0.5,0.8-1,1-1.4c0.1-0.2,0.2-0.5,0.2-0.8
		c0-0.3,0.1-0.5,0.2-0.8c0.1-0.1,0.2-0.2,0.2-0.2c0.1-0.1,0.1-0.2,0.1-0.3c0-0.2,0-0.4,0-0.4c0,0,0.1-0.1,0.3-0.2
		c0-0.1,0.1-0.2,0-0.3c0-0.1,0-0.2,0-0.3c0-0.2,0.2-0.5,0.4-0.8c0-0.1,0.2-0.7,0.5-1.6c0.3-0.9,0.6-1.9,0.9-2.9c0.3-1,0.6-2,0.9-2.9
		c0.3-0.9,0.4-1.4,0.5-1.6c0.1-0.1,0.2-0.3,0.2-0.4c0.1-0.1,0.1-0.2,0.2-0.4c0-0.1,0.1-0.3,0.1-0.4c0-0.1,0-0.3,0.1-0.4
		c0-0.2,0.1-0.5,0.2-0.8C296.2,165.6,296.3,165.4,296.4,165.1z M262.9,174.2c0,0.4,0.1,0.7,0.3,1.1c0.3-0.4,0.3-0.8,0-1.1H262.9z
		 M263.1,181.9c0.3-0.1,0.4-0.3,0.5-0.4c0-0.1-0.1-0.3-0.2-0.6c-0.2,0.3-0.3,0.5-0.3,0.5C263,181.5,263,181.7,263.1,181.9
		c-0.1,0.2,0,0.4,0.4,0.4v-0.5C263.3,181.9,263.2,181.9,263.1,181.9z M263.9,178.3c-0.1-0.1-0.2-0.1-0.3-0.1c-0.1,0-0.2,0-0.4-0.1
		c0.1,0.1,0.2,0.3,0.2,0.4c0,0.1,0.1,0.2,0.1,0.2c0,0,0.1,0.1,0.1,0.2c0,0-0.2,0-0.4,0.1c0.1,0.1,0.2,0.2,0.3,0.2
		c0.1,0.1,0.3,0.2,0.5,0.2c0-0.2-0.1-0.4-0.2-0.7c0,0-0.1,0.1-0.2,0.1C264,178.6,264,178.4,263.9,178.3z M263.8,176.4
		c-0.2-0.1-0.2-0.2-0.2-0.4c0.1-0.2,0-0.3-0.2-0.4c0,0.4,0,0.6,0,0.7C263.4,176.3,263.6,176.4,263.8,176.4z M263.5,172.9v0.3h0.1
		C263.6,173,263.6,172.9,263.5,172.9L263.5,172.9z M264,181.9c0,0.2,0.1,0.4,0.1,0.6c0,0.2,0.1,0.4,0.1,0.6c0.4-0.1,0.5-0.3,0.5-0.5
		c-0.1-0.4-0.2-0.8-0.3-1.3c-0.1-0.4-0.2-0.8-0.3-1.3c-0.1-0.3-0.3-0.5-0.6-0.6c-0.1,0.2-0.2,0.4-0.1,0.6c0.1,0.2,0.1,0.4,0.1,0.6
		C263.7,181,263.8,181.4,264,181.9z M264,173.4c-0.2,0.1-0.3,0.2-0.2,0.4c0.1,0.2,0,0.3-0.2,0.4c0.1,0.1,0.2,0.3,0.2,0.4
		c0.1,0.1,0.2,0.2,0.2,0.3c-0.1,0-0.3-0.1-0.5-0.2c0,0.1,0,0.2,0,0.3c0,0.1,0,0.2,0,0.2c0.1,0.1,0.2,0.2,0.3,0.2
		c0.1,0,0.2,0.1,0.3,0.2c0,0,0.1,0.1,0.1,0.1c0,0,0,0.1,0.1,0.2c0,0,0,0.1,0,0.1c0,0,0,0.1,0,0.1c-0.5,0.2-0.6,0.5-0.4,0.8
		c0.1,0.1,0.1,0.2,0.1,0.2c0,0.1,0,0.2,0.1,0.2c0,0.1,0.2,0.2,0.5,0.4c0.2,0,0.2-0.1,0.1-0.3c-0.1-0.2-0.2-0.4-0.2-0.6
		c0-0.2,0-0.4,0-0.6c0,0,0-0.1-0.1-0.1c-0.1,0-0.1,0-0.2-0.1c0.1-0.2,0.2-0.4,0.2-0.5s-0.1-0.2-0.3-0.2c-0.3-0.2-0.4-0.4-0.3-0.6
		h0.4c0.1-0.3,0.1-0.6,0-0.8c-0.1-0.3-0.2-0.5-0.2-0.8c0-0.1-0.1-0.2-0.1-0.4c0-0.1-0.1-0.3-0.2-0.4c-0.2,0.2-0.2,0.4-0.1,0.5
		C263.9,173.1,264,173.3,264,173.4z M264.8,183.1c-0.3,0.2-0.4,0.3-0.4,0.4c0,0.1,0.2,0.3,0.5,0.6c0-0.2-0.1-0.4-0.1-0.5
		S264.9,183.3,264.8,183.1z M267.2,182.8c0.1,0,0.1-0.1,0.2-0.1c-0.2-0.1-0.4-0.3-0.4-0.6c-0.1-0.3-0.2-0.6-0.2-0.8
		c0-0.3-0.2-0.5-0.4-0.8c-0.1-0.1-0.2-0.1-0.4-0.1l0.2,0.6c0,0.1,0.1,0.3,0.1,0.4c0,0.1,0,0.3-0.2,0.4h-0.1h-0.4
		c-0.1-0.2-0.2-0.4-0.2-0.6c0-0.2-0.1-0.4-0.1-0.6c-0.1,0-0.3,0-0.4,0c-0.1,0-0.2,0-0.4,0c0,0.5,0.2,1,0.3,1.5l0.1-0.1
		c0.1,0,0.2,0.1,0.2,0c0,0,0.1,0,0.1,0c0.1,0.1,0.2,0.2,0.1,0.2s-0.1,0.1-0.1,0.2c0.3,0.2,0.4,0.3,0.5,0.4c-0.3,0-0.4,0.1-0.3,0.3
		c0,0.1,0.1,0.2,0.1,0.2c0,0.1,0.1,0.2,0.2,0.2l0.1-0.8c0.2,0.1,0.3,0.1,0.4,0.1c0,0,0.1-0.1,0.2-0.3c0,0-0.1,0-0.1,0c0,0,0,0-0.1,0
		h-0.1c0-0.2-0.1-0.4-0.2-0.7h0.1c0.1,0,0.1,0,0.2,0.1c0.1,0.1,0.1,0.2,0.2,0.4c0,0.1,0.1,0.3,0.2,0.4H267.2z M264.8,178.3
		c0,0.1,0,0.2,0,0.4c0,0.1,0,0.3,0.3,0.4c-0.1-0.2-0.1-0.3,0-0.5C265.1,178.5,265,178.4,264.8,178.3z M264.9,172.2
		c0,0.1,0,0.2,0,0.2c0,0,0,0.1,0,0.1h0.1v-0.2L264.9,172.2L264.9,172.2z M264.9,179.6h0.1c0,0,0-0.1,0-0.1c0,0,0-0.1,0-0.2h-0.1
		c-0.1,0-0.1,0-0.1-0.1V179.6z M265.6,174.3c0-0.1,0-0.2,0-0.2s0-0.2,0-0.2c0-0.4-0.1-0.8-0.4-1.1c-0.1,0.4-0.1,0.6-0.1,0.6
		c0.1,0.1,0.2,0.2,0.2,0.3c0,0.1-0.1,0.2-0.1,0.4c-0.1,0.4,0,0.7,0.1,0.8c0.1,0.1,0.1,0.4,0.1,0.6c0,0.2,0,0.3,0.1,0.5
		c0.1,0.1,0.3,0.3,0.4,0.5c0.1-0.3,0.3-0.5,0.4-0.6h-0.4c0.2-0.3,0.2-0.5,0.1-0.8C265.8,174.8,265.7,174.5,265.6,174.3z
		 M265.1,181.6c0.2,0.1,0.2,0.3,0,0.5V181.6L265.1,181.6z M265.6,172.7c-0.1,0.4-0.1,0.6-0.1,0.8c0,0.2,0.2,0.3,0.4,0.4
		c0-0.2-0.1-0.4-0.1-0.6C265.7,173.1,265.7,172.9,265.6,172.7z M266.4,179.3c0,0-0.1-0.1-0.1-0.1c0,0,0-0.1-0.1-0.2
		c-0.2-0.3-0.3-0.6-0.3-0.9c0-0.1,0-0.2,0-0.2c0,0,0-0.1,0-0.2h-0.2c0.1,0.5,0.1,0.9,0.1,1.3c0,0.4,0.1,0.8,0.3,1.3
		c0.4,0,0.5-0.1,0.4-0.4C266.5,179.7,266.5,179.5,266.4,179.3z M265.8,176.6c0,0.1,0,0.2,0.1,0.2h0.1c0-0.1,0-0.2,0-0.2
		c0,0,0-0.1,0-0.2h-0.1C265.8,176.5,265.8,176.5,265.8,176.6z M266.8,183.9l-0.1-0.2c0,0,0,0.1-0.1,0.1c0,0.1,0.1,0.2,0.1,0.2
		c0,0,0.1,0.1,0.2,0.2L266.8,183.9z M267.9,184.9c0.1-0.2,0.1-0.4,0-0.6c-0.1-0.1-0.2-0.3-0.3-0.4h-0.2c0.1,0.2,0.2,0.4,0.2,0.5
		C267.7,184.5,267.8,184.7,267.9,184.9z M282.9,181.7c0-0.2,0-0.3-0.1-0.4C282.9,181.5,282.9,181.6,282.9,181.7z M285.4,176.8
		l0.1-0.1c-0.1-0.2-0.3-0.3-0.5-0.2c-0.3,0.1-0.4,0.3-0.4,0.5c0,0.1,0.1,0.2,0.1,0.4c-0.1,0.4-0.3,0.8-0.4,1.1
		c-0.1,0.4-0.3,0.8-0.4,1.1c-0.1,0.2-0.2,0.4-0.3,0.5c-0.1,0.2-0.3,0.3-0.5,0.4c0,0.1,0.1,0.2,0.1,0.2c0.1,0.1,0.3,0.2,0.5,0.1
		c0.2-0.1,0.3-0.2,0.4-0.3c0-0.1,0.1-0.2,0.1-0.4c0-0.1,0.1-0.2,0.1-0.4c0-0.1,0.1-0.3,0.1-0.4c0.1-0.2,0.3-0.3,0.5-0.3h0.1l0.1-0.1
		h-0.1h-0.2c0-0.2,0-0.4,0.3-0.5c0.1-0.1,0.2-0.1,0.2-0.1l-0.1-0.3c0,0-0.1-0.1-0.1-0.2c0-0.2,0.1-0.4,0.1-0.5
		c0-0.1,0.1-0.3,0.1-0.4C285.3,177,285.4,176.9,285.4,176.8z M284.5,182.6c0.1-0.4,0.1-0.7,0.1-1c0-0.3,0-0.6,0-1
		c-0.2,0.2-0.4,0.6-0.5,1.1C284,182.1,284.1,182.4,284.5,182.6z M284.8,175.5c-0.1,0.1-0.1,0.3,0,0.4c0.1,0,0.2,0,0.2,0.1h0.4
		c0.3-0.1,0.4-0.2,0.2-0.4c-0.1-0.2-0.4-0.3-0.6-0.1c0,0-0.1,0-0.1,0C284.8,175.5,284.8,175.5,284.8,175.5z"/>
	<path d="M304.7,142.4l0.1-0.1v0.8c0,0.2-0.1,0.4-0.1,0.6c0,0.2,0,0.4,0,0.6c0,0.3,0,0.6,0,1c0,0.3,0,0.6,0.1,1c0.4,0,0.8,0,1.2,0.1
		c0.4,0,0.8,0.1,1.2,0.1c0.7,0,1.4-0.1,2.2-0.1c0.7,0,1.5-0.1,2.2-0.1h0.4c0.5,0.2,1,0.2,1.4,0.2c0.4-0.1,0.9-0.2,1.4-0.2
		c0,0.2,0,0.4-0.1,0.6c0.2,0,0.4-0.1,0.5-0.1c0.1,0,0.3-0.1,0.6-0.1c-0.1,0.1-0.3,0.4-0.5,0.6c-0.4,0.4-0.8,0.7-1.2,1
		c-0.4,0.3-1,0.4-1.7,0.5c-0.8,0.1-1.6,0.2-2.4,0.3c-0.8,0.1-1.6,0.1-2.4,0.1c-0.5,0-1,0.1-1.4,0.1c-0.4,0-0.9,0.1-1.4,0.1
		c0,0.4,0,0.8-0.1,1.4c0,0.5-0.1,1.1-0.1,1.7c0,0.6-0.1,1.1-0.1,1.6c0,0.5-0.1,0.9-0.1,1.3c0,0.3,0,0.5-0.1,0.6c0,0.3-0.1,0.6-0.1,1
		c0,0.3-0.1,0.6-0.1,1c0,0.4,0,0.7-0.1,1c0,0.3-0.1,0.6-0.1,1c0,0.1,0,0.3,0,0.4c0,0.1-0.1,0.3-0.1,0.5c0,0.1,0,0.2-0.1,0.3
		c-0.1,0.1,0,0.2,0.2,0.3c0,0,0,0,0,0.1c0,0.1-0.1,0.2-0.1,0.2c-0.1,0.2-0.2,0.4-0.3,0.6c-0.1,0.2-0.1,0.4,0,0.6c0,0,0.1,0,0.1,0.1
		s0,0.1-0.1,0.1c-0.2,0.4-0.4,0.9-0.4,1.3s0,0.9-0.1,1.3c-0.1,0.2-0.1,0.4,0,0.6c0.1,0.2,0.1,0.4,0.1,0.6c0.1,0.4-0.1,0.7-0.5,0.9
		c0.1,0,0.2,0.1,0.3,0.1c0.1,0,0.2,0.1,0.3,0.1c-0.1,0.2-0.2,0.3-0.5,0.4c-0.2,0.1-0.2,0.3,0,0.5c0.1,0,0.2-0.1,0.2-0.1
		c0,0,0.1-0.1,0.1-0.1c0,0,0,0.1,0.1,0.1v0.2c-0.2,0.4-0.3,0.7-0.2,1.1c0,0.4,0,0.7-0.1,1.1l-0.2,1.7c0,0.7-0.1,1.3-0.1,2
		c0,0.7,0,1.3,0,2c0,0.1-0.1,0.3,0,0.4c0,0.1,0,0.3,0,0.4c-0.1,0.6,0,1.1,0.1,1.5c0.1,0.1,0.1,0.3,0.1,0.5c0,0.2-0.1,0.3-0.1,0.5
		v1.1c0,0.2,0,0.4,0.1,0.4c0.3,0.3,0.4,0.6,0.5,0.9c0,0.3,0.1,0.6,0.2,1c0.2,0.5,0.5,0.8,1,1s1,0.3,1.5,0.3c0.8,0.2,1.5-0.1,2.4-0.8
		c0.8-0.7,1.5-1.5,2-2.3c0,0,0.1-0.2,0.3-0.5c0.1-0.3,0.3-0.6,0.6-1c0-0.1,0-0.3,0.1-0.6c0,0,0.1-0.1,0.1-0.1c0,0,0.1-0.1,0.1-0.1
		l0.1-0.1v-0.1c0-0.2,0-0.4,0-0.4c0,0,0.1-0.1,0.3-0.2c0-0.1,0.1-0.2,0-0.3c0-0.1,0-0.2,0-0.3c0-0.2,0.1-0.3,0.1-0.5
		c0-0.1,0.1-0.2,0.2-0.4c0-0.1,0.2-0.7,0.5-1.6c0.3-0.9,0.6-1.9,0.9-2.9c0.3-1,0.6-2,0.9-2.9c0.3-0.9,0.4-1.4,0.5-1.6
		c0.1-0.1,0.2-0.3,0.2-0.4c0.1-0.1,0.1-0.2,0.2-0.4c0-0.1,0.1-0.3,0.1-0.4c0-0.1,0-0.3,0.1-0.5c0-0.2,0.1-0.4,0.2-0.7
		s0.2-0.5,0.2-0.8c0.3,0.5,0.6,1.1,0.8,1.6c0.2,0.6,0.4,1.2,0.5,1.8c0,0.1-0.1,0.2-0.1,0.3c0,0.1,0,0.2-0.1,0.3
		c0,0.1-0.2,0.6-0.5,1.5c-0.3,0.8-0.6,1.8-0.9,2.8c-0.3,1-0.6,1.9-0.8,2.8c-0.3,0.8-0.4,1.3-0.5,1.5c-0.2,0.9-0.6,1.9-1,2.8
		s-0.8,1.9-1.2,2.8c-0.1,0.4-0.3,0.7-0.4,1c-0.1,0.3-0.4,0.7-0.6,1.1c0,0.1,0,0.2,0,0.2c0,0,0,0.1,0,0.1c-0.1,0.2-0.3,0.4-0.5,0.6
		c-0.3,0.2-0.4,0.5-0.5,0.7v0.1c-0.1,0.1-0.3,0.3-0.4,0.4c-0.1,0.1-0.2,0.3-0.4,0.4c-0.3,0.4-0.7,0.8-1.2,1.2
		c-0.5,0.4-1,0.7-1.5,0.8c-0.4,0.2-0.6,0.3-0.8,0.4c-0.6,0.3-1,0.5-1.4,0.6c-0.2,0.1-0.4,0.1-0.6,0.1c-0.2,0-0.4,0-0.6,0.1
		c-0.1,0-0.3,0.1-0.4,0c-0.1,0-0.3,0-0.4,0.1c-0.4,0.1-0.9,0.2-1.4,0.1c-0.5-0.1-1.1-0.2-1.7-0.4c-0.6-0.2-1.1-0.4-1.6-0.7
		c-0.5-0.3-0.9-0.6-1.2-0.9c-0.8-0.9-1.5-1.8-2-2.8c-0.5-1-1-2.1-1.3-3.2c-0.2-0.8-0.4-1.5-0.5-2.2c-0.1-0.7-0.2-1.5-0.2-2.2
		c0-0.8-0.1-1.6-0.1-2.4c0-0.8,0-1.6-0.1-2.4v-0.7c0-0.4,0-1,0.1-1.7c0-0.7,0.1-1.4,0.2-2.1c0.1-0.7,0.1-1.3,0.2-1.9
		c0.1-0.6,0.1-0.9,0.1-1.1c0-0.5,0-1.1,0-1.7c0-0.6,0-1,0-1.1c0.1-0.5,0.1-1.1,0.1-1.8c0-0.7,0-1.2,0.1-1.8c0-0.2,0.1-0.4,0.1-0.6
		c0-0.2,0.1-0.4,0.1-0.6c0-0.9,0-1.8,0.1-2.6c0.1-0.8,0.2-1.7,0.3-2.5c0-0.4,0.1-0.7,0.2-1c0.1-0.3,0.2-0.6,0.2-1c0,0,0-0.2,0-0.4
		c0-0.2,0-0.5,0.1-0.8c0-0.3,0-0.5,0.1-0.8c0-0.2,0-0.4,0-0.4c-0.5-0.2-1-0.2-1.5-0.1c-0.5,0.1-0.9,0.1-1.4,0.1
		c-0.6,0-1.1-0.1-1.7-0.1c-0.6,0-1.2,0-1.7-0.1c-0.2,0-0.4-0.1-0.6-0.2c-0.2-0.1-0.3-0.2-0.5-0.3c-0.1,0-0.1-0.1-0.1-0.2
		c0-0.1,0-0.2,0-0.3c0-0.1,0-0.2,0-0.2c0-0.1,0-0.2,0-0.2c0.8,0,1.5-0.1,2.3-0.4c0.1,0,0.2-0.1,0.3-0.1c0.1,0,0.2,0,0.3-0.1
		c0.3,0,0.6-0.1,0.9-0.1c0.3,0,0.6-0.1,0.9-0.2c0.2,0,0.5-0.1,0.7-0.1c0.2,0,0.4,0,0.7,0c0.1,0,0.3-0.1,0.5,0c0.2,0,0.3-0.1,0.4-0.2
		c0,0,0.1-0.1,0.2-0.1c0.1,0,0.2,0,0.3-0.1c0.2,0,0.4,0,0.4-0.1c0.4-0.6,0.6-1.2,0.7-1.9c0.1-0.6,0.2-1.3,0.4-1.9
		c0-0.1,0-0.3,0.1-0.4c0.1-0.1,0.2-0.2,0.3-0.3c0.1-0.2,0.3-0.5,0.4-0.8c0.1-0.3,0.2-0.5,0.3-0.8c0.1-0.2,0.2-0.5,0.2-0.7
		c0-0.2,0.1-0.5,0.2-0.7c0.1-0.3,0.3-0.5,0.6-0.6c0.2,0,0.3-0.1,0.3-0.2c0-0.1,0.1-0.2,0.1-0.2c0.2,0.1,0.4,0.4,0.8,0.7
		c0-0.2,0.1-0.5,0.1-0.8c0.2,0.1,0.4,0.4,0.7,0.6c0.2-0.2,0.4-0.2,0.6-0.1c0,0,0-0.1,0.1-0.1c0,0,0.1-0.1,0.1-0.1
		c0-0.2,0-0.3,0.2-0.3c0.2,0,0.3,0,0.4-0.1c0.2-0.1,0.4-0.1,0.7,0c0.3,0.1,0.5,0.3,0.6,0.5c0.3,0.7,0.6,1.3,0.8,1.8
		c0,0.1,0.1,0.2,0.1,0.3c0,0.1,0,0.2,0.1,0.3L304.7,142.4z M295.9,156.4c0,0,0-0.1,0.1-0.2h-0.1c0,0.1-0.1,0.2-0.1,0.4h0.1
		C295.9,156.6,295.9,156.5,295.9,156.4z M296.3,154.4c0.4-1.1,0.5-2.1,0.3-3c-0.3,0.6-0.5,1.2-0.6,1.8c-0.1,0.2-0.1,0.4-0.1,0.6
		C295.8,154.1,296,154.3,296.3,154.4z M296.1,155.8c0.1-0.2,0.2-0.4,0.1-0.6c-0.1-0.2-0.1-0.4,0-0.6c0,0.2-0.1,0.4-0.2,0.6
		C296,155.4,296,155.6,296.1,155.8z M298.7,177.7L298.7,177.7c-0.1,0.1-0.1,0.3-0.1,0.6h0.1V177.7z M299.7,178.2c0-0.1,0-0.2,0-0.2
		c0,0,0-0.1,0-0.1h-0.1c0,0.1,0.1,0.2,0.1,0.4H299.7z M300,178.5c0.3-0.4,0.5-0.9,0.4-1.3c0-0.4,0-0.9,0-1.3
		c-0.1,0.4-0.3,0.8-0.4,1.2C299.9,177.6,299.9,178,300,178.5z"/>
	<path d="M355,166.8c0.2,0.6,0.4,1.2,0.5,1.8c0,0.1,0,0.3-0.1,0.6c0,0.1-0.2,0.6-0.5,1.4c-0.3,0.8-0.5,1.7-0.8,2.6
		c-0.3,0.9-0.6,1.8-0.8,2.7c-0.3,0.9-0.4,1.4-0.5,1.7v0.1l-0.2,0.6c-0.2,0.6-0.5,1.2-0.8,1.7c-0.4,0.5-0.8,1.1-1.1,1.6
		c-0.5,0.5-1,1-1.6,1.4c-0.6,0.4-1.2,0.8-1.9,1c-0.5,0.1-1,0.2-1.6,0.3c-0.5,0-1,0.1-1.6,0.1c-0.6,0.1-1.2,0.1-1.7,0
		c-0.5-0.1-1.1-0.2-1.7-0.3c-0.5-0.1-1-0.2-1.5-0.5c-0.5-0.2-1-0.5-1.4-0.8c-0.3-0.3-0.6-0.5-1-0.6c-1.1-0.7-2.2-1.5-3.2-2.5
		c-0.3-0.3-0.5-0.7-0.7-1c-0.2-0.4-0.4-0.7-0.6-1.1l-0.3-0.3c-0.4,0.2-0.7,0.4-0.8,0.6c-0.1,0.2-0.4,0.4-0.8,0.6
		c-0.2,0.1-0.5,0.2-0.7,0.2c-0.2,0.1-0.5,0.2-0.7,0.4c-0.1,0.1-0.2,0.2-0.2,0.2c-0.1,0.1-0.2,0.2-0.2,0.2c-0.1,0.2-0.5,0.3-1,0.5
		c-0.5,0.1-0.9,0.2-1.2,0.3c-0.5,0.1-1.1,0.2-1.6,0.3c-0.6,0.1-1.1,0.2-1.6,0.3c-0.6,0.1-1.1,0.1-1.7,0c-1.2-0.1-2.2-0.5-3-1
		c-0.2-0.1-0.4-0.2-0.5-0.3c-0.2-0.1-0.3-0.2-0.5-0.4c-0.2-0.1-0.4-0.2-0.6-0.3c-0.2-0.1-0.4-0.2-0.6-0.3c-0.4-0.1-0.7-0.3-1-0.5
		c-0.3-0.3-0.5-0.5-0.7-0.8c-1.1-1.2-1.9-2.7-2.3-4.5c-0.1-0.5-0.2-1-0.4-1.5c-0.2-0.5-0.3-1-0.5-1.5c-0.6-2-0.7-4-0.4-6.1
		c0.1-0.3,0.1-0.6,0.1-0.9c0-0.3,0-0.6,0-0.9c0-1.5,0.3-3,1-4.6c0.1-0.3,0.3-0.6,0.4-0.9c0.1-0.3,0.2-0.6,0.3-1
		c0.3-0.9,0.6-1.7,1-2.5c0.4-0.8,0.8-1.6,1.3-2.4l0.1,0.1c0.2-0.4,0.5-0.8,0.7-1.3c0.2-0.4,0.5-0.8,0.7-1.3c0.2-0.1,0.4-0.3,0.5-0.4
		c0.1-0.1,0.3-0.2,0.4-0.4c0.1-0.1,0.2-0.3,0.3-0.4c0.4-0.2,1-0.2,1.6-0.1c0.2,0.2,0.6,0.5,1.1,0.7c0.1,0,0.2,0.1,0.4,0.1
		c0.1,0,0.3,0.1,0.4,0.2c0.1,0.2,0.3,0.5,0.4,0.7c0.1,0.3,0.2,0.5,0.4,0.6c0.1,0.2,0.3,0.3,0.5,0.3s0.5,0,0.9-0.1
		c0.1,0.5,0.4,0.9,0.7,1.1c0.4,0.2,0.7,0.4,1.1,0.5c0.4,0.2,0.8,0.4,1.1,0.7s0.6,0.8,0.7,1.6v0.1c-0.2,0.5-0.4,1-0.5,1.6
		c-0.1,0.5-0.2,1-0.2,1.6c-0.2,0.3-0.4,0.7-0.5,1.1h-0.1c-0.1,0.3-0.2,0.5-0.2,0.8c0,0,0,0.1,0,0.1c0,0,0,0,0,0.1
		c-0.2,0.3-0.3,0.6-0.4,0.9c-0.1,0.3-0.1,0.5-0.1,0.6c0.2,0.3,0.2,0.8,0,1.3c-0.1,0.5-0.1,1-0.1,1.5c0,0.5,0,1-0.1,1.5
		c-0.1,0.8-0.2,1.5-0.2,2.2s0,1.4,0.1,2.1c0,0.8,0.2,1.6,0.4,2.6c0.2,1,0.5,1.8,0.9,2.5c0.2,0.3,0.4,0.6,0.8,1
		c0.3,0.4,0.6,0.7,0.8,0.9c0.2,0.1,0.4,0.2,0.5,0.2c0.2,0,0.4,0,0.6,0c0.3,0.1,0.6,0.1,0.8-0.1c0.5-0.1,0.9-0.3,1.3-0.6
		c0.4-0.3,0.6-0.5,0.5-0.6c-0.1-0.5-0.2-0.9-0.2-1.3c0-0.3-0.1-0.7-0.1-1c0-0.3-0.1-0.6-0.1-0.8c-0.1-1-0.2-2-0.2-3c0-1,0.1-2,0.3-3
		l1.1-4.7c0.2-0.9,0.6-1.8,1-2.6c0.4-0.8,0.9-1.6,1.4-2.3c0.2-0.3,0.5-0.6,0.7-1c0.3-0.3,0.5-0.6,0.7-1c0.3-0.4,0.8-0.6,1.3-0.6
		c0.1,0,0.3,0,0.6-0.1c0.1,0.1,0.2,0.2,0.3,0.4c0.1,0,0.2,0,0.2-0.1c0.2-0.1,0.4-0.2,0.6-0.2c0.2-0.1,0.4,0,0.6,0.2
		c0,0,0.2,0.1,0.4,0.1c0.4,0,0.7,0.1,1,0.2c0.3,0.1,0.6,0.3,1,0.5c0.3,0.2,0.6,0.3,0.9,0.3c0.2,0,0.4,0.1,0.6,0.3
		c0.1,0.2,0.3,0.3,0.6,0.2c0,0.2,0.1,0.4,0.1,0.5c0,0.1,0.1,0.3,0.1,0.5h0.1c0-0.1,0-0.2,0-0.3c0-0.1,0.1-0.2,0.1-0.4
		c0.1,0.2,0.3,0.4,0.5,0.7c0,0,0.1,0,0.1,0c0,0,0.1,0,0.1,0c-0.1,0.4-0.1,0.7,0.1,0.9c0.1,0.2,0.3,0.5,0.6,0.7
		c0,0.1,0.1,0.2,0.1,0.2c0,0.1,0.1,0.2,0.1,0.2c0,0.5,0,1.1,0.1,1.6c0.1,0.6,0,1.1-0.2,1.6c-0.2,0.5-0.4,1.1-0.5,1.6
		c-0.1,0.6-0.3,1.1-0.4,1.6c-0.1,0.4-0.3,0.7-0.4,1.1c-0.1,0.4-0.3,0.7-0.4,1.1v0.1c-0.1,0.5-0.2,1-0.2,1.5c-0.1,0.5-0.1,1-0.2,1.5
		c0,0.1,0,0.2,0,0.4c0.1,0.1,0.1,0.3,0.1,0.4v0.3c-0.4,0.1-0.7,0.5-0.8,1.1c-0.1,0.5,0,1,0.2,1.4c0,0,0.1,0.1,0.1,0.1
		c0,0,0.1,0.1,0.1,0.1c-0.3,0.3-0.4,0.7-0.3,1.1c0,0.1,0.1,0.3,0.1,0.5c0,0.2,0.1,0.3,0.1,0.5c-0.1,1-0.1,2,0.1,3
		c0.1,0.5,0.3,1,0.5,1.4c0.3,0.4,0.6,0.7,1,1c0.2,0.1,0.4,0.2,0.6,0.2c0.4,0,0.8,0,1.1,0c0.3,0,0.6-0.1,1-0.3
		c0.7-0.4,1.3-1.1,1.9-1.9c0-0.1,0.2-0.3,0.3-0.5c0.2-0.3,0.2-0.4,0.2-0.5c0.1-0.2,0.2-0.3,0.2-0.5c0-0.1,0.1-0.2,0.1-0.4
		c0-0.1,0.1-0.2,0.2-0.4c0.1-0.2,0.2-0.4,0.2-0.7v-0.1c0.4-1.2,0.8-2.5,1.1-3.9c0.4-1.4,0.8-2.7,1.2-3.8c0.1-0.1,0.2-0.3,0.2-0.4
		c0-0.1,0.1-0.2,0.2-0.4c0-0.1,0.1-0.3,0.1-0.4c0-0.1,0-0.3,0.1-0.5c0-0.2,0-0.4,0.1-0.7c0.1-0.3,0.2-0.5,0.3-0.8v0.1v-0.1
		C354.5,165.7,354.8,166.2,355,166.8z M313.8,171.8c0.1-0.2,0.1-0.5,0.1-0.9c0-0.4-0.2-0.6-0.4-0.9c0,0.3,0.1,0.6,0.1,0.9
		C313.6,171.2,313.7,171.5,313.8,171.8z M313.9,160.4c-0.3,0.5-0.3,0.9,0.1,1.4c-0.2-0.2-0.2-0.5,0-0.7
		C314.2,160.9,314.1,160.6,313.9,160.4z M314.1,164.7L314.1,164.7l-0.1,0.9h0.1V164.7z M314.4,157.8c0,0,0.1,0.1,0.2,0.3
		c-0.2,0-0.3,0.1-0.3,0.3c0,0.1,0,0.3,0,0.4c0,0.4,0,0.7,0,1c0,0.3,0,0.6,0.1,1h0.1c0.1-0.8,0.3-1.8,0.4-2.8c-0.1,0-0.2,0.1-0.3,0.1
		c0-0.2,0-0.4,0.1-0.6v-0.1c0.2-0.2,0.4-0.5,0.4-0.8c0-0.3,0.1-0.6,0.2-0.8c-0.1,0.2-0.3,0.5-0.5,0.7c-0.2,0.3-0.2,0.6-0.1,0.9v0.1
		C314.5,157.6,314.4,157.7,314.4,157.8z M314.5,161.5c-0.1,0.7-0.1,1.2-0.1,1.3c0,0.2,0.1,0.5,0.3,0.8c-0.1-0.4-0.1-0.7,0-1.1
		C314.8,162.3,314.7,161.9,314.5,161.5z M315.4,172.7c0-0.2,0-0.4,0.1-0.5c0-0.2,0-0.3-0.1-0.4c-0.2-0.2-0.3-0.5-0.3-0.7
		c0-0.2,0.1-0.5,0.1-0.7c-0.3,0-0.5,0.2-0.5,0.5c0,0.2,0,0.4,0.1,0.5c0,0.2,0.1,0.3,0.1,0.5C315,172.1,315.2,172.4,315.4,172.7z
		 M332.8,175.9c-0.2,0.5,0,0.7,0.4,0.8C333.1,176.6,333,176.3,332.8,175.9z M332.7,167.6c0,0.2,0,0.3,0,0.5h0.2
		c0-0.2,0.1-0.6,0.1-1.1l-0.1-0.1C332.8,167.2,332.8,167.4,332.7,167.6z M333.1,170.1c0-0.2-0.1-0.4-0.1-0.6s0-0.4,0-0.6
		c-0.2,0.1-0.3,0.3-0.3,0.4C332.7,169.4,332.8,169.7,333.1,170.1z M333.6,177.1c0,0.1,0.2,0.2,0.5,0.1l-0.5-0.5
		C333.6,176.9,333.6,177,333.6,177.1z M334.8,176.8c0,0,0.1-0.1,0.1-0.1l-0.1-0.3l-0.2-0.2c0,0-0.1,0.1-0.1,0.1
		c0,0.1,0.1,0.2,0.1,0.2C334.7,176.6,334.8,176.7,334.8,176.8z M342.4,161.8c0.4-0.2,0.5-0.5,0.4-0.8c0,0.1-0.1,0.2-0.1,0.4
		C342.6,161.5,342.5,161.6,342.4,161.8z M343.8,158.9c-0.3,0.1-0.4,0.3-0.5,0.6c0,0.3-0.1,0.5-0.3,0.7c0.4-0.1,0.7-0.2,0.8-0.4
		C343.9,159.7,343.9,159.4,343.8,158.9z"/>
	<path d="M387.4,165.1c0.3,0.5,0.6,1.1,0.8,1.6c0.2,0.6,0.4,1.2,0.5,1.8c0,0.1-0.1,0.2-0.1,0.3c0,0.1,0,0.2-0.1,0.3
		c-0.5,1.4-1,2.8-1.3,4.4s-0.9,3-1.5,4.4c-0.3,0.7-0.7,1.3-1,2c-0.3,0.7-0.8,1.3-1.3,1.9c-1,1.2-2.2,2.2-3.5,2.9s-2.6,1-4,1
		c-0.4,0-0.8,0-1.3-0.1s-0.8-0.1-1.3-0.1c-0.1-0.1-0.3-0.1-0.4,0c-0.2,0.1-0.5,0.1-0.7,0.1c-0.3,0-0.5-0.1-0.7-0.2
		c-0.8-0.2-1.5-0.5-2.2-0.8c-0.7-0.3-1.4-0.7-2-1.2c-0.5-0.4-1-0.8-1.6-1.2c-0.5-0.4-1-0.9-1.3-1.4c-0.1-0.2-0.2-0.4-0.3-0.5
		c-0.1-0.2-0.1-0.4,0-0.6c-0.2-0.1-0.4-0.3-0.6-0.5c-0.2-0.2-0.2-0.5,0-0.8c0.1-0.1,0.1-0.2,0-0.4c-0.1-0.2-0.1-0.3-0.2-0.5
		c0-0.1,0-0.2-0.1-0.4c-0.1-0.1-0.1-0.3,0-0.4c0-0.5-0.1-1-0.2-1.5c-0.1-0.5-0.3-1-0.4-1.4c-0.1-0.4,0-0.7,0.1-0.8
		c0.1-0.2,0.2-0.5,0.2-0.7c0-0.2-0.1-0.5-0.2-0.8c0,0.2,0,0.4,0,0.5c0,0.1,0,0.2,0,0.4c-0.2-0.3-0.3-0.6-0.3-0.9
		c0-0.3,0-0.6,0.1-0.9c0-0.6,0.1-1.1,0.1-1.7c0-0.5,0.1-1.1,0.2-1.7c0-0.1,0-0.2,0-0.3c0-0.1,0-0.2-0.1-0.3
		c-0.1-0.1-0.2-0.4-0.1-0.6c0.1-0.6,0.2-1.1,0.3-1.7c0.1-0.6,0.2-1.2,0.4-1.7c0-0.2,0.1-0.4,0.3-0.7c0.1-0.3,0.3-0.6,0.5-0.9
		c0.2-0.3,0.3-0.6,0.5-0.9c0.2-0.3,0.3-0.5,0.3-0.7c-0.3,0-0.5,0-0.8,0.1c-0.2,0.1-0.5,0.1-0.8,0l-0.6,0.1c-0.2,0-0.5-0.1-0.9-0.1
		c-0.4,0-0.8-0.1-1.2-0.2c-0.4-0.1-0.8-0.1-1.2-0.2c-0.4-0.1-0.7-0.2-0.9-0.2c0,0.1-0.3,0.8-0.6,2c-0.4,1.2-0.8,2.7-1.3,4.3
		c-0.1,0.3-0.2,0.6-0.4,1.1s-0.3,0.8-0.4,1.2c-0.1,0.4-0.3,0.9-0.5,1.5c0,0.1-0.1,0.3-0.2,0.5c-0.1,0.2-0.2,0.5-0.3,0.9
		c-0.2,0.3-0.4,0.6-0.5,0.9c-0.2,0.3-0.3,0.6-0.5,0.9c-0.2,0.4-0.5,0.8-0.9,1.2c-0.4,0.4-0.7,0.6-1.2,0.7c-0.1,0-0.2,0.1-0.2,0.1
		c-0.1,0-0.1,0.1-0.2,0.1c0.2-0.6,0.4-1.3,0.6-1.9c0.2-0.7,0.4-1.3,0.6-1.9c0.2-0.6,0.3-1.1,0.5-1.5c0.1-0.4,0.2-0.7,0.2-0.8
		c0.1-0.1,0.2-0.4,0.2-0.7c0.1-0.3,0.1-0.5,0.2-0.6l0.1-0.1c0.3-1.1,0.7-2.1,1-3.1c0.3-1,0.6-1.9,0.8-2.7c0.2-0.8,0.4-1.4,0.6-1.9
		c0.2-0.5,0.3-0.8,0.3-0.9c0-0.1,0-0.2,0.1-0.3c-0.8-0.6-1.3-1-1.6-1.4c-0.6-0.7-1.1-1.6-1.4-2.6c-0.4-1.1-0.5-2.1-0.5-3.1
		c0-1,0.4-1.9,1-2.7c0.6-0.8,1.5-1.2,2.8-1.4c0.2,0,0.5,0,0.9,0.1c0.3,0.1,0.6,0.2,0.8,0.2c0.3,0.1,0.6,0.2,0.8,0.2
		c0.3,0.1,0.5,0.2,0.6,0.4c0.7,0.8,1.2,1.7,1.5,2.7c0,0.1,0.1,0.2,0,0.2c0,0.1,0,0.2,0,0.2c0,0.2-0.1,0.4-0.1,0.6
		c0,0.2,0,0.4-0.1,0.6v0.4c-0.2,0.7-0.4,1.3-0.5,2c-0.2,0.7-0.4,1.3-0.6,2v0.1c0.2,0,0.4,0.1,0.6,0.1c0.2,0,0.3,0,0.5,0.1
		c0.5,0,0.9,0.1,1.3,0.1c0.4,0,0.8-0.1,1.3-0.3c0.2-0.1,0.5-0.3,0.7-0.4c0.2-0.1,0.4-0.2,0.7-0.3c0.7-0.3,1.1-0.7,1.4-1.2
		c0.2-0.3,0.5-0.6,0.8-0.9c0.3-0.3,0.6-0.6,0.9-0.8c0.4-0.4,0.8-0.6,1.4-0.6c0.6,0,1.1,0.1,1.5,0.4c0.3,0.2,0.7,0.4,1.1,0.5
		c0.3,0.2,0.6,0.4,0.8,0.5c0.3,0.1,0.6,0.3,0.8,0.4c0.4,0.2,0.8,0.4,1.2,0.5c0.4,0.2,0.8,0.3,1.2,0.4c0.2,0.1,0.4,0.2,0.5,0.3
		c0.1,0.1,0.3,0.1,0.6,0c0.3,0.3,0.5,0.7,0.5,1c0.1,1.4,0,2.7-0.5,3.9c-0.4,0.9-0.6,1.9-0.8,2.9c-0.1,1-0.2,2-0.3,3
		c0,0.6,0,1.2,0,1.8c0,0.6,0,1.2,0.1,1.8c0.1,0.7,0.2,1.3,0.2,2c0,0.7,0.1,1.3,0.2,2c0,0.3,0.1,0.6,0.1,0.9c0,0.3,0.1,0.6,0.2,0.9
		c0,0.3,0,0.6,0.1,0.7c0.4,1.1,0.8,1.8,1.3,2.3c0.5,0.4,1,0.7,1.6,0.7c0.7,0,1.2-0.2,1.6-0.5c0.4-0.3,0.8-0.8,1.1-1.3
		c0.4-0.7,0.7-1.4,1-2.1c0.3-0.8,0.6-1.4,0.7-2c0.1-0.4,0.3-0.7,0.4-1.1c0.1-0.4,0.2-0.7,0.3-1.1c0.1-0.5,0.3-1,0.5-1.5
		c0.2-0.5,0.3-0.9,0.5-1.4c0.1-0.1,0.2-0.3,0.2-0.4s0.1-0.2,0.2-0.4c0-0.1,0.1-0.3,0.1-0.4c0-0.1,0-0.3,0.1-0.4
		c0-0.2,0.1-0.5,0.1-0.8C387.1,165.6,387.2,165.4,387.4,165.1z M359,151.6c0-0.7-0.2-1.3-0.8-1.7c-0.1-0.1-0.2-0.2-0.3-0.2
		c-0.1-0.1-0.2-0.1-0.3-0.2c-0.3-0.1-0.5-0.1-0.6,0c-0.3,0.2-0.5,0.4-0.6,0.7c-0.2,0.4-0.3,0.8-0.2,1.3c0,0.4,0.1,0.9,0.2,1.3
		c0.1,0.4,0.2,0.6,0.3,0.8c0.2,0.2,0.4,0.5,0.6,0.7c0.2,0.2,0.4,0.4,0.6,0.7c0.4-0.5,0.6-1.1,0.8-1.6
		C358.7,152.8,358.9,152.2,359,151.6z M364.3,179.3v-0.8c-0.1,0-0.2,0.1-0.3,0.1c0,0.1,0.1,0.2,0.1,0.4
		C364.2,179,364.2,179.2,364.3,179.3L364.3,179.3z M364.2,174.9c0.2-0.5,0.3-1,0.1-1.3h-0.2c0,0.2,0,0.5,0,0.7
		C364.2,174.5,364.2,174.7,364.2,174.9z M364.6,177.1c0.1-0.7,0.1-1.2-0.2-1.7c0,0.2,0.1,0.5,0.1,0.8
		C364.4,176.7,364.4,176.9,364.6,177.1z M364.8,164.5c0,0,0.1,0,0.1,0c0,0,0.1,0,0.1,0c0.1-0.4,0.2-0.6,0.3-0.8c0,0-0.1-0.1-0.1-0.1
		c-0.1,0.1-0.2,0.3-0.2,0.4C364.9,164.2,364.9,164.4,364.8,164.5z M365.2,162.3c0,0.1-0.2,0.4-0.4,0.8c0,0,0.1,0.1,0.1,0.1
		c0,0,0.1,0,0.1,0.1c0-0.1,0.1-0.2,0.2-0.2c0.1,0,0.1-0.1,0.2-0.2c0-0.1,0-0.2,0-0.3c0-0.1,0-0.2,0-0.3c0.4,0,0.4-0.2,0.1-0.5h0.1
		c0.2-0.1,0.4-0.2,0.4-0.4c0-0.2,0-0.4,0-0.6c-0.1,0.2-0.2,0.4-0.2,0.5c0,0.1-0.1,0.3-0.2,0.5h-0.1
		C365.2,161.8,365.1,162,365.2,162.3z M366.1,180.9c0-0.1,0-0.2,0-0.2c0-0.1,0-0.2,0-0.2c-0.2-0.2-0.4-0.5-0.5-0.7
		c-0.2-0.2-0.4-0.4-0.6-0.7c-0.1,0.3,0,0.6,0.2,0.8c0.2,0.3,0.2,0.5-0.2,0.7c0.1,0.3,0.2,0.4,0.5,0.3c0.2-0.1,0.4,0,0.5,0.1
		L366.1,180.9z M365.9,179.2c0.1,0.3,0.3,0.4,0.5,0.1c-0.2-0.4-0.3-0.6-0.4-0.8c-0.2-0.3-0.3-0.7-0.3-1.1v-1.9
		c-0.2,0.4-0.4,0.7-0.4,0.9c0,0.1-0.1,0.2-0.1,0.4c0,0.2,0,0.3,0.1,0.3c0.2,0.2,0.3,0.4,0.3,0.5c0,0.2,0.1,0.4,0.1,0.6
		c0,0.3,0.1,0.4,0.4,0.2c0,0.1,0,0.2-0.1,0.4C365.8,179,365.8,179.1,365.9,179.2z M366.5,168.1c0-0.4,0.1-0.7,0.4-1
		c-0.3-0.1-0.4-0.1-0.5-0.1l-0.2,0.8h-0.4v1.2C366.2,168.8,366.5,168.5,366.5,168.1z M366.2,164.1c-0.4,0-0.5,0.1-0.4,0.4
		c0.1-0.1,0.2-0.2,0.2-0.2C366,164.3,366.1,164.2,366.2,164.1z M368.3,162.4c0-0.5,0.1-0.9,0.1-1.3c0-0.4,0.1-0.8,0.1-1.2
		c-0.4,0.2-0.6,0.5-0.7,0.8c0,0.3-0.1,0.7-0.2,1.1v0.1c-0.2,0.2-0.4,0.4-0.5,0.7c-0.1,0.3-0.2,0.5-0.2,0.7c0,0,0,0.1,0.1,0.1h0.1
		c-0.1,0.3-0.2,0.6-0.3,0.8c-0.1,0.3-0.2,0.5-0.3,0.7c-0.3,0-0.5,0.2-0.5,0.4c0,0.2,0,0.4-0.1,0.7c0.4-0.1,0.6-0.2,0.7-0.4
		c0.1-0.1,0.2-0.4,0.1-0.8c0.2-0.1,0.5-0.2,1-0.4c0-0.2,0.1-0.4,0.1-0.4c0,0,0-0.1-0.1-0.2c0.2-0.4,0.3-0.7,0.4-0.8
		c-0.2-0.1-0.3-0.2-0.3-0.5c0-0.2,0-0.4-0.1-0.6h0.1h-0.1c0.1,0.1,0.2,0.2,0.3,0.2C368,162.3,368.1,162.4,368.3,162.4z M367.4,166.3
		c0.2-0.2,0.3-0.4,0.3-0.5c0-0.1,0-0.3-0.1-0.6c-0.3,0.3-0.5,0.5-0.6,0.7C367.2,165.9,367.3,166.1,367.4,166.3z M370.1,162.2
		L370.1,162.2c-0.1,0-0.1,0.1-0.1,0.2s0,0.2-0.1,0.2h0.2V162.2z"/>
	<path d="M412.6,165.1c0.3,0.5,0.6,1.1,0.8,1.6c0.2,0.6,0.4,1.1,0.5,1.7c0,0.1,0,0.4-0.1,0.6c-0.3,0.8-0.6,1.6-0.9,2.5
		c-0.3,0.9-0.5,1.8-0.7,2.6c0,0.2-0.2,0.5-0.4,1c-0.2,0.5-0.5,1-0.7,1.6c-0.3,0.6-0.6,1.1-0.9,1.7c-0.3,0.6-0.7,1.1-1,1.4
		c-0.6,0.8-1.3,1.5-2,2.2c-0.8,0.7-1.6,1.4-2.5,1.9c-0.8,0.5-1.8,0.9-2.8,1.2c-1,0.3-2,0.5-3,0.5c-0.7,0-1.2,0-1.7,0
		c-0.5,0.1-1,0.1-1.7,0c-0.5,0-1.1-0.2-1.9-0.3c-0.7-0.2-1.4-0.3-1.9-0.4c-0.7-0.3-1.4-0.5-2-0.6c-0.2-0.1-0.5-0.3-0.7-0.5
		c-0.2-0.2-0.4-0.4-0.6-0.6s-0.3-0.4-0.6-0.6c-0.3-0.2-0.5-0.3-0.7-0.5c-0.4-0.2-0.7-0.5-1-0.8c-0.3-0.3-0.5-0.7-0.6-1.1
		c0-0.1-0.1-0.2-0.2-0.3c-0.1-0.1-0.2-0.2-0.3-0.3c-0.4-0.4-0.7-0.9-0.9-1.3c-0.2-0.5-0.4-1-0.6-1.5c-0.2-0.4-0.4-0.9-0.5-1.3
		c-0.1-0.4-0.3-0.9-0.5-1.3c-0.2-0.5-0.3-0.9-0.3-1.4c0-0.5,0-0.9,0-1.4c0-0.4,0-0.8,0-1.2c0-0.4,0-0.8,0-1.2c0-0.2,0-0.4,0-0.5
		c0-0.2,0-0.3,0-0.5c0-0.2,0-0.5,0-0.7s0-0.4,0.1-0.7c0.1-0.5,0.2-0.9,0.3-1.4c0.1-0.5,0.3-1,0.5-1.5c0.4-1,0.8-2,1.2-2.9
		c0.4-1,1-1.9,1.7-2.8c0.3-0.3,0.5-0.7,0.7-1s0.4-0.7,0.7-1.1c0.2-0.4,0.5-0.7,0.8-1c0.3-0.3,0.7-0.5,1-0.8c0.4-0.3,0.8-0.6,1.2-0.9
		c0.4-0.3,0.8-0.5,1.2-0.8c0.1-0.1,0.3-0.2,0.6-0.3c0.6-0.2,1.1-0.4,1.7-0.6c0.6-0.2,1.2-0.4,1.8-0.5c0.2-0.1,0.5-0.1,0.8-0.1
		c0.3,0,0.6,0,0.9,0c1.1-0.1,2.3-0.1,3.5,0.1c0.6,0.1,1.2,0.4,1.7,0.8c0.5,0.5,1.1,0.9,1.6,1.2c0.3,0.3,0.6,0.6,0.7,0.9
		c0.1,0.3,0.2,0.7,0.2,1.1c0.1,0.8,0.1,1.6,0,2.5c0,0.3-0.1,0.6-0.2,0.9c-0.2,0.7-0.5,1.3-0.8,1.8c-0.3,0.6-0.7,1.1-1.1,1.7
		c-0.2,0.4-0.5,0.7-0.8,1.1c-0.3,0.4-0.6,0.7-1,1c-0.4,0.4-0.8,0.8-1.1,1.1c-0.4,0.4-0.8,0.7-1.3,0.9c-0.6,0.7-1.2,1.2-2,1.6
		s-1.5,0.9-2.2,1.4c-0.1,0.1-0.2,0.2-0.4,0.3c-0.1,0.1-0.3,0.2-0.5,0.3c-0.2,0.5-0.2,1.1-0.1,1.6c0.1,0.6,0.2,1.1,0.4,1.7l0.2,0.4
		c-0.1,0.2-0.1,0.4-0.1,0.6c0.1,0.8,0.4,1.4,0.7,1.9c0,0.1,0.1,0.2,0.1,0.2s0,0.2,0.1,0.2c0,0.5,0.1,0.9,0.2,1.3
		c0.1,0.4,0.3,0.9,0.7,1.3c0.8,1.1,1.6,1.9,2.5,2.3c0.8,0.4,1.7,0.6,2.6,0.5c0.9-0.1,1.8-0.4,2.6-0.9s1.7-1.1,2.5-1.9
		c1-1,1.9-2.2,2.7-3.4c0.8-1.2,1.3-2.4,1.7-3.5c0.3-1,0.6-2,0.9-2.9c0.3-0.9,0.4-1.4,0.5-1.6c0.1-0.1,0.2-0.3,0.2-0.4
		c0.1-0.1,0.1-0.2,0.2-0.4c0-0.1,0.1-0.3,0.1-0.5c0-0.2,0-0.3,0.1-0.5c0-0.2,0.1-0.4,0.2-0.7C412.5,165.6,412.5,165.4,412.6,165.1z
		 M387.5,179.4c0.1,0,0.3-0.1,0.5-0.1c-0.2,0-0.5-0.1-0.8-0.2V179c-0.1-0.2-0.1-0.4-0.1-0.6c0,0-0.1,0-0.1,0c0,0-0.1,0-0.1,0
		c0.1,0.1,0.2,0.2,0.2,0.2c0,0.1,0.1,0.2,0.2,0.2v0.1C387.3,179.3,387.3,179.4,387.5,179.4z M389.2,180.5c0.1-0.1,0.2-0.2,0.2-0.2
		c0,0,0.1-0.1,0.1-0.1l-0.1-0.1l-0.1-0.1c-0.2,0.1-0.3,0.2-0.4,0.2C389,180.2,389,180.3,389.2,180.5z M390.3,180.7
		c-0.2,0.7,0,1.1,0.8,1.2c0-0.3-0.1-0.5-0.3-0.6S390.4,180.9,390.3,180.7z M390.6,182.1c0.1,0,0.2,0.1,0.2,0.1c0,0,0.1,0.1,0.2,0.2
		C390.9,182.3,390.8,182.2,390.6,182.1z M391.4,181.2c0-0.2-0.1-0.4-0.2-0.7c-0.1-0.1-0.2-0.2-0.3-0.2l-0.2,0.2
		C390.7,180.8,390.9,181,391.4,181.2z M392.7,156.2c0.1,0.2,0.2,0.4,0.3,0.5c0.1-0.1,0.2-0.3,0.4-0.4c0.1-0.1,0.2-0.2,0.2-0.3
		c0-0.2,0.1-0.4,0.2-0.5c0.1-0.1,0.3-0.2,0.5-0.3c0.1,0,0.2-0.1,0.2-0.2c0-0.1,0.1-0.2,0.2-0.4c-0.2,0.1-0.4,0.2-0.5,0.2
		c-0.1,0-0.2,0.1-0.3,0.1c-0.1,0-0.2,0-0.3-0.1c-0.1,0-0.2,0-0.2,0c-0.2,0.1-0.4,0.3-0.6,0.4c-0.2,0.1-0.3,0.3-0.3,0.6
		c0.1,0,0.3,0,0.4-0.1c0,0-0.1,0.1-0.1,0.1c0,0-0.1,0.1-0.1,0.1c-0.6-0.1-0.9,0-1.1,0.4c0,0.1-0.1,0.2-0.2,0.2
		c-0.1,0-0.2,0.1-0.3,0.2c0,0,0,0.1,0,0.1c0,0,0,0,0,0.1c0,0.1,0,0.2,0,0.2c0,0.1,0.1,0.2,0.1,0.3c0.2-0.3,0.5-0.6,0.7-0.8
		C392,156.5,392.3,156.3,392.7,156.2z M392,157.1c0.1,0,0.3,0,0.4,0c0.1,0,0.2-0.2,0.3-0.4c-0.2,0.1-0.5,0.2-0.8,0.3
		C391.9,157,392,157,392,157.1C392,157,392,157,392,157.1z M393.1,158.6c0,0-0.1,0.1,0,0.1c0,0,0,0.1,0,0.3c0.1-0.2,0.3-0.4,0.4-0.5
		c0,0-0.1-0.1-0.1-0.1C393.2,158.4,393.2,158.5,393.1,158.6z M393.1,160c0.1,0.1,0.2,0.3,0.4,0.4h0.1l0.1-0.8
		c0.3-0.1,0.5-0.1,0.6-0.1c-0.1-0.1-0.3-0.2-0.4-0.3v-0.1h0.1l0.4-0.1c0.1-0.2,0.2-0.4,0.3-0.5c0.1-0.1,0.2-0.3,0.3-0.4
		c0.1-0.2,0.3-0.5,0.5-0.8c0,0-0.1-0.1-0.2-0.1c-0.2,0.3-0.4,0.7-0.6,1c-0.2,0.3-0.4,0.7-0.6,1h-0.1v0.1l-0.2,0.4
		c-0.1,0.1-0.2,0.2-0.3,0.2C393.3,159.9,393.2,160,393.1,160z M395.6,155.2c-0.4,0.3-0.7,0.6-1,1c-0.3,0.4-0.5,0.7-0.7,1.1h-0.1v0.1
		c-0.1,0.1-0.2,0.3-0.3,0.5c-0.1,0.2-0.2,0.4-0.1,0.7c0.4-0.5,0.5-0.8,0.4-1.1c0,0,0-0.1,0.1-0.1c0.3,0,0.5-0.1,0.7-0.2
		c0.2-0.2,0.4-0.3,0.5-0.5c0.2-0.2,0.4-0.5,0.5-0.7c0.1-0.2,0.3-0.5,0.4-0.7h-0.1C395.8,155.1,395.7,155.1,395.6,155.2z M396.5,158
		c-0.2,0.5-0.5,0.9-0.7,1.4c-0.2,0.4-0.4,0.9-0.7,1.4c-0.1,0.4-0.3,0.7-0.4,1c-0.1,0.3-0.3,0.6-0.4,1c-0.1,0.5-0.2,1-0.2,1.4
		c0,0.5-0.1,1-0.2,1.5c0.3-0.2,0.5-0.4,0.8-0.5c0.2-0.1,0.5-0.3,0.7-0.4c0.7-0.3,1.3-0.6,1.8-1.1c0.6-0.4,1.1-0.8,1.6-1.3
		c0.6-0.5,1.2-1.1,1.8-1.7c0.6-0.6,0.9-1.3,1-2.1c0.2-0.3,0.4-0.7,0.4-1.1c0-0.4,0.1-0.8,0.1-1.1c0.1-1-0.3-1.7-1.3-2.2
		c-0.8-0.3-1.4-0.1-1.9,0.4c0,0.1-0.1,0.2-0.3,0.4c-0.5,0.4-1,0.8-1.4,1.2C397.2,157,396.8,157.5,396.5,158z"/>
	<path d="M429,178.6c0.2,0.2,0.3,0.4,0.2,0.6c-0.1,0.2-0.1,0.4-0.1,0.6c0,0.2,0.1,0.5,0.1,0.7s0,0.4,0,0.7c0,0.5-0.1,1-0.2,1.6
		s-0.2,1.1-0.5,1.6c-0.1,0.4-0.3,0.8-0.5,1.1c-0.2,0.4-0.3,0.8-0.5,1.1c0,0.1-0.1,0.2-0.2,0.3c-0.1,0.1-0.2,0.2-0.3,0.4
		c-0.4,0.9-1,1.7-1.7,2.4c-0.7,0.7-1.4,1.4-2.2,2.1c0,0-0.1,0.1-0.1,0.1c0,0-0.1,0.1-0.1,0.1c-0.1,0.3-0.3,0.5-0.5,0.6
		c-0.3,0.1-0.5,0.2-0.8,0.3c-0.2,0.1-0.4,0.2-0.6,0.2c-0.2,0.1-0.4,0.2-0.6,0.3c-0.5,0.4-1.1,0.6-1.6,0.8c-0.6,0.1-1.2,0.3-1.8,0.4
		c-0.1,0-0.3,0.1-0.4,0.1c-0.1,0-0.3,0-0.4,0.1c-0.6,0.2-1.3,0.2-2.1,0c-0.1,0-0.2-0.1-0.3-0.1c-0.1,0-0.2-0.1-0.3-0.1
		c-0.5,0.1-0.9,0-1.3-0.2c-0.4-0.2-0.8-0.4-1.1-0.7c-0.4-0.2-0.7-0.4-1.1-0.5c-0.4-0.1-0.6-0.4-0.8-0.8c-0.2-0.4-0.4-0.8-0.8-1.1
		c-0.3-0.3-0.6-0.6-0.8-1c-0.1-0.3-0.2-0.6-0.2-0.8c0-0.3-0.1-0.6-0.2-0.8c0.1-0.1,0.1-0.2,0-0.2c-0.1-0.1-0.2-0.2-0.1-0.3
		c0.1-0.1,0.1-0.2,0.1-0.4c0-0.1,0-0.3,0-0.4c0-0.5,0.1-1,0.1-1.5c0-0.5,0.1-1,0.2-1.5c0-0.2,0.2-0.5,0.4-0.9
		c-0.1,0.1-0.3,0.2-0.4,0.2c-0.1,0-0.3,0.1-0.5,0.2c0.3-0.6,0.6-1.2,0.8-1.7c0.3-0.5,0.6-1,1-1.5c0.5-0.6,1-1.1,1.6-1.6
		c0.5-0.5,1.1-1,1.8-1.4c0.4-0.2,0.7-0.5,1-0.8c0.3-0.3,0.6-0.6,1-0.9c-0.2-0.4-0.5-0.8-0.7-1.2c-0.3-0.4-0.5-0.8-0.7-1.2
		c-0.9-1.4-1.8-2.8-2.4-4.3c-0.7-1.5-1.3-3-1.8-4.5c-1.3-3.6-0.9-7.1,1.1-10.5c0.1-0.1,0.2-0.3,0.4-0.4c0.1-0.1,0.3-0.2,0.4-0.4
		c0.1-0.1,0.2-0.2,0.3-0.2c0.1-0.1,0.1-0.2,0.1-0.2c0-0.1,0-0.3,0.1-0.4c0.1-0.1,0.2-0.2,0.3-0.3c0.2-0.4,0.5-0.7,0.9-0.9
		c0.4-0.2,0.7-0.5,0.9-0.8c0,0,0.2-0.1,0.4-0.1c-0.3,0.4-0.5,0.7-0.6,0.8c0,0,0,0.1,0,0.1c0,0,0,0,0,0.1c0.2-0.2,0.5-0.4,0.7-0.6
		c0.2-0.2,0.5-0.4,0.7-0.6c0.2-0.2,0.5-0.5,0.7-0.7c0.2-0.2,0.5-0.4,0.7-0.6c0.5-0.3,1-0.6,1.5-0.8s1-0.5,1.7-0.6
		c0.4-0.1,0.7-0.2,1.1-0.2c0.4,0,0.7-0.1,1.1-0.1c0.8,0,1.7,0,2.5,0.2c0.1,0,0.2,0,0.3,0.1c0.3,0.2,0.6,0.4,1,0.6
		c0.3,0.2,0.6,0.4,1,0.6c0.4,0.3,0.7,0.6,1,1c0.2,0.4,0.4,0.8,0.5,1.3c0.1,0.2,0.2,0.4,0.2,0.6c0,0.2,0.1,0.4,0.2,0.6
		c0.1,0.3,0.1,0.6,0.1,0.8c0,0.3-0.1,0.5-0.2,0.7c-0.1,0.5-0.4,0.7-0.8,0.7c-0.2,0-0.4,0-0.5,0.1c-0.1,0.1-0.3,0.2-0.5,0.2
		c0-0.5,0-1-0.1-1.5c-0.1-0.5-0.2-1-0.4-1.5c-0.1-0.4-0.3-0.6-0.5-0.8c-0.3-0.2-0.5-0.3-0.8-0.5c-0.1-0.1-0.3-0.1-0.4,0
		c-0.4,0.1-0.7,0.2-1.1,0.3c-0.3,0.1-0.6,0.3-0.9,0.6c0.3,0.1,0.4,0.4,0.1,0.8c0,0,0,0.1-0.1,0c-0.1,0-0.2,0-0.2,0
		c-0.1,0.3-0.2,0.6-0.2,1c0,0.3-0.1,0.6-0.2,1v0.4l0.6,3.4c0,0.2,0.1,0.5,0.2,0.8c0.1,0.3,0.1,0.5,0.1,0.8c0,0.8,0.2,1.5,0.5,2.1
		c0.4,0.8,0.7,1.6,1.1,2.4c0.3,0.8,0.7,1.7,1.1,2.5c0.1,0.3,0.3,0.7,0.5,1c0.2,0.3,0.4,0.7,0.6,1.1c-0.1,0.2,0,0.5,0.3,0.8
		c0.1,0.1,0.2,0.2,0.3,0.3c0.1,0.1,0.2,0.2,0.3,0.4v0.1c0.1,0.5,0.3,0.9,0.4,1.4c0.1,0.5,0.3,0.9,0.5,1.4c0.1,0.2,0.2,0.3,0.3,0.4
		c0.1,0.5,0.3,0.9,0.4,1.3c0.1,0.4,0.3,0.8,0.4,1.3c0,0.1,0.1,0.3,0.1,0.4c0,0.1,0.1,0.2,0.1,0.4c0.3,0.5,0.5,1.1,0.5,1.8V178.6z
		 M408.7,188.6c0.1,0.5,0.1,0.8,0.1,1c0.1,0,0.2-0.1,0.2-0.1c0.1,0,0.2,0,0.2-0.1c-0.1-0.1-0.2-0.2-0.2-0.4
		C409.2,188.7,409,188.6,408.7,188.6z M410.3,191.6l0.1-0.4c-0.4-0.1-0.6-0.1-0.8-0.1l-0.1-0.1c0-0.1,0-0.3-0.1-0.4
		c0-0.1-0.2-0.2-0.4-0.2c0.2,0.2,0.4,0.4,0.5,0.6v0.1h0.1c0.1,0.1,0.2,0.2,0.3,0.3C410,191.4,410.2,191.5,410.3,191.6z M409.7,189.7
		c0,0.2,0,0.3,0,0.4h0L409.7,189.7C409.7,189.6,409.7,189.7,409.7,189.7z M410.7,157.6c0.4-0.3,0.7-0.6,0.9-0.8
		c0.2-0.3,0.3-0.6,0.4-1c0-0.1-0.1-0.2-0.2-0.2c-0.1,0-0.2-0.1-0.2-0.2c0,0.1-0.1,0.2-0.1,0.2c0,0-0.1,0.1-0.1,0.2
		c-0.1-0.1-0.2-0.2-0.2-0.3v0.3c0.1,0.2,0.1,0.4,0.1,0.6c0,0.2-0.1,0.4-0.4,0.5C410.7,157.1,410.7,157.3,410.7,157.6z M416.7,186
		c0.1-1.2,0.1-2.3,0-3.5c-0.2-1.1-0.4-2.3-0.8-3.5c-0.4,0.3-0.7,0.6-1,0.8c-0.3,0.3-0.6,0.5-0.9,0.8c-0.3,0.2-0.5,0.5-0.8,0.7
		c-0.2,0.2-0.4,0.5-0.5,0.8c0,0.1-0.1,0.2-0.2,0.3c-0.1,0.1-0.2,0.2-0.2,0.3c-0.3,0.3-0.5,0.7-0.7,1c-0.2,0.4-0.3,0.7-0.3,1.2
		c0,0.2,0,0.4,0,0.6c0,0.2-0.1,0.4-0.1,0.6c-0.1,1.1,0.1,2.1,0.7,3c0.2,0.4,0.5,0.6,0.9,0.6c0.8,0.1,1.6,0,2.3-0.4
		c0.5-0.3,0.8-0.7,1-1.3c0.1-0.4,0.2-0.7,0.4-1.1C416.5,186.8,416.6,186.4,416.7,186z M411.6,153.4c0.2,0,0.4-0.1,0.4-0.2
		c0-0.1,0-0.2,0.1-0.4c-0.2,0-0.4,0.1-0.4,0.3C411.8,153.2,411.7,153.3,411.6,153.4l-0.1,0.8c-0.2,0.1-0.3,0.2-0.3,0.4
		s0,0.3-0.1,0.5c0.1-0.1,0.3-0.2,0.3-0.2c0.1,0,0.2-0.1,0.2-0.1c0-0.1-0.1-0.3-0.2-0.5C411.9,154,411.9,153.7,411.6,153.4z
		 M412.7,152.8c-0.2,0.2-0.3,0.4-0.4,0.6c-0.1,0.2-0.2,0.4-0.2,0.7C412.8,153.7,413,153.3,412.7,152.8z M412.5,158.1
		c0-0.3,0-0.7,0.1-1.1c-0.1,0.1-0.3,0.3-0.4,0.5S412.2,157.8,412.5,158.1z M413.9,153.8c0.1-0.2,0.2-0.5,0.2-0.7
		c0.1-0.2,0.2-0.5,0.2-0.7c-0.7-0.1-1-0.1-1.1,0.1c-0.1,0.4-0.2,0.7-0.3,1c-0.1,0.3-0.2,0.6-0.3,1c0.1,0,0.2,0,0.2-0.1
		c0.1,0,0.1-0.1,0.2-0.1c0.2,0.1,0.4,0.1,0.5-0.1C413.7,154.2,413.8,154,413.9,153.8z M415,157.3c0,0.1-0.1,0.2-0.1,0.3
		c0,0.1-0.1,0.2-0.1,0.4c0.2-0.1,0.4-0.3,0.7-0.5C415.3,157.4,415.1,157.4,415,157.3z"/>
</g>
</svg>
