<svg xmlns="http://www.w3.org/2000/svg" viewBox="0 0 204 212"><style type="text/css">  
	.st0{fill:none;stroke:#000000;stroke-miterlimit:10;}
</style><path class="st0" d="M109.8 109.3c0 0-1.2 4.4 0.9 7.4 2.1 3 6.6 3.4 6.6 3.4s1.2-4.4-0.9-7.4C114.3 109.7 109.8 109.3 109.8 109.3z"/><path class="st0" d="M110.3 21.5c-2.5 2.7-1.9 7.2-1.9 7.2s4.6 0.2 7-2.4c1.8-1.9 2-4.7 1.9-6.2 -1.2-0.2-2.3-0.4-3.5-0.5C112.6 19.9 111.2 20.5 110.3 21.5z"/><path class="st0" d="M112.8 70.9c0 0-0.3 4.6 2.4 7 2.6 2.5 7.2 1.9 7.2 1.9s0.3-4.6-2.4-7C117.4 70.4 112.8 70.9 112.8 70.9z"/><path class="st0" d="M122.4 88.5c0 0-4.2-1.8-7.4-0.1 -3.2 1.6-4.2 6.1-4.2 6.1s4.2 1.8 7.4 0.1C121.4 93 122.4 88.5 122.4 88.5z"/><path class="st0" d="M62.9 70.2c0 0 4.5-0.6 6.5-3.6 1.9-3 0.6-7.4 0.6-7.4s-4.5 0.6-6.5 3.6C61.5 65.8 62.9 70.2 62.9 70.2z"/><path class="st0" d="M55.4 39.3c-1.9 3-0.6 7.4-0.6 7.4s4.5-0.6 6.5-3.6c1.9-3 0.6-7.4 0.6-7.4S57.4 36.2 55.4 39.3z"/><path class="st0" d="M94 47.3c-1.9-3-6.5-3.6-6.5-3.6s-1.4 4.4 0.6 7.4c1.9 3 6.5 3.6 6.5 3.6S96 50.4 94 47.3z"/><path class="st0" d="M125.2 28.7c0 0-1.4 4.4 0.6 7.4 1.9 3 6.5 3.6 6.5 3.6s1.4-4.4-0.6-7.4C129.7 29.3 125.2 28.7 125.2 28.7z"/><path class="st0" d="M71.4 32.4c-1.9 3-0.6 7.4-0.6 7.4s4.5-0.6 6.5-3.6c1.9-3 0.6-7.4 0.6-7.4S73.3 29.3 71.4 32.4z"/><path class="st0" d="M159.1 56.2c3.1-1.9 3.8-6.4 3.8-6.4s-4.3-1.5-7.4 0.4c-3.1 1.9-3.8 6.4-3.8 6.4S156 58 159.1 56.2z"/><path class="st0" d="M142.7 102.8c0 0 1.2 4.4 4.4 5.9 3.3 1.5 7.4-0.4 7.4-0.4s-1.2-4.4-4.4-5.9C146.9 100.8 142.7 102.8 142.7 102.8z"/><path class="st0" d="M153.4 78.6c-2.1-2.9-6.7-3.2-6.7-3.2s-1.1 4.4 1 7.3c2.1 2.9 6.7 3.2 6.7 3.2S155.6 81.5 153.4 78.6z"/><path class="st0" d="M180.6 107.9c0 0-0.2 4.6 2.4 7 2.6 2.5 7.2 1.9 7.2 1.9s0.2-4.6-2.4-7C185.1 107.4 180.6 107.9 180.6 107.9z"/><path class="st0" d="M133.2 59.2c0 0-1.4 4.4 0.6 7.4 1.9 3 6.5 3.6 6.5 3.6s1.4-4.4-0.6-7.4C137.7 59.8 133.2 59.2 133.2 59.2z"/><path class="st0" d="M160.8 104.4c0 0 4.6-0.1 6.8-2.9 2.3-2.8 1.4-7.3 1.4-7.3s-4.6 0.1-6.8 2.9C159.9 100 160.8 104.4 160.8 104.4z"/><path class="st0" d="M141.1 35.6c0 0-1.4 4.4 0.6 7.4 1.9 3 6.5 3.6 6.5 3.6s1.4-4.4-0.6-7.4C145.7 36.2 141.1 35.6 141.1 35.6z"/><path class="st0" d="M174.7 83.7c0 0-0.5-4.5-3.6-6.5 -3-2-7.4-0.6-7.4-0.6s0.5 4.5 3.6 6.5C170.3 85 174.7 83.7 174.7 83.7z"/><path class="st0" d="M83.1 72.8c-2.6 2.5-2.4 7-2.4 7s4.5 0.5 7.2-1.9c2.6-2.5 2.4-7 2.4-7S85.7 70.4 83.1 72.8z"/><path class="st0" d="M101.7 58.4c0 0-2.6 3.8-1.6 7.2 1 3.5 5.1 5.3 5.1 5.3s2.6-3.8 1.6-7.2C105.9 60.3 101.7 58.4 101.7 58.4z"/><path class="st0" d="M102.6 95.5c0 0-0.8-4.5-3.9-6.3 -3.1-1.8-7.4-0.3-7.4-0.3s0.8 4.5 3.9 6.3C98.3 97.1 102.6 95.5 102.6 95.5z"/><path class="st0" d="M92.4 116.7c2.1-3 0.9-7.4 0.9-7.4s-4.5 0.4-6.6 3.4c-2.1 3-0.9 7.4-0.9 7.4S90.3 119.6 92.4 116.7z"/><path class="st0" d="M68.6 119.9c3.1 1.8 7.4 0.3 7.4 0.3s-0.7-4.5-3.9-6.3c-3.1-1.8-7.4-0.3-7.4-0.3S65.5 118.1 68.6 119.9z"/><path class="st0" d="M69.6 88.9c-2.7-2.4-7.2-1.7-7.2-1.7s-0.1 4.6 2.6 7c2.7 2.4 7.2 1.7 7.2 1.7S72.3 91.3 69.6 88.9z"/><path class="st0" d="M140.7 87.2c0 0-4.5-0.7-7.2 1.7 -2.7 2.4-2.6 7-2.6 7s4.5 0.7 7.2-1.7C140.8 91.7 140.7 87.2 140.7 87.2z"/><path class="st0" d="M181 146.7c0 0 1.6-4.3-0.2-7.4 -1.8-3.1-6.3-3.9-6.3-3.9s-1.6 4.3 0.2 7.4C176.5 145.9 181 146.7 181 146.7z"/><path class="st0" d="M168.2 127.4c0 0 4.4 1.4 7.4-0.6 3-2 3.6-6.5 3.6-6.5s-4.4-1.4-7.4 0.6C168.8 122.9 168.2 127.4 168.2 127.4z"/><path class="st0" d="M130.9 113.9c-3.1 1.8-3.9 6.3-3.9 6.3s4.3 1.5 7.4-0.3c3.1-1.8 3.9-6.3 3.9-6.3S134 112 130.9 113.9z"/><path class="st0" d="M48.5 108.3c0 0 4.1 1.9 7.4 0.4 3.3-1.5 4.4-5.9 4.4-5.9s-4.1-1.9-7.4-0.4C49.7 103.9 48.5 108.3 48.5 108.3z"/><path class="st0" d="M35.8 83c3-2 3.6-6.5 3.6-6.5s-4.4-1.3-7.4 0.6c-3 2-3.6 6.5-3.6 6.5S32.7 85 35.8 83z"/><path class="st0" d="M47.6 50.2c-3.1-1.9-7.4-0.4-7.4-0.4s0.7 4.5 3.8 6.4c3.1 1.9 7.4 0.4 7.4 0.4S50.6 52 47.6 50.2z"/><path class="st0" d="M42.2 104.4c0 0 0.9-4.5-1.4-7.3 -2.3-2.8-6.8-2.9-6.8-2.9s-0.9 4.5 1.4 7.3C37.7 104.3 42.2 104.4 42.2 104.4z"/><path class="st0" d="M49.6 78.6c-2.1 2.9-1 7.3-1 7.3s4.6-0.3 6.7-3.2c2.1-2.9 1-7.3 1-7.3S51.8 75.7 49.6 78.6z"/><path class="st0" d="M107.9 150.5c9.3-5.2 21.7-11.7 31.4-16 4.1-1.8 9.1-3.3 13.4-5.4 6.1 1.1 12.1 2.4 18.2 3.6 5.8 1.2 12 3 18 3.5 0.2-0.5 0.3-1.1 0.5-1.6 -5.3-1.8-11-2.6-16.3-4.1 -5.2-1.4-10.4-3-15.7-4.4 6.4-5.1 12-11.2 17-17.7 0.1-0.1 0.2-0.3 0.3-0.5 0 0 0.1 0 0.1 0 5.7-0.9 12-1 17.9-1.8 -0.1-1.3-0.1-2.6-0.2-3.8 -4.9 0.3-9.8 0.8-14.6 1.3 3.2-4.7 6-9.6 8.5-14.6 0.8-1.6 1.7-3.4 2.6-5.2 -0.5-1.7-1-3.3-1.6-4.9 -1.2 2.9-2.4 5.7-3.9 8.4 -1 1.9-2.1 3.7-3.2 5.5 -0.2-2.1-0.4-4.1-0.6-6.2 -0.6-6.7-0.3-14.1-2.4-20.5 -0.1-0.4-0.8-0.5-0.9 0 -1.3 6-0.3 12.6 0 18.7 0.2 4.3 0.4 8.7 0.6 13 -2.1 3.2-4.4 6.2-6.8 9.2 -2.4 3-5 6-7.7 8.8 -1.7-5.3-3.2-10.7-4.5-16.1 -0.3-1.3-0.6-2.7-0.9-4 0.3 1.5 0.4-1 0.6-1.9 2.2-9.1 4.9-19.8 2.9-29.1 -0.1-0.5-0.8-0.3-0.9 0.1 -1.3 10-3.3 19.8-5.8 29.5 -0.5 1.9-0.1 3.2 0.3 5.2 1.5 6.6 3 13.2 4.6 19.7 0 0 0 0 0 0.1 -1.6 1.5-3.3 2.9-5.1 4.2 -4.9 3.6-12.4 5.4-17.9 7.9 -7.4 3.2-15.1 6.3-22.4 9.8 3-5.8 5.9-11.6 8.9-17.4 2.9-5.7 5.8-11.5 8.7-17.3 1.7-3.3-0.6-10.5-1-14 -0.1-0.8-0.2-1.6-0.3-2.4 1.5-1.3 2.6-3.1 3.9-4.5 2.4-2.8 4.9-5.5 7.3-8.2 2.1-2.5 3.4-3.8 4.4-6.9 2.1-6.7 4.2-13.3 6.2-20 1.3-4.4 3-9.1 4.2-13.8 -0.9-0.7-1.9-1.4-2.8-2 -1.4 4.4-2.5 9-4 13.3 -2.2 6.6-4.5 13.2-6.9 19.8 -0.4 1.2-0.9 2.4-1.3 3.6 -0.1 0.1-0.2 0.2-0.3 0.3 -0.8 0.8-1.7 1.7-2.5 2.5 -2.6 2.6-5.2 5.2-7.7 7.9 -0.4 0.4-0.8 0.8-1.2 1.1 -0.7-6.1-1.3-12.3-2-18.4 0-0.1 0.1-0.1 0.1-0.2 2.3-6.4 4.9-12.6 7.1-19 1.7-4.9 4-9.9 4.1-15.2 0-0.4-0.5-0.4-0.6-0.1 -3.5 8.7-8 17.1-11.7 25.7 -0.9-8.7-1.9-17.4-2.9-26.1 -0.2-1.4-0.4-2.7-0.7-4.1 -0.1-0.6-1-0.4-1.1 0.1 -0.7 9.1 0.4 18.3 1 27.4 0.2 3.4 0.5 6.8 0.7 10.2 -0.1 0.5-0.1 0.9 0.1 1.3 0.5 7.3 1 14.7 1.6 22 0.1 0.8 0.1 1.6 0.2 2.3 0 0.1 0 0.3 0 0.4 0.4 4.9 0.8 9.9 1.2 14.8 0 0 0 0.1 0 0.1 -0.5 1-1 2-1.6 3 -2 3.7-4 7.5-5.9 11.2 -4.1 7.8-8.1 15.7-12.1 23.5 -0.6 1.1-1 2-1.2 2.9h-0.9c1.5-17.3 3.3-34.5 5-51.8 0.1-1.3-1.2-3.4-1.7-4.5 -1.2-2.7-2.3-5.3-3.5-8 2-3.2 4.1-6.4 6.1-9.6 0.8-1.3 1.7-2.3 1.8-3.9 0.5-6.6 2-13.2 2.5-19.8 0-0.4-0.5-0.6-0.7-0.3 -3.5 4.5-4.2 11.3-5 16.8 -0.1 0.9-0.2 1.8-0.3 2.7 0 0.2 0 0.4 0 0.5 -0.1 0-0.1 0.1-0.3 0.3 -1.9 2.9-3.9 5.9-6.1 8.7 -1.8-4-3.5-8.1-5.3-12.1 4.2-8.1 8.9-16.1 12.5-24.4 1.4-3.2-1.9-9.2-2.7-12.3 -0.7-2.9-1.4-5.7-2.1-8.6 -1 0-2-0.1-3-0.1 -0.2 0-0.4 0-0.6 0 0.7 3.2 1.4 6.4 2.2 9.6 0.7 3.2 1.1 6.3 1.7 9.5 0 0 0 0.1 0 0.1 -0.3 0.6-0.6 1.2-1 1.8 -0.8 1.4-1.5 2.7-2.3 4.1 -2.5-3.2-4.9-6.6-7.2-10 -2-3-1.5-1.4-1.9-5 -0.4-3-0.7-6.3-1.3-9.5 -1.1 0.1-2.3 0.3-3.4 0.4 0.6 3.8 1.1 7.6 1.5 11.4 0.2 1.8 1.1 2.9 2.1 4.5 2.6 4.1 5.3 8.2 8 12.2 -1.8 3.3-3.7 6.5-5.5 9.8 -1.7 3.2-3.6 5.3-2.2 8.8 2.5 6 5.1 12 7.7 18 1.1 2.7 2.3 5.3 3.4 8 0.2 0.5 0.4 0.9 0.6 1.4 0 0.1 0 0.2-0.1 0.4 -0.6 5.5-1.1 11-1.7 16.5 -2.1-3-4.2-5.9-6.3-8.8C91.3 96 88 89.1 83.1 83.9c-0.2-0.2-0.5 0-0.5 0.3 2.1 6.3 6.4 12.1 9.8 17.7 3 4.9 5.9 9.8 8.8 14.7 -0.9 9.5-1.9 19-2.8 28.5h-0.5c-0.1-0.2-0.1-0.4-0.2-0.6 -3.5-6.9-7.1-13.7-10.6-20.6 -3.4-6.5-6.8-13-10.3-19.5 0.1-0.6 0.1-1.2 0.2-1.8 0.3-3.4 0.6-6.8 0.8-10.3 1.5-20.8 3.7-41.7 3.9-62.5 0-1.3-0.1-2.6-0.2-3.9 0-0.6-0.9-0.8-1.1-0.1 -1.7 9.8-2.9 19.7-3.8 29.6 -3.7-8.5-8-16.6-11.4-25.2C65 30 64.5 30 64.5 30.4c0.2 5.3 2.4 10.3 4.1 15.2 2.2 6.3 4.8 12.5 7.1 18.8 -0.6 6.3-1.2 12.6-1.8 18.9 -0.1-0.1-0.1-0.1-0.2-0.2 -2.5-2.7-5.1-5.5-7.8-8.1 -1.3-1.3-2.6-2.6-3.9-3.9 1.3 1.3-0.4-1.5-0.8-2.5 -2.3-6.3-4.5-12.7-6.6-19 -1.6-4.8-2.8-9.8-4.4-14.7 -1 0.7-1.9 1.3-2.9 2 1.2 4.6 2.8 9.2 4.1 13.5 2 6.7 4.1 13.4 6.2 20 1 3.1 2.2 4.4 4.4 6.9 2.4 2.8 4.9 5.5 7.3 8.2 1.3 1.4 2.4 3.3 3.9 4.6 -0.5 4.9-1.1 9.8-1.6 14.7 -0.1 1.1 0.7 2.3 1.1 3.2 1.6 3.2 3.2 6.4 4.8 9.6 3.9 7.8 8 15.6 12 23.5 -7.4-3.5-15-6.5-22.4-9.8 -5.6-2.4-13-4.3-17.9-7.9 -1.8-1.3-3.5-2.7-5.1-4.2 0 0 0 0 0-0.1 1.5-6.2 3-12.3 4.4-18.5 0.4-1.9 1.2-3.9 0.7-5.8 -2.7-9.9-4.6-19.9-6-30 -0.1-0.4-0.7-0.6-0.9-0.1C40.4 73.7 42.9 84 45 92.8c0.3 1.1 0.5 2.2 0.8 3.3 -0.2-0.8-0.3 1-0.6 2.3 -1.4 5.8-2.9 11.6-4.8 17.2 -2.7-2.8-5.3-5.8-7.7-8.8 -2.4-2.9-4.7-6-6.8-9.2 0.2-3.7 0.4-7.5 0.6-11.2 0.3-6.6 1.6-14 0.1-20.5 -0.1-0.5-0.8-0.4-0.9 0 -2 5.8-1.7 12.6-2.3 18.7 -0.2 2.7-0.5 5.3-0.7 8 -0.8-1.3-1.6-2.6-2.3-3.9 -1.7-3-3.1-6.2-4.5-9.4 -0.6 1.6-1.1 3.2-1.6 4.8 0.5 1.1 1.1 2.2 1.6 3.2 2.7 5.6 5.9 11 9.4 16.2 -4.8-0.5-9.5-0.9-14.3-1.3 -0.1 1.1-0.2 2.3-0.2 3.4 5.9 0.7 11.7 1.4 17.5 2.3 0 0 0.1 0 0.1 0 5 6.7 10.7 13 17.3 18.1 -4.7 1.3-9.5 2.7-14.2 4 -5.7 1.6-11.8 2.5-17.4 4.3 0.2 0.6 0.3 1.1 0.5 1.7 5.4-0.5 11-2.1 16.2-3.2 6.6-1.4 13.1-2.7 19.7-3.9 3.9 1.9 8.4 3.3 12.2 4.9 10.1 4.4 22.9 11.1 32.6 16.5 -0.1 0.8-2.3 31-3.6 49.9 3.4 0.4 6.8 0.6 10.2 0.6 3.3 0 6.6-0.2 9.9-0.5C110.3 181.9 108.1 152.4 107.9 150.5z"/><path class="st0" d="M34.9 127.4c0 0-0.6-4.5-3.6-6.5 -3-2-7.4-0.6-7.4-0.6s0.6 4.5 3.6 6.5C30.5 128.8 34.9 127.4 34.9 127.4z"/><path class="st0" d="M28.4 142.7c1.8-3.1 0.2-7.4 0.2-7.4s-4.5 0.8-6.3 3.9c-1.8 3.1-0.2 7.4-0.2 7.4S26.6 145.9 28.4 142.7z"/><path class="st0" d="M20.1 114.9c2.6-2.5 2.4-7 2.4-7s-4.5-0.6-7.2 1.9c-2.6 2.5-2.4 7-2.4 7S17.4 117.4 20.1 114.9z"/></svg>